<svg xmlns="http://www.w3.org/2000/svg" version="1.1" xmlns:xlink="http://www.w3.org/1999/xlink" xmlns:svgjs="http://svgjs.dev/svgjs" width="479.968052" height="145.070343717" viewBox="-2.54 -2.5781 50.8 15.354299999999999"><g font-family="Arial" style="color-scheme: light dark;"><g id="sheet-0" class="sheet" transform="matrix(1,0,0,1,0,0)"><g class="sheet-elements" transform="matrix(1,0,0,1,0,0)"><g transform="matrix(1,0,0,1,0,0)" class="grid"><path d="M -2.54 -2.5781 L -2.54 12.7762 M 0 -2.5781 L 0 12.7762 M 2.54 -2.5781 L 2.54 12.7762 M 5.08 -2.5781 L 5.08 12.7762 M 7.62 -2.5781 L 7.62 12.7762 M 10.16 -2.5781 L 10.16 12.7762 M 12.7 -2.5781 L 12.7 12.7762 M 15.24 -2.5781 L 15.24 12.7762 M 17.78 -2.5781 L 17.78 12.7762 M 20.32 -2.5781 L 20.32 12.7762 M 22.86 -2.5781 L 22.86 12.7762 M 25.4 -2.5781 L 25.4 12.7762 M 27.94 -2.5781 L 27.94 12.7762 M 30.48 -2.5781 L 30.48 12.7762 M 33.02 -2.5781 L 33.02 12.7762 M 35.56 -2.5781 L 35.56 12.7762 M 38.1 -2.5781 L 38.1 12.7762 M 40.64 -2.5781 L 40.64 12.7762 M 43.18 -2.5781 L 43.18 12.7762 M 45.72 -2.5781 L 45.72 12.7762 M 48.26 -2.5781 L 48.26 12.7762" class="grid"></path></g><g transform="matrix(1,0,0,1,3.81,5.08)"><title>line 18:1</title><path d="M 0 1.27 L 0 -1.27" class="graphicLine"></path><path d="M 1.27 0 L 0 0" class="pin"></path><g transform="matrix(0,-1,1,0,-0.481,0)"><text class="text" text-anchor="middle" dominant-baseline="alphabetic" font-size="1.6" font-weight="regular" transform="matrix(1,0,0,1,0,0)" svgjs:data="{&quot;leading&quot;:&quot;1.3&quot;}"><tspan dy="0" x="0" svgjs:data="{&quot;newLined&quot;:true}">5V</tspan></text></g></g><g transform="matrix(1,0,0,1,10.16,5.08)"><title>Component R1: line 20:1</title><path d="M -1.778 -0.762 L 1.778 -0.762 L 1.778 0.762 L -1.778 0.762 Z" class="graphicLine graphicPolygon"></path><path d="M -2.54 0 L -1.778 0" class="pin"></path><path d="M 2.54 0 L 1.778 0" class="pin"></path><g transform="matrix(1,0,0,1,-1.778,-1.37)"><text class="text" text-anchor="start" dominant-baseline="alphabetic" font-size="1.6" font-weight="regular" transform="matrix(1,0,0,1,0,0)" svgjs:data="{&quot;leading&quot;:&quot;1.3&quot;}"><tspan dy="0" x="0" svgjs:data="{&quot;newLined&quot;:true}">R1</tspan></text></g><g transform="matrix(1,0,0,1,0,-0.1)"><text class="text" text-anchor="middle" dominant-baseline="central" font-size="0.96" font-weight="regular" transform="matrix(1,0,0,1,0,0)" svgjs:data="{&quot;leading&quot;:&quot;1.3&quot;}"><tspan dy="0" x="0" svgjs:data="{&quot;newLined&quot;:true}">1k</tspan></text></g></g><g transform="matrix(1,0,0,1,22.86,5.08)"><title>Component J1: line 6:1</title><path d="M -5.08 -2.54 L 5.08 -2.54 L 5.08 2.54 L -5.08 2.54 Z" class="graphicLine graphicPolygon"></path><path d="M -7.62 0 L -5.08 0" class="pin"></path><path d="M 7.62 0 L 5.08 0" class="pin"></path><g transform="matrix(1,0,0,1,-4.572,-0.1)"><text class="pinName" text-anchor="start" dominant-baseline="central" font-size="1.28" font-weight="regular" transform="matrix(1,0,0,1,0,0)" svgjs:data="{&quot;leading&quot;:&quot;1.3&quot;}"><tspan dy="0" x="0" svgjs:data="{&quot;newLined&quot;:true}">A</tspan></text></g><g transform="matrix(1,0,0,1,-5.334,-0.354)"><text class="pinId" text-anchor="end" dominant-baseline="alphabetic" font-size="0.96" font-weight="regular" transform="matrix(1,0,0,1,0,0)" svgjs:data="{&quot;leading&quot;:&quot;1.3&quot;}"><tspan dy="0" x="0" svgjs:data="{&quot;newLined&quot;:true}">1</tspan></text></g><g transform="matrix(1,0,0,1,4.572,-0.1)"><text class="pinName" text-anchor="end" dominant-baseline="central" font-size="1.28" font-weight="regular" transform="matrix(1,0,0,1,0,0)" svgjs:data="{&quot;leading&quot;:&quot;1.3&quot;}"><tspan dy="0" x="0" svgjs:data="{&quot;newLined&quot;:true}">B</tspan></text></g><g transform="matrix(1,0,0,1,5.334,-0.354)"><text class="pinId" text-anchor="start" dominant-baseline="alphabetic" font-size="0.96" font-weight="regular" transform="matrix(1,0,0,1,0,0)" svgjs:data="{&quot;leading&quot;:&quot;1.3&quot;}"><tspan dy="0" x="0" svgjs:data="{&quot;newLined&quot;:true}">2</tspan></text></g><g transform="matrix(1,0,0,1,-5.08,-3.148)"><text class="text" text-anchor="start" dominant-baseline="alphabetic" font-size="1.6" font-weight="regular" transform="matrix(1,0,0,1,0,0)" svgjs:data="{&quot;leading&quot;:&quot;1.3&quot;}"><tspan dy="0" x="0" svgjs:data="{&quot;newLined&quot;:true}">J1</tspan></text></g></g><g transform="matrix(1,0,0,1,35.56,5.08)"><title>Component R2: line 26:1</title><path d="M -1.778 -0.762 L 1.778 -0.762 L 1.778 0.762 L -1.778 0.762 Z" class="graphicLine graphicPolygon"></path><path d="M -2.54 0 L -1.778 0" class="pin"></path><path d="M 2.54 0 L 1.778 0" class="pin"></path><g transform="matrix(1,0,0,1,-1.778,-1.37)"><text class="text" text-anchor="start" dominant-baseline="alphabetic" font-size="1.6" font-weight="regular" transform="matrix(1,0,0,1,0,0)" svgjs:data="{&quot;leading&quot;:&quot;1.3&quot;}"><tspan dy="0" x="0" svgjs:data="{&quot;newLined&quot;:true}">R2</tspan></text></g><g transform="matrix(1,0,0,1,0,-0.1)"><text class="text" text-anchor="middle" dominant-baseline="central" font-size="0.96" font-weight="regular" transform="matrix(1,0,0,1,0,0)" svgjs:data="{&quot;leading&quot;:&quot;1.3&quot;}"><tspan dy="0" x="0" svgjs:data="{&quot;newLined&quot;:true}">1k</tspan></text></g></g><g transform="matrix(1,0,0,1,41.91,5.08)"><title>line 28:4</title><path d="M 0 1.27 L 0 -1.27 L 1.27 0 Z" class="graphicLine graphicPolygon"></path><path d="M -1.27 0 L 0 0" class="pin"></path><g transform="matrix(0,-1,1,0,2.44,0)"><text class="text" text-anchor="middle" dominant-baseline="central" font-size="1.6" font-weight="regular" transform="matrix(1,0,0,1,0,0)" svgjs:data="{&quot;leading&quot;:&quot;1.3&quot;}"><tspan dy="0" x="0" svgjs:data="{&quot;newLined&quot;:true}">GND</tspan></text></g></g><g class="wires-highlight"></g><g class="wires"><path d="M5.08 5.08L7.62 5.08 " class="wire"></path><path d="M12.7 5.08L15.24 5.08 " class="wire"></path><path d="M30.48 5.08L33.02 5.08 " class="wire"></path><path d="M38.1 5.08L40.64 5.08 " class="wire"></path></g><g class="frames"></g></g></g></g><style>:root{--cs-wire-color:rgb(0, 132, 0);--cs-bus-wire-color:rgb(0,0,250);--cs-junction-color:rgb(0, 132, 0);--cs-bus-junction-color:rgb(0,0,250);--cs-line-color:#333;--cs-text-color:#333;--cs-grid-color:#000;--cs-frame-border-color:#111;--cs-body-color:rgb(255, 255, 255);}@media (prefers-color-scheme: dark){:root{--cs-bus-wire-color:rgb(110,110,255);--cs-junction-color:rgb(0, 200, 0);--cs-bus-junction-color:rgb(110,110,255);--cs-grid-color:#888;--cs-frame-border-color:#444;--cs-body-color:rgb(0, 0, 0);--cs-wire-color:rgb(0, 200, 0);--cs-line-color:#ccc;--cs-text-color:#ccc;}}.wire{stroke-width:0.1524px;stroke-linecap:butt;stroke:var(--cs-wire-color);fill:none;}.pin{stroke-width:0.1524px;stroke:var(--cs-line-color);fill:none;}.graphicLine{stroke-width:0.127px;stroke:var(--cs-line-color);fill:none;}.graphicPolygon{fill:var(--cs-body-color);}.pinName{fill:var(--cs-text-color);font-size:1.28px;font-weight:regular;}.pinId{fill:var(--cs-line-color);font-size:0.96px;font-weight:regular;}.grid{stroke:var(--cs-grid-color);stroke-width:0.0762px;stroke-dasharray:0.0762px,2.4638px;}.text{fill:var(--cs-text-color);}text{font-family:Arial;}text tspan{white-space:pre;}</style></svg>