<svg xmlns="http://www.w3.org/2000/svg" version="1.1" xmlns:xlink="http://www.w3.org/1999/xlink" xmlns:svgjs="http://svgjs.dev/svgjs" width="359.976039" height="601.039993117" viewBox="-2.54 -2.5781 38.1 63.6143"><g id="sheet-0" class="sheet" transform="matrix(1,0,0,1,0,0)"><g class="sheet-elements" transform="matrix(1,0,0,1,0,0)"><g transform="matrix(1,0,0,1,0,0)" class="grid"><path d="M -2.54 -2.5781 L -2.54 61.0362 M 0 -2.5781 L 0 61.0362 M 2.54 -2.5781 L 2.54 61.0362 M 5.08 -2.5781 L 5.08 61.0362 M 7.62 -2.5781 L 7.62 61.0362 M 10.16 -2.5781 L 10.16 61.0362 M 12.7 -2.5781 L 12.7 61.0362 M 15.24 -2.5781 L 15.24 61.0362 M 17.78 -2.5781 L 17.78 61.0362 M 20.32 -2.5781 L 20.32 61.0362 M 22.86 -2.5781 L 22.86 61.0362 M 25.4 -2.5781 L 25.4 61.0362 M 27.94 -2.5781 L 27.94 61.0362 M 30.48 -2.5781 L 30.48 61.0362 M 33.02 -2.5781 L 33.02 61.0362 M 35.56 -2.5781 L 35.56 61.0362" stroke-dasharray="0.0762,2.4638" stroke-width="0.0762" stroke="#000000"></path></g><g transform="matrix(1,0,0,1,12.7,3.81)"><g><path d="M -1.27 0 L 1.27 0" stroke-width="0.127" stroke="#333333" fill="none"></path><path d="M 0 1.27 L 0 0" stroke-width="0.1524" stroke="#333333"></path><g transform="matrix(1,0,0,1,0,-0.381)"><text fill="#333333" font-family="Arial" font-size="1.6" text-anchor="middle" dominant-baseline="text-top" font-weight="regular" xml:space="preserve" transform="matrix(1,0,0,1,0,0)" svgjs:data="{&quot;leading&quot;:&quot;1.3&quot;}"><tspan dy="0" x="0" svgjs:data="{&quot;newLined&quot;:true}">VCC</tspan></text></g></g></g><g transform="matrix(1,0,0,1,16.51,29.21)"><g><path d="M -11.43 -16.51 L 11.43 -16.51 L 11.43 16.51 L -11.43 16.51 Z" stroke-width="0.127" stroke="#333333" fill="#ffffff"></path><path d="M -13.97 -6.35 L -11.43 -6.35" stroke-width="0.1524" stroke="#333333"></path><path d="M -13.97 -3.81 L -11.43 -3.81" stroke-width="0.1524" stroke="#333333"></path><path d="M 13.97 -13.97 L 11.43 -13.97" stroke-width="0.1524" stroke="#333333"></path><path d="M 13.97 -11.43 L 11.43 -11.43" stroke-width="0.1524" stroke="#333333"></path><path d="M -6.35 -19.05 L -6.35 -16.51" stroke-width="0.1524" stroke="#333333"></path><path d="M -3.81 -19.05 L -3.81 -16.51" stroke-width="0.1524" stroke="#333333"></path><path d="M -6.35 19.05 L -6.35 16.51" stroke-width="0.1524" stroke="#333333"></path><path d="M -3.81 19.05 L -3.81 16.51" stroke-width="0.1524" stroke="#333333"></path><g transform="matrix(1,0,0,1,-10.922,-6.35)"><text fill="#333333" font-family="Arial" font-size="1.28" text-anchor="start" dominant-baseline="central" font-weight="regular" xml:space="preserve" transform="matrix(1,0,0,1,0,0)" svgjs:data="{&quot;leading&quot;:&quot;1.3&quot;}"><tspan dy="0" x="0" svgjs:data="{&quot;newLined&quot;:true}">1</tspan></text></g><g transform="matrix(1,0,0,1,-11.684,-6.604)"><text fill="#333333" font-family="Arial" font-size="0.96" text-anchor="end" dominant-baseline="text-top" font-weight="regular" xml:space="preserve" transform="matrix(1,0,0,1,0,0)" svgjs:data="{&quot;leading&quot;:&quot;1.3&quot;}"><tspan dy="0" x="0" svgjs:data="{&quot;newLined&quot;:true}">1</tspan></text></g><g transform="matrix(1,0,0,1,-10.922,-3.81)"><text fill="#333333" font-family="Arial" font-size="1.28" text-anchor="start" dominant-baseline="central" font-weight="regular" xml:space="preserve" transform="matrix(1,0,0,1,0,0)" svgjs:data="{&quot;leading&quot;:&quot;1.3&quot;}"><tspan dy="0" x="0" svgjs:data="{&quot;newLined&quot;:true}">2</tspan></text></g><g transform="matrix(1,0,0,1,-11.684,-4.064)"><text fill="#333333" font-family="Arial" font-size="0.96" text-anchor="end" dominant-baseline="text-top" font-weight="regular" xml:space="preserve" transform="matrix(1,0,0,1,0,0)" svgjs:data="{&quot;leading&quot;:&quot;1.3&quot;}"><tspan dy="0" x="0" svgjs:data="{&quot;newLined&quot;:true}">2</tspan></text></g><g transform="matrix(1,0,0,1,10.922,-13.97)"><text fill="#333333" font-family="Arial" font-size="1.28" text-anchor="end" dominant-baseline="central" font-weight="regular" xml:space="preserve" transform="matrix(1,0,0,1,0,0)" svgjs:data="{&quot;leading&quot;:&quot;1.3&quot;}"><tspan dy="0" x="0" svgjs:data="{&quot;newLined&quot;:true}">5</tspan></text></g><g transform="matrix(1,0,0,1,11.684,-14.224)"><text fill="#333333" font-family="Arial" font-size="0.96" text-anchor="start" dominant-baseline="text-top" font-weight="regular" xml:space="preserve" transform="matrix(1,0,0,1,0,0)" svgjs:data="{&quot;leading&quot;:&quot;1.3&quot;}"><tspan dy="0" x="0" svgjs:data="{&quot;newLined&quot;:true}">5</tspan></text></g><g transform="matrix(1,0,0,1,10.922,-11.43)"><text fill="#333333" font-family="Arial" font-size="1.28" text-anchor="end" dominant-baseline="central" font-weight="regular" xml:space="preserve" transform="matrix(1,0,0,1,0,0)" svgjs:data="{&quot;leading&quot;:&quot;1.3&quot;}"><tspan dy="0" x="0" svgjs:data="{&quot;newLined&quot;:true}">6</tspan></text></g><g transform="matrix(1,0,0,1,11.684,-11.684)"><text fill="#333333" font-family="Arial" font-size="0.96" text-anchor="start" dominant-baseline="text-top" font-weight="regular" xml:space="preserve" transform="matrix(1,0,0,1,0,0)" svgjs:data="{&quot;leading&quot;:&quot;1.3&quot;}"><tspan dy="0" x="0" svgjs:data="{&quot;newLined&quot;:true}">6</tspan></text></g><g transform="matrix(1,0,0,1,-6.35,-16.002)"><text fill="#333333" font-family="Arial" font-size="1.28" text-anchor="end" dominant-baseline="central" font-weight="regular" xml:space="preserve" transform="matrix(6.123233995736766e-17,-1,1,6.123233995736766e-17,0,0)" svgjs:data="{&quot;leading&quot;:&quot;1.3&quot;}"><tspan dy="0" x="0" svgjs:data="{&quot;newLined&quot;:true}">3</tspan></text></g><g transform="matrix(1,0,0,1,-6.604,-16.764)"><text fill="#333333" font-family="Arial" font-size="0.96" text-anchor="start" dominant-baseline="text-top" font-weight="regular" xml:space="preserve" transform="matrix(6.123233995736766e-17,-1,1,6.123233995736766e-17,0,0)" svgjs:data="{&quot;leading&quot;:&quot;1.3&quot;}"><tspan dy="0" x="0" svgjs:data="{&quot;newLined&quot;:true}">3</tspan></text></g><g transform="matrix(1,0,0,1,-3.81,-16.002)"><text fill="#333333" font-family="Arial" font-size="1.28" text-anchor="end" dominant-baseline="central" font-weight="regular" xml:space="preserve" transform="matrix(6.123233995736766e-17,-1,1,6.123233995736766e-17,0,0)" svgjs:data="{&quot;leading&quot;:&quot;1.3&quot;}"><tspan dy="0" x="0" svgjs:data="{&quot;newLined&quot;:true}">4</tspan></text></g><g transform="matrix(1,0,0,1,-4.064,-16.764)"><text fill="#333333" font-family="Arial" font-size="0.96" text-anchor="start" dominant-baseline="text-top" font-weight="regular" xml:space="preserve" transform="matrix(6.123233995736766e-17,-1,1,6.123233995736766e-17,0,0)" svgjs:data="{&quot;leading&quot;:&quot;1.3&quot;}"><tspan dy="0" x="0" svgjs:data="{&quot;newLined&quot;:true}">4</tspan></text></g><g transform="matrix(1,0,0,1,-6.35,16.002)"><text fill="#333333" font-family="Arial" font-size="1.28" text-anchor="start" dominant-baseline="central" font-weight="regular" xml:space="preserve" transform="matrix(6.123233995736766e-17,-1,1,6.123233995736766e-17,0,0)" svgjs:data="{&quot;leading&quot;:&quot;1.3&quot;}"><tspan dy="0" x="0" svgjs:data="{&quot;newLined&quot;:true}">7</tspan></text></g><g transform="matrix(1,0,0,1,-6.604,16.764)"><text fill="#333333" font-family="Arial" font-size="0.96" text-anchor="end" dominant-baseline="text-top" font-weight="regular" xml:space="preserve" transform="matrix(6.123233995736766e-17,-1,1,6.123233995736766e-17,0,0)" svgjs:data="{&quot;leading&quot;:&quot;1.3&quot;}"><tspan dy="0" x="0" svgjs:data="{&quot;newLined&quot;:true}">7</tspan></text></g><g transform="matrix(1,0,0,1,-3.81,16.002)"><text fill="#333333" font-family="Arial" font-size="1.28" text-anchor="start" dominant-baseline="central" font-weight="regular" xml:space="preserve" transform="matrix(6.123233995736766e-17,-1,1,6.123233995736766e-17,0,0)" svgjs:data="{&quot;leading&quot;:&quot;1.3&quot;}"><tspan dy="0" x="0" svgjs:data="{&quot;newLined&quot;:true}">8</tspan></text></g><g transform="matrix(1,0,0,1,-4.064,16.764)"><text fill="#333333" font-family="Arial" font-size="0.96" text-anchor="end" dominant-baseline="text-top" font-weight="regular" xml:space="preserve" transform="matrix(6.123233995736766e-17,-1,1,6.123233995736766e-17,0,0)" svgjs:data="{&quot;leading&quot;:&quot;1.3&quot;}"><tspan dy="0" x="0" svgjs:data="{&quot;newLined&quot;:true}">8</tspan></text></g><g transform="matrix(1,0,0,1,-11.43,-17.018)"><text fill="#333333" font-family="Arial" font-size="1.6" text-anchor="start" dominant-baseline="text-top" font-weight="regular" xml:space="preserve" transform="matrix(1,0,0,1,0,0)" svgjs:data="{&quot;leading&quot;:&quot;1.3&quot;}"><tspan dy="0" x="0" svgjs:data="{&quot;newLined&quot;:true}">J1</tspan></text></g></g></g><g transform="matrix(1,0,0,1,12.7,54.61)"><g><path d="M -1.27 0 L 1.27 0 L 0 1.27 Z" stroke-width="0.127" stroke="#333333" fill="#ffffff"></path><path d="M 0 -1.27 L 0 0" stroke-width="0.1524" stroke="#333333"></path><g transform="matrix(1,0,0,1,0,2.54)"><text fill="#333333" font-family="Arial" font-size="1.6" text-anchor="middle" dominant-baseline="central" font-weight="regular" xml:space="preserve" transform="matrix(1,0,0,1,0,0)" svgjs:data="{&quot;leading&quot;:&quot;1.3&quot;}"><tspan dy="0" x="0" svgjs:data="{&quot;newLined&quot;:true}">GND</tspan></text></g></g></g><g><line x1="12.7" y1="5.08" x2="12.7" y2="7.62" stroke-linecap="square" stroke-width="0.1524" stroke="#008400" fill="none"></line><line x1="12.7" y1="7.62" x2="12.7" y2="10.16" stroke-linecap="square" stroke-width="0.1524" stroke="#008400" fill="none"></line><line x1="12.7" y1="7.62" x2="10.16" y2="7.62" stroke-linecap="square" stroke-width="0.1524" stroke="#008400" fill="none"></line><line x1="10.16" y1="7.62" x2="10.16" y2="10.16" stroke-linecap="square" stroke-width="0.1524" stroke="#008400" fill="none"></line><circle r="0.254" cx="0.254" cy="0.254" transform="matrix(1,0,0,1,12.446,7.366)" fill="#008400" stroke="none"></circle><line x1="12.7" y1="48.26" x2="12.7" y2="50.8" stroke-linecap="square" stroke-width="0.1524" stroke="#008400" fill="none"></line><line x1="12.7" y1="50.8" x2="10.16" y2="50.8" stroke-linecap="square" stroke-width="0.1524" stroke="#008400" fill="none"></line><line x1="10.16" y1="50.8" x2="10.16" y2="48.26" stroke-linecap="square" stroke-width="0.1524" stroke="#008400" fill="none"></line><line x1="12.7" y1="50.8" x2="12.7" y2="53.34" stroke-linecap="square" stroke-width="0.1524" stroke="#008400" fill="none"></line><circle r="0.254" cx="0.254" cy="0.254" transform="matrix(1,0,0,1,12.446,50.546)" fill="#008400" stroke="none"></circle></g><g></g></g></g></svg>