<svg xmlns="http://www.w3.org/2000/svg" version="1.1" xmlns:xlink="http://www.w3.org/1999/xlink" xmlns:svgjs="http://svgjs.dev/svgjs" width="1398.33212" height="3165.14365" viewBox="0 0 148 335"><g id="sheet-0" transform="matrix(1,0,0,1,0,0)"><rect width="148" height="105" stroke-width="0.254" stroke="#cccccc" fill="none" id="sheet-border"></rect><g transform="matrix(1,0,0,1,10,10)"><g transform="matrix(1,0,0,1,0,0)"><path d="M 0 -0.038099999999999995 L 0 85.0762 M 2.54 -0.038099999999999995 L 2.54 85.0762 M 5.08 -0.038099999999999995 L 5.08 85.0762 M 7.62 -0.038099999999999995 L 7.62 85.0762 M 10.16 -0.038099999999999995 L 10.16 85.0762 M 12.7 -0.038099999999999995 L 12.7 85.0762 M 15.24 -0.038099999999999995 L 15.24 85.0762 M 17.78 -0.038099999999999995 L 17.78 85.0762 M 20.32 -0.038099999999999995 L 20.32 85.0762 M 22.86 -0.038099999999999995 L 22.86 85.0762 M 25.4 -0.038099999999999995 L 25.4 85.0762 M 27.94 -0.038099999999999995 L 27.94 85.0762 M 30.48 -0.038099999999999995 L 30.48 85.0762 M 33.02 -0.038099999999999995 L 33.02 85.0762 M 35.56 -0.038099999999999995 L 35.56 85.0762 M 38.1 -0.038099999999999995 L 38.1 85.0762 M 40.64 -0.038099999999999995 L 40.64 85.0762 M 43.18 -0.038099999999999995 L 43.18 85.0762 M 45.72 -0.038099999999999995 L 45.72 85.0762 M 48.26 -0.038099999999999995 L 48.26 85.0762 M 50.8 -0.038099999999999995 L 50.8 85.0762 M 53.34 -0.038099999999999995 L 53.34 85.0762 M 55.88 -0.038099999999999995 L 55.88 85.0762 M 58.42 -0.038099999999999995 L 58.42 85.0762 M 60.96 -0.038099999999999995 L 60.96 85.0762 M 63.5 -0.038099999999999995 L 63.5 85.0762 M 66.04 -0.038099999999999995 L 66.04 85.0762 M 68.58 -0.038099999999999995 L 68.58 85.0762 M 71.12 -0.038099999999999995 L 71.12 85.0762 M 73.66 -0.038099999999999995 L 73.66 85.0762 M 76.2 -0.038099999999999995 L 76.2 85.0762 M 78.74 -0.038099999999999995 L 78.74 85.0762 M 81.28 -0.038099999999999995 L 81.28 85.0762 M 83.82000000000001 -0.038099999999999995 L 83.82000000000001 85.0762 M 86.36 -0.038099999999999995 L 86.36 85.0762 M 88.9 -0.038099999999999995 L 88.9 85.0762 M 91.44 -0.038099999999999995 L 91.44 85.0762 M 93.98 -0.038099999999999995 L 93.98 85.0762 M 96.52 -0.038099999999999995 L 96.52 85.0762 M 99.06 -0.038099999999999995 L 99.06 85.0762 M 101.6 -0.038099999999999995 L 101.6 85.0762 M 104.14 -0.038099999999999995 L 104.14 85.0762 M 106.68 -0.038099999999999995 L 106.68 85.0762 M 109.22 -0.038099999999999995 L 109.22 85.0762 M 111.76 -0.038099999999999995 L 111.76 85.0762 M 114.3 -0.038099999999999995 L 114.3 85.0762 M 116.84 -0.038099999999999995 L 116.84 85.0762 M 119.38 -0.038099999999999995 L 119.38 85.0762 M 121.92 -0.038099999999999995 L 121.92 85.0762 M 124.46000000000001 -0.038099999999999995 L 124.46000000000001 85.0762 M 127 -0.038099999999999995 L 127 85.0762 M 129.54 -0.038099999999999995 L 129.54 85.0762" stroke-dasharray="0.07619999999999999,2.4638" stroke-width="0.07619999999999999" stroke="#000000"></path></g><g transform="matrix(1,0,0,1,60.96,39.37)"><g><path d="M -1.27 0 L 1.27 0" stroke-width="0.127" stroke="#333333" fill="none"></path><path d="M 0 1.27 L 0 0" stroke-width="0.15239999999999998" stroke="#333333"></path><g transform="matrix(1,0,0,1,0,-0.381)"><text fill="#333333" font-family="Arial" font-size="1.6" text-anchor="middle" dominant-baseline="text-top" font-weight="regular" transform="matrix(1,0,0,1,0,0)" svgjs:data="{&quot;leading&quot;:&quot;1.3&quot;}"><tspan dy="0" x="0" svgjs:data="{&quot;newLined&quot;:true}">5v</tspan></text></g></g></g><g transform="matrix(1,0,0,1,60.96,45.72)"><g><path d="M 0.762 -1.778 L 0.762 1.778 L -0.762 1.778 L -0.762 -1.778 Z" stroke-width="0.127" stroke="#333333" fill="#ffffff"></path><path d="M 0 -2.54 L 0 -1.778" stroke-width="0.15239999999999998" stroke="#333333"></path><path d="M 0 2.54 L 0 1.778" stroke-width="0.15239999999999998" stroke="#333333"></path><g transform="matrix(0,1,-1,0,0.381,-2.159)"><text fill="#333333" font-family="Arial" font-size="0.96" text-anchor="end" dominant-baseline="text-top" font-weight="regular" transform="matrix(1,0,0,1,0,0)" svgjs:data="{&quot;leading&quot;:&quot;1.3&quot;}"><tspan dy="0" x="0" svgjs:data="{&quot;newLined&quot;:true}">1</tspan></text></g><g transform="matrix(0,1,-1,0,0.381,2.159)"><text fill="#333333" font-family="Arial" font-size="0.96" text-anchor="start" dominant-baseline="text-top" font-weight="regular" transform="matrix(1,0,0,1,0,0)" svgjs:data="{&quot;leading&quot;:&quot;1.3&quot;}"><tspan dy="0" x="0" svgjs:data="{&quot;newLined&quot;:true}">2</tspan></text></g><g transform="matrix(0,1,-1,0,1.27,-1.778)"><text fill="#333333" font-family="Arial" font-size="1.6" text-anchor="start" dominant-baseline="text-top" font-weight="regular" transform="matrix(1,0,0,1,0,0)" svgjs:data="{&quot;leading&quot;:&quot;1.3&quot;}"><tspan dy="0" x="0" svgjs:data="{&quot;newLined&quot;:true}">R1</tspan></text></g><g transform="matrix(0,1,-1,0,-0.1016,0)"><text fill="#333333" font-family="Arial" font-size="0.96" text-anchor="middle" dominant-baseline="middle" font-weight="regular" transform="matrix(1,0,0,1,0,0)" svgjs:data="{&quot;leading&quot;:&quot;1.3&quot;}"><tspan dy="0" x="0" svgjs:data="{&quot;newLined&quot;:true}">10k</tspan></text></g></g></g><g transform="matrix(1,0,0,1,60.96,52.07)"><g><path d="M -1.27 0 L 1.27 0 L 0 1.27 Z" stroke-width="0.127" stroke="#333333" fill="#ffffff"></path><path d="M 0 -1.27 L 0 0" stroke-width="0.15239999999999998" stroke="#333333"></path><g transform="matrix(1,0,0,1,0,2.54)"><text fill="#333333" font-family="Arial" font-size="1.6" text-anchor="middle" dominant-baseline="middle" font-weight="regular" transform="matrix(1,0,0,1,0,0)" svgjs:data="{&quot;leading&quot;:&quot;1.3&quot;}"><tspan dy="0" x="0" svgjs:data="{&quot;newLined&quot;:true}">GND</tspan></text></g></g></g><g><line x1="60.96" y1="40.64" x2="60.96" y2="43.18" stroke-linecap="square" stroke-width="0.15239999999999998" stroke="#008400" fill="none"></line><line x1="60.96" y1="48.26" x2="60.96" y2="50.8" stroke-linecap="square" stroke-width="0.15239999999999998" stroke="#008400" fill="none"></line></g><g><rect width="127.9906" height="84.9884" fill="none" stroke-width="0.127" stroke="#111111" transform="matrix(1,0,0,1,0,0)"></rect></g><g transform="matrix(1,0,0,1,63.5,30.479999999999997)"><g><g transform="matrix(1,0,0,1,0,0)"><text fill="#333333" font-family="Arial" font-size="1.92" text-anchor="middle" dominant-baseline="text-top" font-weight="bold" transform="matrix(1,0,0,1,0,0)" svgjs:data="{&quot;leading&quot;:&quot;1.3&quot;}"><tspan dy="0" x="0" svgjs:data="{&quot;newLined&quot;:true}">Hello world!</tspan></text></g></g></g></g></g><g id="sheet-1" transform="matrix(1,0,0,1,0,115)"><rect width="148" height="105" stroke-width="0.254" stroke="#cccccc" fill="none" id="sheet-border"></rect><g transform="matrix(1,0,0,1,10,10)"><g transform="matrix(1,0,0,1,0,0)"><path d="M 0 -0.038099999999999995 L 0 85.0762 M 2.54 -0.038099999999999995 L 2.54 85.0762 M 5.08 -0.038099999999999995 L 5.08 85.0762 M 7.62 -0.038099999999999995 L 7.62 85.0762 M 10.16 -0.038099999999999995 L 10.16 85.0762 M 12.7 -0.038099999999999995 L 12.7 85.0762 M 15.24 -0.038099999999999995 L 15.24 85.0762 M 17.78 -0.038099999999999995 L 17.78 85.0762 M 20.32 -0.038099999999999995 L 20.32 85.0762 M 22.86 -0.038099999999999995 L 22.86 85.0762 M 25.4 -0.038099999999999995 L 25.4 85.0762 M 27.94 -0.038099999999999995 L 27.94 85.0762 M 30.48 -0.038099999999999995 L 30.48 85.0762 M 33.02 -0.038099999999999995 L 33.02 85.0762 M 35.56 -0.038099999999999995 L 35.56 85.0762 M 38.1 -0.038099999999999995 L 38.1 85.0762 M 40.64 -0.038099999999999995 L 40.64 85.0762 M 43.18 -0.038099999999999995 L 43.18 85.0762 M 45.72 -0.038099999999999995 L 45.72 85.0762 M 48.26 -0.038099999999999995 L 48.26 85.0762 M 50.8 -0.038099999999999995 L 50.8 85.0762 M 53.34 -0.038099999999999995 L 53.34 85.0762 M 55.88 -0.038099999999999995 L 55.88 85.0762 M 58.42 -0.038099999999999995 L 58.42 85.0762 M 60.96 -0.038099999999999995 L 60.96 85.0762 M 63.5 -0.038099999999999995 L 63.5 85.0762 M 66.04 -0.038099999999999995 L 66.04 85.0762 M 68.58 -0.038099999999999995 L 68.58 85.0762 M 71.12 -0.038099999999999995 L 71.12 85.0762 M 73.66 -0.038099999999999995 L 73.66 85.0762 M 76.2 -0.038099999999999995 L 76.2 85.0762 M 78.74 -0.038099999999999995 L 78.74 85.0762 M 81.28 -0.038099999999999995 L 81.28 85.0762 M 83.82000000000001 -0.038099999999999995 L 83.82000000000001 85.0762 M 86.36 -0.038099999999999995 L 86.36 85.0762 M 88.9 -0.038099999999999995 L 88.9 85.0762 M 91.44 -0.038099999999999995 L 91.44 85.0762 M 93.98 -0.038099999999999995 L 93.98 85.0762 M 96.52 -0.038099999999999995 L 96.52 85.0762 M 99.06 -0.038099999999999995 L 99.06 85.0762 M 101.6 -0.038099999999999995 L 101.6 85.0762 M 104.14 -0.038099999999999995 L 104.14 85.0762 M 106.68 -0.038099999999999995 L 106.68 85.0762 M 109.22 -0.038099999999999995 L 109.22 85.0762 M 111.76 -0.038099999999999995 L 111.76 85.0762 M 114.3 -0.038099999999999995 L 114.3 85.0762 M 116.84 -0.038099999999999995 L 116.84 85.0762 M 119.38 -0.038099999999999995 L 119.38 85.0762 M 121.92 -0.038099999999999995 L 121.92 85.0762 M 124.46000000000001 -0.038099999999999995 L 124.46000000000001 85.0762 M 127 -0.038099999999999995 L 127 85.0762 M 129.54 -0.038099999999999995 L 129.54 85.0762" stroke-dasharray="0.07619999999999999,2.4638" stroke-width="0.07619999999999999" stroke="#000000"></path></g><g transform="matrix(1,0,0,1,68.58,31.75)"><g><path d="M -5.08 -8.89 L 5.08 -8.89 L 5.08 8.89 L -5.08 8.89 Z" stroke-width="0.127" stroke="#333333" fill="#ffffff"></path><path d="M -7.62 -6.35 L -5.08 -6.35" stroke-width="0.15239999999999998" stroke="#333333"></path><path d="M -7.62 -3.81 L -5.08 -3.81" stroke-width="0.15239999999999998" stroke="#333333"></path><path d="M -7.62 -1.27 L -5.08 -1.27" stroke-width="0.15239999999999998" stroke="#333333"></path><path d="M -7.62 1.27 L -5.08 1.27" stroke-width="0.15239999999999998" stroke="#333333"></path><path d="M -7.62 3.81 L -5.08 3.81" stroke-width="0.15239999999999998" stroke="#333333"></path><path d="M -7.62 6.35 L -5.08 6.35" stroke-width="0.15239999999999998" stroke="#333333"></path><path d="M 7.62 -6.35 L 5.08 -6.35" stroke-width="0.15239999999999998" stroke="#333333"></path><path d="M 7.62 -3.81 L 5.08 -3.81" stroke-width="0.15239999999999998" stroke="#333333"></path><path d="M 7.62 -1.27 L 5.08 -1.27" stroke-width="0.15239999999999998" stroke="#333333"></path><path d="M 7.62 1.27 L 5.08 1.27" stroke-width="0.15239999999999998" stroke="#333333"></path><path d="M 7.62 3.81 L 5.08 3.81" stroke-width="0.15239999999999998" stroke="#333333"></path><path d="M 7.62 6.35 L 5.08 6.35" stroke-width="0.15239999999999998" stroke="#333333"></path><g transform="matrix(1,0,0,1,-4.572,-6.35)"><text fill="#333333" font-family="Arial" font-size="1.28" text-anchor="start" dominant-baseline="middle" font-weight="regular" transform="matrix(1,0,0,1,0,0)" svgjs:data="{&quot;leading&quot;:&quot;1.3&quot;}"><tspan dy="0" x="0" svgjs:data="{&quot;newLined&quot;:true}">1</tspan></text></g><g transform="matrix(1,0,0,1,-5.334,-6.604)"><text fill="#333333" font-family="Arial" font-size="0.96" text-anchor="end" dominant-baseline="text-top" font-weight="regular" transform="matrix(1,0,0,1,0,0)" svgjs:data="{&quot;leading&quot;:&quot;1.3&quot;}"><tspan dy="0" x="0" svgjs:data="{&quot;newLined&quot;:true}">1</tspan></text></g><g transform="matrix(1,0,0,1,-4.572,-3.81)"><text fill="#333333" font-family="Arial" font-size="1.28" text-anchor="start" dominant-baseline="middle" font-weight="regular" transform="matrix(1,0,0,1,0,0)" svgjs:data="{&quot;leading&quot;:&quot;1.3&quot;}"><tspan dy="0" x="0" svgjs:data="{&quot;newLined&quot;:true}">3</tspan></text></g><g transform="matrix(1,0,0,1,-5.334,-4.064)"><text fill="#333333" font-family="Arial" font-size="0.96" text-anchor="end" dominant-baseline="text-top" font-weight="regular" transform="matrix(1,0,0,1,0,0)" svgjs:data="{&quot;leading&quot;:&quot;1.3&quot;}"><tspan dy="0" x="0" svgjs:data="{&quot;newLined&quot;:true}">3</tspan></text></g><g transform="matrix(1,0,0,1,-4.572,-1.27)"><text fill="#333333" font-family="Arial" font-size="1.28" text-anchor="start" dominant-baseline="middle" font-weight="regular" transform="matrix(1,0,0,1,0,0)" svgjs:data="{&quot;leading&quot;:&quot;1.3&quot;}"><tspan dy="0" x="0" svgjs:data="{&quot;newLined&quot;:true}">5</tspan></text></g><g transform="matrix(1,0,0,1,-5.334,-1.524)"><text fill="#333333" font-family="Arial" font-size="0.96" text-anchor="end" dominant-baseline="text-top" font-weight="regular" transform="matrix(1,0,0,1,0,0)" svgjs:data="{&quot;leading&quot;:&quot;1.3&quot;}"><tspan dy="0" x="0" svgjs:data="{&quot;newLined&quot;:true}">5</tspan></text></g><g transform="matrix(1,0,0,1,-4.572,1.27)"><text fill="#333333" font-family="Arial" font-size="1.28" text-anchor="start" dominant-baseline="middle" font-weight="regular" transform="matrix(1,0,0,1,0,0)" svgjs:data="{&quot;leading&quot;:&quot;1.3&quot;}"><tspan dy="0" x="0" svgjs:data="{&quot;newLined&quot;:true}">7</tspan></text></g><g transform="matrix(1,0,0,1,-5.334,1.016)"><text fill="#333333" font-family="Arial" font-size="0.96" text-anchor="end" dominant-baseline="text-top" font-weight="regular" transform="matrix(1,0,0,1,0,0)" svgjs:data="{&quot;leading&quot;:&quot;1.3&quot;}"><tspan dy="0" x="0" svgjs:data="{&quot;newLined&quot;:true}">7</tspan></text></g><g transform="matrix(1,0,0,1,-4.572,3.81)"><text fill="#333333" font-family="Arial" font-size="1.28" text-anchor="start" dominant-baseline="middle" font-weight="regular" transform="matrix(1,0,0,1,0,0)" svgjs:data="{&quot;leading&quot;:&quot;1.3&quot;}"><tspan dy="0" x="0" svgjs:data="{&quot;newLined&quot;:true}">9</tspan></text></g><g transform="matrix(1,0,0,1,-5.334,3.556)"><text fill="#333333" font-family="Arial" font-size="0.96" text-anchor="end" dominant-baseline="text-top" font-weight="regular" transform="matrix(1,0,0,1,0,0)" svgjs:data="{&quot;leading&quot;:&quot;1.3&quot;}"><tspan dy="0" x="0" svgjs:data="{&quot;newLined&quot;:true}">9</tspan></text></g><g transform="matrix(1,0,0,1,-4.572,6.35)"><text fill="#333333" font-family="Arial" font-size="1.28" text-anchor="start" dominant-baseline="middle" font-weight="regular" transform="matrix(1,0,0,1,0,0)" svgjs:data="{&quot;leading&quot;:&quot;1.3&quot;}"><tspan dy="0" x="0" svgjs:data="{&quot;newLined&quot;:true}">11</tspan></text></g><g transform="matrix(1,0,0,1,-5.334,6.096)"><text fill="#333333" font-family="Arial" font-size="0.96" text-anchor="end" dominant-baseline="text-top" font-weight="regular" transform="matrix(1,0,0,1,0,0)" svgjs:data="{&quot;leading&quot;:&quot;1.3&quot;}"><tspan dy="0" x="0" svgjs:data="{&quot;newLined&quot;:true}">11</tspan></text></g><g transform="matrix(1,0,0,1,4.572,-6.35)"><text fill="#333333" font-family="Arial" font-size="1.28" text-anchor="end" dominant-baseline="middle" font-weight="regular" transform="matrix(1,0,0,1,0,0)" svgjs:data="{&quot;leading&quot;:&quot;1.3&quot;}"><tspan dy="0" x="0" svgjs:data="{&quot;newLined&quot;:true}">2</tspan></text></g><g transform="matrix(1,0,0,1,5.334,-6.604)"><text fill="#333333" font-family="Arial" font-size="0.96" text-anchor="start" dominant-baseline="text-top" font-weight="regular" transform="matrix(1,0,0,1,0,0)" svgjs:data="{&quot;leading&quot;:&quot;1.3&quot;}"><tspan dy="0" x="0" svgjs:data="{&quot;newLined&quot;:true}">2</tspan></text></g><g transform="matrix(1,0,0,1,4.572,-3.81)"><text fill="#333333" font-family="Arial" font-size="1.28" text-anchor="end" dominant-baseline="middle" font-weight="regular" transform="matrix(1,0,0,1,0,0)" svgjs:data="{&quot;leading&quot;:&quot;1.3&quot;}"><tspan dy="0" x="0" svgjs:data="{&quot;newLined&quot;:true}">4</tspan></text></g><g transform="matrix(1,0,0,1,5.334,-4.064)"><text fill="#333333" font-family="Arial" font-size="0.96" text-anchor="start" dominant-baseline="text-top" font-weight="regular" transform="matrix(1,0,0,1,0,0)" svgjs:data="{&quot;leading&quot;:&quot;1.3&quot;}"><tspan dy="0" x="0" svgjs:data="{&quot;newLined&quot;:true}">4</tspan></text></g><g transform="matrix(1,0,0,1,4.572,-1.27)"><text fill="#333333" font-family="Arial" font-size="1.28" text-anchor="end" dominant-baseline="middle" font-weight="regular" transform="matrix(1,0,0,1,0,0)" svgjs:data="{&quot;leading&quot;:&quot;1.3&quot;}"><tspan dy="0" x="0" svgjs:data="{&quot;newLined&quot;:true}">6</tspan></text></g><g transform="matrix(1,0,0,1,5.334,-1.524)"><text fill="#333333" font-family="Arial" font-size="0.96" text-anchor="start" dominant-baseline="text-top" font-weight="regular" transform="matrix(1,0,0,1,0,0)" svgjs:data="{&quot;leading&quot;:&quot;1.3&quot;}"><tspan dy="0" x="0" svgjs:data="{&quot;newLined&quot;:true}">6</tspan></text></g><g transform="matrix(1,0,0,1,4.572,1.27)"><text fill="#333333" font-family="Arial" font-size="1.28" text-anchor="end" dominant-baseline="middle" font-weight="regular" transform="matrix(1,0,0,1,0,0)" svgjs:data="{&quot;leading&quot;:&quot;1.3&quot;}"><tspan dy="0" x="0" svgjs:data="{&quot;newLined&quot;:true}">8</tspan></text></g><g transform="matrix(1,0,0,1,5.334,1.016)"><text fill="#333333" font-family="Arial" font-size="0.96" text-anchor="start" dominant-baseline="text-top" font-weight="regular" transform="matrix(1,0,0,1,0,0)" svgjs:data="{&quot;leading&quot;:&quot;1.3&quot;}"><tspan dy="0" x="0" svgjs:data="{&quot;newLined&quot;:true}">8</tspan></text></g><g transform="matrix(1,0,0,1,4.572,3.81)"><text fill="#333333" font-family="Arial" font-size="1.28" text-anchor="end" dominant-baseline="middle" font-weight="regular" transform="matrix(1,0,0,1,0,0)" svgjs:data="{&quot;leading&quot;:&quot;1.3&quot;}"><tspan dy="0" x="0" svgjs:data="{&quot;newLined&quot;:true}">10</tspan></text></g><g transform="matrix(1,0,0,1,5.334,3.556)"><text fill="#333333" font-family="Arial" font-size="0.96" text-anchor="start" dominant-baseline="text-top" font-weight="regular" transform="matrix(1,0,0,1,0,0)" svgjs:data="{&quot;leading&quot;:&quot;1.3&quot;}"><tspan dy="0" x="0" svgjs:data="{&quot;newLined&quot;:true}">10</tspan></text></g><g transform="matrix(1,0,0,1,4.572,6.35)"><text fill="#333333" font-family="Arial" font-size="1.28" text-anchor="end" dominant-baseline="middle" font-weight="regular" transform="matrix(1,0,0,1,0,0)" svgjs:data="{&quot;leading&quot;:&quot;1.3&quot;}"><tspan dy="0" x="0" svgjs:data="{&quot;newLined&quot;:true}">12</tspan></text></g><g transform="matrix(1,0,0,1,5.334,6.096)"><text fill="#333333" font-family="Arial" font-size="0.96" text-anchor="start" dominant-baseline="text-top" font-weight="regular" transform="matrix(1,0,0,1,0,0)" svgjs:data="{&quot;leading&quot;:&quot;1.3&quot;}"><tspan dy="0" x="0" svgjs:data="{&quot;newLined&quot;:true}">12</tspan></text></g><g transform="matrix(1,0,0,1,-5.08,-9.398)"><text fill="#333333" font-family="Arial" font-size="1.6" text-anchor="start" dominant-baseline="text-top" font-weight="regular" transform="matrix(1,0,0,1,0,0)" svgjs:data="{&quot;leading&quot;:&quot;1.3&quot;}"><tspan dy="0" x="0" svgjs:data="{&quot;newLined&quot;:true}">J2</tspan></text></g></g></g><g transform="matrix(1,0,0,1,78.74000000000001,41.910000000000004)"><g><path d="M -1.27 0 L 1.27 0 L 0 1.27 Z" stroke-width="0.127" stroke="#333333" fill="#ffffff"></path><path d="M 0 -1.27 L 0 0" stroke-width="0.15239999999999998" stroke="#333333"></path><g transform="matrix(1,0,0,1,0,2.54)"><text fill="#333333" font-family="Arial" font-size="1.6" text-anchor="middle" dominant-baseline="middle" font-weight="regular" transform="matrix(1,0,0,1,0,0)" svgjs:data="{&quot;leading&quot;:&quot;1.3&quot;}"><tspan dy="0" x="0" svgjs:data="{&quot;newLined&quot;:true}">GND</tspan></text></g></g></g><g transform="matrix(1,0,0,1,68.58,53.34)"><g><path d="M -5.08 -5.08 L 5.08 -5.08 L 5.08 5.08 L -5.08 5.08 Z" stroke-width="0.127" stroke="#333333" fill="#ffffff"></path><path d="M -7.62 -2.54 L -5.08 -2.54" stroke-width="0.15239999999999998" stroke="#333333"></path><path d="M -7.62 0 L -5.08 0" stroke-width="0.15239999999999998" stroke="#333333"></path><path d="M -7.62 2.54 L -5.08 2.54" stroke-width="0.15239999999999998" stroke="#333333"></path><path d="M 7.62 -2.54 L 5.08 -2.54" stroke-width="0.15239999999999998" stroke="#333333"></path><path d="M 7.62 0 L 5.08 0" stroke-width="0.15239999999999998" stroke="#333333"></path><path d="M 7.62 2.54 L 5.08 2.54" stroke-width="0.15239999999999998" stroke="#333333"></path><g transform="matrix(1,0,0,1,-4.572,-2.54)"><text fill="#333333" font-family="Arial" font-size="1.28" text-anchor="start" dominant-baseline="middle" font-weight="regular" transform="matrix(1,0,0,1,0,0)" svgjs:data="{&quot;leading&quot;:&quot;1.3&quot;}"><tspan dy="0" x="0" svgjs:data="{&quot;newLined&quot;:true}">1</tspan></text></g><g transform="matrix(1,0,0,1,-5.334,-2.794)"><text fill="#333333" font-family="Arial" font-size="0.96" text-anchor="end" dominant-baseline="text-top" font-weight="regular" transform="matrix(1,0,0,1,0,0)" svgjs:data="{&quot;leading&quot;:&quot;1.3&quot;}"><tspan dy="0" x="0" svgjs:data="{&quot;newLined&quot;:true}">1</tspan></text></g><g transform="matrix(1,0,0,1,-4.572,0)"><text fill="#333333" font-family="Arial" font-size="1.28" text-anchor="start" dominant-baseline="middle" font-weight="regular" transform="matrix(1,0,0,1,0,0)" svgjs:data="{&quot;leading&quot;:&quot;1.3&quot;}"><tspan dy="0" x="0" svgjs:data="{&quot;newLined&quot;:true}">3</tspan></text></g><g transform="matrix(1,0,0,1,-5.334,-0.254)"><text fill="#333333" font-family="Arial" font-size="0.96" text-anchor="end" dominant-baseline="text-top" font-weight="regular" transform="matrix(1,0,0,1,0,0)" svgjs:data="{&quot;leading&quot;:&quot;1.3&quot;}"><tspan dy="0" x="0" svgjs:data="{&quot;newLined&quot;:true}">3</tspan></text></g><g transform="matrix(1,0,0,1,-4.572,2.54)"><text fill="#333333" font-family="Arial" font-size="1.28" text-anchor="start" dominant-baseline="middle" font-weight="regular" transform="matrix(1,0,0,1,0,0)" svgjs:data="{&quot;leading&quot;:&quot;1.3&quot;}"><tspan dy="0" x="0" svgjs:data="{&quot;newLined&quot;:true}">5</tspan></text></g><g transform="matrix(1,0,0,1,-5.334,2.286)"><text fill="#333333" font-family="Arial" font-size="0.96" text-anchor="end" dominant-baseline="text-top" font-weight="regular" transform="matrix(1,0,0,1,0,0)" svgjs:data="{&quot;leading&quot;:&quot;1.3&quot;}"><tspan dy="0" x="0" svgjs:data="{&quot;newLined&quot;:true}">5</tspan></text></g><g transform="matrix(1,0,0,1,4.572,-2.54)"><text fill="#333333" font-family="Arial" font-size="1.28" text-anchor="end" dominant-baseline="middle" font-weight="regular" transform="matrix(1,0,0,1,0,0)" svgjs:data="{&quot;leading&quot;:&quot;1.3&quot;}"><tspan dy="0" x="0" svgjs:data="{&quot;newLined&quot;:true}">2</tspan></text></g><g transform="matrix(1,0,0,1,5.334,-2.794)"><text fill="#333333" font-family="Arial" font-size="0.96" text-anchor="start" dominant-baseline="text-top" font-weight="regular" transform="matrix(1,0,0,1,0,0)" svgjs:data="{&quot;leading&quot;:&quot;1.3&quot;}"><tspan dy="0" x="0" svgjs:data="{&quot;newLined&quot;:true}">2</tspan></text></g><g transform="matrix(1,0,0,1,4.572,0)"><text fill="#333333" font-family="Arial" font-size="1.28" text-anchor="end" dominant-baseline="middle" font-weight="regular" transform="matrix(1,0,0,1,0,0)" svgjs:data="{&quot;leading&quot;:&quot;1.3&quot;}"><tspan dy="0" x="0" svgjs:data="{&quot;newLined&quot;:true}">4</tspan></text></g><g transform="matrix(1,0,0,1,5.334,-0.254)"><text fill="#333333" font-family="Arial" font-size="0.96" text-anchor="start" dominant-baseline="text-top" font-weight="regular" transform="matrix(1,0,0,1,0,0)" svgjs:data="{&quot;leading&quot;:&quot;1.3&quot;}"><tspan dy="0" x="0" svgjs:data="{&quot;newLined&quot;:true}">4</tspan></text></g><g transform="matrix(1,0,0,1,4.572,2.54)"><text fill="#333333" font-family="Arial" font-size="1.28" text-anchor="end" dominant-baseline="middle" font-weight="regular" transform="matrix(1,0,0,1,0,0)" svgjs:data="{&quot;leading&quot;:&quot;1.3&quot;}"><tspan dy="0" x="0" svgjs:data="{&quot;newLined&quot;:true}">6</tspan></text></g><g transform="matrix(1,0,0,1,5.334,2.286)"><text fill="#333333" font-family="Arial" font-size="0.96" text-anchor="start" dominant-baseline="text-top" font-weight="regular" transform="matrix(1,0,0,1,0,0)" svgjs:data="{&quot;leading&quot;:&quot;1.3&quot;}"><tspan dy="0" x="0" svgjs:data="{&quot;newLined&quot;:true}">6</tspan></text></g><g transform="matrix(1,0,0,1,-5.08,-5.588)"><text fill="#333333" font-family="Arial" font-size="1.6" text-anchor="start" dominant-baseline="text-top" font-weight="regular" transform="matrix(1,0,0,1,0,0)" svgjs:data="{&quot;leading&quot;:&quot;1.3&quot;}"><tspan dy="0" x="0" svgjs:data="{&quot;newLined&quot;:true}">J1</tspan></text></g></g></g><g transform="matrix(1,0,0,1,48.260000000000005,59.690000000000005)"><g><path d="M -1.27 0 L 1.27 0 L 0 1.27 Z" stroke-width="0.127" stroke="#333333" fill="#ffffff"></path><path d="M 0 -1.27 L 0 0" stroke-width="0.15239999999999998" stroke="#333333"></path><g transform="matrix(1,0,0,1,0,2.54)"><text fill="#333333" font-family="Arial" font-size="1.6" text-anchor="middle" dominant-baseline="middle" font-weight="regular" transform="matrix(1,0,0,1,0,0)" svgjs:data="{&quot;leading&quot;:&quot;1.3&quot;}"><tspan dy="0" x="0" svgjs:data="{&quot;newLined&quot;:true}">GND</tspan></text></g></g></g><g><line x1="76.2" y1="38.1" x2="78.74" y2="38.1" stroke-linecap="square" stroke-width="0.15239999999999998" stroke="#008400" fill="none"></line><line x1="78.74" y1="38.1" x2="78.74" y2="40.64" stroke-linecap="square" stroke-width="0.15239999999999998" stroke="#008400" fill="none"></line><line x1="60.96" y1="53.34" x2="53.34" y2="53.34" stroke-linecap="square" stroke-width="0.15239999999999998" stroke="#008400" fill="none"></line><line x1="53.34" y1="53.34" x2="53.34" y2="55.88" stroke-linecap="square" stroke-width="0.15239999999999998" stroke="#008400" fill="none"></line><line x1="53.34" y1="55.88" x2="60.96" y2="55.88" stroke-linecap="square" stroke-width="0.15239999999999998" stroke="#008400" fill="none"></line><line x1="53.34" y1="53.34" x2="48.26" y2="53.34" stroke-linecap="square" stroke-width="0.15239999999999998" stroke="#008400" fill="none"></line><line x1="48.26" y1="53.34" x2="48.26" y2="58.42" stroke-linecap="square" stroke-width="0.15239999999999998" stroke="#008400" fill="none"></line><circle r="0.254" cx="0.254" cy="0.254" transform="matrix(1,0,0,1,53.086000000000006,53.086000000000006)" fill="rgba(0, 132, 0)" stroke="none"></circle><line x1="60.96" y1="50.8" x2="53.34" y2="50.8" stroke-linecap="square" stroke-width="0.15239999999999998" stroke="#008400" fill="none"></line><line x1="53.34" y1="50.8" x2="53.34" y2="25.4" stroke-linecap="square" stroke-width="0.15239999999999998" stroke="#008400" fill="none"></line><line x1="53.34" y1="25.4" x2="60.96" y2="25.4" stroke-linecap="square" stroke-width="0.15239999999999998" stroke="#008400" fill="none"></line></g><g><rect width="127.9906" height="84.9884" fill="none" stroke-width="0.127" stroke="#111111" transform="matrix(1,0,0,1,0,0)"></rect></g></g></g><g id="sheet-2" transform="matrix(1,0,0,1,0,230)"><rect width="148" height="105" stroke-width="0.254" stroke="#cccccc" fill="none" id="sheet-border"></rect><g transform="matrix(1,0,0,1,10,10)"><g transform="matrix(1,0,0,1,0,0)"><path d="M 0 -0.038099999999999995 L 0 85.0762 M 2.54 -0.038099999999999995 L 2.54 85.0762 M 5.08 -0.038099999999999995 L 5.08 85.0762 M 7.62 -0.038099999999999995 L 7.62 85.0762 M 10.16 -0.038099999999999995 L 10.16 85.0762 M 12.7 -0.038099999999999995 L 12.7 85.0762 M 15.24 -0.038099999999999995 L 15.24 85.0762 M 17.78 -0.038099999999999995 L 17.78 85.0762 M 20.32 -0.038099999999999995 L 20.32 85.0762 M 22.86 -0.038099999999999995 L 22.86 85.0762 M 25.4 -0.038099999999999995 L 25.4 85.0762 M 27.94 -0.038099999999999995 L 27.94 85.0762 M 30.48 -0.038099999999999995 L 30.48 85.0762 M 33.02 -0.038099999999999995 L 33.02 85.0762 M 35.56 -0.038099999999999995 L 35.56 85.0762 M 38.1 -0.038099999999999995 L 38.1 85.0762 M 40.64 -0.038099999999999995 L 40.64 85.0762 M 43.18 -0.038099999999999995 L 43.18 85.0762 M 45.72 -0.038099999999999995 L 45.72 85.0762 M 48.26 -0.038099999999999995 L 48.26 85.0762 M 50.8 -0.038099999999999995 L 50.8 85.0762 M 53.34 -0.038099999999999995 L 53.34 85.0762 M 55.88 -0.038099999999999995 L 55.88 85.0762 M 58.42 -0.038099999999999995 L 58.42 85.0762 M 60.96 -0.038099999999999995 L 60.96 85.0762 M 63.5 -0.038099999999999995 L 63.5 85.0762 M 66.04 -0.038099999999999995 L 66.04 85.0762 M 68.58 -0.038099999999999995 L 68.58 85.0762 M 71.12 -0.038099999999999995 L 71.12 85.0762 M 73.66 -0.038099999999999995 L 73.66 85.0762 M 76.2 -0.038099999999999995 L 76.2 85.0762 M 78.74 -0.038099999999999995 L 78.74 85.0762 M 81.28 -0.038099999999999995 L 81.28 85.0762 M 83.82000000000001 -0.038099999999999995 L 83.82000000000001 85.0762 M 86.36 -0.038099999999999995 L 86.36 85.0762 M 88.9 -0.038099999999999995 L 88.9 85.0762 M 91.44 -0.038099999999999995 L 91.44 85.0762 M 93.98 -0.038099999999999995 L 93.98 85.0762 M 96.52 -0.038099999999999995 L 96.52 85.0762 M 99.06 -0.038099999999999995 L 99.06 85.0762 M 101.6 -0.038099999999999995 L 101.6 85.0762 M 104.14 -0.038099999999999995 L 104.14 85.0762 M 106.68 -0.038099999999999995 L 106.68 85.0762 M 109.22 -0.038099999999999995 L 109.22 85.0762 M 111.76 -0.038099999999999995 L 111.76 85.0762 M 114.3 -0.038099999999999995 L 114.3 85.0762 M 116.84 -0.038099999999999995 L 116.84 85.0762 M 119.38 -0.038099999999999995 L 119.38 85.0762 M 121.92 -0.038099999999999995 L 121.92 85.0762 M 124.46000000000001 -0.038099999999999995 L 124.46000000000001 85.0762 M 127 -0.038099999999999995 L 127 85.0762 M 129.54 -0.038099999999999995 L 129.54 85.0762" stroke-dasharray="0.07619999999999999,2.4638" stroke-width="0.07619999999999999" stroke="#000000"></path></g><g transform="matrix(1,0,0,1,60.96,34.29)"><g><path d="M -1.27 0 L 1.27 0" stroke-width="0.127" stroke="#333333" fill="none"></path><path d="M 0 1.27 L 0 0" stroke-width="0.15239999999999998" stroke="#333333"></path><g transform="matrix(1,0,0,1,0,-0.381)"><text fill="#333333" font-family="Arial" font-size="1.6" text-anchor="middle" dominant-baseline="text-top" font-weight="regular" transform="matrix(1,0,0,1,0,0)" svgjs:data="{&quot;leading&quot;:&quot;1.3&quot;}"><tspan dy="0" x="0" svgjs:data="{&quot;newLined&quot;:true}">5v</tspan></text></g></g></g><g transform="matrix(1,0,0,1,60.96,40.64)"><g><path d="M -1.524 0.508 L 1.524 0.508" stroke-width="0.3302" stroke="#333333" fill="none"></path><path d="M -1.524 -0.508 L 1.524 -0.508" stroke-width="0.3302" stroke="#333333" fill="none"></path><path d="M 0 -2.54 L 0 -0.508" stroke-width="0.15239999999999998" stroke="#333333"></path><path d="M 0 2.54 L 0 0.508" stroke-width="0.15239999999999998" stroke="#333333"></path><g transform="matrix(1,0,0,1,0.381,-0.889)"><text fill="#333333" font-family="Arial" font-size="0.96" text-anchor="start" dominant-baseline="text-top" font-weight="regular" transform="matrix(1,0,0,1,0,0)" svgjs:data="{&quot;leading&quot;:&quot;1.3&quot;}"><tspan dy="0" x="0" svgjs:data="{&quot;newLined&quot;:true}">1</tspan></text></g><g transform="matrix(1,0,0,1,0.381,0.889)"><text fill="#333333" font-family="Arial" font-size="0.96" text-anchor="start" dominant-baseline="hanging" font-weight="regular" transform="matrix(1,0,0,1,0,0)" svgjs:data="{&quot;leading&quot;:&quot;1.3&quot;}"><tspan dy="0" x="0" svgjs:data="{&quot;newLined&quot;:true}">2</tspan></text></g><g transform="matrix(1,0,0,1,2.032,-0.762)"><text fill="#333333" font-family="Arial" font-size="1.6" text-anchor="start" dominant-baseline="middle" font-weight="regular" transform="matrix(1,0,0,1,0,0)" svgjs:data="{&quot;leading&quot;:&quot;1.3&quot;}"><tspan dy="0" x="0" svgjs:data="{&quot;newLined&quot;:true}">C1</tspan></text></g><g transform="matrix(1,0,0,1,2.032,0.762)"><text fill="#333333" font-family="Arial" font-size="1.6" text-anchor="start" dominant-baseline="middle" font-weight="regular" transform="matrix(1,0,0,1,0,0)" svgjs:data="{&quot;leading&quot;:&quot;1.3&quot;}"><tspan dy="0" x="0" svgjs:data="{&quot;newLined&quot;:true}">100n</tspan></text></g></g></g><g transform="matrix(1,0,0,1,60.96,46.99)"><g><path d="M -1.27 0 L 1.27 0 L 0 1.27 Z" stroke-width="0.127" stroke="#333333" fill="#ffffff"></path><path d="M 0 -1.27 L 0 0" stroke-width="0.15239999999999998" stroke="#333333"></path><g transform="matrix(1,0,0,1,0,2.54)"><text fill="#333333" font-family="Arial" font-size="1.6" text-anchor="middle" dominant-baseline="middle" font-weight="regular" transform="matrix(1,0,0,1,0,0)" svgjs:data="{&quot;leading&quot;:&quot;1.3&quot;}"><tspan dy="0" x="0" svgjs:data="{&quot;newLined&quot;:true}">GND</tspan></text></g></g></g><g><line x1="60.96" y1="35.56" x2="60.96" y2="38.1" stroke-linecap="square" stroke-width="0.15239999999999998" stroke="#008400" fill="none"></line><line x1="60.96" y1="43.18" x2="60.96" y2="45.72" stroke-linecap="square" stroke-width="0.15239999999999998" stroke="#008400" fill="none"></line></g><g><rect width="127.9906" height="84.9884" fill="none" stroke-width="0.127" stroke="#111111" transform="matrix(1,0,0,1,0,0)"></rect></g></g></g></svg>