<svg xmlns="http://www.w3.org/2000/svg" version="1.1" xmlns:xlink="http://www.w3.org/1999/xlink" xmlns:svgjs="http://svgjs.dev/svgjs" width="263.9824286" height="337.05756451700006" viewBox="-2.54 -2.5781 27.939999999999998 35.6743"><g id="sheet-0" class="sheet" transform="matrix(1,0,0,1,0,0)"><g class="sheet-elements" transform="matrix(1,0,0,1,0,0)"><g transform="matrix(1,0,0,1,0,0)" class="grid"><path d="M -2.54 -2.5781 L -2.54 33.0962 M 0 -2.5781 L 0 33.0962 M 2.54 -2.5781 L 2.54 33.0962 M 5.08 -2.5781 L 5.08 33.0962 M 7.62 -2.5781 L 7.62 33.0962 M 10.16 -2.5781 L 10.16 33.0962 M 12.7 -2.5781 L 12.7 33.0962 M 15.24 -2.5781 L 15.24 33.0962 M 17.78 -2.5781 L 17.78 33.0962 M 20.32 -2.5781 L 20.32 33.0962 M 22.86 -2.5781 L 22.86 33.0962 M 25.4 -2.5781 L 25.4 33.0962" stroke-dasharray="0.0762,2.4638" stroke-width="0.0762" stroke="#000000"></path></g><g transform="matrix(1,0,0,1,17.78,3.81)"><g><path d="M -1.27 0 L 1.27 0" stroke-width="0.127" stroke="#333333" fill="none"></path><path d="M 0 1.27 L 0 0" stroke-width="0.1524" stroke="#333333"></path><g transform="matrix(1,0,0,1,0,-0.381)"><text fill="#333333" font-family="Arial" font-size="1.6" text-anchor="middle" dominant-baseline="text-top" font-weight="regular" xml:space="preserve" transform="matrix(1,0,0,1,0,0)" svgjs:data="{&quot;leading&quot;:&quot;1.3&quot;}"><tspan dy="0" x="0" svgjs:data="{&quot;newLined&quot;:true}">VCC</tspan></text></g></g></g><g transform="matrix(1,0,0,1,17.78,10.16)"><g><path d="M 0.762 -1.778 L 0.762 1.778 L -0.762 1.778 L -0.762 -1.778 Z" stroke-width="0.127" stroke="#333333" fill="#ffffff"></path><path d="M 0 -2.54 L 0 -1.778" stroke-width="0.1524" stroke="#333333"></path><path d="M 0 2.54 L 0 1.778" stroke-width="0.1524" stroke="#333333"></path><g transform="matrix(0,1,-1,0,0.381,-2.159)"><text fill="#333333" font-family="Arial" font-size="0.96" text-anchor="end" dominant-baseline="text-top" font-weight="regular" xml:space="preserve" transform="matrix(1,0,0,1,0,0)" svgjs:data="{&quot;leading&quot;:&quot;1.3&quot;}"><tspan dy="0" x="0" svgjs:data="{&quot;newLined&quot;:true}">1</tspan></text></g><g transform="matrix(0,1,-1,0,0.381,2.159)"><text fill="#333333" font-family="Arial" font-size="0.96" text-anchor="start" dominant-baseline="text-top" font-weight="regular" xml:space="preserve" transform="matrix(1,0,0,1,0,0)" svgjs:data="{&quot;leading&quot;:&quot;1.3&quot;}"><tspan dy="0" x="0" svgjs:data="{&quot;newLined&quot;:true}">2</tspan></text></g><g transform="matrix(0,1,-1,0,1.27,-1.778)"><text fill="#333333" font-family="Arial" font-size="1.6" text-anchor="start" dominant-baseline="text-top" font-weight="regular" xml:space="preserve" transform="matrix(1,0,0,1,0,0)" svgjs:data="{&quot;leading&quot;:&quot;1.3&quot;}"><tspan dy="0" x="0" svgjs:data="{&quot;newLined&quot;:true}">R1</tspan></text></g><g transform="matrix(0,1,-1,0,0,0)"><text fill="#333333" font-family="Arial" font-size="0.96" text-anchor="middle" dominant-baseline="central" font-weight="regular" xml:space="preserve" transform="matrix(1,0,0,1,0,0)" svgjs:data="{&quot;leading&quot;:&quot;1.3&quot;}"><tspan dy="0" x="0" svgjs:data="{&quot;newLined&quot;:true}">10k</tspan></text></g></g></g><g transform="matrix(1,0,0,1,17.78,15.24)"><g><path d="M 0 0 L 0 0" stroke-width="0.1524" stroke="#333333"></path></g></g><g transform="matrix(1,0,0,1,7.62,15.24)"><g><path d="M 5.08 -2.54 L -5.08 -2.54 L -5.08 2.54 L 5.08 2.54 Z" stroke-width="0.127" stroke="#333333" fill="#ffffff"></path><path d="M 7.62 0 L 5.08 0" stroke-width="0.1524" stroke="#333333"></path><g transform="matrix(1,0,0,1,4.572,0)"><text fill="#333333" font-family="Arial" font-size="1.28" text-anchor="end" dominant-baseline="central" font-weight="regular" xml:space="preserve" transform="matrix(1,0,0,1,0,0)" svgjs:data="{&quot;leading&quot;:&quot;1.3&quot;}"><tspan dy="0" x="0" svgjs:data="{&quot;newLined&quot;:true}">TP</tspan></text></g><g transform="matrix(1,0,0,1,5.334,-0.254)"><text fill="#333333" font-family="Arial" font-size="0.96" text-anchor="start" dominant-baseline="text-top" font-weight="regular" xml:space="preserve" transform="matrix(1,0,0,1,0,0)" svgjs:data="{&quot;leading&quot;:&quot;1.3&quot;}"><tspan dy="0" x="0" svgjs:data="{&quot;newLined&quot;:true}">1</tspan></text></g><g transform="matrix(1,0,0,1,5.08,-3.048)"><text fill="#333333" font-family="Arial" font-size="1.6" text-anchor="end" dominant-baseline="text-top" font-weight="regular" xml:space="preserve" transform="matrix(1,0,0,1,0,0)" svgjs:data="{&quot;leading&quot;:&quot;1.3&quot;}"><tspan dy="0" x="0" svgjs:data="{&quot;newLined&quot;:true}">J1</tspan></text></g></g></g><g transform="matrix(1,0,0,1,17.78,20.32)"><g><path d="M 0.762 -1.778 L 0.762 1.778 L -0.762 1.778 L -0.762 -1.778 Z" stroke-width="0.127" stroke="#333333" fill="#ffffff"></path><path d="M 0 -2.54 L 0 -1.778" stroke-width="0.1524" stroke="#333333"></path><path d="M 0 2.54 L 0 1.778" stroke-width="0.1524" stroke="#333333"></path><g transform="matrix(0,1,-1,0,0.381,-2.159)"><text fill="#333333" font-family="Arial" font-size="0.96" text-anchor="end" dominant-baseline="text-top" font-weight="regular" xml:space="preserve" transform="matrix(1,0,0,1,0,0)" svgjs:data="{&quot;leading&quot;:&quot;1.3&quot;}"><tspan dy="0" x="0" svgjs:data="{&quot;newLined&quot;:true}">1</tspan></text></g><g transform="matrix(0,1,-1,0,0.381,2.159)"><text fill="#333333" font-family="Arial" font-size="0.96" text-anchor="start" dominant-baseline="text-top" font-weight="regular" xml:space="preserve" transform="matrix(1,0,0,1,0,0)" svgjs:data="{&quot;leading&quot;:&quot;1.3&quot;}"><tspan dy="0" x="0" svgjs:data="{&quot;newLined&quot;:true}">2</tspan></text></g><g transform="matrix(0,1,-1,0,1.27,-1.778)"><text fill="#333333" font-family="Arial" font-size="1.6" text-anchor="start" dominant-baseline="text-top" font-weight="regular" xml:space="preserve" transform="matrix(1,0,0,1,0,0)" svgjs:data="{&quot;leading&quot;:&quot;1.3&quot;}"><tspan dy="0" x="0" svgjs:data="{&quot;newLined&quot;:true}">R2</tspan></text></g><g transform="matrix(0,1,-1,0,0,0)"><text fill="#333333" font-family="Arial" font-size="0.96" text-anchor="middle" dominant-baseline="central" font-weight="regular" xml:space="preserve" transform="matrix(1,0,0,1,0,0)" svgjs:data="{&quot;leading&quot;:&quot;1.3&quot;}"><tspan dy="0" x="0" svgjs:data="{&quot;newLined&quot;:true}">10k</tspan></text></g></g></g><g transform="matrix(1,0,0,1,17.78,26.67)"><g><path d="M -1.27 0 L 1.27 0 L 0 1.27 Z" stroke-width="0.127" stroke="#333333" fill="#ffffff"></path><path d="M 0 -1.27 L 0 0" stroke-width="0.1524" stroke="#333333"></path><g transform="matrix(1,0,0,1,0,2.54)"><text fill="#333333" font-family="Arial" font-size="1.6" text-anchor="middle" dominant-baseline="central" font-weight="regular" xml:space="preserve" transform="matrix(1,0,0,1,0,0)" svgjs:data="{&quot;leading&quot;:&quot;1.3&quot;}"><tspan dy="0" x="0" svgjs:data="{&quot;newLined&quot;:true}">GND</tspan></text></g></g></g><g><path d="M17.78 5.08L17.78 7.62 " stroke-linecap="square" stroke-opacity="0.3" stroke-width="0.2794" fill="none"></path><path d="M17.78 12.7L17.78 15.24M17.78 15.24L15.24 15.24M17.78 15.24L17.78 17.78 " stroke-linecap="square" stroke-opacity="0.3" stroke-width="0.2794" fill="none"></path><path d="M17.78 22.86L17.78 25.4 " stroke-linecap="square" stroke-opacity="0.3" stroke-width="0.2794" fill="none"></path></g><g><path d="M17.78 5.08L17.78 7.62 " stroke-linecap="square" stroke-width="0.1524" stroke="#008400" fill="none"></path><path d="M17.78 12.7L17.78 15.24M17.78 15.24L15.24 15.24M17.78 15.24L17.78 17.78 " stroke-linecap="square" stroke-width="0.1524" stroke="#008400" fill="none"></path><circle r="0.254" cx="0.254" cy="0.254" transform="matrix(1,0,0,1,17.526,14.986)" fill="#008400" stroke="none"></circle><path d="M17.78 22.86L17.78 25.4 " stroke-linecap="square" stroke-width="0.1524" stroke="#008400" fill="none"></path></g><g></g></g></g></svg>