<svg xmlns="http://www.w3.org/2000/svg" version="1.1" xmlns:xlink="http://www.w3.org/1999/xlink" xmlns:svgjs="http://svgjs.dev/svgjs" width="551.9632598000001" height="121.071941117" viewBox="-2.54 -2.5781 58.42 12.8143"><g id="sheet-0" class="sheet" transform="matrix(1,0,0,1,0,0)"><g class="sheet-elements" transform="matrix(1,0,0,1,0,0)"><g transform="matrix(1,0,0,1,0,0)" class="grid"><path d="M -2.54 -2.5781 L -2.54 10.2362 M 0 -2.5781 L 0 10.2362 M 2.54 -2.5781 L 2.54 10.2362 M 5.08 -2.5781 L 5.08 10.2362 M 7.62 -2.5781 L 7.62 10.2362 M 10.16 -2.5781 L 10.16 10.2362 M 12.7 -2.5781 L 12.7 10.2362 M 15.24 -2.5781 L 15.24 10.2362 M 17.78 -2.5781 L 17.78 10.2362 M 20.32 -2.5781 L 20.32 10.2362 M 22.86 -2.5781 L 22.86 10.2362 M 25.4 -2.5781 L 25.4 10.2362 M 27.94 -2.5781 L 27.94 10.2362 M 30.48 -2.5781 L 30.48 10.2362 M 33.02 -2.5781 L 33.02 10.2362 M 35.56 -2.5781 L 35.56 10.2362 M 38.1 -2.5781 L 38.1 10.2362 M 40.64 -2.5781 L 40.64 10.2362 M 43.18 -2.5781 L 43.18 10.2362 M 45.72 -2.5781 L 45.72 10.2362 M 48.26 -2.5781 L 48.26 10.2362 M 50.8 -2.5781 L 50.8 10.2362 M 53.34 -2.5781 L 53.34 10.2362 M 55.88 -2.5781 L 55.88 10.2362" stroke-dasharray="0.0762,2.4638" stroke-width="0.0762" stroke="#000000"></path></g><g transform="matrix(1,0,0,1,3.81,5.08)"><title>line 8:5</title><g><path d="M 0 1.27 L 0 -1.27" stroke-width="0.127" stroke="#333333" fill="none"></path><path d="M 1.27 0 L 0 0" stroke-width="0.1524" stroke="#333333"></path><g transform="matrix(0,-1,1,0,-0.381,0)"><text fill="#333333" font-family="Arial" font-size="1.6" text-anchor="middle" dominant-baseline="alphabetic" font-weight="regular" style="white-space: pre;" transform="matrix(1,0,0,1,0,0)" svgjs:data="{&quot;leading&quot;:&quot;1.3&quot;}"><tspan dy="0" x="0" svgjs:data="{&quot;newLined&quot;:true}">5V</tspan></text></g></g></g><g transform="matrix(1,0,0,1,12.7,5.08)"><title>Component R1_1: line 10:5</title><g><path d="M -1.778 -0.762 L 1.778 -0.762 L 1.778 0.762 L -1.778 0.762 Z" stroke-width="0.127" stroke="#333333" fill="transparent"></path><path d="M -2.54 0 L -1.778 0" stroke-width="0.1524" stroke="#333333"></path><path d="M 2.54 0 L 1.778 0" stroke-width="0.1524" stroke="#333333"></path><g transform="matrix(1,0,0,1,-1.778,-1.27)"><text fill="#333333" font-family="Arial" font-size="1.6" text-anchor="start" dominant-baseline="alphabetic" font-weight="regular" style="white-space: pre;" transform="matrix(1,0,0,1,0,0)" svgjs:data="{&quot;leading&quot;:&quot;1.3&quot;}"><tspan dy="0" x="0" svgjs:data="{&quot;newLined&quot;:true}">R1_1</tspan></text></g><g transform="matrix(1,0,0,1,0,0)"><text fill="#333333" font-family="Arial" font-size="0.96" text-anchor="middle" dominant-baseline="central" font-weight="regular" style="white-space: pre;" transform="matrix(1,0,0,1,0,0)" svgjs:data="{&quot;leading&quot;:&quot;1.3&quot;}"><tspan dy="0" x="0" svgjs:data="{&quot;newLined&quot;:true}">10k</tspan></text></g></g></g><g transform="matrix(1,0,0,1,21.59,5.08)"><title>line 12:8</title><g><path d="M 0 1.27 L 0 -1.27 L 1.27 0 Z" stroke-width="0.127" stroke="#333333" fill="transparent"></path><path d="M -1.27 0 L 0 0" stroke-width="0.1524" stroke="#333333"></path><g transform="matrix(0,-1,1,0,2.54,0)"><text fill="#333333" font-family="Arial" font-size="1.6" text-anchor="middle" dominant-baseline="central" font-weight="regular" style="white-space: pre;" transform="matrix(1,0,0,1,0,0)" svgjs:data="{&quot;leading&quot;:&quot;1.3&quot;}"><tspan dy="0" x="0" svgjs:data="{&quot;newLined&quot;:true}">GND</tspan></text></g></g></g><g transform="matrix(1,0,0,1,31.75,5.08)"><title>line 8:5</title><g><path d="M 0 1.27 L 0 -1.27" stroke-width="0.127" stroke="#333333" fill="none"></path><path d="M 1.27 0 L 0 0" stroke-width="0.1524" stroke="#333333"></path><g transform="matrix(0,-1,1,0,-0.381,0)"><text fill="#333333" font-family="Arial" font-size="1.6" text-anchor="middle" dominant-baseline="alphabetic" font-weight="regular" style="white-space: pre;" transform="matrix(1,0,0,1,0,0)" svgjs:data="{&quot;leading&quot;:&quot;1.3&quot;}"><tspan dy="0" x="0" svgjs:data="{&quot;newLined&quot;:true}">5V</tspan></text></g></g></g><g transform="matrix(1,0,0,1,40.64,5.08)"><title>Component R1_2: line 10:5</title><g><path d="M -1.778 -0.762 L 1.778 -0.762 L 1.778 0.762 L -1.778 0.762 Z" stroke-width="0.127" stroke="#333333" fill="transparent"></path><path d="M -2.54 0 L -1.778 0" stroke-width="0.1524" stroke="#333333"></path><path d="M 2.54 0 L 1.778 0" stroke-width="0.1524" stroke="#333333"></path><g transform="matrix(1,0,0,1,-1.778,-1.27)"><text fill="#333333" font-family="Arial" font-size="1.6" text-anchor="start" dominant-baseline="alphabetic" font-weight="regular" style="white-space: pre;" transform="matrix(1,0,0,1,0,0)" svgjs:data="{&quot;leading&quot;:&quot;1.3&quot;}"><tspan dy="0" x="0" svgjs:data="{&quot;newLined&quot;:true}">R1_2</tspan></text></g><g transform="matrix(1,0,0,1,0,0)"><text fill="#333333" font-family="Arial" font-size="0.96" text-anchor="middle" dominant-baseline="central" font-weight="regular" style="white-space: pre;" transform="matrix(1,0,0,1,0,0)" svgjs:data="{&quot;leading&quot;:&quot;1.3&quot;}"><tspan dy="0" x="0" svgjs:data="{&quot;newLined&quot;:true}">10k</tspan></text></g></g></g><g transform="matrix(1,0,0,1,49.53,5.08)"><title>line 12:8</title><g><path d="M 0 1.27 L 0 -1.27 L 1.27 0 Z" stroke-width="0.127" stroke="#333333" fill="transparent"></path><path d="M -1.27 0 L 0 0" stroke-width="0.1524" stroke="#333333"></path><g transform="matrix(0,-1,1,0,2.54,0)"><text fill="#333333" font-family="Arial" font-size="1.6" text-anchor="middle" dominant-baseline="central" font-weight="regular" style="white-space: pre;" transform="matrix(1,0,0,1,0,0)" svgjs:data="{&quot;leading&quot;:&quot;1.3&quot;}"><tspan dy="0" x="0" svgjs:data="{&quot;newLined&quot;:true}">GND</tspan></text></g></g></g><g><path d="M5.08 5.08L10.16 5.08M33.02 5.08L38.1 5.08 " stroke-linecap="butt" stroke-opacity="0.3" stroke-width="0.2794" fill="none"></path><path d="M15.24 5.08L20.32 5.08M43.18 5.08L48.26 5.08 " stroke-linecap="butt" stroke-opacity="0.3" stroke-width="0.2794" fill="none"></path></g><g><path d="M5.08 5.08L10.16 5.08M33.02 5.08L38.1 5.08 " stroke-linecap="butt" stroke-width="0.1524" stroke="#008400" fill="none"></path><path d="M15.24 5.08L20.32 5.08M43.18 5.08L48.26 5.08 " stroke-linecap="butt" stroke-width="0.1524" stroke="#008400" fill="none"></path></g><g></g></g></g></svg>