<svg xmlns="http://www.w3.org/2000/svg" version="1.1" xmlns:xlink="http://www.w3.org/1999/xlink" xmlns:svgjs="http://svgjs.dev/svgjs" width="383.97444160000003" height="241.063954117" viewBox="-2.54 -2.5781 40.64 25.5143"><g id="sheet-0" class="sheet" transform="matrix(1,0,0,1,0,0)"><g class="sheet-elements" transform="matrix(1,0,0,1,0,0)"><g transform="matrix(1,0,0,1,0,0)" class="grid"><path d="M -2.54 -2.5781 L -2.54 22.9362 M 0 -2.5781 L 0 22.9362 M 2.54 -2.5781 L 2.54 22.9362 M 5.08 -2.5781 L 5.08 22.9362 M 7.62 -2.5781 L 7.62 22.9362 M 10.16 -2.5781 L 10.16 22.9362 M 12.7 -2.5781 L 12.7 22.9362 M 15.24 -2.5781 L 15.24 22.9362 M 17.78 -2.5781 L 17.78 22.9362 M 20.32 -2.5781 L 20.32 22.9362 M 22.86 -2.5781 L 22.86 22.9362 M 25.4 -2.5781 L 25.4 22.9362 M 27.94 -2.5781 L 27.94 22.9362 M 30.48 -2.5781 L 30.48 22.9362 M 33.02 -2.5781 L 33.02 22.9362 M 35.56 -2.5781 L 35.56 22.9362 M 38.1 -2.5781 L 38.1 22.9362" stroke-dasharray="0.0762,2.4638" stroke-width="0.0762" stroke="#000000"></path></g><g transform="matrix(1,0,0,1,12.7,10.16)"><g><path d="M 5.08 -7.62 L -5.08 -7.62 L -5.08 7.62 L 5.08 7.62 Z" stroke-width="0.127" stroke="#333333" fill="#ffffff"></path><path d="M 7.62 -5.08 L 5.08 -5.08" stroke-width="0.1524" stroke="#333333"></path><path d="M 7.62 -2.54 L 5.08 -2.54" stroke-width="0.1524" stroke="#333333"></path><path d="M 7.62 0 L 5.08 0" stroke-width="0.1524" stroke="#333333"></path><path d="M 7.62 2.54 L 5.08 2.54" stroke-width="0.1524" stroke="#333333"></path><path d="M 7.62 5.08 L 5.08 5.08" stroke-width="0.1524" stroke="#333333"></path><path d="M -7.62 -5.08 L -5.08 -5.08" stroke-width="0.1524" stroke="#333333"></path><path d="M -7.62 -2.54 L -5.08 -2.54" stroke-width="0.1524" stroke="#333333"></path><path d="M -7.62 0 L -5.08 0" stroke-width="0.1524" stroke="#333333"></path><path d="M -7.62 2.54 L -5.08 2.54" stroke-width="0.1524" stroke="#333333"></path><path d="M -7.62 5.08 L -5.08 5.08" stroke-width="0.1524" stroke="#333333"></path><g transform="matrix(1,0,0,1,4.572,-5.08)"><text fill="#333333" font-family="Arial" font-size="1.28" text-anchor="end" dominant-baseline="central" font-weight="regular" style="white-space: pre;" transform="matrix(1,0,0,1,0,0)" svgjs:data="{&quot;leading&quot;:&quot;1.3&quot;}"><tspan dy="0" x="0" svgjs:data="{&quot;newLined&quot;:true}">A1</tspan></text></g><g transform="matrix(1,0,0,1,5.334,-5.334)"><text fill="#333333" font-family="Arial" font-size="0.96" text-anchor="start" dominant-baseline="alphabetic" font-weight="regular" style="white-space: pre;" transform="matrix(1,0,0,1,0,0)" svgjs:data="{&quot;leading&quot;:&quot;1.3&quot;}"><tspan dy="0" x="0" svgjs:data="{&quot;newLined&quot;:true}">A1</tspan></text></g><g transform="matrix(1,0,0,1,4.572,-2.54)"><text fill="#333333" font-family="Arial" font-size="1.28" text-anchor="end" dominant-baseline="central" font-weight="regular" style="white-space: pre;" transform="matrix(1,0,0,1,0,0)" svgjs:data="{&quot;leading&quot;:&quot;1.3&quot;}"><tspan dy="0" x="0" svgjs:data="{&quot;newLined&quot;:true}">B1</tspan></text></g><g transform="matrix(1,0,0,1,5.334,-2.794)"><text fill="#333333" font-family="Arial" font-size="0.96" text-anchor="start" dominant-baseline="alphabetic" font-weight="regular" style="white-space: pre;" transform="matrix(1,0,0,1,0,0)" svgjs:data="{&quot;leading&quot;:&quot;1.3&quot;}"><tspan dy="0" x="0" svgjs:data="{&quot;newLined&quot;:true}">B1</tspan></text></g><g transform="matrix(1,0,0,1,4.572,0)"><text fill="#333333" font-family="Arial" font-size="1.28" text-anchor="end" dominant-baseline="central" font-weight="regular" style="white-space: pre;" transform="matrix(1,0,0,1,0,0)" svgjs:data="{&quot;leading&quot;:&quot;1.3&quot;}"><tspan dy="0" x="0" svgjs:data="{&quot;newLined&quot;:true}">C1</tspan></text></g><g transform="matrix(1,0,0,1,5.334,-0.254)"><text fill="#333333" font-family="Arial" font-size="0.96" text-anchor="start" dominant-baseline="alphabetic" font-weight="regular" style="white-space: pre;" transform="matrix(1,0,0,1,0,0)" svgjs:data="{&quot;leading&quot;:&quot;1.3&quot;}"><tspan dy="0" x="0" svgjs:data="{&quot;newLined&quot;:true}">C1</tspan></text></g><g transform="matrix(1,0,0,1,4.572,2.54)"><text fill="#333333" font-family="Arial" font-size="1.28" text-anchor="end" dominant-baseline="central" font-weight="regular" style="white-space: pre;" transform="matrix(1,0,0,1,0,0)" svgjs:data="{&quot;leading&quot;:&quot;1.3&quot;}"><tspan dy="0" x="0" svgjs:data="{&quot;newLined&quot;:true}">Z1</tspan></text></g><g transform="matrix(1,0,0,1,5.334,2.286)"><text fill="#333333" font-family="Arial" font-size="0.96" text-anchor="start" dominant-baseline="alphabetic" font-weight="regular" style="white-space: pre;" transform="matrix(1,0,0,1,0,0)" svgjs:data="{&quot;leading&quot;:&quot;1.3&quot;}"><tspan dy="0" x="0" svgjs:data="{&quot;newLined&quot;:true}">Z1</tspan></text></g><g transform="matrix(1,0,0,1,4.572,5.08)"><text fill="#333333" font-family="Arial" font-size="1.28" text-anchor="end" dominant-baseline="central" font-weight="regular" style="white-space: pre;" transform="matrix(1,0,0,1,0,0)" svgjs:data="{&quot;leading&quot;:&quot;1.3&quot;}"><tspan dy="0" x="0" svgjs:data="{&quot;newLined&quot;:true}">AA1</tspan></text></g><g transform="matrix(1,0,0,1,5.334,4.826)"><text fill="#333333" font-family="Arial" font-size="0.96" text-anchor="start" dominant-baseline="alphabetic" font-weight="regular" style="white-space: pre;" transform="matrix(1,0,0,1,0,0)" svgjs:data="{&quot;leading&quot;:&quot;1.3&quot;}"><tspan dy="0" x="0" svgjs:data="{&quot;newLined&quot;:true}">AA1</tspan></text></g><g transform="matrix(1,0,0,1,-4.572,-5.08)"><text fill="#333333" font-family="Arial" font-size="1.28" text-anchor="start" dominant-baseline="central" font-weight="regular" style="white-space: pre;" transform="matrix(1,0,0,1,0,0)" svgjs:data="{&quot;leading&quot;:&quot;1.3&quot;}"><tspan dy="0" x="0" svgjs:data="{&quot;newLined&quot;:true}">A2</tspan></text></g><g transform="matrix(1,0,0,1,-5.334,-5.334)"><text fill="#333333" font-family="Arial" font-size="0.96" text-anchor="end" dominant-baseline="alphabetic" font-weight="regular" style="white-space: pre;" transform="matrix(1,0,0,1,0,0)" svgjs:data="{&quot;leading&quot;:&quot;1.3&quot;}"><tspan dy="0" x="0" svgjs:data="{&quot;newLined&quot;:true}">A2</tspan></text></g><g transform="matrix(1,0,0,1,-4.572,-2.54)"><text fill="#333333" font-family="Arial" font-size="1.28" text-anchor="start" dominant-baseline="central" font-weight="regular" style="white-space: pre;" transform="matrix(1,0,0,1,0,0)" svgjs:data="{&quot;leading&quot;:&quot;1.3&quot;}"><tspan dy="0" x="0" svgjs:data="{&quot;newLined&quot;:true}">B2</tspan></text></g><g transform="matrix(1,0,0,1,-5.334,-2.794)"><text fill="#333333" font-family="Arial" font-size="0.96" text-anchor="end" dominant-baseline="alphabetic" font-weight="regular" style="white-space: pre;" transform="matrix(1,0,0,1,0,0)" svgjs:data="{&quot;leading&quot;:&quot;1.3&quot;}"><tspan dy="0" x="0" svgjs:data="{&quot;newLined&quot;:true}">B2</tspan></text></g><g transform="matrix(1,0,0,1,-4.572,0)"><text fill="#333333" font-family="Arial" font-size="1.28" text-anchor="start" dominant-baseline="central" font-weight="regular" style="white-space: pre;" transform="matrix(1,0,0,1,0,0)" svgjs:data="{&quot;leading&quot;:&quot;1.3&quot;}"><tspan dy="0" x="0" svgjs:data="{&quot;newLined&quot;:true}">C2</tspan></text></g><g transform="matrix(1,0,0,1,-5.334,-0.254)"><text fill="#333333" font-family="Arial" font-size="0.96" text-anchor="end" dominant-baseline="alphabetic" font-weight="regular" style="white-space: pre;" transform="matrix(1,0,0,1,0,0)" svgjs:data="{&quot;leading&quot;:&quot;1.3&quot;}"><tspan dy="0" x="0" svgjs:data="{&quot;newLined&quot;:true}">C2</tspan></text></g><g transform="matrix(1,0,0,1,-4.572,2.54)"><text fill="#333333" font-family="Arial" font-size="1.28" text-anchor="start" dominant-baseline="central" font-weight="regular" style="white-space: pre;" transform="matrix(1,0,0,1,0,0)" svgjs:data="{&quot;leading&quot;:&quot;1.3&quot;}"><tspan dy="0" x="0" svgjs:data="{&quot;newLined&quot;:true}">Z2</tspan></text></g><g transform="matrix(1,0,0,1,-5.334,2.286)"><text fill="#333333" font-family="Arial" font-size="0.96" text-anchor="end" dominant-baseline="alphabetic" font-weight="regular" style="white-space: pre;" transform="matrix(1,0,0,1,0,0)" svgjs:data="{&quot;leading&quot;:&quot;1.3&quot;}"><tspan dy="0" x="0" svgjs:data="{&quot;newLined&quot;:true}">Z2</tspan></text></g><g transform="matrix(1,0,0,1,-4.572,5.08)"><text fill="#333333" font-family="Arial" font-size="1.28" text-anchor="start" dominant-baseline="central" font-weight="regular" style="white-space: pre;" transform="matrix(1,0,0,1,0,0)" svgjs:data="{&quot;leading&quot;:&quot;1.3&quot;}"><tspan dy="0" x="0" svgjs:data="{&quot;newLined&quot;:true}">BB2</tspan></text></g><g transform="matrix(1,0,0,1,-5.334,4.826)"><text fill="#333333" font-family="Arial" font-size="0.96" text-anchor="end" dominant-baseline="alphabetic" font-weight="regular" style="white-space: pre;" transform="matrix(1,0,0,1,0,0)" svgjs:data="{&quot;leading&quot;:&quot;1.3&quot;}"><tspan dy="0" x="0" svgjs:data="{&quot;newLined&quot;:true}">BB2</tspan></text></g><g transform="matrix(1,0,0,1,5.08,-8.128)"><text fill="#333333" font-family="Arial" font-size="1.6" text-anchor="end" dominant-baseline="alphabetic" font-weight="regular" style="white-space: pre;" transform="matrix(1,0,0,1,0,0)" svgjs:data="{&quot;leading&quot;:&quot;1.3&quot;}"><tspan dy="0" x="0" svgjs:data="{&quot;newLined&quot;:true}">J1</tspan></text></g></g></g><g transform="matrix(1,0,0,1,33.02,10.16)"><g><path d="M 0 0 L 0 0" stroke-width="0.1524" stroke="#333333"></path></g></g><g><path d="M5.08 12.7L2.54 12.7L2.54 15.24L5.08 15.24 " stroke-linecap="butt" stroke-opacity="0.3" stroke-width="0.2794" fill="none"></path><path d="M20.32 10.16L33.02 10.16L33.02 12.7L33.02 15.24L20.32 15.24M33.02 10.16L33.02 7.62L33.02 5.08L20.32 5.08 " stroke-linecap="butt" stroke-opacity="0.3" stroke-width="0.2794" fill="none"></path></g><g><path d="M5.08 12.7L2.54 12.7L2.54 15.24L5.08 15.24 " stroke-linecap="butt" stroke-width="0.1524" stroke="#008400" fill="none"></path><path d="M20.32 10.16L33.02 10.16L33.02 12.7L33.02 15.24L20.32 15.24M33.02 10.16L33.02 7.62L33.02 5.08L20.32 5.08 " stroke-linecap="butt" stroke-width="0.1524" stroke="#008400" fill="none"></path><circle r="0.254" cx="0.254" cy="0.254" transform="matrix(1,0,0,1,32.766,9.906)" fill="#008400" stroke="none"></circle></g><g></g></g></g></svg>