<svg xmlns="http://www.w3.org/2000/svg" version="1.1" xmlns:xlink="http://www.w3.org/1999/xlink" xmlns:svgjs="http://svgjs.dev/svgjs" width="359.976039" height="289.060759317" viewBox="-2.54 -2.5781 38.1 30.5943"><g font-family="Arial"><g id="sheet-0" class="sheet" transform="matrix(1,0,0,1,0,0)"><g class="sheet-elements" transform="matrix(1,0,0,1,0,0)"><g transform="matrix(1,0,0,1,0,0)" class="grid"><path d="M -2.54 -2.5781 L -2.54 28.0162 M 0 -2.5781 L 0 28.0162 M 2.54 -2.5781 L 2.54 28.0162 M 5.08 -2.5781 L 5.08 28.0162 M 7.62 -2.5781 L 7.62 28.0162 M 10.16 -2.5781 L 10.16 28.0162 M 12.7 -2.5781 L 12.7 28.0162 M 15.24 -2.5781 L 15.24 28.0162 M 17.78 -2.5781 L 17.78 28.0162 M 20.32 -2.5781 L 20.32 28.0162 M 22.86 -2.5781 L 22.86 28.0162 M 25.4 -2.5781 L 25.4 28.0162 M 27.94 -2.5781 L 27.94 28.0162 M 30.48 -2.5781 L 30.48 28.0162 M 33.02 -2.5781 L 33.02 28.0162 M 35.56 -2.5781 L 35.56 28.0162" class="grid"></path></g><g transform="matrix(1,0,0,1,5.08,6.35)"><title>line 9:5</title><path d="M -1.27 0 L 1.27 0" class="graphicLine"></path><path d="M 0 1.27 L 0 0" class="pin"></path><g transform="matrix(1,0,0,1,0,-0.381)"><text class="text" text-anchor="middle" dominant-baseline="alphabetic" font-size="1.6" font-weight="regular" style="white-space: pre;" transform="matrix(1,0,0,1,0,0)" svgjs:data="{&quot;leading&quot;:&quot;1.3&quot;}">VCC</text></g></g><g transform="matrix(1,0,0,1,5.08,12.7)"><title>Component C1: line 11:5</title><path d="M -1.524 0.508 L 1.524 0.508" class="graphicLine styleOverride" style="stroke-width: 0.3302;"></path><path d="M -1.524 -0.508 L 1.524 -0.508" class="graphicLine styleOverride" style="stroke-width: 0.3302;"></path><path d="M 0 -2.54 L 0 -0.508" class="pin"></path><path d="M 0 2.54 L 0 0.508" class="pin"></path><g transform="matrix(1,0,0,1,2.032,-0.762)"><text class="text" text-anchor="start" dominant-baseline="central" font-size="1.6" font-weight="regular" style="white-space: pre;" transform="matrix(1,0,0,1,0,0)" svgjs:data="{&quot;leading&quot;:&quot;1.3&quot;}">C1</text></g><g transform="matrix(1,0,0,1,2.032,0.762)"><text class="text" text-anchor="start" dominant-baseline="central" font-size="1.6" font-weight="regular" style="white-space: pre;" transform="matrix(1,0,0,1,0,0)" svgjs:data="{&quot;leading&quot;:&quot;1.3&quot;}">100n</text></g></g><g transform="matrix(1,0,0,1,5.08,19.05)"><title>line 13:8</title><path d="M -1.27 0 L 1.27 0 L 0 1.27 Z" class="graphicLine styleOverride" style="fill: transparent;"></path><path d="M 0 -1.27 L 0 0" class="pin"></path><g transform="matrix(1,0,0,1,0,2.54)"><text class="text" text-anchor="middle" dominant-baseline="central" font-size="1.6" font-weight="regular" style="white-space: pre;" transform="matrix(1,0,0,1,0,0)" svgjs:data="{&quot;leading&quot;:&quot;1.3&quot;}">GND</text></g></g><g transform="matrix(1,0,0,1,22.86,6.35)"><title>line 19:5</title><path d="M -1.27 0 L 1.27 0" class="graphicLine"></path><path d="M 0 1.27 L 0 0" class="pin"></path><g transform="matrix(1,0,0,1,0,-0.381)"><text class="text" text-anchor="middle" dominant-baseline="alphabetic" font-size="1.6" font-weight="regular" style="white-space: pre;" transform="matrix(1,0,0,1,0,0)" svgjs:data="{&quot;leading&quot;:&quot;1.3&quot;}">VCC</text></g></g><g transform="matrix(1,0,0,1,22.86,12.7)"><title>Component C2: line 21:5</title><path d="M -1.524 0.508 L 1.524 0.508" class="graphicLine styleOverride" style="stroke-width: 0.3302;"></path><path d="M -1.524 -0.508 L 1.524 -0.508" class="graphicLine styleOverride" style="stroke-width: 0.3302;"></path><path d="M 0 -2.54 L 0 -0.508" class="pin"></path><path d="M 0 2.54 L 0 0.508" class="pin"></path><g transform="matrix(1,0,0,1,2.032,-0.762)"><text class="text" text-anchor="start" dominant-baseline="central" font-size="1.6" font-weight="regular" style="white-space: pre;" transform="matrix(1,0,0,1,0,0)" svgjs:data="{&quot;leading&quot;:&quot;1.3&quot;}">C2</text></g><g transform="matrix(1,0,0,1,2.032,0.762)"><text class="text" text-anchor="start" dominant-baseline="central" font-size="1.6" font-weight="regular" style="white-space: pre;" transform="matrix(1,0,0,1,0,0)" svgjs:data="{&quot;leading&quot;:&quot;1.3&quot;}">100n</text></g></g><g transform="matrix(1,0,0,1,22.86,19.05)"><title>line 23:8</title><path d="M -1.27 0 L 1.27 0 L 0 1.27 Z" class="graphicLine styleOverride" style="fill: transparent;"></path><path d="M 0 -1.27 L 0 0" class="pin"></path><g transform="matrix(1,0,0,1,0,2.54)"><text class="text" text-anchor="middle" dominant-baseline="central" font-size="1.6" font-weight="regular" style="white-space: pre;" transform="matrix(1,0,0,1,0,0)" svgjs:data="{&quot;leading&quot;:&quot;1.3&quot;}">GND</text></g></g><g class="wires-highlight"></g><g class="wires"><path d="M5.08 7.62L5.08 10.16M22.86 7.62L22.86 10.16 " class="wire"></path><path d="M5.08 15.24L5.08 17.78M22.86 15.24L22.86 17.78 " class="wire"></path></g><g class="frames"><rect width="15.24" height="25.4" stroke-width="0.127px" class="frame" transform="matrix(1,0,0,1,0,0)"></rect><rect width="15.24" height="25.4" stroke-width="0.127px" class="frame" transform="matrix(1,0,0,1,17.78,0)"></rect></g></g></g></g><style>:root{--cs-wire-color:rgb(0, 132, 0);--cs-bus-wire-color:rgb(0,0,250);--cs-junction-color:rgb(0, 132, 0);--cs-bus-junction-color:rgb(0,0,250);--cs-line-color:#333;--cs-text-color:#333;--cs-grid-color:#000;--cs-frame-border-color:#111;}@media (prefers-color-scheme: dark){:root{--cs-bus-wire-color:rgb(110,110,255);--cs-junction-color:rgb(0, 200, 0);--cs-bus-junction-color:rgb(110,110,255);--cs-grid-color:#888;--cs-frame-border-color:#444;--cs-wire-color:rgb(0, 200, 0);--cs-line-color:#ccc;--cs-text-color:#ccc;}}.wire{stroke-width:0.1524px;stroke-linecap:butt;stroke:var(--cs-wire-color);fill:none;}.pin{stroke-width:0.1524px;stroke:var(--cs-line-color);fill:none;}.graphicLine{stroke-width:0.127px;stroke:var(--cs-line-color);fill:none;}.grid{stroke:var(--cs-grid-color);stroke-width:0.0762px;stroke-dasharray:0.0762px,2.4638px;}.text{fill:var(--cs-text-color);}.frame{stroke:var(--cs-frame-border-color);fill:none;}text{font-family:Arial;}</style></svg>