<svg xmlns="http://www.w3.org/2000/svg" version="1.1" xmlns:xlink="http://www.w3.org/1999/xlink" xmlns:svgjs="http://svgjs.dev/svgjs" width="1984.1199000000001" height="1398.33212" viewBox="0 0 210 148"><g id="sheet-0" class="sheet" transform="matrix(1,0,0,1,0,0)"><g class="sheet-elements" transform="matrix(1,0,0,1,10.16,10.16)"><g transform="matrix(1,0,0,1,0,0)" class="grid"><path d="M 0 -0.0381 L 0 127.7562 M 2.54 -0.0381 L 2.54 127.7562 M 5.08 -0.0381 L 5.08 127.7562 M 7.62 -0.0381 L 7.62 127.7562 M 10.16 -0.0381 L 10.16 127.7562 M 12.7 -0.0381 L 12.7 127.7562 M 15.24 -0.0381 L 15.24 127.7562 M 17.78 -0.0381 L 17.78 127.7562 M 20.32 -0.0381 L 20.32 127.7562 M 22.86 -0.0381 L 22.86 127.7562 M 25.4 -0.0381 L 25.4 127.7562 M 27.94 -0.0381 L 27.94 127.7562 M 30.48 -0.0381 L 30.48 127.7562 M 33.02 -0.0381 L 33.02 127.7562 M 35.56 -0.0381 L 35.56 127.7562 M 38.1 -0.0381 L 38.1 127.7562 M 40.64 -0.0381 L 40.64 127.7562 M 43.18 -0.0381 L 43.18 127.7562 M 45.72 -0.0381 L 45.72 127.7562 M 48.26 -0.0381 L 48.26 127.7562 M 50.8 -0.0381 L 50.8 127.7562 M 53.34 -0.0381 L 53.34 127.7562 M 55.88 -0.0381 L 55.88 127.7562 M 58.42 -0.0381 L 58.42 127.7562 M 60.96 -0.0381 L 60.96 127.7562 M 63.5 -0.0381 L 63.5 127.7562 M 66.04 -0.0381 L 66.04 127.7562 M 68.58 -0.0381 L 68.58 127.7562 M 71.12 -0.0381 L 71.12 127.7562 M 73.66 -0.0381 L 73.66 127.7562 M 76.2 -0.0381 L 76.2 127.7562 M 78.74 -0.0381 L 78.74 127.7562 M 81.28 -0.0381 L 81.28 127.7562 M 83.82 -0.0381 L 83.82 127.7562 M 86.36 -0.0381 L 86.36 127.7562 M 88.9 -0.0381 L 88.9 127.7562 M 91.44 -0.0381 L 91.44 127.7562 M 93.98 -0.0381 L 93.98 127.7562 M 96.52 -0.0381 L 96.52 127.7562 M 99.06 -0.0381 L 99.06 127.7562 M 101.6 -0.0381 L 101.6 127.7562 M 104.14 -0.0381 L 104.14 127.7562 M 106.68 -0.0381 L 106.68 127.7562 M 109.22 -0.0381 L 109.22 127.7562 M 111.76 -0.0381 L 111.76 127.7562 M 114.3 -0.0381 L 114.3 127.7562 M 116.84 -0.0381 L 116.84 127.7562 M 119.38 -0.0381 L 119.38 127.7562 M 121.92 -0.0381 L 121.92 127.7562 M 124.46 -0.0381 L 124.46 127.7562 M 127 -0.0381 L 127 127.7562 M 129.54 -0.0381 L 129.54 127.7562 M 132.08 -0.0381 L 132.08 127.7562 M 134.62 -0.0381 L 134.62 127.7562 M 137.16 -0.0381 L 137.16 127.7562 M 139.7 -0.0381 L 139.7 127.7562 M 142.24 -0.0381 L 142.24 127.7562 M 144.78 -0.0381 L 144.78 127.7562 M 147.32 -0.0381 L 147.32 127.7562 M 149.86 -0.0381 L 149.86 127.7562 M 152.4 -0.0381 L 152.4 127.7562 M 154.94 -0.0381 L 154.94 127.7562 M 157.48 -0.0381 L 157.48 127.7562 M 160.02 -0.0381 L 160.02 127.7562 M 162.56 -0.0381 L 162.56 127.7562 M 165.1 -0.0381 L 165.1 127.7562 M 167.64 -0.0381 L 167.64 127.7562 M 170.18 -0.0381 L 170.18 127.7562 M 172.72 -0.0381 L 172.72 127.7562 M 175.26 -0.0381 L 175.26 127.7562 M 177.8 -0.0381 L 177.8 127.7562 M 180.34 -0.0381 L 180.34 127.7562 M 182.88 -0.0381 L 182.88 127.7562 M 185.42 -0.0381 L 185.42 127.7562" stroke-dasharray="0.0762,2.4638" stroke-width="0.0762" stroke="#000000"></path></g><g transform="matrix(1,0,0,1,72.39,30.48)"><g><path d="M -1.27 1.27 L -1.27 -1.27 L 1.27 0 Z" stroke-width="0.127" stroke="#333333" fill="none"></path><path d="M 1.27 -1.27 L 1.27 1.27" stroke-width="0.127" stroke="#333333" fill="none"></path><path d="M 1.778 0.762 L 2.8529872 1.8369872" stroke-width="0.127" stroke="#333333" fill="none"></path><path d="M 2.6284808 2.0614936 L 3.0774936 1.6124808 L 3.302 2.286 Z" stroke-width="0.127" stroke="#333333" fill="none"></path><path d="M 3.048 0.762 L 4.1229872 1.8369872" stroke-width="0.127" stroke="#333333" fill="none"></path><path d="M 3.8984808 2.0614936 L 4.3474936 1.6124808 L 4.572 2.286 Z" stroke-width="0.127" stroke="#333333" fill="none"></path><path d="M 3.81 0 L 1.27 0" stroke-width="0.1524" stroke="#333333"></path><path d="M -3.81 0 L -1.27 0" stroke-width="0.1524" stroke="#333333"></path><g transform="matrix(1,0,0,1,1.651,-0.381)"><text fill="#333333" font-family="Arial" font-size="0.96" text-anchor="start" dominant-baseline="alphabetic" font-weight="regular" style="white-space: pre;" transform="matrix(1,0,0,1,0,0)" svgjs:data="{&quot;leading&quot;:&quot;1.3&quot;}"><tspan dy="0" x="0" svgjs:data="{&quot;newLined&quot;:true}">1</tspan></text></g><g transform="matrix(1,0,0,1,-1.651,-0.381)"><text fill="#333333" font-family="Arial" font-size="0.96" text-anchor="end" dominant-baseline="alphabetic" font-weight="regular" style="white-space: pre;" transform="matrix(1,0,0,1,0,0)" svgjs:data="{&quot;leading&quot;:&quot;1.3&quot;}"><tspan dy="0" x="0" svgjs:data="{&quot;newLined&quot;:true}">2</tspan></text></g><g transform="matrix(1,0,0,1,0,-2.54)"><text fill="#333333" font-family="Arial" font-size="1.6" text-anchor="middle" dominant-baseline="hanging" font-weight="regular" style="white-space: pre;" transform="matrix(1,0,0,1,0,0)" svgjs:data="{&quot;leading&quot;:&quot;1.3&quot;}"><tspan dy="0" x="0" svgjs:data="{&quot;newLined&quot;:true}">D1</tspan></text></g><g transform="matrix(1,0,0,1,0,2.54)"><text fill="#333333" font-family="Arial" font-size="1.28" text-anchor="middle" dominant-baseline="alphabetic" font-weight="regular" style="white-space: pre;" transform="matrix(1,0,0,1,0,0)" svgjs:data="{&quot;leading&quot;:&quot;1.3&quot;}"><tspan dy="0" x="0" svgjs:data="{&quot;newLined&quot;:true}">green</tspan></text></g></g></g><g transform="matrix(1,0,0,1,86.36,31.75)"><g><path d="M -1.27 -1.27 L 1.27 -1.27 L 0 1.27 Z" stroke-width="0.127" stroke="#333333" fill="none"></path><path d="M 1.27 1.27 L -1.27 1.27" stroke-width="0.127" stroke="#333333" fill="none"></path><path d="M -0.762 1.778 L -1.8369872 2.8529872" stroke-width="0.127" stroke="#333333" fill="none"></path><path d="M -2.0614936 2.6284808 L -1.6124808 3.0774936 L -2.286 3.302 Z" stroke-width="0.127" stroke="#333333" fill="none"></path><path d="M -0.762 3.048 L -1.8369872 4.1229872" stroke-width="0.127" stroke="#333333" fill="none"></path><path d="M -2.0614936 3.8984808 L -1.6124808 4.3474936 L -2.286 4.572 Z" stroke-width="0.127" stroke="#333333" fill="none"></path><path d="M 0 3.81 L 0 1.27" stroke-width="0.1524" stroke="#333333"></path><path d="M 0 -3.81 L 0 -1.27" stroke-width="0.1524" stroke="#333333"></path><g transform="matrix(0,1,-1,0,0.381,1.651)"><text fill="#333333" font-family="Arial" font-size="0.96" text-anchor="start" dominant-baseline="alphabetic" font-weight="regular" style="white-space: pre;" transform="matrix(1,0,0,1,0,0)" svgjs:data="{&quot;leading&quot;:&quot;1.3&quot;}"><tspan dy="0" x="0" svgjs:data="{&quot;newLined&quot;:true}">1</tspan></text></g><g transform="matrix(0,1,-1,0,0.381,-1.651)"><text fill="#333333" font-family="Arial" font-size="0.96" text-anchor="end" dominant-baseline="alphabetic" font-weight="regular" style="white-space: pre;" transform="matrix(1,0,0,1,0,0)" svgjs:data="{&quot;leading&quot;:&quot;1.3&quot;}"><tspan dy="0" x="0" svgjs:data="{&quot;newLined&quot;:true}">2</tspan></text></g><g transform="matrix(0,1,-1,0,2.54,0)"><text fill="#333333" font-family="Arial" font-size="1.6" text-anchor="middle" dominant-baseline="hanging" font-weight="regular" style="white-space: pre;" transform="matrix(1,0,0,1,0,0)" svgjs:data="{&quot;leading&quot;:&quot;1.3&quot;}"><tspan dy="0" x="0" svgjs:data="{&quot;newLined&quot;:true}">D2</tspan></text></g><g transform="matrix(0,1,-1,0,-2.54,0)"><text fill="#333333" font-family="Arial" font-size="1.28" text-anchor="middle" dominant-baseline="alphabetic" font-weight="regular" style="white-space: pre;" transform="matrix(1,0,0,1,0,0)" svgjs:data="{&quot;leading&quot;:&quot;1.3&quot;}"><tspan dy="0" x="0" svgjs:data="{&quot;newLined&quot;:true}">green</tspan></text></g></g></g><g transform="matrix(1,0,0,1,100.33,30.48)"><g><path d="M 1.27 -1.27 L 1.27 1.27 L -1.27 0 Z" stroke-width="0.127" stroke="#333333" fill="none"></path><path d="M -1.27 1.27 L -1.27 -1.27" stroke-width="0.127" stroke="#333333" fill="none"></path><path d="M -1.778 -0.762 L -2.8529872 -1.8369872" stroke-width="0.127" stroke="#333333" fill="none"></path><path d="M -2.6284808 -2.0614936 L -3.0774936 -1.6124808 L -3.302 -2.286 Z" stroke-width="0.127" stroke="#333333" fill="none"></path><path d="M -3.048 -0.762 L -4.1229872 -1.8369872" stroke-width="0.127" stroke="#333333" fill="none"></path><path d="M -3.8984808 -2.0614936 L -4.3474936 -1.6124808 L -4.572 -2.286 Z" stroke-width="0.127" stroke="#333333" fill="none"></path><path d="M -3.81 0 L -1.27 0" stroke-width="0.1524" stroke="#333333"></path><path d="M 3.81 0 L 1.27 0" stroke-width="0.1524" stroke="#333333"></path><g transform="matrix(-1,0,0,-1,-1.651,0.381)"><text fill="#333333" font-family="Arial" font-size="0.96" text-anchor="end" dominant-baseline="hanging" font-weight="regular" style="white-space: pre;" transform="matrix(-1,1.2246467991473532e-16,-1.2246467991473532e-16,-1,0,0)" svgjs:data="{&quot;leading&quot;:&quot;1.3&quot;}"><tspan dy="0" x="0" svgjs:data="{&quot;newLined&quot;:true}">1</tspan></text></g><g transform="matrix(-1,0,0,-1,1.651,0.381)"><text fill="#333333" font-family="Arial" font-size="0.96" text-anchor="start" dominant-baseline="hanging" font-weight="regular" style="white-space: pre;" transform="matrix(-1,1.2246467991473532e-16,-1.2246467991473532e-16,-1,0,0)" svgjs:data="{&quot;leading&quot;:&quot;1.3&quot;}"><tspan dy="0" x="0" svgjs:data="{&quot;newLined&quot;:true}">2</tspan></text></g><g transform="matrix(-1,0,0,-1,0,2.54)"><text fill="#333333" font-family="Arial" font-size="1.6" text-anchor="middle" dominant-baseline="alphabetic" font-weight="regular" style="white-space: pre;" transform="matrix(-1,1.2246467991473532e-16,-1.2246467991473532e-16,-1,0,0)" svgjs:data="{&quot;leading&quot;:&quot;1.3&quot;}"><tspan dy="0" x="0" svgjs:data="{&quot;newLined&quot;:true}">D3</tspan></text></g><g transform="matrix(-1,0,0,-1,0,-2.54)"><text fill="#333333" font-family="Arial" font-size="1.28" text-anchor="middle" dominant-baseline="hanging" font-weight="regular" style="white-space: pre;" transform="matrix(-1,1.2246467991473532e-16,-1.2246467991473532e-16,-1,0,0)" svgjs:data="{&quot;leading&quot;:&quot;1.3&quot;}"><tspan dy="0" x="0" svgjs:data="{&quot;newLined&quot;:true}">green</tspan></text></g></g></g><g transform="matrix(1,0,0,1,114.3,31.75)"><g><path d="M 1.27 1.27 L -1.27 1.27 L 0 -1.27 Z" stroke-width="0.127" stroke="#333333" fill="none"></path><path d="M -1.27 -1.27 L 1.27 -1.27" stroke-width="0.127" stroke="#333333" fill="none"></path><path d="M 0.762 -1.778 L 1.8369872 -2.8529872" stroke-width="0.127" stroke="#333333" fill="none"></path><path d="M 2.0614936 -2.6284808 L 1.6124808 -3.0774936 L 2.286 -3.302 Z" stroke-width="0.127" stroke="#333333" fill="none"></path><path d="M 0.762 -3.048 L 1.8369872 -4.1229872" stroke-width="0.127" stroke="#333333" fill="none"></path><path d="M 2.0614936 -3.8984808 L 1.6124808 -4.3474936 L 2.286 -4.572 Z" stroke-width="0.127" stroke="#333333" fill="none"></path><path d="M 0 -3.81 L 0 -1.27" stroke-width="0.1524" stroke="#333333"></path><path d="M 0 3.81 L 0 1.27" stroke-width="0.1524" stroke="#333333"></path><g transform="matrix(0,-1,1,0,-0.381,-1.651)"><text fill="#333333" font-family="Arial" font-size="0.96" text-anchor="start" dominant-baseline="alphabetic" font-weight="regular" style="white-space: pre;" transform="matrix(1,0,0,1,0,0)" svgjs:data="{&quot;leading&quot;:&quot;1.3&quot;}"><tspan dy="0" x="0" svgjs:data="{&quot;newLined&quot;:true}">1</tspan></text></g><g transform="matrix(0,-1,1,0,-0.381,1.651)"><text fill="#333333" font-family="Arial" font-size="0.96" text-anchor="end" dominant-baseline="alphabetic" font-weight="regular" style="white-space: pre;" transform="matrix(1,0,0,1,0,0)" svgjs:data="{&quot;leading&quot;:&quot;1.3&quot;}"><tspan dy="0" x="0" svgjs:data="{&quot;newLined&quot;:true}">2</tspan></text></g><g transform="matrix(0,-1,1,0,-2.54,0)"><text fill="#333333" font-family="Arial" font-size="1.6" text-anchor="middle" dominant-baseline="hanging" font-weight="regular" style="white-space: pre;" transform="matrix(1,0,0,1,0,0)" svgjs:data="{&quot;leading&quot;:&quot;1.3&quot;}"><tspan dy="0" x="0" svgjs:data="{&quot;newLined&quot;:true}">D4</tspan></text></g><g transform="matrix(0,-1,1,0,2.54,0)"><text fill="#333333" font-family="Arial" font-size="1.28" text-anchor="middle" dominant-baseline="alphabetic" font-weight="regular" style="white-space: pre;" transform="matrix(1,0,0,1,0,0)" svgjs:data="{&quot;leading&quot;:&quot;1.3&quot;}"><tspan dy="0" x="0" svgjs:data="{&quot;newLined&quot;:true}">green</tspan></text></g></g></g><g transform="matrix(1,0,0,1,72.39,50.8)"><g><path d="M 1.27 1.27 L 1.27 -1.27 L -1.27 0 Z" stroke-width="0.127" stroke="#333333" fill="none"></path><path d="M -1.27 -1.27 L -1.27 1.27" stroke-width="0.127" stroke="#333333" fill="none"></path><path d="M -1.778 0.762 L -2.8529872 1.8369872" stroke-width="0.127" stroke="#333333" fill="none"></path><path d="M -2.6284808 2.0614936 L -3.0774936 1.6124808 L -3.302 2.286 Z" stroke-width="0.127" stroke="#333333" fill="none"></path><path d="M -3.048 0.762 L -4.1229872 1.8369872" stroke-width="0.127" stroke="#333333" fill="none"></path><path d="M -3.8984808 2.0614936 L -4.3474936 1.6124808 L -4.572 2.286 Z" stroke-width="0.127" stroke="#333333" fill="none"></path><path d="M -3.81 0 L -1.27 0" stroke-width="0.1524" stroke="#333333"></path><path d="M 3.81 0 L 1.27 0" stroke-width="0.1524" stroke="#333333"></path><g transform="matrix(1,0,0,1,-1.651,-0.381)"><text fill="#333333" font-family="Arial" font-size="0.96" text-anchor="end" dominant-baseline="alphabetic" font-weight="regular" style="white-space: pre;" transform="matrix(1,0,0,1,0,0)" svgjs:data="{&quot;leading&quot;:&quot;1.3&quot;}"><tspan dy="0" x="0" svgjs:data="{&quot;newLined&quot;:true}">1</tspan></text></g><g transform="matrix(1,0,0,1,1.651,-0.381)"><text fill="#333333" font-family="Arial" font-size="0.96" text-anchor="start" dominant-baseline="alphabetic" font-weight="regular" style="white-space: pre;" transform="matrix(1,0,0,1,0,0)" svgjs:data="{&quot;leading&quot;:&quot;1.3&quot;}"><tspan dy="0" x="0" svgjs:data="{&quot;newLined&quot;:true}">2</tspan></text></g><g transform="matrix(1,0,0,1,0,-2.54)"><text fill="#333333" font-family="Arial" font-size="1.6" text-anchor="middle" dominant-baseline="hanging" font-weight="regular" style="white-space: pre;" transform="matrix(1,0,0,1,0,0)" svgjs:data="{&quot;leading&quot;:&quot;1.3&quot;}"><tspan dy="0" x="0" svgjs:data="{&quot;newLined&quot;:true}">D5</tspan></text></g><g transform="matrix(1,0,0,1,0,2.54)"><text fill="#333333" font-family="Arial" font-size="1.28" text-anchor="middle" dominant-baseline="alphabetic" font-weight="regular" style="white-space: pre;" transform="matrix(1,0,0,1,0,0)" svgjs:data="{&quot;leading&quot;:&quot;1.3&quot;}"><tspan dy="0" x="0" svgjs:data="{&quot;newLined&quot;:true}">green</tspan></text></g></g></g><g transform="matrix(1,0,0,1,86.36,52.07)"><g><path d="M -1.27 1.27 L 1.27 1.27 L 0 -1.27 Z" stroke-width="0.127" stroke="#333333" fill="none"></path><path d="M 1.27 -1.27 L -1.27 -1.27" stroke-width="0.127" stroke="#333333" fill="none"></path><path d="M -0.762 -1.778 L -1.8369872 -2.8529872" stroke-width="0.127" stroke="#333333" fill="none"></path><path d="M -2.0614936 -2.6284808 L -1.6124808 -3.0774936 L -2.286 -3.302 Z" stroke-width="0.127" stroke="#333333" fill="none"></path><path d="M -0.762 -3.048 L -1.8369872 -4.1229872" stroke-width="0.127" stroke="#333333" fill="none"></path><path d="M -2.0614936 -3.8984808 L -1.6124808 -4.3474936 L -2.286 -4.572 Z" stroke-width="0.127" stroke="#333333" fill="none"></path><path d="M 0 -3.81 L 0 -1.27" stroke-width="0.1524" stroke="#333333"></path><path d="M 0 3.81 L 0 1.27" stroke-width="0.1524" stroke="#333333"></path><g transform="matrix(0,1,-1,0,0.381,-1.651)"><text fill="#333333" font-family="Arial" font-size="0.96" text-anchor="end" dominant-baseline="alphabetic" font-weight="regular" style="white-space: pre;" transform="matrix(1,0,0,1,0,0)" svgjs:data="{&quot;leading&quot;:&quot;1.3&quot;}"><tspan dy="0" x="0" svgjs:data="{&quot;newLined&quot;:true}">1</tspan></text></g><g transform="matrix(0,1,-1,0,0.381,1.651)"><text fill="#333333" font-family="Arial" font-size="0.96" text-anchor="start" dominant-baseline="alphabetic" font-weight="regular" style="white-space: pre;" transform="matrix(1,0,0,1,0,0)" svgjs:data="{&quot;leading&quot;:&quot;1.3&quot;}"><tspan dy="0" x="0" svgjs:data="{&quot;newLined&quot;:true}">2</tspan></text></g><g transform="matrix(0,1,-1,0,2.54,0)"><text fill="#333333" font-family="Arial" font-size="1.6" text-anchor="middle" dominant-baseline="hanging" font-weight="regular" style="white-space: pre;" transform="matrix(1,0,0,1,0,0)" svgjs:data="{&quot;leading&quot;:&quot;1.3&quot;}"><tspan dy="0" x="0" svgjs:data="{&quot;newLined&quot;:true}">D6</tspan></text></g><g transform="matrix(0,1,-1,0,-2.54,0)"><text fill="#333333" font-family="Arial" font-size="1.28" text-anchor="middle" dominant-baseline="alphabetic" font-weight="regular" style="white-space: pre;" transform="matrix(1,0,0,1,0,0)" svgjs:data="{&quot;leading&quot;:&quot;1.3&quot;}"><tspan dy="0" x="0" svgjs:data="{&quot;newLined&quot;:true}">green</tspan></text></g></g></g><g transform="matrix(1,0,0,1,100.33,50.8)"><g><path d="M -1.27 -1.27 L -1.27 1.27 L 1.27 0 Z" stroke-width="0.127" stroke="#333333" fill="none"></path><path d="M 1.27 1.27 L 1.27 -1.27" stroke-width="0.127" stroke="#333333" fill="none"></path><path d="M 1.778 -0.762 L 2.8529872 -1.8369872" stroke-width="0.127" stroke="#333333" fill="none"></path><path d="M 2.6284808 -2.0614936 L 3.0774936 -1.6124808 L 3.302 -2.286 Z" stroke-width="0.127" stroke="#333333" fill="none"></path><path d="M 3.048 -0.762 L 4.1229872 -1.8369872" stroke-width="0.127" stroke="#333333" fill="none"></path><path d="M 3.8984808 -2.0614936 L 4.3474936 -1.6124808 L 4.572 -2.286 Z" stroke-width="0.127" stroke="#333333" fill="none"></path><path d="M 3.81 0 L 1.27 0" stroke-width="0.1524" stroke="#333333"></path><path d="M -3.81 0 L -1.27 0" stroke-width="0.1524" stroke="#333333"></path><g transform="matrix(-1,0,0,-1,1.651,0.381)"><text fill="#333333" font-family="Arial" font-size="0.96" text-anchor="start" dominant-baseline="hanging" font-weight="regular" style="white-space: pre;" transform="matrix(-1,1.2246467991473532e-16,-1.2246467991473532e-16,-1,0,0)" svgjs:data="{&quot;leading&quot;:&quot;1.3&quot;}"><tspan dy="0" x="0" svgjs:data="{&quot;newLined&quot;:true}">1</tspan></text></g><g transform="matrix(-1,0,0,-1,-1.651,0.381)"><text fill="#333333" font-family="Arial" font-size="0.96" text-anchor="end" dominant-baseline="hanging" font-weight="regular" style="white-space: pre;" transform="matrix(-1,1.2246467991473532e-16,-1.2246467991473532e-16,-1,0,0)" svgjs:data="{&quot;leading&quot;:&quot;1.3&quot;}"><tspan dy="0" x="0" svgjs:data="{&quot;newLined&quot;:true}">2</tspan></text></g><g transform="matrix(-1,0,0,-1,0,2.54)"><text fill="#333333" font-family="Arial" font-size="1.6" text-anchor="middle" dominant-baseline="alphabetic" font-weight="regular" style="white-space: pre;" transform="matrix(-1,1.2246467991473532e-16,-1.2246467991473532e-16,-1,0,0)" svgjs:data="{&quot;leading&quot;:&quot;1.3&quot;}"><tspan dy="0" x="0" svgjs:data="{&quot;newLined&quot;:true}">D7</tspan></text></g><g transform="matrix(-1,0,0,-1,0,-2.54)"><text fill="#333333" font-family="Arial" font-size="1.28" text-anchor="middle" dominant-baseline="hanging" font-weight="regular" style="white-space: pre;" transform="matrix(-1,1.2246467991473532e-16,-1.2246467991473532e-16,-1,0,0)" svgjs:data="{&quot;leading&quot;:&quot;1.3&quot;}"><tspan dy="0" x="0" svgjs:data="{&quot;newLined&quot;:true}">green</tspan></text></g></g></g><g transform="matrix(1,0,0,1,114.3,52.07)"><g><path d="M 1.27 -1.27 L -1.27 -1.27 L 0 1.27 Z" stroke-width="0.127" stroke="#333333" fill="none"></path><path d="M -1.27 1.27 L 1.27 1.27" stroke-width="0.127" stroke="#333333" fill="none"></path><path d="M 0.762 1.778 L 1.8369872 2.8529872" stroke-width="0.127" stroke="#333333" fill="none"></path><path d="M 2.0614936 2.6284808 L 1.6124808 3.0774936 L 2.286 3.302 Z" stroke-width="0.127" stroke="#333333" fill="none"></path><path d="M 0.762 3.048 L 1.8369872 4.1229872" stroke-width="0.127" stroke="#333333" fill="none"></path><path d="M 2.0614936 3.8984808 L 1.6124808 4.3474936 L 2.286 4.572 Z" stroke-width="0.127" stroke="#333333" fill="none"></path><path d="M 0 3.81 L 0 1.27" stroke-width="0.1524" stroke="#333333"></path><path d="M 0 -3.81 L 0 -1.27" stroke-width="0.1524" stroke="#333333"></path><g transform="matrix(0,-1,1,0,-0.381,1.651)"><text fill="#333333" font-family="Arial" font-size="0.96" text-anchor="end" dominant-baseline="alphabetic" font-weight="regular" style="white-space: pre;" transform="matrix(1,0,0,1,0,0)" svgjs:data="{&quot;leading&quot;:&quot;1.3&quot;}"><tspan dy="0" x="0" svgjs:data="{&quot;newLined&quot;:true}">1</tspan></text></g><g transform="matrix(0,-1,1,0,-0.381,-1.651)"><text fill="#333333" font-family="Arial" font-size="0.96" text-anchor="start" dominant-baseline="alphabetic" font-weight="regular" style="white-space: pre;" transform="matrix(1,0,0,1,0,0)" svgjs:data="{&quot;leading&quot;:&quot;1.3&quot;}"><tspan dy="0" x="0" svgjs:data="{&quot;newLined&quot;:true}">2</tspan></text></g><g transform="matrix(0,-1,1,0,-2.54,0)"><text fill="#333333" font-family="Arial" font-size="1.6" text-anchor="middle" dominant-baseline="hanging" font-weight="regular" style="white-space: pre;" transform="matrix(1,0,0,1,0,0)" svgjs:data="{&quot;leading&quot;:&quot;1.3&quot;}"><tspan dy="0" x="0" svgjs:data="{&quot;newLined&quot;:true}">D8</tspan></text></g><g transform="matrix(0,-1,1,0,2.54,0)"><text fill="#333333" font-family="Arial" font-size="1.28" text-anchor="middle" dominant-baseline="alphabetic" font-weight="regular" style="white-space: pre;" transform="matrix(1,0,0,1,0,0)" svgjs:data="{&quot;leading&quot;:&quot;1.3&quot;}"><tspan dy="0" x="0" svgjs:data="{&quot;newLined&quot;:true}">green</tspan></text></g></g></g><g transform="matrix(1,0,0,1,72.39,71.12)"><g><path d="M -1.27 -1.27 L -1.27 1.27 L 1.27 0 Z" stroke-width="0.127" stroke="#333333" fill="none"></path><path d="M 1.27 1.27 L 1.27 -1.27" stroke-width="0.127" stroke="#333333" fill="none"></path><path d="M 1.778 -0.762 L 2.8529872 -1.8369872" stroke-width="0.127" stroke="#333333" fill="none"></path><path d="M 2.6284808 -2.0614936 L 3.0774936 -1.6124808 L 3.302 -2.286 Z" stroke-width="0.127" stroke="#333333" fill="none"></path><path d="M 3.048 -0.762 L 4.1229872 -1.8369872" stroke-width="0.127" stroke="#333333" fill="none"></path><path d="M 3.8984808 -2.0614936 L 4.3474936 -1.6124808 L 4.572 -2.286 Z" stroke-width="0.127" stroke="#333333" fill="none"></path><path d="M 3.81 0 L 1.27 0" stroke-width="0.1524" stroke="#333333"></path><path d="M -3.81 0 L -1.27 0" stroke-width="0.1524" stroke="#333333"></path><g transform="matrix(1,0,0,1,1.651,0.381)"><text fill="#333333" font-family="Arial" font-size="0.96" text-anchor="start" dominant-baseline="hanging" font-weight="regular" style="white-space: pre;" transform="matrix(1,0,0,1,0,0)" svgjs:data="{&quot;leading&quot;:&quot;1.3&quot;}"><tspan dy="0" x="0" svgjs:data="{&quot;newLined&quot;:true}">1</tspan></text></g><g transform="matrix(1,0,0,1,-1.651,0.381)"><text fill="#333333" font-family="Arial" font-size="0.96" text-anchor="end" dominant-baseline="hanging" font-weight="regular" style="white-space: pre;" transform="matrix(1,0,0,1,0,0)" svgjs:data="{&quot;leading&quot;:&quot;1.3&quot;}"><tspan dy="0" x="0" svgjs:data="{&quot;newLined&quot;:true}">2</tspan></text></g><g transform="matrix(1,0,0,1,0,2.54)"><text fill="#333333" font-family="Arial" font-size="1.6" text-anchor="middle" dominant-baseline="alphabetic" font-weight="regular" style="white-space: pre;" transform="matrix(1,0,0,1,0,0)" svgjs:data="{&quot;leading&quot;:&quot;1.3&quot;}"><tspan dy="0" x="0" svgjs:data="{&quot;newLined&quot;:true}">D9</tspan></text></g><g transform="matrix(1,0,0,1,0,-2.54)"><text fill="#333333" font-family="Arial" font-size="1.28" text-anchor="middle" dominant-baseline="hanging" font-weight="regular" style="white-space: pre;" transform="matrix(1,0,0,1,0,0)" svgjs:data="{&quot;leading&quot;:&quot;1.3&quot;}"><tspan dy="0" x="0" svgjs:data="{&quot;newLined&quot;:true}">green</tspan></text></g></g></g><g transform="matrix(1,0,0,1,86.36,72.39)"><g><path d="M 1.27 -1.27 L -1.27 -1.27 L 0 1.27 Z" stroke-width="0.127" stroke="#333333" fill="none"></path><path d="M -1.27 1.27 L 1.27 1.27" stroke-width="0.127" stroke="#333333" fill="none"></path><path d="M 0.762 1.778 L 1.8369872 2.8529872" stroke-width="0.127" stroke="#333333" fill="none"></path><path d="M 2.0614936 2.6284808 L 1.6124808 3.0774936 L 2.286 3.302 Z" stroke-width="0.127" stroke="#333333" fill="none"></path><path d="M 0.762 3.048 L 1.8369872 4.1229872" stroke-width="0.127" stroke="#333333" fill="none"></path><path d="M 2.0614936 3.8984808 L 1.6124808 4.3474936 L 2.286 4.572 Z" stroke-width="0.127" stroke="#333333" fill="none"></path><path d="M 0 3.81 L 0 1.27" stroke-width="0.1524" stroke="#333333"></path><path d="M 0 -3.81 L 0 -1.27" stroke-width="0.1524" stroke="#333333"></path><g transform="matrix(0,1,-1,0,-0.381,1.651)"><text fill="#333333" font-family="Arial" font-size="0.96" text-anchor="start" dominant-baseline="hanging" font-weight="regular" style="white-space: pre;" transform="matrix(1,0,0,1,0,0)" svgjs:data="{&quot;leading&quot;:&quot;1.3&quot;}"><tspan dy="0" x="0" svgjs:data="{&quot;newLined&quot;:true}">1</tspan></text></g><g transform="matrix(0,1,-1,0,-0.381,-1.651)"><text fill="#333333" font-family="Arial" font-size="0.96" text-anchor="end" dominant-baseline="hanging" font-weight="regular" style="white-space: pre;" transform="matrix(1,0,0,1,0,0)" svgjs:data="{&quot;leading&quot;:&quot;1.3&quot;}"><tspan dy="0" x="0" svgjs:data="{&quot;newLined&quot;:true}">2</tspan></text></g><g transform="matrix(0,1,-1,0,-2.54,0)"><text fill="#333333" font-family="Arial" font-size="1.6" text-anchor="middle" dominant-baseline="alphabetic" font-weight="regular" style="white-space: pre;" transform="matrix(1,0,0,1,0,0)" svgjs:data="{&quot;leading&quot;:&quot;1.3&quot;}"><tspan dy="0" x="0" svgjs:data="{&quot;newLined&quot;:true}">D10</tspan></text></g><g transform="matrix(0,1,-1,0,2.54,0)"><text fill="#333333" font-family="Arial" font-size="1.28" text-anchor="middle" dominant-baseline="hanging" font-weight="regular" style="white-space: pre;" transform="matrix(1,0,0,1,0,0)" svgjs:data="{&quot;leading&quot;:&quot;1.3&quot;}"><tspan dy="0" x="0" svgjs:data="{&quot;newLined&quot;:true}">green</tspan></text></g></g></g><g transform="matrix(1,0,0,1,100.33,71.12)"><g><path d="M 1.27 1.27 L 1.27 -1.27 L -1.27 0 Z" stroke-width="0.127" stroke="#333333" fill="none"></path><path d="M -1.27 -1.27 L -1.27 1.27" stroke-width="0.127" stroke="#333333" fill="none"></path><path d="M -1.778 0.762 L -2.8529872 1.8369872" stroke-width="0.127" stroke="#333333" fill="none"></path><path d="M -2.6284808 2.0614936 L -3.0774936 1.6124808 L -3.302 2.286 Z" stroke-width="0.127" stroke="#333333" fill="none"></path><path d="M -3.048 0.762 L -4.1229872 1.8369872" stroke-width="0.127" stroke="#333333" fill="none"></path><path d="M -3.8984808 2.0614936 L -4.3474936 1.6124808 L -4.572 2.286 Z" stroke-width="0.127" stroke="#333333" fill="none"></path><path d="M -3.81 0 L -1.27 0" stroke-width="0.1524" stroke="#333333"></path><path d="M 3.81 0 L 1.27 0" stroke-width="0.1524" stroke="#333333"></path><g transform="matrix(-1,0,0,-1,-1.651,-0.381)"><text fill="#333333" font-family="Arial" font-size="0.96" text-anchor="end" dominant-baseline="alphabetic" font-weight="regular" style="white-space: pre;" transform="matrix(-1,1.2246467991473532e-16,-1.2246467991473532e-16,-1,0,0)" svgjs:data="{&quot;leading&quot;:&quot;1.3&quot;}"><tspan dy="0" x="0" svgjs:data="{&quot;newLined&quot;:true}">1</tspan></text></g><g transform="matrix(-1,0,0,-1,1.651,-0.381)"><text fill="#333333" font-family="Arial" font-size="0.96" text-anchor="start" dominant-baseline="alphabetic" font-weight="regular" style="white-space: pre;" transform="matrix(-1,1.2246467991473532e-16,-1.2246467991473532e-16,-1,0,0)" svgjs:data="{&quot;leading&quot;:&quot;1.3&quot;}"><tspan dy="0" x="0" svgjs:data="{&quot;newLined&quot;:true}">2</tspan></text></g><g transform="matrix(-1,0,0,-1,0,-2.54)"><text fill="#333333" font-family="Arial" font-size="1.6" text-anchor="middle" dominant-baseline="hanging" font-weight="regular" style="white-space: pre;" transform="matrix(-1,1.2246467991473532e-16,-1.2246467991473532e-16,-1,0,0)" svgjs:data="{&quot;leading&quot;:&quot;1.3&quot;}"><tspan dy="0" x="0" svgjs:data="{&quot;newLined&quot;:true}">D11</tspan></text></g><g transform="matrix(-1,0,0,-1,0,2.54)"><text fill="#333333" font-family="Arial" font-size="1.28" text-anchor="middle" dominant-baseline="alphabetic" font-weight="regular" style="white-space: pre;" transform="matrix(-1,1.2246467991473532e-16,-1.2246467991473532e-16,-1,0,0)" svgjs:data="{&quot;leading&quot;:&quot;1.3&quot;}"><tspan dy="0" x="0" svgjs:data="{&quot;newLined&quot;:true}">green</tspan></text></g></g></g><g transform="matrix(1,0,0,1,114.3,72.39)"><g><path d="M -1.27 1.27 L 1.27 1.27 L 0 -1.27 Z" stroke-width="0.127" stroke="#333333" fill="none"></path><path d="M 1.27 -1.27 L -1.27 -1.27" stroke-width="0.127" stroke="#333333" fill="none"></path><path d="M -0.762 -1.778 L -1.8369872 -2.8529872" stroke-width="0.127" stroke="#333333" fill="none"></path><path d="M -2.0614936 -2.6284808 L -1.6124808 -3.0774936 L -2.286 -3.302 Z" stroke-width="0.127" stroke="#333333" fill="none"></path><path d="M -0.762 -3.048 L -1.8369872 -4.1229872" stroke-width="0.127" stroke="#333333" fill="none"></path><path d="M -2.0614936 -3.8984808 L -1.6124808 -4.3474936 L -2.286 -4.572 Z" stroke-width="0.127" stroke="#333333" fill="none"></path><path d="M 0 -3.81 L 0 -1.27" stroke-width="0.1524" stroke="#333333"></path><path d="M 0 3.81 L 0 1.27" stroke-width="0.1524" stroke="#333333"></path><g transform="matrix(0,-1,1,0,0.381,-1.651)"><text fill="#333333" font-family="Arial" font-size="0.96" text-anchor="start" dominant-baseline="hanging" font-weight="regular" style="white-space: pre;" transform="matrix(1,0,0,1,0,0)" svgjs:data="{&quot;leading&quot;:&quot;1.3&quot;}"><tspan dy="0" x="0" svgjs:data="{&quot;newLined&quot;:true}">1</tspan></text></g><g transform="matrix(0,-1,1,0,0.381,1.651)"><text fill="#333333" font-family="Arial" font-size="0.96" text-anchor="end" dominant-baseline="hanging" font-weight="regular" style="white-space: pre;" transform="matrix(1,0,0,1,0,0)" svgjs:data="{&quot;leading&quot;:&quot;1.3&quot;}"><tspan dy="0" x="0" svgjs:data="{&quot;newLined&quot;:true}">2</tspan></text></g><g transform="matrix(0,-1,1,0,2.54,0)"><text fill="#333333" font-family="Arial" font-size="1.6" text-anchor="middle" dominant-baseline="alphabetic" font-weight="regular" style="white-space: pre;" transform="matrix(1,0,0,1,0,0)" svgjs:data="{&quot;leading&quot;:&quot;1.3&quot;}"><tspan dy="0" x="0" svgjs:data="{&quot;newLined&quot;:true}">D12</tspan></text></g><g transform="matrix(0,-1,1,0,-2.54,0)"><text fill="#333333" font-family="Arial" font-size="1.28" text-anchor="middle" dominant-baseline="hanging" font-weight="regular" style="white-space: pre;" transform="matrix(1,0,0,1,0,0)" svgjs:data="{&quot;leading&quot;:&quot;1.3&quot;}"><tspan dy="0" x="0" svgjs:data="{&quot;newLined&quot;:true}">green</tspan></text></g></g></g><g transform="matrix(1,0,0,1,72.39,91.44)"><g><path d="M 1.27 -1.27 L 1.27 1.27 L -1.27 0 Z" stroke-width="0.127" stroke="#333333" fill="none"></path><path d="M -1.27 1.27 L -1.27 -1.27" stroke-width="0.127" stroke="#333333" fill="none"></path><path d="M -1.778 -0.762 L -2.8529872 -1.8369872" stroke-width="0.127" stroke="#333333" fill="none"></path><path d="M -2.6284808 -2.0614936 L -3.0774936 -1.6124808 L -3.302 -2.286 Z" stroke-width="0.127" stroke="#333333" fill="none"></path><path d="M -3.048 -0.762 L -4.1229872 -1.8369872" stroke-width="0.127" stroke="#333333" fill="none"></path><path d="M -3.8984808 -2.0614936 L -4.3474936 -1.6124808 L -4.572 -2.286 Z" stroke-width="0.127" stroke="#333333" fill="none"></path><path d="M -3.81 0 L -1.27 0" stroke-width="0.1524" stroke="#333333"></path><path d="M 3.81 0 L 1.27 0" stroke-width="0.1524" stroke="#333333"></path><g transform="matrix(1,0,0,1,-1.651,0.381)"><text fill="#333333" font-family="Arial" font-size="0.96" text-anchor="end" dominant-baseline="hanging" font-weight="regular" style="white-space: pre;" transform="matrix(1,0,0,1,0,0)" svgjs:data="{&quot;leading&quot;:&quot;1.3&quot;}"><tspan dy="0" x="0" svgjs:data="{&quot;newLined&quot;:true}">1</tspan></text></g><g transform="matrix(1,0,0,1,1.651,0.381)"><text fill="#333333" font-family="Arial" font-size="0.96" text-anchor="start" dominant-baseline="hanging" font-weight="regular" style="white-space: pre;" transform="matrix(1,0,0,1,0,0)" svgjs:data="{&quot;leading&quot;:&quot;1.3&quot;}"><tspan dy="0" x="0" svgjs:data="{&quot;newLined&quot;:true}">2</tspan></text></g><g transform="matrix(1,0,0,1,0,2.54)"><text fill="#333333" font-family="Arial" font-size="1.6" text-anchor="middle" dominant-baseline="alphabetic" font-weight="regular" style="white-space: pre;" transform="matrix(1,0,0,1,0,0)" svgjs:data="{&quot;leading&quot;:&quot;1.3&quot;}"><tspan dy="0" x="0" svgjs:data="{&quot;newLined&quot;:true}">D13</tspan></text></g><g transform="matrix(1,0,0,1,0,-2.54)"><text fill="#333333" font-family="Arial" font-size="1.28" text-anchor="middle" dominant-baseline="hanging" font-weight="regular" style="white-space: pre;" transform="matrix(1,0,0,1,0,0)" svgjs:data="{&quot;leading&quot;:&quot;1.3&quot;}"><tspan dy="0" x="0" svgjs:data="{&quot;newLined&quot;:true}">green</tspan></text></g></g></g><g transform="matrix(1,0,0,1,86.36,92.71)"><g><path d="M 1.27 1.27 L -1.27 1.27 L 0 -1.27 Z" stroke-width="0.127" stroke="#333333" fill="none"></path><path d="M -1.27 -1.27 L 1.27 -1.27" stroke-width="0.127" stroke="#333333" fill="none"></path><path d="M 0.762 -1.778 L 1.8369872 -2.8529872" stroke-width="0.127" stroke="#333333" fill="none"></path><path d="M 2.0614936 -2.6284808 L 1.6124808 -3.0774936 L 2.286 -3.302 Z" stroke-width="0.127" stroke="#333333" fill="none"></path><path d="M 0.762 -3.048 L 1.8369872 -4.1229872" stroke-width="0.127" stroke="#333333" fill="none"></path><path d="M 2.0614936 -3.8984808 L 1.6124808 -4.3474936 L 2.286 -4.572 Z" stroke-width="0.127" stroke="#333333" fill="none"></path><path d="M 0 -3.81 L 0 -1.27" stroke-width="0.1524" stroke="#333333"></path><path d="M 0 3.81 L 0 1.27" stroke-width="0.1524" stroke="#333333"></path><g transform="matrix(0,1,-1,0,-0.381,-1.651)"><text fill="#333333" font-family="Arial" font-size="0.96" text-anchor="end" dominant-baseline="hanging" font-weight="regular" style="white-space: pre;" transform="matrix(1,0,0,1,0,0)" svgjs:data="{&quot;leading&quot;:&quot;1.3&quot;}"><tspan dy="0" x="0" svgjs:data="{&quot;newLined&quot;:true}">1</tspan></text></g><g transform="matrix(0,1,-1,0,-0.381,1.651)"><text fill="#333333" font-family="Arial" font-size="0.96" text-anchor="start" dominant-baseline="hanging" font-weight="regular" style="white-space: pre;" transform="matrix(1,0,0,1,0,0)" svgjs:data="{&quot;leading&quot;:&quot;1.3&quot;}"><tspan dy="0" x="0" svgjs:data="{&quot;newLined&quot;:true}">2</tspan></text></g><g transform="matrix(0,1,-1,0,-2.54,0)"><text fill="#333333" font-family="Arial" font-size="1.6" text-anchor="middle" dominant-baseline="alphabetic" font-weight="regular" style="white-space: pre;" transform="matrix(1,0,0,1,0,0)" svgjs:data="{&quot;leading&quot;:&quot;1.3&quot;}"><tspan dy="0" x="0" svgjs:data="{&quot;newLined&quot;:true}">D14</tspan></text></g><g transform="matrix(0,1,-1,0,2.54,0)"><text fill="#333333" font-family="Arial" font-size="1.28" text-anchor="middle" dominant-baseline="hanging" font-weight="regular" style="white-space: pre;" transform="matrix(1,0,0,1,0,0)" svgjs:data="{&quot;leading&quot;:&quot;1.3&quot;}"><tspan dy="0" x="0" svgjs:data="{&quot;newLined&quot;:true}">green</tspan></text></g></g></g><g transform="matrix(1,0,0,1,100.33,91.44)"><g><path d="M -1.27 1.27 L -1.27 -1.27 L 1.27 0 Z" stroke-width="0.127" stroke="#333333" fill="none"></path><path d="M 1.27 -1.27 L 1.27 1.27" stroke-width="0.127" stroke="#333333" fill="none"></path><path d="M 1.778 0.762 L 2.8529872 1.8369872" stroke-width="0.127" stroke="#333333" fill="none"></path><path d="M 2.6284808 2.0614936 L 3.0774936 1.6124808 L 3.302 2.286 Z" stroke-width="0.127" stroke="#333333" fill="none"></path><path d="M 3.048 0.762 L 4.1229872 1.8369872" stroke-width="0.127" stroke="#333333" fill="none"></path><path d="M 3.8984808 2.0614936 L 4.3474936 1.6124808 L 4.572 2.286 Z" stroke-width="0.127" stroke="#333333" fill="none"></path><path d="M 3.81 0 L 1.27 0" stroke-width="0.1524" stroke="#333333"></path><path d="M -3.81 0 L -1.27 0" stroke-width="0.1524" stroke="#333333"></path><g transform="matrix(-1,0,0,-1,1.651,-0.381)"><text fill="#333333" font-family="Arial" font-size="0.96" text-anchor="start" dominant-baseline="alphabetic" font-weight="regular" style="white-space: pre;" transform="matrix(-1,1.2246467991473532e-16,-1.2246467991473532e-16,-1,0,0)" svgjs:data="{&quot;leading&quot;:&quot;1.3&quot;}"><tspan dy="0" x="0" svgjs:data="{&quot;newLined&quot;:true}">1</tspan></text></g><g transform="matrix(-1,0,0,-1,-1.651,-0.381)"><text fill="#333333" font-family="Arial" font-size="0.96" text-anchor="end" dominant-baseline="alphabetic" font-weight="regular" style="white-space: pre;" transform="matrix(-1,1.2246467991473532e-16,-1.2246467991473532e-16,-1,0,0)" svgjs:data="{&quot;leading&quot;:&quot;1.3&quot;}"><tspan dy="0" x="0" svgjs:data="{&quot;newLined&quot;:true}">2</tspan></text></g><g transform="matrix(-1,0,0,-1,0,-2.54)"><text fill="#333333" font-family="Arial" font-size="1.6" text-anchor="middle" dominant-baseline="hanging" font-weight="regular" style="white-space: pre;" transform="matrix(-1,1.2246467991473532e-16,-1.2246467991473532e-16,-1,0,0)" svgjs:data="{&quot;leading&quot;:&quot;1.3&quot;}"><tspan dy="0" x="0" svgjs:data="{&quot;newLined&quot;:true}">D15</tspan></text></g><g transform="matrix(-1,0,0,-1,0,2.54)"><text fill="#333333" font-family="Arial" font-size="1.28" text-anchor="middle" dominant-baseline="alphabetic" font-weight="regular" style="white-space: pre;" transform="matrix(-1,1.2246467991473532e-16,-1.2246467991473532e-16,-1,0,0)" svgjs:data="{&quot;leading&quot;:&quot;1.3&quot;}"><tspan dy="0" x="0" svgjs:data="{&quot;newLined&quot;:true}">green</tspan></text></g></g></g><g transform="matrix(1,0,0,1,114.3,92.71)"><g><path d="M -1.27 -1.27 L 1.27 -1.27 L 0 1.27 Z" stroke-width="0.127" stroke="#333333" fill="none"></path><path d="M 1.27 1.27 L -1.27 1.27" stroke-width="0.127" stroke="#333333" fill="none"></path><path d="M -0.762 1.778 L -1.8369872 2.8529872" stroke-width="0.127" stroke="#333333" fill="none"></path><path d="M -2.0614936 2.6284808 L -1.6124808 3.0774936 L -2.286 3.302 Z" stroke-width="0.127" stroke="#333333" fill="none"></path><path d="M -0.762 3.048 L -1.8369872 4.1229872" stroke-width="0.127" stroke="#333333" fill="none"></path><path d="M -2.0614936 3.8984808 L -1.6124808 4.3474936 L -2.286 4.572 Z" stroke-width="0.127" stroke="#333333" fill="none"></path><path d="M 0 3.81 L 0 1.27" stroke-width="0.1524" stroke="#333333"></path><path d="M 0 -3.81 L 0 -1.27" stroke-width="0.1524" stroke="#333333"></path><g transform="matrix(0,-1,1,0,0.381,1.651)"><text fill="#333333" font-family="Arial" font-size="0.96" text-anchor="end" dominant-baseline="hanging" font-weight="regular" style="white-space: pre;" transform="matrix(1,0,0,1,0,0)" svgjs:data="{&quot;leading&quot;:&quot;1.3&quot;}"><tspan dy="0" x="0" svgjs:data="{&quot;newLined&quot;:true}">1</tspan></text></g><g transform="matrix(0,-1,1,0,0.381,-1.651)"><text fill="#333333" font-family="Arial" font-size="0.96" text-anchor="start" dominant-baseline="hanging" font-weight="regular" style="white-space: pre;" transform="matrix(1,0,0,1,0,0)" svgjs:data="{&quot;leading&quot;:&quot;1.3&quot;}"><tspan dy="0" x="0" svgjs:data="{&quot;newLined&quot;:true}">2</tspan></text></g><g transform="matrix(0,-1,1,0,2.54,0)"><text fill="#333333" font-family="Arial" font-size="1.6" text-anchor="middle" dominant-baseline="alphabetic" font-weight="regular" style="white-space: pre;" transform="matrix(1,0,0,1,0,0)" svgjs:data="{&quot;leading&quot;:&quot;1.3&quot;}"><tspan dy="0" x="0" svgjs:data="{&quot;newLined&quot;:true}">D16</tspan></text></g><g transform="matrix(0,-1,1,0,-2.54,0)"><text fill="#333333" font-family="Arial" font-size="1.28" text-anchor="middle" dominant-baseline="hanging" font-weight="regular" style="white-space: pre;" transform="matrix(1,0,0,1,0,0)" svgjs:data="{&quot;leading&quot;:&quot;1.3&quot;}"><tspan dy="0" x="0" svgjs:data="{&quot;newLined&quot;:true}">green</tspan></text></g></g></g><g></g><g></g><g><g transform="matrix(1,0,0,1,-10.16,-10.16)"><g><path d="M 0 0 L 210 0 L 210 148 L 0 148 Z" stroke-width="0.127" stroke="#cccccc" fill="none"></path><path d="M 10.16 10.16 L 199.84 10.16 L 199.84 137.84 L 10.16 137.84 Z" stroke-width="0.127" stroke="#111111" fill="none"></path><path d="M 8.89 8.89 L 201.11 8.89 L 201.11 139.11 L 8.89 139.11 Z" stroke-width="0.127" stroke="#111111" fill="none"></path><path d="M 8.89 52.296667 L 10.16 52.296667" stroke-width="0.127" stroke="#111111" fill="none"></path><path d="M 201.11 52.296667 L 199.84 52.296667" stroke-width="0.127" stroke="#111111" fill="none"></path><path d="M 8.89 95.703333 L 10.16 95.703333" stroke-width="0.127" stroke="#111111" fill="none"></path><path d="M 201.11 95.703333 L 199.84 95.703333" stroke-width="0.127" stroke="#111111" fill="none"></path><path d="M 56.945 8.89 L 56.945 10.16" stroke-width="0.127" stroke="#111111" fill="none"></path><path d="M 56.945 139.11 L 56.945 137.84" stroke-width="0.127" stroke="#111111" fill="none"></path><path d="M 105 8.89 L 105 10.16" stroke-width="0.127" stroke="#111111" fill="none"></path><path d="M 105 139.11 L 105 137.84" stroke-width="0.127" stroke="#111111" fill="none"></path><path d="M 153.055 8.89 L 153.055 10.16" stroke-width="0.127" stroke="#111111" fill="none"></path><path d="M 153.055 139.11 L 153.055 137.84" stroke-width="0.127" stroke="#111111" fill="none"></path><path d="M 149.04 135.3 L 199.84 135.3" stroke-width="0.127" stroke="#111111" fill="none"></path><path d="M 174.44 137.84 L 174.44 135.3" stroke-width="0.127" stroke="#111111" fill="none"></path><path d="M 149.04 132.76 L 199.84 132.76" stroke-width="0.127" stroke="#111111" fill="none"></path><path d="M 149.04 128.95 L 199.84 128.95 L 199.84 137.84 L 149.04 137.84 Z" stroke-width="0.127" stroke="#111111" fill="none"></path><g transform="matrix(1,0,0,1,32.9175,9.5758)"><text fill="#333333" font-family="Arial" font-size="0.96" text-anchor="middle" dominant-baseline="central" font-weight="regular" style="white-space: pre;" transform="matrix(1,0,0,1,0,0)" svgjs:data="{&quot;leading&quot;:&quot;1.3&quot;}"><tspan dy="0" x="0" svgjs:data="{&quot;newLined&quot;:true}">1</tspan></text></g><g transform="matrix(1,0,0,1,32.9175,138.5258)"><text fill="#333333" font-family="Arial" font-size="0.96" text-anchor="middle" dominant-baseline="central" font-weight="regular" style="white-space: pre;" transform="matrix(1,0,0,1,0,0)" svgjs:data="{&quot;leading&quot;:&quot;1.3&quot;}"><tspan dy="0" x="0" svgjs:data="{&quot;newLined&quot;:true}">1</tspan></text></g><g transform="matrix(1,0,0,1,80.9725,9.5758)"><text fill="#333333" font-family="Arial" font-size="0.96" text-anchor="middle" dominant-baseline="central" font-weight="regular" style="white-space: pre;" transform="matrix(1,0,0,1,0,0)" svgjs:data="{&quot;leading&quot;:&quot;1.3&quot;}"><tspan dy="0" x="0" svgjs:data="{&quot;newLined&quot;:true}">2</tspan></text></g><g transform="matrix(1,0,0,1,80.9725,138.5258)"><text fill="#333333" font-family="Arial" font-size="0.96" text-anchor="middle" dominant-baseline="central" font-weight="regular" style="white-space: pre;" transform="matrix(1,0,0,1,0,0)" svgjs:data="{&quot;leading&quot;:&quot;1.3&quot;}"><tspan dy="0" x="0" svgjs:data="{&quot;newLined&quot;:true}">2</tspan></text></g><g transform="matrix(1,0,0,1,129.0275,9.5758)"><text fill="#333333" font-family="Arial" font-size="0.96" text-anchor="middle" dominant-baseline="central" font-weight="regular" style="white-space: pre;" transform="matrix(1,0,0,1,0,0)" svgjs:data="{&quot;leading&quot;:&quot;1.3&quot;}"><tspan dy="0" x="0" svgjs:data="{&quot;newLined&quot;:true}">3</tspan></text></g><g transform="matrix(1,0,0,1,129.0275,138.5258)"><text fill="#333333" font-family="Arial" font-size="0.96" text-anchor="middle" dominant-baseline="central" font-weight="regular" style="white-space: pre;" transform="matrix(1,0,0,1,0,0)" svgjs:data="{&quot;leading&quot;:&quot;1.3&quot;}"><tspan dy="0" x="0" svgjs:data="{&quot;newLined&quot;:true}">3</tspan></text></g><g transform="matrix(1,0,0,1,177.0825,9.5758)"><text fill="#333333" font-family="Arial" font-size="0.96" text-anchor="middle" dominant-baseline="central" font-weight="regular" style="white-space: pre;" transform="matrix(1,0,0,1,0,0)" svgjs:data="{&quot;leading&quot;:&quot;1.3&quot;}"><tspan dy="0" x="0" svgjs:data="{&quot;newLined&quot;:true}">4</tspan></text></g><g transform="matrix(1,0,0,1,177.0825,138.5258)"><text fill="#333333" font-family="Arial" font-size="0.96" text-anchor="middle" dominant-baseline="central" font-weight="regular" style="white-space: pre;" transform="matrix(1,0,0,1,0,0)" svgjs:data="{&quot;leading&quot;:&quot;1.3&quot;}"><tspan dy="0" x="0" svgjs:data="{&quot;newLined&quot;:true}">4</tspan></text></g><g transform="matrix(1,0,0,1,9.525,30.593333)"><text fill="#333333" font-family="Arial" font-size="0.96" text-anchor="middle" dominant-baseline="central" font-weight="regular" style="white-space: pre;" transform="matrix(1,0,0,1,0,0)" svgjs:data="{&quot;leading&quot;:&quot;1.3&quot;}"><tspan dy="0" x="0" svgjs:data="{&quot;newLined&quot;:true}">A</tspan></text></g><g transform="matrix(1,0,0,1,200.475,30.593333)"><text fill="#333333" font-family="Arial" font-size="0.96" text-anchor="middle" dominant-baseline="central" font-weight="regular" style="white-space: pre;" transform="matrix(1,0,0,1,0,0)" svgjs:data="{&quot;leading&quot;:&quot;1.3&quot;}"><tspan dy="0" x="0" svgjs:data="{&quot;newLined&quot;:true}">A</tspan></text></g><g transform="matrix(1,0,0,1,9.525,74)"><text fill="#333333" font-family="Arial" font-size="0.96" text-anchor="middle" dominant-baseline="central" font-weight="regular" style="white-space: pre;" transform="matrix(1,0,0,1,0,0)" svgjs:data="{&quot;leading&quot;:&quot;1.3&quot;}"><tspan dy="0" x="0" svgjs:data="{&quot;newLined&quot;:true}">B</tspan></text></g><g transform="matrix(1,0,0,1,200.475,74)"><text fill="#333333" font-family="Arial" font-size="0.96" text-anchor="middle" dominant-baseline="central" font-weight="regular" style="white-space: pre;" transform="matrix(1,0,0,1,0,0)" svgjs:data="{&quot;leading&quot;:&quot;1.3&quot;}"><tspan dy="0" x="0" svgjs:data="{&quot;newLined&quot;:true}">B</tspan></text></g><g transform="matrix(1,0,0,1,9.525,117.406667)"><text fill="#333333" font-family="Arial" font-size="0.96" text-anchor="middle" dominant-baseline="central" font-weight="regular" style="white-space: pre;" transform="matrix(1,0,0,1,0,0)" svgjs:data="{&quot;leading&quot;:&quot;1.3&quot;}"><tspan dy="0" x="0" svgjs:data="{&quot;newLined&quot;:true}">C</tspan></text></g><g transform="matrix(1,0,0,1,200.475,117.406667)"><text fill="#333333" font-family="Arial" font-size="0.96" text-anchor="middle" dominant-baseline="central" font-weight="regular" style="white-space: pre;" transform="matrix(1,0,0,1,0,0)" svgjs:data="{&quot;leading&quot;:&quot;1.3&quot;}"><tspan dy="0" x="0" svgjs:data="{&quot;newLined&quot;:true}">C</tspan></text></g><g transform="matrix(1,0,0,1,149.548,137.078)"><text fill="#333333" font-family="Arial" font-size="1.6" text-anchor="start" dominant-baseline="alphabetic" font-weight="regular" style="white-space: pre;" transform="matrix(1,0,0,1,0,0)" svgjs:data="{&quot;leading&quot;:&quot;1.3&quot;}"><tspan dy="0" x="0" svgjs:data="{&quot;newLined&quot;:true}">Size: A5</tspan></text></g><g transform="matrix(1,0,0,1,174.948,137.078)"><text fill="#333333" font-family="Arial" font-size="1.6" text-anchor="start" dominant-baseline="alphabetic" font-weight="regular" style="white-space: pre;" transform="matrix(1,0,0,1,0,0)" svgjs:data="{&quot;leading&quot;:&quot;1.3&quot;}"><tspan dy="0" x="0" svgjs:data="{&quot;newLined&quot;:true}">Sheet: 1/1</tspan></text></g><g transform="matrix(1,0,0,1,149.548,134.538)"><text fill="#333333" font-family="Arial" font-size="1.6" text-anchor="start" dominant-baseline="alphabetic" font-weight="regular" style="white-space: pre;" transform="matrix(1,0,0,1,0,0)" svgjs:data="{&quot;leading&quot;:&quot;1.3&quot;}"><tspan dy="0" x="0" svgjs:data="{&quot;newLined&quot;:true}">Rev: V1</tspan></text></g><g transform="matrix(1,0,0,1,149.548,131.744)"><text fill="#333333" font-family="Arial" font-size="1.92" text-anchor="start" dominant-baseline="alphabetic" font-weight="bold" style="white-space: pre;" transform="matrix(1,0,0,1,0,0)" svgjs:data="{&quot;leading&quot;:&quot;1.3&quot;}"><tspan dy="0" x="0" svgjs:data="{&quot;newLined&quot;:true}">Sheet title</tspan></text></g></g></g><rect width="58.42" height="17.78" fill="none" stroke-width="0.127" stroke="#111111" transform="matrix(1,0,0,1,63.5,22.86)"></rect><rect width="58.42" height="17.78" fill="none" stroke-width="0.127" stroke="#111111" transform="matrix(1,0,0,1,63.5,43.18)"></rect><rect width="58.42" height="17.78" fill="none" stroke-width="0.127" stroke="#111111" transform="matrix(1,0,0,1,63.5,63.5)"></rect><rect width="58.42" height="17.78" fill="none" stroke-width="0.127" stroke="#111111" transform="matrix(1,0,0,1,63.5,83.82)"></rect></g></g></g></svg>