<svg xmlns="http://www.w3.org/2000/svg" version="1.1" xmlns:xlink="http://www.w3.org/1999/xlink" xmlns:svgjs="http://svgjs.dev/svgjs" width="647.9568702000001" height="361.055967117" viewBox="-2.54 -2.5781 68.58000000000001 38.2143"><g id="sheet-0" class="sheet" transform="matrix(1,0,0,1,0,0)"><g class="sheet-elements" transform="matrix(1,0,0,1,0,0)"><g transform="matrix(1,0,0,1,0,0)" class="grid"><path d="M -2.54 -2.5781 L -2.54 35.6362 M 0 -2.5781 L 0 35.6362 M 2.54 -2.5781 L 2.54 35.6362 M 5.08 -2.5781 L 5.08 35.6362 M 7.62 -2.5781 L 7.62 35.6362 M 10.16 -2.5781 L 10.16 35.6362 M 12.7 -2.5781 L 12.7 35.6362 M 15.24 -2.5781 L 15.24 35.6362 M 17.78 -2.5781 L 17.78 35.6362 M 20.32 -2.5781 L 20.32 35.6362 M 22.86 -2.5781 L 22.86 35.6362 M 25.4 -2.5781 L 25.4 35.6362 M 27.94 -2.5781 L 27.94 35.6362 M 30.48 -2.5781 L 30.48 35.6362 M 33.02 -2.5781 L 33.02 35.6362 M 35.56 -2.5781 L 35.56 35.6362 M 38.1 -2.5781 L 38.1 35.6362 M 40.64 -2.5781 L 40.64 35.6362 M 43.18 -2.5781 L 43.18 35.6362 M 45.72 -2.5781 L 45.72 35.6362 M 48.26 -2.5781 L 48.26 35.6362 M 50.8 -2.5781 L 50.8 35.6362 M 53.34 -2.5781 L 53.34 35.6362 M 55.88 -2.5781 L 55.88 35.6362 M 58.42 -2.5781 L 58.42 35.6362 M 60.96 -2.5781 L 60.96 35.6362 M 63.5 -2.5781 L 63.5 35.6362 M 66.04 -2.5781 L 66.04 35.6362" stroke-dasharray="0.0762,2.4638" stroke-width="0.0762" stroke="#000000"></path></g><g transform="matrix(1,0,0,1,7.62,8.89)"><title>line 11:9</title><g><path d="M -1.27 0 L 1.27 0" stroke-width="0.127" stroke="#333333" fill="none"></path><path d="M 0 1.27 L 0 0" stroke-width="0.1524" stroke="#333333"></path><g transform="matrix(1,0,0,1,0,-0.381)"><text fill="#333333" font-family="Arial" font-size="1.6" text-anchor="middle" dominant-baseline="alphabetic" font-weight="regular" style="white-space: pre;" transform="matrix(1,0,0,1,0,0)" svgjs:data="{&quot;leading&quot;:&quot;1.3&quot;}"><tspan dy="0" x="0" svgjs:data="{&quot;newLined&quot;:true}">VCC</tspan></text></g></g></g><g transform="matrix(1,0,0,1,7.62,12.7)"><title>line 14:9</title><g><path d="M 0 0 L 0 0" stroke-width="0.1524" stroke="#333333"></path><g transform="matrix(1,0,0,1,5.08,2.54)"><text fill="#333333" font-family="Arial" font-size="1.6" text-anchor="start" dominant-baseline="alphabetic" font-weight="regular" style="white-space: pre;" transform="matrix(1,0,0,1,0,0)" svgjs:data="{&quot;leading&quot;:&quot;1.3&quot;}"><tspan dy="0" x="0" svgjs:data="{&quot;newLined&quot;:true}">This is some text!</tspan><tspan dy="2.08" x="0" svgjs:data="{&quot;newLined&quot;:true}">Something else is here?</tspan><tspan dy="2.08" x="0" svgjs:data="{&quot;newLined&quot;:true}">Or now</tspan><tspan dy="2.08" x="0" svgjs:data="{&quot;newLined&quot;:true}">More lines              and spaces?</tspan><tspan dy="2.08" x="0" svgjs:data="{&quot;newLined&quot;:true}">line 1</tspan><tspan dy="2.08" x="0" svgjs:data="{&quot;newLined&quot;:true}">line2</tspan></text></g></g></g><g transform="matrix(1,0,0,1,7.62,16.51)"><title>line 23:12</title><g><path d="M -1.27 0 L 1.27 0 L 0 1.27 Z" stroke-width="0.127" stroke="#333333" fill="none"></path><path d="M 0 -1.27 L 0 0" stroke-width="0.1524" stroke="#333333"></path><g transform="matrix(1,0,0,1,0,2.54)"><text fill="#333333" font-family="Arial" font-size="1.6" text-anchor="middle" dominant-baseline="central" font-weight="regular" style="white-space: pre;" transform="matrix(1,0,0,1,0,0)" svgjs:data="{&quot;leading&quot;:&quot;1.3&quot;}"><tspan dy="0" x="0" svgjs:data="{&quot;newLined&quot;:true}">GND</tspan></text></g></g></g><g transform="matrix(1,0,0,1,45.72,8.89)"><title>line 26:9</title><g><path d="M -1.27 0 L 1.27 0" stroke-width="0.127" stroke="#333333" fill="none"></path><path d="M 0 1.27 L 0 0" stroke-width="0.1524" stroke="#333333"></path><g transform="matrix(1,0,0,1,0,-0.381)"><text fill="#333333" font-family="Arial" font-size="1.6" text-anchor="middle" dominant-baseline="alphabetic" font-weight="regular" style="white-space: pre;" transform="matrix(1,0,0,1,0,0)" svgjs:data="{&quot;leading&quot;:&quot;1.3&quot;}"><tspan dy="0" x="0" svgjs:data="{&quot;newLined&quot;:true}">VCC</tspan></text></g></g></g><g transform="matrix(1,0,0,1,45.72,12.7)"><title>line 28:9</title><g><path d="M 0 0 L 0 0" stroke-width="0.1524" stroke="#333333"></path><g transform="matrix(1,0,0,1,2.54,0)"><text fill="#333333" font-family="Arial" font-size="1.6" text-anchor="start" dominant-baseline="alphabetic" font-weight="regular" style="white-space: pre;" transform="matrix(1,0,0,1,0,0)" svgjs:data="{&quot;leading&quot;:&quot;1.3&quot;}"><tspan dy="0" x="0" svgjs:data="{&quot;newLined&quot;:true}">Hello world</tspan></text></g></g></g><g transform="matrix(1,0,0,1,45.72,16.51)"><title>line 33:12</title><g><path d="M -1.27 0 L 1.27 0 L 0 1.27 Z" stroke-width="0.127" stroke="#333333" fill="none"></path><path d="M 0 -1.27 L 0 0" stroke-width="0.1524" stroke="#333333"></path><g transform="matrix(1,0,0,1,0,2.54)"><text fill="#333333" font-family="Arial" font-size="1.6" text-anchor="middle" dominant-baseline="central" font-weight="regular" style="white-space: pre;" transform="matrix(1,0,0,1,0,0)" svgjs:data="{&quot;leading&quot;:&quot;1.3&quot;}"><tspan dy="0" x="0" svgjs:data="{&quot;newLined&quot;:true}">GND</tspan></text></g></g></g><g><path d="M7.62 10.16L7.62 12.7L7.62 15.24M45.72 10.16L45.72 12.7L45.72 15.24 " stroke-linecap="butt" stroke-opacity="0.3" stroke-width="0.2794" fill="none"></path></g><g><path d="M7.62 10.16L7.62 12.7L7.62 15.24M45.72 10.16L45.72 12.7L45.72 15.24 " stroke-linecap="butt" stroke-width="0.1524" stroke="#008400" fill="none"></path></g><g><rect width="35.56" height="27.94" fill="none" stroke-width="0.127" stroke="#111111" transform="matrix(1,0,0,1,2.54,2.54)"></rect><rect width="20.32" height="20.32" fill="none" stroke-width="0.127" stroke="#111111" transform="matrix(1,0,0,1,40.64,2.54)"></rect></g></g></g></svg>