<svg xmlns="http://www.w3.org/2000/svg" version="1.1" xmlns:xlink="http://www.w3.org/1999/xlink" xmlns:svgjs="http://svgjs.dev/svgjs" width="551.9632598000001" height="601.039993117" viewBox="-2.54 -2.5781 58.42 63.6143"><g font-family="Arial"><g id="sheet-0" class="sheet" transform="matrix(1,0,0,1,0,0)"><g class="sheet-elements" transform="matrix(1,0,0,1,0,0)"><g transform="matrix(1,0,0,1,0,0)" class="grid"><path d="M -2.54 -2.5781 L -2.54 61.0362 M 0 -2.5781 L 0 61.0362 M 2.54 -2.5781 L 2.54 61.0362 M 5.08 -2.5781 L 5.08 61.0362 M 7.62 -2.5781 L 7.62 61.0362 M 10.16 -2.5781 L 10.16 61.0362 M 12.7 -2.5781 L 12.7 61.0362 M 15.24 -2.5781 L 15.24 61.0362 M 17.78 -2.5781 L 17.78 61.0362 M 20.32 -2.5781 L 20.32 61.0362 M 22.86 -2.5781 L 22.86 61.0362 M 25.4 -2.5781 L 25.4 61.0362 M 27.94 -2.5781 L 27.94 61.0362 M 30.48 -2.5781 L 30.48 61.0362 M 33.02 -2.5781 L 33.02 61.0362 M 35.56 -2.5781 L 35.56 61.0362 M 38.1 -2.5781 L 38.1 61.0362 M 40.64 -2.5781 L 40.64 61.0362 M 43.18 -2.5781 L 43.18 61.0362 M 45.72 -2.5781 L 45.72 61.0362 M 48.26 -2.5781 L 48.26 61.0362 M 50.8 -2.5781 L 50.8 61.0362 M 53.34 -2.5781 L 53.34 61.0362 M 55.88 -2.5781 L 55.88 61.0362" class="grid"></path></g><g transform="matrix(1,0,0,1,17.78,21.59)"><title>line 13:17</title><path d="M -1.27 0 L 1.27 0" class="graphicLine"></path><path d="M 0 1.27 L 0 0" class="pin"></path><g transform="matrix(1,0,0,1,0,-0.381)"><text class="text" text-anchor="middle" dominant-baseline="alphabetic" font-size="1.6" font-weight="regular" style="white-space: pre;" transform="matrix(1,0,0,1,0,0)" svgjs:data="{&quot;leading&quot;:&quot;1.3&quot;}">3v3</text></g></g><g transform="matrix(1,0,0,1,17.78,27.94)"><title>Component R1: line 15:17</title><path d="M 0.762 -1.778 L 0.762 1.778 L -0.762 1.778 L -0.762 -1.778 Z" class="graphicLine styleOverride" style="fill: transparent;"></path><path d="M 0 -2.54 L 0 -1.778" class="pin"></path><path d="M 0 2.54 L 0 1.778" class="pin"></path><g transform="matrix(0,1,-1,0,1.27,-1.778)"><text class="text" text-anchor="start" dominant-baseline="alphabetic" font-size="1.6" font-weight="regular" style="white-space: pre;" transform="matrix(1,0,0,1,0,0)" svgjs:data="{&quot;leading&quot;:&quot;1.3&quot;}">R1</text></g><g transform="matrix(0,1,-1,0,0,0)"><text class="text" text-anchor="middle" dominant-baseline="central" font-size="0.96" font-weight="regular" style="white-space: pre;" transform="matrix(1,0,0,1,0,0)" svgjs:data="{&quot;leading&quot;:&quot;1.3&quot;}">20k</text></g></g><g transform="matrix(1,0,0,1,17.78,33.02)"><path d="M 0 0 L 0 0" class="pin"></path></g><g transform="matrix(1,0,0,1,17.78,38.1)"><title>Component R2: line 20:21</title><path d="M 0.762 -1.778 L 0.762 1.778 L -0.762 1.778 L -0.762 -1.778 Z" class="graphicLine styleOverride" style="fill: transparent;"></path><path d="M 0 -2.54 L 0 -1.778" class="pin"></path><path d="M 0 2.54 L 0 1.778" class="pin"></path><g transform="matrix(0,1,-1,0,1.27,-1.778)"><text class="text" text-anchor="start" dominant-baseline="alphabetic" font-size="1.6" font-weight="regular" style="white-space: pre;" transform="matrix(1,0,0,1,0,0)" svgjs:data="{&quot;leading&quot;:&quot;1.3&quot;}">R2</text></g><g transform="matrix(0,1,-1,0,0,0)"><text class="text" text-anchor="middle" dominant-baseline="central" font-size="0.96" font-weight="regular" style="white-space: pre;" transform="matrix(1,0,0,1,0,0)" svgjs:data="{&quot;leading&quot;:&quot;1.3&quot;}">20k</text></g></g><g transform="matrix(1,0,0,1,17.78,44.45)"><title>line 22:24</title><path d="M -1.27 0 L 1.27 0 L 0 1.27 Z" class="graphicLine styleOverride" style="fill: transparent;"></path><path d="M 0 -1.27 L 0 0" class="pin"></path><g transform="matrix(1,0,0,1,0,2.54)"><text class="text" text-anchor="middle" dominant-baseline="central" font-size="1.6" font-weight="regular" style="white-space: pre;" transform="matrix(1,0,0,1,0,0)" svgjs:data="{&quot;leading&quot;:&quot;1.3&quot;}">GND</text></g></g><g transform="matrix(1,0,0,1,20.574,33.02)"><title>line 24:20</title><path d="M 0 -1.27 L 0 1.27" class="graphicLine"></path><path d="M -1.27 0 L 0 0" class="pin"></path><g transform="matrix(0,1,-1,0,0.381,0)"><text class="text" text-anchor="middle" dominant-baseline="alphabetic" font-size="1.6" font-weight="regular" style="white-space: pre;" transform="matrix(1,0,0,1,0,0)" svgjs:data="{&quot;leading&quot;:&quot;1.3&quot;}">out</text></g></g><g transform="matrix(1,0,0,1,38.1,11.43)"><title>line 26:13</title><path d="M -1.27 0 L 1.27 0" class="graphicLine"></path><path d="M 0 1.27 L 0 0" class="pin"></path><g transform="matrix(1,0,0,1,0,-0.381)"><text class="text" text-anchor="middle" dominant-baseline="alphabetic" font-size="1.6" font-weight="regular" style="white-space: pre;" transform="matrix(1,0,0,1,0,0)" svgjs:data="{&quot;leading&quot;:&quot;1.3&quot;}">3v3</text></g></g><g transform="matrix(1,0,0,1,38.1,17.78)"><title>Component R3: line 28:13</title><path d="M 0.762 -1.778 L 0.762 1.778 L -0.762 1.778 L -0.762 -1.778 Z" class="graphicLine styleOverride" style="fill: transparent;"></path><path d="M 0 -2.54 L 0 -1.778" class="pin"></path><path d="M 0 2.54 L 0 1.778" class="pin"></path><g transform="matrix(0,1,-1,0,1.27,-1.778)"><text class="text" text-anchor="start" dominant-baseline="alphabetic" font-size="1.6" font-weight="regular" style="white-space: pre;" transform="matrix(1,0,0,1,0,0)" svgjs:data="{&quot;leading&quot;:&quot;1.3&quot;}">R3</text></g><g transform="matrix(0,1,-1,0,0,0)"><text class="text" text-anchor="middle" dominant-baseline="central" font-size="0.96" font-weight="regular" style="white-space: pre;" transform="matrix(1,0,0,1,0,0)" svgjs:data="{&quot;leading&quot;:&quot;1.3&quot;}">10k</text></g></g><g transform="matrix(1,0,0,1,43.18,19.05)"><title>line 30:16</title><path d="M -1.27 0 L 1.27 0" class="graphicLine"></path><path d="M 0 1.27 L 0 0" class="pin"></path><g transform="matrix(1,0,0,1,0,-0.381)"><text class="text" text-anchor="middle" dominant-baseline="alphabetic" font-size="1.6" font-weight="regular" style="white-space: pre;" transform="matrix(1,0,0,1,0,0)" svgjs:data="{&quot;leading&quot;:&quot;1.3&quot;}">out</text></g></g><g class="wires-highlight"></g><g class="wires"><path d="M17.78 22.86L17.78 25.4M38.1 12.7L38.1 15.24 " class="wire"></path><path d="M17.78 30.48L17.78 33.02L17.78 35.56M17.78 33.02L19.304 33.02M38.1 20.32L38.1 22.86L43.18 22.86L43.18 20.32 " class="wire"></path><circle r="0.254" cx="0.254" cy="0.254" transform="matrix(1,0,0,1,17.526,32.766)" class="junction"></circle><path d="M17.78 40.64L17.78 43.18 " class="wire"></path></g><g class="frames"><rect width="53.34" height="58.42" stroke-width="0.127px" class="frame" transform="matrix(1,0,0,1,0,0)"></rect><rect width="48.26" height="53.34" stroke-width="0.127px" class="frame" transform="matrix(1,0,0,1,2.54,2.54)"></rect><rect width="43.18" height="48.26" stroke-width="0.127px" class="frame" transform="matrix(1,0,0,1,5.08,5.08)"></rect><rect width="25.4" height="43.18" stroke-width="0.127px" class="frame" transform="matrix(1,0,0,1,7.62,7.62)"></rect></g><g transform="matrix(1,0,0,1,20.32,12.7)"><g transform="matrix(1,0,0,1,0,0)"><text class="text" text-anchor="middle" dominant-baseline="alphabetic" font-size="1.92" font-weight="bold" style="white-space: pre;" transform="matrix(1,0,0,1,0,0)" svgjs:data="{&quot;leading&quot;:&quot;1.3&quot;}">Voltage divider circuit</text></g></g></g></g></g><style>:root{--cs-wire-color:rgb(0, 132, 0);--cs-bus-wire-color:rgb(0,0,250);--cs-junction-color:rgb(0, 132, 0);--cs-bus-junction-color:rgb(0,0,250);--cs-line-color:#333;--cs-text-color:#333;--cs-grid-color:#000;--cs-frame-border-color:#111;}@media (prefers-color-scheme: dark){:root{--cs-bus-wire-color:rgb(110,110,255);--cs-junction-color:rgb(0, 200, 0);--cs-bus-junction-color:rgb(110,110,255);--cs-grid-color:#888;--cs-frame-border-color:#444;--cs-wire-color:rgb(0, 200, 0);--cs-line-color:#ccc;--cs-text-color:#ccc;}}.wire{stroke-width:0.1524px;stroke-linecap:butt;stroke:var(--cs-wire-color);fill:none;}.junction{fill:var(--cs-junction-color);stroke:none;}.pin{stroke-width:0.1524px;stroke:var(--cs-line-color);fill:none;}.graphicLine{stroke-width:0.127px;stroke:var(--cs-line-color);fill:none;}.grid{stroke:var(--cs-grid-color);stroke-width:0.0762px;stroke-dasharray:0.0762px,2.4638px;}.text{fill:var(--cs-text-color);}.frame{stroke:var(--cs-frame-border-color);fill:none;}text{font-family:Arial;}</style></svg>