<svg xmlns="http://www.w3.org/2000/svg" version="1.1" xmlns:xlink="http://www.w3.org/1999/xlink" xmlns:svgjs="http://svgjs.dev/svgjs" width="383.97444160000003" height="265.062356717" viewBox="-2.54 -2.5781 40.64 28.054299999999998"><g id="sheet-0" class="sheet" transform="matrix(1,0,0,1,0,0)"><g class="sheet-elements" transform="matrix(1,0,0,1,0,0)"><g transform="matrix(1,0,0,1,0,0)" class="grid"><path d="M -2.54 -2.5781 L -2.54 25.4762 M 0 -2.5781 L 0 25.4762 M 2.54 -2.5781 L 2.54 25.4762 M 5.08 -2.5781 L 5.08 25.4762 M 7.62 -2.5781 L 7.62 25.4762 M 10.16 -2.5781 L 10.16 25.4762 M 12.7 -2.5781 L 12.7 25.4762 M 15.24 -2.5781 L 15.24 25.4762 M 17.78 -2.5781 L 17.78 25.4762 M 20.32 -2.5781 L 20.32 25.4762 M 22.86 -2.5781 L 22.86 25.4762 M 25.4 -2.5781 L 25.4 25.4762 M 27.94 -2.5781 L 27.94 25.4762 M 30.48 -2.5781 L 30.48 25.4762 M 33.02 -2.5781 L 33.02 25.4762 M 35.56 -2.5781 L 35.56 25.4762 M 38.1 -2.5781 L 38.1 25.4762" stroke-dasharray="0.0762,2.4638" stroke-width="0.0762" stroke="#000000"></path></g><g transform="matrix(1,0,0,1,25.4,7.62)"><title>Component J3: line 7:1</title><g><path d="M -5.08 -5.08 L 5.08 -5.08 L 5.08 5.08 L -5.08 5.08 Z" stroke-width="0.127" stroke="#333333" fill="#ffffff"></path><path d="M -7.62 -2.54 L -5.08 -2.54" stroke-width="0.1524" stroke="#333333"></path><path d="M -7.62 0 L -5.08 0" stroke-width="0.1524" stroke="#333333"></path><path d="M -7.62 2.54 L -5.08 2.54" stroke-width="0.1524" stroke="#333333"></path><path d="M 7.62 -2.54 L 5.08 -2.54" stroke-width="0.1524" stroke="#333333"></path><path d="M 7.62 0 L 5.08 0" stroke-width="0.1524" stroke="#333333"></path><path d="M 7.62 2.54 L 5.08 2.54" stroke-width="0.1524" stroke="#333333"></path><g transform="matrix(1,0,0,1,-4.572,-2.54)"><text fill="#333333" font-family="Arial" font-size="1.28" text-anchor="start" dominant-baseline="central" font-weight="regular" style="white-space: pre;" transform="matrix(1,0,0,1,0,0)" svgjs:data="{&quot;leading&quot;:&quot;1.3&quot;}"><tspan dy="0" x="0" svgjs:data="{&quot;newLined&quot;:true}">A</tspan></text></g><g transform="matrix(1,0,0,1,-5.334,-2.794)"><text fill="#333333" font-family="Arial" font-size="0.96" text-anchor="end" dominant-baseline="alphabetic" font-weight="regular" style="white-space: pre;" transform="matrix(1,0,0,1,0,0)" svgjs:data="{&quot;leading&quot;:&quot;1.3&quot;}"><tspan dy="0" x="0" svgjs:data="{&quot;newLined&quot;:true}">1</tspan></text></g><g transform="matrix(1,0,0,1,-4.572,0)"><text fill="#333333" font-family="Arial" font-size="1.28" text-anchor="start" dominant-baseline="central" font-weight="regular" style="white-space: pre;" transform="matrix(1,0,0,1,0,0)" svgjs:data="{&quot;leading&quot;:&quot;1.3&quot;}"><tspan dy="0" x="0" svgjs:data="{&quot;newLined&quot;:true}">B</tspan></text></g><g transform="matrix(1,0,0,1,-5.334,-0.254)"><text fill="#333333" font-family="Arial" font-size="0.96" text-anchor="end" dominant-baseline="alphabetic" font-weight="regular" style="white-space: pre;" transform="matrix(1,0,0,1,0,0)" svgjs:data="{&quot;leading&quot;:&quot;1.3&quot;}"><tspan dy="0" x="0" svgjs:data="{&quot;newLined&quot;:true}">2</tspan></text></g><g transform="matrix(1,0,0,1,-4.572,2.54)"><text fill="#333333" font-family="Arial" font-size="1.28" text-anchor="start" dominant-baseline="central" font-weight="regular" style="white-space: pre;" transform="matrix(1,0,0,1,0,0)" svgjs:data="{&quot;leading&quot;:&quot;1.3&quot;}"><tspan dy="0" x="0" svgjs:data="{&quot;newLined&quot;:true}">C</tspan></text></g><g transform="matrix(1,0,0,1,-5.334,2.286)"><text fill="#333333" font-family="Arial" font-size="0.96" text-anchor="end" dominant-baseline="alphabetic" font-weight="regular" style="white-space: pre;" transform="matrix(1,0,0,1,0,0)" svgjs:data="{&quot;leading&quot;:&quot;1.3&quot;}"><tspan dy="0" x="0" svgjs:data="{&quot;newLined&quot;:true}">3</tspan></text></g><g transform="matrix(1,0,0,1,4.572,-2.54)"><text fill="#333333" font-family="Arial" font-size="1.28" text-anchor="end" dominant-baseline="central" font-weight="regular" style="white-space: pre;" transform="matrix(1,0,0,1,0,0)" svgjs:data="{&quot;leading&quot;:&quot;1.3&quot;}"><tspan dy="0" x="0" svgjs:data="{&quot;newLined&quot;:true}">D</tspan></text></g><g transform="matrix(1,0,0,1,5.334,-2.794)"><text fill="#333333" font-family="Arial" font-size="0.96" text-anchor="start" dominant-baseline="alphabetic" font-weight="regular" style="white-space: pre;" transform="matrix(1,0,0,1,0,0)" svgjs:data="{&quot;leading&quot;:&quot;1.3&quot;}"><tspan dy="0" x="0" svgjs:data="{&quot;newLined&quot;:true}">4</tspan></text></g><g transform="matrix(1,0,0,1,4.572,0)"><text fill="#333333" font-family="Arial" font-size="1.28" text-anchor="end" dominant-baseline="central" font-weight="regular" style="white-space: pre;" transform="matrix(1,0,0,1,0,0)" svgjs:data="{&quot;leading&quot;:&quot;1.3&quot;}"><tspan dy="0" x="0" svgjs:data="{&quot;newLined&quot;:true}">E</tspan></text></g><g transform="matrix(1,0,0,1,5.334,-0.254)"><text fill="#333333" font-family="Arial" font-size="0.96" text-anchor="start" dominant-baseline="alphabetic" font-weight="regular" style="white-space: pre;" transform="matrix(1,0,0,1,0,0)" svgjs:data="{&quot;leading&quot;:&quot;1.3&quot;}"><tspan dy="0" x="0" svgjs:data="{&quot;newLined&quot;:true}">5</tspan></text></g><g transform="matrix(1,0,0,1,4.572,2.54)"><text fill="#333333" font-family="Arial" font-size="1.28" text-anchor="end" dominant-baseline="central" font-weight="regular" style="white-space: pre;" transform="matrix(1,0,0,1,0,0)" svgjs:data="{&quot;leading&quot;:&quot;1.3&quot;}"><tspan dy="0" x="0" svgjs:data="{&quot;newLined&quot;:true}">F</tspan></text></g><g transform="matrix(1,0,0,1,5.334,2.286)"><text fill="#333333" font-family="Arial" font-size="0.96" text-anchor="start" dominant-baseline="alphabetic" font-weight="regular" style="white-space: pre;" transform="matrix(1,0,0,1,0,0)" svgjs:data="{&quot;leading&quot;:&quot;1.3&quot;}"><tspan dy="0" x="0" svgjs:data="{&quot;newLined&quot;:true}">6</tspan></text></g><g transform="matrix(1,0,0,1,-5.08,-5.588)"><text fill="#333333" font-family="Arial" font-size="1.6" text-anchor="start" dominant-baseline="alphabetic" font-weight="regular" style="white-space: pre;" transform="matrix(1,0,0,1,0,0)" svgjs:data="{&quot;leading&quot;:&quot;1.3&quot;}"><tspan dy="0" x="0" svgjs:data="{&quot;newLined&quot;:true}">J3</tspan></text></g></g></g><g transform="matrix(1,0,0,1,10.16,7.62)"><g><path d="M 0 0 L 0 0" stroke-width="0.1524" stroke="#333333"></path></g></g><g transform="matrix(1,0,0,1,10.16,12.7)"><title>Component R99: line 24:13</title><g><path d="M 0.762 -1.778 L 0.762 1.778 L -0.762 1.778 L -0.762 -1.778 Z" stroke-width="0.127" stroke="#333333" fill="transparent"></path><path d="M 0 -2.54 L 0 -1.778" stroke-width="0.1524" stroke="#333333"></path><path d="M 0 2.54 L 0 1.778" stroke-width="0.1524" stroke="#333333"></path><g transform="matrix(0,1,-1,0,1.27,-1.778)"><text fill="#333333" font-family="Arial" font-size="1.6" text-anchor="start" dominant-baseline="alphabetic" font-weight="regular" style="white-space: pre;" transform="matrix(1,0,0,1,0,0)" svgjs:data="{&quot;leading&quot;:&quot;1.3&quot;}"><tspan dy="0" x="0" svgjs:data="{&quot;newLined&quot;:true}">R99</tspan></text></g><g transform="matrix(0,1,-1,0,0,0)"><text fill="#333333" font-family="Arial" font-size="0.96" text-anchor="middle" dominant-baseline="central" font-weight="regular" style="white-space: pre;" transform="matrix(1,0,0,1,0,0)" svgjs:data="{&quot;leading&quot;:&quot;1.3&quot;}"><tspan dy="0" x="0" svgjs:data="{&quot;newLined&quot;:true}">10k</tspan></text></g></g></g><g transform="matrix(1,0,0,1,10.16,19.05)"><title>line 26:16</title><g><path d="M -1.27 0 L 1.27 0 L 0 1.27 Z" stroke-width="0.127" stroke="#333333" fill="transparent"></path><path d="M 0 -1.27 L 0 0" stroke-width="0.1524" stroke="#333333"></path><g transform="matrix(1,0,0,1,0,2.54)"><text fill="#333333" font-family="Arial" font-size="1.6" text-anchor="middle" dominant-baseline="central" font-weight="regular" style="white-space: pre;" transform="matrix(1,0,0,1,0,0)" svgjs:data="{&quot;leading&quot;:&quot;1.3&quot;}"><tspan dy="0" x="0" svgjs:data="{&quot;newLined&quot;:true}">GND</tspan></text></g></g></g><g transform="matrix(1,0,0,1,2.54,12.7)"><title>Component R9: line 30:13</title><g><path d="M 0.762 -1.778 L 0.762 1.778 L -0.762 1.778 L -0.762 -1.778 Z" stroke-width="0.127" stroke="#333333" fill="transparent"></path><path d="M 0 -2.54 L 0 -1.778" stroke-width="0.1524" stroke="#333333"></path><path d="M 0 2.54 L 0 1.778" stroke-width="0.1524" stroke="#333333"></path><g transform="matrix(0,1,-1,0,1.27,-1.778)"><text fill="#333333" font-family="Arial" font-size="1.6" text-anchor="start" dominant-baseline="alphabetic" font-weight="regular" style="white-space: pre;" transform="matrix(1,0,0,1,0,0)" svgjs:data="{&quot;leading&quot;:&quot;1.3&quot;}"><tspan dy="0" x="0" svgjs:data="{&quot;newLined&quot;:true}">R9</tspan></text></g><g transform="matrix(0,1,-1,0,0,0)"><text fill="#333333" font-family="Arial" font-size="0.96" text-anchor="middle" dominant-baseline="central" font-weight="regular" style="white-space: pre;" transform="matrix(1,0,0,1,0,0)" svgjs:data="{&quot;leading&quot;:&quot;1.3&quot;}"><tspan dy="0" x="0" svgjs:data="{&quot;newLined&quot;:true}">10k</tspan></text></g></g></g><g transform="matrix(1,0,0,1,2.54,19.05)"><title>line 32:16</title><g><path d="M -1.27 0 L 1.27 0 L 0 1.27 Z" stroke-width="0.127" stroke="#333333" fill="transparent"></path><path d="M 0 -1.27 L 0 0" stroke-width="0.1524" stroke="#333333"></path><g transform="matrix(1,0,0,1,0,2.54)"><text fill="#333333" font-family="Arial" font-size="1.6" text-anchor="middle" dominant-baseline="central" font-weight="regular" style="white-space: pre;" transform="matrix(1,0,0,1,0,0)" svgjs:data="{&quot;leading&quot;:&quot;1.3&quot;}"><tspan dy="0" x="0" svgjs:data="{&quot;newLined&quot;:true}">GND</tspan></text></g></g></g><g><path d="M17.78 5.08L10.16 5.08L10.16 7.62L10.16 10.16M10.16 7.62L2.54 7.62L2.54 10.16 " stroke-linecap="butt" stroke-opacity="0.3" stroke-width="0.2794" fill="none"></path><path d="M10.16 15.24L10.16 17.78M2.54 15.24L2.54 17.78 " stroke-linecap="butt" stroke-opacity="0.3" stroke-width="0.2794" fill="none"></path></g><g><path d="M17.78 5.08L10.16 5.08L10.16 7.62L10.16 10.16M10.16 7.62L2.54 7.62L2.54 10.16 " stroke-linecap="butt" stroke-width="0.1524" stroke="#008400" fill="none"></path><circle r="0.254" cx="0.254" cy="0.254" transform="matrix(1,0,0,1,9.906,7.366)" fill="#008400" stroke="none"></circle><path d="M10.16 15.24L10.16 17.78M2.54 15.24L2.54 17.78 " stroke-linecap="butt" stroke-width="0.1524" stroke="#008400" fill="none"></path></g><g></g></g></g></svg>