<svg xmlns="http://www.w3.org/2000/svg" version="1.1" xmlns:xlink="http://www.w3.org/1999/xlink" xmlns:svgjs="http://svgjs.dev/svgjs" width="503.96645459999996" height="289.060759317" viewBox="-2.54 -2.5781 53.339999999999996 30.5943"><g id="sheet-0" class="sheet" transform="matrix(1,0,0,1,0,0)"><g class="sheet-elements" transform="matrix(1,0,0,1,0,0)"><g transform="matrix(1,0,0,1,0,0)" class="grid"><path d="M -2.54 -2.5781 L -2.54 28.0162 M 0 -2.5781 L 0 28.0162 M 2.54 -2.5781 L 2.54 28.0162 M 5.08 -2.5781 L 5.08 28.0162 M 7.62 -2.5781 L 7.62 28.0162 M 10.16 -2.5781 L 10.16 28.0162 M 12.7 -2.5781 L 12.7 28.0162 M 15.24 -2.5781 L 15.24 28.0162 M 17.78 -2.5781 L 17.78 28.0162 M 20.32 -2.5781 L 20.32 28.0162 M 22.86 -2.5781 L 22.86 28.0162 M 25.4 -2.5781 L 25.4 28.0162 M 27.94 -2.5781 L 27.94 28.0162 M 30.48 -2.5781 L 30.48 28.0162 M 33.02 -2.5781 L 33.02 28.0162 M 35.56 -2.5781 L 35.56 28.0162 M 38.1 -2.5781 L 38.1 28.0162 M 40.64 -2.5781 L 40.64 28.0162 M 43.18 -2.5781 L 43.18 28.0162 M 45.72 -2.5781 L 45.72 28.0162 M 48.26 -2.5781 L 48.26 28.0162 M 50.8 -2.5781 L 50.8 28.0162" stroke-dasharray="0.0762,2.4638" stroke-width="0.0762" stroke="#000000"></path></g><g transform="matrix(1,0,0,1,15.24,3.81)"><g><path d="M -1.27 0 L 1.27 0" stroke-width="0.127" stroke="#333333" fill="none"></path><path d="M 0 1.27 L 0 0" stroke-width="0.1524" stroke="#333333"></path><g transform="matrix(1,0,0,1,0,-0.381)"><text fill="#333333" font-family="Arial" font-size="1.6" text-anchor="middle" dominant-baseline="text-top" font-weight="regular" xml:space="preserve" transform="matrix(1,0,0,1,0,0)" svgjs:data="{&quot;leading&quot;:&quot;1.3&quot;}"><tspan dy="0" x="0" svgjs:data="{&quot;newLined&quot;:true}">5V</tspan></text></g></g></g><g transform="matrix(1,0,0,1,25.4,10.16)"><g><path d="M -5.08 -5.08 L 5.08 -5.08 L 5.08 5.08 L -5.08 5.08 Z" stroke-width="0.127" stroke="#333333" fill="#ffffff"></path><path d="M -7.62 -2.54 L -5.08 -2.54" stroke-width="0.1524" stroke="#333333"></path><path d="M -7.62 0 L -5.08 0" stroke-width="0.1524" stroke="#333333"></path><path d="M -7.62 2.54 L -5.08 2.54" stroke-width="0.1524" stroke="#333333"></path><path d="M 7.62 -2.54 L 5.08 -2.54" stroke-width="0.1524" stroke="#333333"></path><path d="M 7.62 0 L 5.08 0" stroke-width="0.1524" stroke="#333333"></path><path d="M 7.62 2.54 L 5.08 2.54" stroke-width="0.1524" stroke="#333333"></path><g transform="matrix(1,0,0,1,-4.572,-2.54)"><text fill="#333333" font-family="Arial" font-size="1.28" text-anchor="start" dominant-baseline="central" font-weight="regular" xml:space="preserve" transform="matrix(1,0,0,1,0,0)" svgjs:data="{&quot;leading&quot;:&quot;1.3&quot;}"><tspan dy="0" x="0" svgjs:data="{&quot;newLined&quot;:true}">A</tspan></text></g><g transform="matrix(1,0,0,1,-5.334,-2.794)"><text fill="#333333" font-family="Arial" font-size="0.96" text-anchor="end" dominant-baseline="text-top" font-weight="regular" xml:space="preserve" transform="matrix(1,0,0,1,0,0)" svgjs:data="{&quot;leading&quot;:&quot;1.3&quot;}"><tspan dy="0" x="0" svgjs:data="{&quot;newLined&quot;:true}">1</tspan></text></g><g transform="matrix(1,0,0,1,-4.572,0)"><text fill="#333333" font-family="Arial" font-size="1.28" text-anchor="start" dominant-baseline="central" font-weight="regular" xml:space="preserve" transform="matrix(1,0,0,1,0,0)" svgjs:data="{&quot;leading&quot;:&quot;1.3&quot;}"><tspan dy="0" x="0" svgjs:data="{&quot;newLined&quot;:true}">B</tspan></text></g><g transform="matrix(1,0,0,1,-5.334,-0.254)"><text fill="#333333" font-family="Arial" font-size="0.96" text-anchor="end" dominant-baseline="text-top" font-weight="regular" xml:space="preserve" transform="matrix(1,0,0,1,0,0)" svgjs:data="{&quot;leading&quot;:&quot;1.3&quot;}"><tspan dy="0" x="0" svgjs:data="{&quot;newLined&quot;:true}">2</tspan></text></g><g transform="matrix(1,0,0,1,-4.572,2.54)"><text fill="#333333" font-family="Arial" font-size="1.28" text-anchor="start" dominant-baseline="central" font-weight="regular" xml:space="preserve" transform="matrix(1,0,0,1,0,0)" svgjs:data="{&quot;leading&quot;:&quot;1.3&quot;}"><tspan dy="0" x="0" svgjs:data="{&quot;newLined&quot;:true}">C</tspan></text></g><g transform="matrix(1,0,0,1,-5.334,2.286)"><text fill="#333333" font-family="Arial" font-size="0.96" text-anchor="end" dominant-baseline="text-top" font-weight="regular" xml:space="preserve" transform="matrix(1,0,0,1,0,0)" svgjs:data="{&quot;leading&quot;:&quot;1.3&quot;}"><tspan dy="0" x="0" svgjs:data="{&quot;newLined&quot;:true}">3</tspan></text></g><g transform="matrix(1,0,0,1,4.572,-2.54)"><text fill="#333333" font-family="Arial" font-size="1.28" text-anchor="end" dominant-baseline="central" font-weight="regular" xml:space="preserve" transform="matrix(1,0,0,1,0,0)" svgjs:data="{&quot;leading&quot;:&quot;1.3&quot;}"><tspan dy="0" x="0" svgjs:data="{&quot;newLined&quot;:true}">D</tspan></text></g><g transform="matrix(1,0,0,1,5.334,-2.794)"><text fill="#333333" font-family="Arial" font-size="0.96" text-anchor="start" dominant-baseline="text-top" font-weight="regular" xml:space="preserve" transform="matrix(1,0,0,1,0,0)" svgjs:data="{&quot;leading&quot;:&quot;1.3&quot;}"><tspan dy="0" x="0" svgjs:data="{&quot;newLined&quot;:true}">4</tspan></text></g><g transform="matrix(1,0,0,1,4.572,0)"><text fill="#333333" font-family="Arial" font-size="1.28" text-anchor="end" dominant-baseline="central" font-weight="regular" xml:space="preserve" transform="matrix(1,0,0,1,0,0)" svgjs:data="{&quot;leading&quot;:&quot;1.3&quot;}"><tspan dy="0" x="0" svgjs:data="{&quot;newLined&quot;:true}">E</tspan></text></g><g transform="matrix(1,0,0,1,5.334,-0.254)"><text fill="#333333" font-family="Arial" font-size="0.96" text-anchor="start" dominant-baseline="text-top" font-weight="regular" xml:space="preserve" transform="matrix(1,0,0,1,0,0)" svgjs:data="{&quot;leading&quot;:&quot;1.3&quot;}"><tspan dy="0" x="0" svgjs:data="{&quot;newLined&quot;:true}">5</tspan></text></g><g transform="matrix(1,0,0,1,4.572,2.54)"><text fill="#333333" font-family="Arial" font-size="1.28" text-anchor="end" dominant-baseline="central" font-weight="regular" xml:space="preserve" transform="matrix(1,0,0,1,0,0)" svgjs:data="{&quot;leading&quot;:&quot;1.3&quot;}"><tspan dy="0" x="0" svgjs:data="{&quot;newLined&quot;:true}">F</tspan></text></g><g transform="matrix(1,0,0,1,5.334,2.286)"><text fill="#333333" font-family="Arial" font-size="0.96" text-anchor="start" dominant-baseline="text-top" font-weight="regular" xml:space="preserve" transform="matrix(1,0,0,1,0,0)" svgjs:data="{&quot;leading&quot;:&quot;1.3&quot;}"><tspan dy="0" x="0" svgjs:data="{&quot;newLined&quot;:true}">6</tspan></text></g><g transform="matrix(1,0,0,1,-5.08,-5.588)"><text fill="#333333" font-family="Arial" font-size="1.6" text-anchor="start" dominant-baseline="text-top" font-weight="regular" xml:space="preserve" transform="matrix(1,0,0,1,0,0)" svgjs:data="{&quot;leading&quot;:&quot;1.3&quot;}"><tspan dy="0" x="0" svgjs:data="{&quot;newLined&quot;:true}">J1</tspan></text></g></g></g><g transform="matrix(1,0,0,1,10.16,10.16)"><g><path d="M 0 0 L 0 0" stroke-width="0.1524" stroke="#333333"></path></g></g><g transform="matrix(1,0,0,1,10.16,15.24)"><g><path d="M 0.762 -1.778 L 0.762 1.778 L -0.762 1.778 L -0.762 -1.778 Z" stroke-width="0.127" stroke="#333333" fill="none"></path><path d="M 0 -2.54 L 0 -1.778" stroke-width="0.1524" stroke="#333333"></path><path d="M 0 2.54 L 0 1.778" stroke-width="0.1524" stroke="#333333"></path><g transform="matrix(0,1,-1,0,1.27,-1.778)"><text fill="#333333" font-family="Arial" font-size="1.6" text-anchor="start" dominant-baseline="text-top" font-weight="regular" xml:space="preserve" transform="matrix(1,0,0,1,0,0)" svgjs:data="{&quot;leading&quot;:&quot;1.3&quot;}"><tspan dy="0" x="0" svgjs:data="{&quot;newLined&quot;:true}">R1</tspan></text></g><g transform="matrix(0,1,-1,0,0,0)"><text fill="#333333" font-family="Arial" font-size="0.96" text-anchor="middle" dominant-baseline="central" font-weight="regular" xml:space="preserve" transform="matrix(1,0,0,1,0,0)" svgjs:data="{&quot;leading&quot;:&quot;1.3&quot;}"><tspan dy="0" x="0" svgjs:data="{&quot;newLined&quot;:true}">10k</tspan></text></g></g></g><g transform="matrix(1,0,0,1,10.16,21.59)"><g><path d="M -1.27 0 L 1.27 0 L 0 1.27 Z" stroke-width="0.127" stroke="#333333" fill="none"></path><path d="M 0 -1.27 L 0 0" stroke-width="0.1524" stroke="#333333"></path><g transform="matrix(1,0,0,1,0,2.54)"><text fill="#333333" font-family="Arial" font-size="1.6" text-anchor="middle" dominant-baseline="central" font-weight="regular" xml:space="preserve" transform="matrix(1,0,0,1,0,0)" svgjs:data="{&quot;leading&quot;:&quot;1.3&quot;}"><tspan dy="0" x="0" svgjs:data="{&quot;newLined&quot;:true}">GND</tspan></text></g></g></g><g transform="matrix(1,0,0,1,2.54,15.24)"><g><path d="M 0.762 -1.778 L 0.762 1.778 L -0.762 1.778 L -0.762 -1.778 Z" stroke-width="0.127" stroke="#333333" fill="none"></path><path d="M 0 -2.54 L 0 -1.778" stroke-width="0.1524" stroke="#333333"></path><path d="M 0 2.54 L 0 1.778" stroke-width="0.1524" stroke="#333333"></path><g transform="matrix(0,1,-1,0,1.27,-1.778)"><text fill="#333333" font-family="Arial" font-size="1.6" text-anchor="start" dominant-baseline="text-top" font-weight="regular" xml:space="preserve" transform="matrix(1,0,0,1,0,0)" svgjs:data="{&quot;leading&quot;:&quot;1.3&quot;}"><tspan dy="0" x="0" svgjs:data="{&quot;newLined&quot;:true}">R2</tspan></text></g><g transform="matrix(0,1,-1,0,0,0)"><text fill="#333333" font-family="Arial" font-size="0.96" text-anchor="middle" dominant-baseline="central" font-weight="regular" xml:space="preserve" transform="matrix(1,0,0,1,0,0)" svgjs:data="{&quot;leading&quot;:&quot;1.3&quot;}"><tspan dy="0" x="0" svgjs:data="{&quot;newLined&quot;:true}">10k</tspan></text></g></g></g><g transform="matrix(1,0,0,1,2.54,21.59)"><g><path d="M -1.27 0 L 1.27 0 L 0 1.27 Z" stroke-width="0.127" stroke="#333333" fill="none"></path><path d="M 0 -1.27 L 0 0" stroke-width="0.1524" stroke="#333333"></path><g transform="matrix(1,0,0,1,0,2.54)"><text fill="#333333" font-family="Arial" font-size="1.6" text-anchor="middle" dominant-baseline="central" font-weight="regular" xml:space="preserve" transform="matrix(1,0,0,1,0,0)" svgjs:data="{&quot;leading&quot;:&quot;1.3&quot;}"><tspan dy="0" x="0" svgjs:data="{&quot;newLined&quot;:true}">GND</tspan></text></g></g></g><g transform="matrix(1,0,0,1,40.64,15.24)"><g><path d="M -1.524 0.508 L 1.524 0.508" stroke-width="0.3302" stroke="#333333" fill="none"></path><path d="M -1.524 -0.508 L 1.524 -0.508" stroke-width="0.3302" stroke="#333333" fill="none"></path><path d="M 0 -2.54 L 0 -0.508" stroke-width="0.1524" stroke="#333333"></path><path d="M 0 2.54 L 0 0.508" stroke-width="0.1524" stroke="#333333"></path><g transform="matrix(1,0,0,1,2.032,-0.762)"><text fill="#333333" font-family="Arial" font-size="1.6" text-anchor="start" dominant-baseline="central" font-weight="regular" xml:space="preserve" transform="matrix(1,0,0,1,0,0)" svgjs:data="{&quot;leading&quot;:&quot;1.3&quot;}"><tspan dy="0" x="0" svgjs:data="{&quot;newLined&quot;:true}">C1</tspan></text></g><g transform="matrix(1,0,0,1,2.032,0.762)"><text fill="#333333" font-family="Arial" font-size="1.6" text-anchor="start" dominant-baseline="central" font-weight="regular" xml:space="preserve" transform="matrix(1,0,0,1,0,0)" svgjs:data="{&quot;leading&quot;:&quot;1.3&quot;}"><tspan dy="0" x="0" svgjs:data="{&quot;newLined&quot;:true}">100n</tspan></text></g></g></g><g transform="matrix(1,0,0,1,40.64,21.59)"><g><path d="M -1.27 0 L 1.27 0 L 0 1.27 Z" stroke-width="0.127" stroke="#333333" fill="none"></path><path d="M 0 -1.27 L 0 0" stroke-width="0.1524" stroke="#333333"></path><g transform="matrix(1,0,0,1,0,2.54)"><text fill="#333333" font-family="Arial" font-size="1.6" text-anchor="middle" dominant-baseline="central" font-weight="regular" xml:space="preserve" transform="matrix(1,0,0,1,0,0)" svgjs:data="{&quot;leading&quot;:&quot;1.3&quot;}"><tspan dy="0" x="0" svgjs:data="{&quot;newLined&quot;:true}">GND</tspan></text></g></g></g><g transform="matrix(1,0,0,1,35.56,16.51)"><g><path d="M -1.27 0 L 1.27 0 L 0 1.27 Z" stroke-width="0.127" stroke="#333333" fill="none"></path><path d="M 0 -1.27 L 0 0" stroke-width="0.1524" stroke="#333333"></path><g transform="matrix(1,0,0,1,0,2.54)"><text fill="#333333" font-family="Arial" font-size="1.6" text-anchor="middle" dominant-baseline="central" font-weight="regular" xml:space="preserve" transform="matrix(1,0,0,1,0,0)" svgjs:data="{&quot;leading&quot;:&quot;1.3&quot;}"><tspan dy="0" x="0" svgjs:data="{&quot;newLined&quot;:true}">GND</tspan></text></g></g></g><g><path d="M15.24 5.08L15.24 7.62L17.78 7.62M15.24 7.62L10.16 7.62L10.16 10.16L10.16 12.7M10.16 10.16L2.54 10.16L2.54 12.7 " stroke-linecap="butt" stroke-opacity="0.3" stroke-width="0.2794" fill="none"></path><path d="M10.16 17.78L10.16 20.32M2.54 17.78L2.54 20.32M40.64 17.78L40.64 20.32M33.02 12.7L35.56 12.7L35.56 15.24 " stroke-linecap="butt" stroke-opacity="0.3" stroke-width="0.2794" fill="none"></path><path d="M33.02 10.16L40.64 10.16L40.64 12.7 " stroke-linecap="butt" stroke-opacity="0.3" stroke-width="0.2794" fill="none"></path></g><g><path d="M15.24 5.08L15.24 7.62L17.78 7.62M15.24 7.62L10.16 7.62L10.16 10.16L10.16 12.7M10.16 10.16L2.54 10.16L2.54 12.7 " stroke-linecap="butt" stroke-width="0.1524" stroke="#008400" fill="none"></path><circle r="0.254" cx="0.254" cy="0.254" transform="matrix(1,0,0,1,14.986,7.366)" fill="#008400" stroke="none"></circle><circle r="0.254" cx="0.254" cy="0.254" transform="matrix(1,0,0,1,9.906,9.906)" fill="#008400" stroke="none"></circle><path d="M10.16 17.78L10.16 20.32M2.54 17.78L2.54 20.32M40.64 17.78L40.64 20.32M33.02 12.7L35.56 12.7L35.56 15.24 " stroke-linecap="butt" stroke-width="0.1524" stroke="#008400" fill="none"></path><path d="M33.02 10.16L40.64 10.16L40.64 12.7 " stroke-linecap="butt" stroke-width="0.1524" stroke="#008400" fill="none"></path></g><g></g></g></g></svg>