<svg xmlns="http://www.w3.org/2000/svg" version="1.1" xmlns:xlink="http://www.w3.org/1999/xlink" xmlns:svgjs="http://svgjs.dev/svgjs" width="623.9584676000001" height="913.0192269170001" viewBox="-2.54 -2.5781 66.04 96.63430000000001"><g font-family="Arial" style="color-scheme: light dark;"><g id="sheet-0" class="sheet" transform="matrix(1,0,0,1,0,0)"><g class="sheet-elements" transform="matrix(1,0,0,1,0,0)"><g transform="matrix(1,0,0,1,0,0)" class="grid"><path d="M -2.54 -2.5781 L -2.54 94.0562 M 0 -2.5781 L 0 94.0562 M 2.54 -2.5781 L 2.54 94.0562 M 5.08 -2.5781 L 5.08 94.0562 M 7.62 -2.5781 L 7.62 94.0562 M 10.16 -2.5781 L 10.16 94.0562 M 12.7 -2.5781 L 12.7 94.0562 M 15.24 -2.5781 L 15.24 94.0562 M 17.78 -2.5781 L 17.78 94.0562 M 20.32 -2.5781 L 20.32 94.0562 M 22.86 -2.5781 L 22.86 94.0562 M 25.4 -2.5781 L 25.4 94.0562 M 27.94 -2.5781 L 27.94 94.0562 M 30.48 -2.5781 L 30.48 94.0562 M 33.02 -2.5781 L 33.02 94.0562 M 35.56 -2.5781 L 35.56 94.0562 M 38.1 -2.5781 L 38.1 94.0562 M 40.64 -2.5781 L 40.64 94.0562 M 43.18 -2.5781 L 43.18 94.0562 M 45.72 -2.5781 L 45.72 94.0562 M 48.26 -2.5781 L 48.26 94.0562 M 50.8 -2.5781 L 50.8 94.0562 M 53.34 -2.5781 L 53.34 94.0562 M 55.88 -2.5781 L 55.88 94.0562 M 58.42 -2.5781 L 58.42 94.0562 M 60.96 -2.5781 L 60.96 94.0562 M 63.5 -2.5781 L 63.5 94.0562" class="grid"></path></g><g class="wires-highlight"></g><g class="wires"><path d="M7.62 25.4L7.62 27.94M7.62 48.26L7.62 50.8M7.62 71.12L7.62 73.66M27.94 35.56L27.94 38.1M27.94 58.42L27.94 60.96M48.26 48.26L48.26 50.8 " class="wire"></path><path d="M7.62 33.02L7.62 35.56M7.62 55.88L7.62 58.42M7.62 78.74L7.62 81.28M27.94 43.18L27.94 45.72M27.94 66.04L27.94 68.58M48.26 55.88L48.26 58.42 " class="wire"></path></g><g transform="matrix(1,0,0,1,7.62,24.13)"><title>line 8:5</title><path d="M -1.27 0 L 1.27 0" class="graphicLine"></path><path d="M 0 1.27 L 0 0" class="pin"></path><g transform="matrix(1,0,0,1,0,-0.481)"><text class="text" text-anchor="middle" dominant-baseline="alphabetic" font-size="1.6" font-weight="regular" transform="matrix(1,0,0,1,0,0)" svgjs:data="{&quot;leading&quot;:&quot;1.3&quot;}"><tspan dy="0" x="0" svgjs:data="{&quot;newLined&quot;:true}">3v3</tspan></text></g></g><g transform="matrix(1,0,0,1,7.62,30.48)"><title>Component R1_1: line 10:5</title><path d="M 0.762 -1.778 L 0.762 1.778 L -0.762 1.778 L -0.762 -1.778 Z" class="graphicLine graphicPolygon"></path><path d="M 0 -2.54 L 0 -1.778" class="pin"></path><path d="M 0 2.54 L 0 1.778" class="pin"></path><g transform="matrix(0,1,-1,0,1.37,-1.778)"><text class="text" text-anchor="start" dominant-baseline="alphabetic" font-size="1.6" font-weight="regular" transform="matrix(1,0,0,1,0,0)" svgjs:data="{&quot;leading&quot;:&quot;1.3&quot;}"><tspan dy="0" x="0" svgjs:data="{&quot;newLined&quot;:true}">R1_1</tspan></text></g><g transform="matrix(0,1,-1,0,0.1,0)"><text class="text" text-anchor="middle" dominant-baseline="central" font-size="0.96" font-weight="regular" transform="matrix(1,0,0,1,0,0)" svgjs:data="{&quot;leading&quot;:&quot;1.3&quot;}"><tspan dy="0" x="0" svgjs:data="{&quot;newLined&quot;:true}">1</tspan></text></g></g><g transform="matrix(1,0,0,1,7.62,36.83)"><title>line 12:8</title><path d="M -1.27 0 L 1.27 0 L 0 1.27 Z" class="graphicLine graphicPolygon"></path><path d="M 0 -1.27 L 0 0" class="pin"></path><g transform="matrix(1,0,0,1,0,2.44)"><text class="text" text-anchor="middle" dominant-baseline="central" font-size="1.6" font-weight="regular" transform="matrix(1,0,0,1,0,0)" svgjs:data="{&quot;leading&quot;:&quot;1.3&quot;}"><tspan dy="0" x="0" svgjs:data="{&quot;newLined&quot;:true}">GND</tspan></text></g></g><g transform="matrix(1,0,0,1,7.62,46.99)"><title>line 8:5</title><path d="M -1.27 0 L 1.27 0" class="graphicLine"></path><path d="M 0 1.27 L 0 0" class="pin"></path><g transform="matrix(1,0,0,1,0,-0.481)"><text class="text" text-anchor="middle" dominant-baseline="alphabetic" font-size="1.6" font-weight="regular" transform="matrix(1,0,0,1,0,0)" svgjs:data="{&quot;leading&quot;:&quot;1.3&quot;}"><tspan dy="0" x="0" svgjs:data="{&quot;newLined&quot;:true}">3v3</tspan></text></g></g><g transform="matrix(1,0,0,1,7.62,53.34)"><title>Component R1_2: line 10:5</title><path d="M 0.762 -1.778 L 0.762 1.778 L -0.762 1.778 L -0.762 -1.778 Z" class="graphicLine graphicPolygon"></path><path d="M 0 -2.54 L 0 -1.778" class="pin"></path><path d="M 0 2.54 L 0 1.778" class="pin"></path><g transform="matrix(0,1,-1,0,1.37,-1.778)"><text class="text" text-anchor="start" dominant-baseline="alphabetic" font-size="1.6" font-weight="regular" transform="matrix(1,0,0,1,0,0)" svgjs:data="{&quot;leading&quot;:&quot;1.3&quot;}"><tspan dy="0" x="0" svgjs:data="{&quot;newLined&quot;:true}">R1_2</tspan></text></g><g transform="matrix(0,1,-1,0,0.1,0)"><text class="text" text-anchor="middle" dominant-baseline="central" font-size="0.96" font-weight="regular" transform="matrix(1,0,0,1,0,0)" svgjs:data="{&quot;leading&quot;:&quot;1.3&quot;}"><tspan dy="0" x="0" svgjs:data="{&quot;newLined&quot;:true}">2</tspan></text></g></g><g transform="matrix(1,0,0,1,7.62,59.69)"><title>line 12:8</title><path d="M -1.27 0 L 1.27 0 L 0 1.27 Z" class="graphicLine graphicPolygon"></path><path d="M 0 -1.27 L 0 0" class="pin"></path><g transform="matrix(1,0,0,1,0,2.44)"><text class="text" text-anchor="middle" dominant-baseline="central" font-size="1.6" font-weight="regular" transform="matrix(1,0,0,1,0,0)" svgjs:data="{&quot;leading&quot;:&quot;1.3&quot;}"><tspan dy="0" x="0" svgjs:data="{&quot;newLined&quot;:true}">GND</tspan></text></g></g><g transform="matrix(1,0,0,1,7.62,69.85)"><title>line 8:5</title><path d="M -1.27 0 L 1.27 0" class="graphicLine"></path><path d="M 0 1.27 L 0 0" class="pin"></path><g transform="matrix(1,0,0,1,0,-0.481)"><text class="text" text-anchor="middle" dominant-baseline="alphabetic" font-size="1.6" font-weight="regular" transform="matrix(1,0,0,1,0,0)" svgjs:data="{&quot;leading&quot;:&quot;1.3&quot;}"><tspan dy="0" x="0" svgjs:data="{&quot;newLined&quot;:true}">3v3</tspan></text></g></g><g transform="matrix(1,0,0,1,7.62,76.2)"><title>Component R1_3: line 10:5</title><path d="M 0.762 -1.778 L 0.762 1.778 L -0.762 1.778 L -0.762 -1.778 Z" class="graphicLine graphicPolygon"></path><path d="M 0 -2.54 L 0 -1.778" class="pin"></path><path d="M 0 2.54 L 0 1.778" class="pin"></path><g transform="matrix(0,1,-1,0,1.37,-1.778)"><text class="text" text-anchor="start" dominant-baseline="alphabetic" font-size="1.6" font-weight="regular" transform="matrix(1,0,0,1,0,0)" svgjs:data="{&quot;leading&quot;:&quot;1.3&quot;}"><tspan dy="0" x="0" svgjs:data="{&quot;newLined&quot;:true}">R1_3</tspan></text></g><g transform="matrix(0,1,-1,0,0.1,0)"><text class="text" text-anchor="middle" dominant-baseline="central" font-size="0.96" font-weight="regular" transform="matrix(1,0,0,1,0,0)" svgjs:data="{&quot;leading&quot;:&quot;1.3&quot;}"><tspan dy="0" x="0" svgjs:data="{&quot;newLined&quot;:true}">3</tspan></text></g></g><g transform="matrix(1,0,0,1,7.62,82.55)"><title>line 12:8</title><path d="M -1.27 0 L 1.27 0 L 0 1.27 Z" class="graphicLine graphicPolygon"></path><path d="M 0 -1.27 L 0 0" class="pin"></path><g transform="matrix(1,0,0,1,0,2.44)"><text class="text" text-anchor="middle" dominant-baseline="central" font-size="1.6" font-weight="regular" transform="matrix(1,0,0,1,0,0)" svgjs:data="{&quot;leading&quot;:&quot;1.3&quot;}"><tspan dy="0" x="0" svgjs:data="{&quot;newLined&quot;:true}">GND</tspan></text></g></g><g transform="matrix(1,0,0,1,27.94,34.29)"><title>line 8:5</title><path d="M -1.27 0 L 1.27 0" class="graphicLine"></path><path d="M 0 1.27 L 0 0" class="pin"></path><g transform="matrix(1,0,0,1,0,-0.481)"><text class="text" text-anchor="middle" dominant-baseline="alphabetic" font-size="1.6" font-weight="regular" transform="matrix(1,0,0,1,0,0)" svgjs:data="{&quot;leading&quot;:&quot;1.3&quot;}"><tspan dy="0" x="0" svgjs:data="{&quot;newLined&quot;:true}">3v3</tspan></text></g></g><g transform="matrix(1,0,0,1,27.94,40.64)"><title>Component R1_4: line 10:5</title><path d="M 0.762 -1.778 L 0.762 1.778 L -0.762 1.778 L -0.762 -1.778 Z" class="graphicLine graphicPolygon"></path><path d="M 0 -2.54 L 0 -1.778" class="pin"></path><path d="M 0 2.54 L 0 1.778" class="pin"></path><g transform="matrix(0,1,-1,0,1.37,-1.778)"><text class="text" text-anchor="start" dominant-baseline="alphabetic" font-size="1.6" font-weight="regular" transform="matrix(1,0,0,1,0,0)" svgjs:data="{&quot;leading&quot;:&quot;1.3&quot;}"><tspan dy="0" x="0" svgjs:data="{&quot;newLined&quot;:true}">R1_4</tspan></text></g><g transform="matrix(0,1,-1,0,0.1,0)"><text class="text" text-anchor="middle" dominant-baseline="central" font-size="0.96" font-weight="regular" transform="matrix(1,0,0,1,0,0)" svgjs:data="{&quot;leading&quot;:&quot;1.3&quot;}"><tspan dy="0" x="0" svgjs:data="{&quot;newLined&quot;:true}">4</tspan></text></g></g><g transform="matrix(1,0,0,1,27.94,46.99)"><title>line 12:8</title><path d="M -1.27 0 L 1.27 0 L 0 1.27 Z" class="graphicLine graphicPolygon"></path><path d="M 0 -1.27 L 0 0" class="pin"></path><g transform="matrix(1,0,0,1,0,2.44)"><text class="text" text-anchor="middle" dominant-baseline="central" font-size="1.6" font-weight="regular" transform="matrix(1,0,0,1,0,0)" svgjs:data="{&quot;leading&quot;:&quot;1.3&quot;}"><tspan dy="0" x="0" svgjs:data="{&quot;newLined&quot;:true}">GND</tspan></text></g></g><g transform="matrix(1,0,0,1,27.94,57.15)"><title>line 8:5</title><path d="M -1.27 0 L 1.27 0" class="graphicLine"></path><path d="M 0 1.27 L 0 0" class="pin"></path><g transform="matrix(1,0,0,1,0,-0.481)"><text class="text" text-anchor="middle" dominant-baseline="alphabetic" font-size="1.6" font-weight="regular" transform="matrix(1,0,0,1,0,0)" svgjs:data="{&quot;leading&quot;:&quot;1.3&quot;}"><tspan dy="0" x="0" svgjs:data="{&quot;newLined&quot;:true}">3v3</tspan></text></g></g><g transform="matrix(1,0,0,1,27.94,63.5)"><title>Component R1_5: line 10:5</title><path d="M 0.762 -1.778 L 0.762 1.778 L -0.762 1.778 L -0.762 -1.778 Z" class="graphicLine graphicPolygon"></path><path d="M 0 -2.54 L 0 -1.778" class="pin"></path><path d="M 0 2.54 L 0 1.778" class="pin"></path><g transform="matrix(0,1,-1,0,1.37,-1.778)"><text class="text" text-anchor="start" dominant-baseline="alphabetic" font-size="1.6" font-weight="regular" transform="matrix(1,0,0,1,0,0)" svgjs:data="{&quot;leading&quot;:&quot;1.3&quot;}"><tspan dy="0" x="0" svgjs:data="{&quot;newLined&quot;:true}">R1_5</tspan></text></g><g transform="matrix(0,1,-1,0,0.1,0)"><text class="text" text-anchor="middle" dominant-baseline="central" font-size="0.96" font-weight="regular" transform="matrix(1,0,0,1,0,0)" svgjs:data="{&quot;leading&quot;:&quot;1.3&quot;}"><tspan dy="0" x="0" svgjs:data="{&quot;newLined&quot;:true}">5</tspan></text></g></g><g transform="matrix(1,0,0,1,27.94,69.85)"><title>line 12:8</title><path d="M -1.27 0 L 1.27 0 L 0 1.27 Z" class="graphicLine graphicPolygon"></path><path d="M 0 -1.27 L 0 0" class="pin"></path><g transform="matrix(1,0,0,1,0,2.44)"><text class="text" text-anchor="middle" dominant-baseline="central" font-size="1.6" font-weight="regular" transform="matrix(1,0,0,1,0,0)" svgjs:data="{&quot;leading&quot;:&quot;1.3&quot;}"><tspan dy="0" x="0" svgjs:data="{&quot;newLined&quot;:true}">GND</tspan></text></g></g><g transform="matrix(1,0,0,1,48.26,46.99)"><title>line 8:5</title><path d="M -1.27 0 L 1.27 0" class="graphicLine"></path><path d="M 0 1.27 L 0 0" class="pin"></path><g transform="matrix(1,0,0,1,0,-0.481)"><text class="text" text-anchor="middle" dominant-baseline="alphabetic" font-size="1.6" font-weight="regular" transform="matrix(1,0,0,1,0,0)" svgjs:data="{&quot;leading&quot;:&quot;1.3&quot;}"><tspan dy="0" x="0" svgjs:data="{&quot;newLined&quot;:true}">3v3</tspan></text></g></g><g transform="matrix(1,0,0,1,48.26,53.34)"><title>Component R1_6: line 10:5</title><path d="M 0.762 -1.778 L 0.762 1.778 L -0.762 1.778 L -0.762 -1.778 Z" class="graphicLine graphicPolygon"></path><path d="M 0 -2.54 L 0 -1.778" class="pin"></path><path d="M 0 2.54 L 0 1.778" class="pin"></path><g transform="matrix(0,1,-1,0,1.37,-1.778)"><text class="text" text-anchor="start" dominant-baseline="alphabetic" font-size="1.6" font-weight="regular" transform="matrix(1,0,0,1,0,0)" svgjs:data="{&quot;leading&quot;:&quot;1.3&quot;}"><tspan dy="0" x="0" svgjs:data="{&quot;newLined&quot;:true}">R1_6</tspan></text></g><g transform="matrix(0,1,-1,0,0.1,0)"><text class="text" text-anchor="middle" dominant-baseline="central" font-size="0.96" font-weight="regular" transform="matrix(1,0,0,1,0,0)" svgjs:data="{&quot;leading&quot;:&quot;1.3&quot;}"><tspan dy="0" x="0" svgjs:data="{&quot;newLined&quot;:true}">6</tspan></text></g></g><g transform="matrix(1,0,0,1,48.26,59.69)"><title>line 12:8</title><path d="M -1.27 0 L 1.27 0 L 0 1.27 Z" class="graphicLine graphicPolygon"></path><path d="M 0 -1.27 L 0 0" class="pin"></path><g transform="matrix(1,0,0,1,0,2.44)"><text class="text" text-anchor="middle" dominant-baseline="central" font-size="1.6" font-weight="regular" transform="matrix(1,0,0,1,0,0)" svgjs:data="{&quot;leading&quot;:&quot;1.3&quot;}"><tspan dy="0" x="0" svgjs:data="{&quot;newLined&quot;:true}">GND</tspan></text></g></g><g class="frames"><rect width="60.96" height="91.44" stroke-width="0.127px" class="frame" transform="matrix(1,0,0,1,0,0)"></rect><rect width="15.24" height="78.74" stroke-width="0.127px" class="frame" transform="matrix(1,0,0,1,2.54,10.16)"></rect><rect width="20.32" height="55.88" stroke-width="0.127px" class="frame" transform="matrix(1,0,0,1,20.32,20.32)"></rect><rect width="15.24" height="33.02" stroke-width="0.127px" class="frame" transform="matrix(1,0,0,1,43.18,33.02)"></rect></g><g transform="matrix(1,0,0,1,30.48,5.08)"><g transform="matrix(1,0,0,1,0,-0.1)"><text class="text" text-anchor="middle" dominant-baseline="alphabetic" font-size="1.92" font-weight="bold" transform="matrix(1,0,0,1,0,0)" svgjs:data="{&quot;leading&quot;:&quot;1.3&quot;}"><tspan dy="0" x="0" svgjs:data="{&quot;newLined&quot;:true}">Outer row</tspan></text></g></g><g transform="matrix(1,0,0,1,10.16,15.24)"><g transform="matrix(1,0,0,1,0,-0.1)"><text class="text" text-anchor="middle" dominant-baseline="alphabetic" font-size="1.92" font-weight="bold" transform="matrix(1,0,0,1,0,0)" svgjs:data="{&quot;leading&quot;:&quot;1.3&quot;}"><tspan dy="0" x="0" svgjs:data="{&quot;newLined&quot;:true}">Left column</tspan></text></g></g><g transform="matrix(1,0,0,1,30.48,25.4)"><g transform="matrix(1,0,0,1,0,-0.1)"><text class="text" text-anchor="middle" dominant-baseline="alphabetic" font-size="1.92" font-weight="bold" transform="matrix(1,0,0,1,0,0)" svgjs:data="{&quot;leading&quot;:&quot;1.3&quot;}"><tspan dy="0" x="0" svgjs:data="{&quot;newLined&quot;:true}">Right column</tspan></text></g></g><g transform="matrix(1,0,0,1,50.8,38.1)"><g transform="matrix(1,0,0,1,0,-0.1)"><text class="text" text-anchor="middle" dominant-baseline="alphabetic" font-size="1.92" font-weight="bold" transform="matrix(1,0,0,1,0,0)" svgjs:data="{&quot;leading&quot;:&quot;1.3&quot;}"><tspan dy="0" x="0" svgjs:data="{&quot;newLined&quot;:true}">Single</tspan></text></g></g></g></g></g><style>:root{--cs-wire-color:rgb(0, 132, 0);--cs-bus-wire-color:rgb(0,0,250);--cs-junction-color:rgb(0, 132, 0);--cs-bus-junction-color:rgb(0,0,250);--cs-line-color:#333;--cs-text-color:#333;--cs-grid-color:#000;--cs-frame-border-color:#111;--cs-body-color:rgb(255, 255, 255);}@media (prefers-color-scheme: dark){:root{--cs-bus-wire-color:rgb(110,110,255);--cs-junction-color:rgb(0, 200, 0);--cs-bus-junction-color:rgb(110,110,255);--cs-grid-color:#888;--cs-frame-border-color:#444;--cs-body-color:rgb(0, 0, 0);--cs-wire-color:rgb(0, 200, 0);--cs-line-color:#ccc;--cs-text-color:#ccc;}}.wire{stroke-width:0.1524px;stroke-linecap:butt;stroke:var(--cs-wire-color);fill:none;}.pin{stroke-width:0.1524px;stroke:var(--cs-line-color);fill:none;}.graphicLine{stroke-width:0.127px;stroke:var(--cs-line-color);fill:none;}.graphicPolygon{fill:var(--cs-body-color);}.grid{stroke:var(--cs-grid-color);stroke-width:0.0762px;stroke-dasharray:0.0762px,2.4638px;}.text{fill:var(--cs-text-color);}.frame{stroke:var(--cs-frame-border-color);fill:none;}text{font-family:Arial;}text tspan{white-space:pre;}</style></svg>