<svg xmlns="http://www.w3.org/2000/svg" version="1.1" xmlns:xlink="http://www.w3.org/1999/xlink" xmlns:svgjs="http://svgjs.dev/svgjs" width="527.9648572000001" height="337.05756451700006" viewBox="-2.54 -2.5781 55.88 35.6743"><g id="sheet-0" class="sheet" transform="matrix(1,0,0,1,0,0)"><g class="sheet-elements" transform="matrix(1,0,0,1,0,0)"><g transform="matrix(1,0,0,1,0,0)" class="grid"><path d="M -2.54 -2.5781 L -2.54 33.0962 M 0 -2.5781 L 0 33.0962 M 2.54 -2.5781 L 2.54 33.0962 M 5.08 -2.5781 L 5.08 33.0962 M 7.62 -2.5781 L 7.62 33.0962 M 10.16 -2.5781 L 10.16 33.0962 M 12.7 -2.5781 L 12.7 33.0962 M 15.24 -2.5781 L 15.24 33.0962 M 17.78 -2.5781 L 17.78 33.0962 M 20.32 -2.5781 L 20.32 33.0962 M 22.86 -2.5781 L 22.86 33.0962 M 25.4 -2.5781 L 25.4 33.0962 M 27.94 -2.5781 L 27.94 33.0962 M 30.48 -2.5781 L 30.48 33.0962 M 33.02 -2.5781 L 33.02 33.0962 M 35.56 -2.5781 L 35.56 33.0962 M 38.1 -2.5781 L 38.1 33.0962 M 40.64 -2.5781 L 40.64 33.0962 M 43.18 -2.5781 L 43.18 33.0962 M 45.72 -2.5781 L 45.72 33.0962 M 48.26 -2.5781 L 48.26 33.0962 M 50.8 -2.5781 L 50.8 33.0962 M 53.34 -2.5781 L 53.34 33.0962" stroke-dasharray="0.0762,2.4638" stroke-width="0.0762" stroke="#000000"></path></g><g transform="matrix(1,0,0,1,10.16,13.97)"><g><path d="M 5.08 -3.81 L -5.08 -3.81 L -5.08 3.81 L 5.08 3.81 Z" stroke-width="0.127" stroke="#333333" fill="#ffffff"></path><path d="M 7.62 -1.27 L 5.08 -1.27" stroke-width="0.1524" stroke="#333333"></path><path d="M 7.62 1.27 L 5.08 1.27" stroke-width="0.1524" stroke="#333333"></path><path d="M -7.62 -1.27 L -5.08 -1.27" stroke-width="0.1524" stroke="#333333"></path><g transform="matrix(1,0,0,1,4.572,-1.27)"><text fill="#333333" font-family="Arial" font-size="1.28" text-anchor="end" dominant-baseline="central" font-weight="regular" style="white-space: pre;" transform="matrix(1,0,0,1,0,0)" svgjs:data="{&quot;leading&quot;:&quot;1.3&quot;}"><tspan dy="0" x="0" svgjs:data="{&quot;newLined&quot;:true}">1</tspan></text></g><g transform="matrix(1,0,0,1,5.334,-1.524)"><text fill="#333333" font-family="Arial" font-size="0.96" text-anchor="start" dominant-baseline="alphabetic" font-weight="regular" style="white-space: pre;" transform="matrix(1,0,0,1,0,0)" svgjs:data="{&quot;leading&quot;:&quot;1.3&quot;}"><tspan dy="0" x="0" svgjs:data="{&quot;newLined&quot;:true}">1</tspan></text></g><g transform="matrix(1,0,0,1,4.572,1.27)"><text fill="#333333" font-family="Arial" font-size="1.28" text-anchor="end" dominant-baseline="central" font-weight="regular" style="white-space: pre;" transform="matrix(1,0,0,1,0,0)" svgjs:data="{&quot;leading&quot;:&quot;1.3&quot;}"><tspan dy="0" x="0" svgjs:data="{&quot;newLined&quot;:true}">3</tspan></text></g><g transform="matrix(1,0,0,1,5.334,1.016)"><text fill="#333333" font-family="Arial" font-size="0.96" text-anchor="start" dominant-baseline="alphabetic" font-weight="regular" style="white-space: pre;" transform="matrix(1,0,0,1,0,0)" svgjs:data="{&quot;leading&quot;:&quot;1.3&quot;}"><tspan dy="0" x="0" svgjs:data="{&quot;newLined&quot;:true}">3</tspan></text></g><g transform="matrix(1,0,0,1,-4.572,-1.27)"><text fill="#333333" font-family="Arial" font-size="1.28" text-anchor="start" dominant-baseline="central" font-weight="regular" style="white-space: pre;" transform="matrix(1,0,0,1,0,0)" svgjs:data="{&quot;leading&quot;:&quot;1.3&quot;}"><tspan dy="0" x="0" svgjs:data="{&quot;newLined&quot;:true}">2</tspan></text></g><g transform="matrix(1,0,0,1,-5.334,-1.524)"><text fill="#333333" font-family="Arial" font-size="0.96" text-anchor="end" dominant-baseline="alphabetic" font-weight="regular" style="white-space: pre;" transform="matrix(1,0,0,1,0,0)" svgjs:data="{&quot;leading&quot;:&quot;1.3&quot;}"><tspan dy="0" x="0" svgjs:data="{&quot;newLined&quot;:true}">2</tspan></text></g><g transform="matrix(1,0,0,1,5.08,-4.318)"><text fill="#333333" font-family="Arial" font-size="1.6" text-anchor="end" dominant-baseline="alphabetic" font-weight="regular" style="white-space: pre;" transform="matrix(1,0,0,1,0,0)" svgjs:data="{&quot;leading&quot;:&quot;1.3&quot;}"><tspan dy="0" x="0" svgjs:data="{&quot;newLined&quot;:true}">J1A</tspan></text></g></g></g><g transform="matrix(1,0,0,1,33.02,13.97)"><g><path d="M 5.08 -3.81 L -5.08 -3.81 L -5.08 3.81 L 5.08 3.81 Z" stroke-width="0.127" stroke="#333333" fill="#ffffff"></path><path d="M 7.62 -1.27 L 5.08 -1.27" stroke-width="0.1524" stroke="#333333"></path><path d="M 7.62 1.27 L 5.08 1.27" stroke-width="0.1524" stroke="#333333"></path><path d="M -7.62 -1.27 L -5.08 -1.27" stroke-width="0.1524" stroke="#333333"></path><g transform="matrix(1,0,0,1,4.572,-1.27)"><text fill="#333333" font-family="Arial" font-size="1.28" text-anchor="end" dominant-baseline="central" font-weight="regular" style="white-space: pre;" transform="matrix(1,0,0,1,0,0)" svgjs:data="{&quot;leading&quot;:&quot;1.3&quot;}"><tspan dy="0" x="0" svgjs:data="{&quot;newLined&quot;:true}">4</tspan></text></g><g transform="matrix(1,0,0,1,5.334,-1.524)"><text fill="#333333" font-family="Arial" font-size="0.96" text-anchor="start" dominant-baseline="alphabetic" font-weight="regular" style="white-space: pre;" transform="matrix(1,0,0,1,0,0)" svgjs:data="{&quot;leading&quot;:&quot;1.3&quot;}"><tspan dy="0" x="0" svgjs:data="{&quot;newLined&quot;:true}">4</tspan></text></g><g transform="matrix(1,0,0,1,4.572,1.27)"><text fill="#333333" font-family="Arial" font-size="1.28" text-anchor="end" dominant-baseline="central" font-weight="regular" style="white-space: pre;" transform="matrix(1,0,0,1,0,0)" svgjs:data="{&quot;leading&quot;:&quot;1.3&quot;}"><tspan dy="0" x="0" svgjs:data="{&quot;newLined&quot;:true}">6</tspan></text></g><g transform="matrix(1,0,0,1,5.334,1.016)"><text fill="#333333" font-family="Arial" font-size="0.96" text-anchor="start" dominant-baseline="alphabetic" font-weight="regular" style="white-space: pre;" transform="matrix(1,0,0,1,0,0)" svgjs:data="{&quot;leading&quot;:&quot;1.3&quot;}"><tspan dy="0" x="0" svgjs:data="{&quot;newLined&quot;:true}">6</tspan></text></g><g transform="matrix(1,0,0,1,-4.572,-1.27)"><text fill="#333333" font-family="Arial" font-size="1.28" text-anchor="start" dominant-baseline="central" font-weight="regular" style="white-space: pre;" transform="matrix(1,0,0,1,0,0)" svgjs:data="{&quot;leading&quot;:&quot;1.3&quot;}"><tspan dy="0" x="0" svgjs:data="{&quot;newLined&quot;:true}">5</tspan></text></g><g transform="matrix(1,0,0,1,-5.334,-1.524)"><text fill="#333333" font-family="Arial" font-size="0.96" text-anchor="end" dominant-baseline="alphabetic" font-weight="regular" style="white-space: pre;" transform="matrix(1,0,0,1,0,0)" svgjs:data="{&quot;leading&quot;:&quot;1.3&quot;}"><tspan dy="0" x="0" svgjs:data="{&quot;newLined&quot;:true}">5</tspan></text></g><g transform="matrix(1,0,0,1,5.08,-4.318)"><text fill="#333333" font-family="Arial" font-size="1.6" text-anchor="end" dominant-baseline="alphabetic" font-weight="regular" style="white-space: pre;" transform="matrix(1,0,0,1,0,0)" svgjs:data="{&quot;leading&quot;:&quot;1.3&quot;}"><tspan dy="0" x="0" svgjs:data="{&quot;newLined&quot;:true}">J1B</tspan></text></g></g></g><g transform="matrix(1,0,0,1,43.18,20.32)"><g><path d="M -1.524 0.508 L 1.524 0.508" stroke-width="0.3302" stroke="#333333" fill="none"></path><path d="M -1.524 -0.508 L 1.524 -0.508" stroke-width="0.3302" stroke="#333333" fill="none"></path><path d="M 0 -2.54 L 0 -0.508" stroke-width="0.1524" stroke="#333333"></path><path d="M 0 2.54 L 0 0.508" stroke-width="0.1524" stroke="#333333"></path><g transform="matrix(1,0,0,1,2.032,-0.762)"><text fill="#333333" font-family="Arial" font-size="1.6" text-anchor="start" dominant-baseline="central" font-weight="regular" style="white-space: pre;" transform="matrix(1,0,0,1,0,0)" svgjs:data="{&quot;leading&quot;:&quot;1.3&quot;}"><tspan dy="0" x="0" svgjs:data="{&quot;newLined&quot;:true}">C1</tspan></text></g><g transform="matrix(1,0,0,1,2.032,0.762)"><text fill="#333333" font-family="Arial" font-size="1.6" text-anchor="start" dominant-baseline="central" font-weight="regular" style="white-space: pre;" transform="matrix(1,0,0,1,0,0)" svgjs:data="{&quot;leading&quot;:&quot;1.3&quot;}"><tspan dy="0" x="0" svgjs:data="{&quot;newLined&quot;:true}">100n</tspan></text></g></g></g><g transform="matrix(1,0,0,1,43.18,26.67)"><g><path d="M -1.27 0 L 1.27 0 L 0 1.27 Z" stroke-width="0.127" stroke="#333333" fill="none"></path><path d="M 0 -1.27 L 0 0" stroke-width="0.1524" stroke="#333333"></path><g transform="matrix(1,0,0,1,0,2.54)"><text fill="#333333" font-family="Arial" font-size="1.6" text-anchor="middle" dominant-baseline="central" font-weight="regular" style="white-space: pre;" transform="matrix(1,0,0,1,0,0)" svgjs:data="{&quot;leading&quot;:&quot;1.3&quot;}"><tspan dy="0" x="0" svgjs:data="{&quot;newLined&quot;:true}">GND</tspan></text></g></g></g><g transform="matrix(1,0,0,1,43.18,7.62)"><g><path d="M -0.762 1.778 L -0.762 -1.778 L 0.762 -1.778 L 0.762 1.778 Z" stroke-width="0.127" stroke="#333333" fill="none"></path><path d="M 0 2.54 L 0 1.778" stroke-width="0.1524" stroke="#333333"></path><path d="M 0 -2.54 L 0 -1.778" stroke-width="0.1524" stroke="#333333"></path><g transform="matrix(0,-1,1,0,-1.27,1.778)"><text fill="#333333" font-family="Arial" font-size="1.6" text-anchor="start" dominant-baseline="alphabetic" font-weight="regular" style="white-space: pre;" transform="matrix(1,0,0,1,0,0)" svgjs:data="{&quot;leading&quot;:&quot;1.3&quot;}"><tspan dy="0" x="0" svgjs:data="{&quot;newLined&quot;:true}">R1</tspan></text></g><g transform="matrix(0,-1,1,0,0,0)"><text fill="#333333" font-family="Arial" font-size="0.96" text-anchor="middle" dominant-baseline="central" font-weight="regular" style="white-space: pre;" transform="matrix(1,0,0,1,0,0)" svgjs:data="{&quot;leading&quot;:&quot;1.3&quot;}"><tspan dy="0" x="0" svgjs:data="{&quot;newLined&quot;:true}">10k</tspan></text></g></g></g><g transform="matrix(1,0,0,1,43.18,3.81)"><g><path d="M -1.27 0 L 1.27 0" stroke-width="0.127" stroke="#333333" fill="none"></path><path d="M 0 1.27 L 0 0" stroke-width="0.1524" stroke="#333333"></path><g transform="matrix(1,0,0,1,0,-0.381)"><text fill="#333333" font-family="Arial" font-size="1.6" text-anchor="middle" dominant-baseline="alphabetic" font-weight="regular" style="white-space: pre;" transform="matrix(1,0,0,1,0,0)" svgjs:data="{&quot;leading&quot;:&quot;1.3&quot;}"><tspan dy="0" x="0" svgjs:data="{&quot;newLined&quot;:true}">5V</tspan></text></g></g></g><g transform="matrix(1,0,0,1,20.32,19.05)"><g><path d="M -1.27 0 L 1.27 0 L 0 1.27 Z" stroke-width="0.127" stroke="#333333" fill="none"></path><path d="M 0 -1.27 L 0 0" stroke-width="0.1524" stroke="#333333"></path><g transform="matrix(1,0,0,1,0,2.54)"><text fill="#333333" font-family="Arial" font-size="1.6" text-anchor="middle" dominant-baseline="central" font-weight="regular" style="white-space: pre;" transform="matrix(1,0,0,1,0,0)" svgjs:data="{&quot;leading&quot;:&quot;1.3&quot;}"><tspan dy="0" x="0" svgjs:data="{&quot;newLined&quot;:true}">GND</tspan></text></g></g></g><g><path d="M17.78 12.7L25.4 12.7 " stroke-linecap="butt" stroke-opacity="0.3" stroke-width="0.2794" fill="none"></path><path d="M40.64 15.24L43.18 15.24L43.18 17.78 " stroke-linecap="butt" stroke-opacity="0.3" stroke-width="0.2794" fill="none"></path><path d="M43.18 22.86L43.18 25.4M17.78 15.24L20.32 15.24L20.32 17.78 " stroke-linecap="butt" stroke-opacity="0.3" stroke-width="0.2794" fill="none"></path><path d="M40.64 12.7L43.18 12.7L43.18 10.16 " stroke-linecap="butt" stroke-opacity="0.3" stroke-width="0.2794" fill="none"></path></g><g><path d="M17.78 12.7L25.4 12.7 " stroke-linecap="butt" stroke-width="0.1524" stroke="#008400" fill="none"></path><path d="M40.64 15.24L43.18 15.24L43.18 17.78 " stroke-linecap="butt" stroke-width="0.1524" stroke="#008400" fill="none"></path><path d="M43.18 22.86L43.18 25.4M17.78 15.24L20.32 15.24L20.32 17.78 " stroke-linecap="butt" stroke-width="0.1524" stroke="#008400" fill="none"></path><path d="M40.64 12.7L43.18 12.7L43.18 10.16 " stroke-linecap="butt" stroke-width="0.1524" stroke="#008400" fill="none"></path></g><g></g></g></g></svg>