<svg xmlns="http://www.w3.org/2000/svg" version="1.1" xmlns:xlink="http://www.w3.org/1999/xlink" xmlns:svgjs="http://svgjs.dev/svgjs" width="791.9472858000001" height="193.067148917" viewBox="-2.54 -2.5781 83.82000000000001 20.4343"><g id="sheet-0" class="sheet" transform="matrix(1,0,0,1,0,0)"><g class="sheet-elements" transform="matrix(1,0,0,1,0,0)"><g transform="matrix(1,0,0,1,0,0)" class="grid"><path d="M -2.54 -2.5781 L -2.54 17.8562 M 0 -2.5781 L 0 17.8562 M 2.54 -2.5781 L 2.54 17.8562 M 5.08 -2.5781 L 5.08 17.8562 M 7.62 -2.5781 L 7.62 17.8562 M 10.16 -2.5781 L 10.16 17.8562 M 12.7 -2.5781 L 12.7 17.8562 M 15.24 -2.5781 L 15.24 17.8562 M 17.78 -2.5781 L 17.78 17.8562 M 20.32 -2.5781 L 20.32 17.8562 M 22.86 -2.5781 L 22.86 17.8562 M 25.4 -2.5781 L 25.4 17.8562 M 27.94 -2.5781 L 27.94 17.8562 M 30.48 -2.5781 L 30.48 17.8562 M 33.02 -2.5781 L 33.02 17.8562 M 35.56 -2.5781 L 35.56 17.8562 M 38.1 -2.5781 L 38.1 17.8562 M 40.64 -2.5781 L 40.64 17.8562 M 43.18 -2.5781 L 43.18 17.8562 M 45.72 -2.5781 L 45.72 17.8562 M 48.26 -2.5781 L 48.26 17.8562 M 50.8 -2.5781 L 50.8 17.8562 M 53.34 -2.5781 L 53.34 17.8562 M 55.88 -2.5781 L 55.88 17.8562 M 58.42 -2.5781 L 58.42 17.8562 M 60.96 -2.5781 L 60.96 17.8562 M 63.5 -2.5781 L 63.5 17.8562 M 66.04 -2.5781 L 66.04 17.8562 M 68.58 -2.5781 L 68.58 17.8562 M 71.12 -2.5781 L 71.12 17.8562 M 73.66 -2.5781 L 73.66 17.8562 M 76.2 -2.5781 L 76.2 17.8562 M 78.74 -2.5781 L 78.74 17.8562 M 81.28 -2.5781 L 81.28 17.8562" stroke-dasharray="0.0762,2.4638" stroke-width="0.0762" stroke="#000000"></path></g><g transform="matrix(1,0,0,1,10.16,6.35)"><g><path d="M 5.08 -3.81 L -5.08 -3.81 L -5.08 3.81 L 5.08 3.81 Z" stroke-width="0.127" stroke="#333333" fill="#ffffff"></path><path d="M 7.62 -1.27 L 5.08 -1.27" stroke-width="0.1524" stroke="#333333"></path><path d="M 7.62 1.27 L 5.08 1.27" stroke-width="0.1524" stroke="#333333"></path><path d="M -7.62 -1.27 L -5.08 -1.27" stroke-width="0.1524" stroke="#333333"></path><path d="M -7.62 1.27 L -5.08 1.27" stroke-width="0.1524" stroke="#333333"></path><g transform="matrix(1,0,0,1,4.572,-1.27)"><text fill="#333333" font-family="Arial" font-size="1.28" text-anchor="end" dominant-baseline="central" font-weight="regular" style="white-space: pre;" transform="matrix(1,0,0,1,0,0)" svgjs:data="{&quot;leading&quot;:&quot;1.3&quot;}"><tspan dy="0" x="0" svgjs:data="{&quot;newLined&quot;:true}">1</tspan></text></g><g transform="matrix(1,0,0,1,5.334,-1.524)"><text fill="#333333" font-family="Arial" font-size="0.96" text-anchor="start" dominant-baseline="alphabetic" font-weight="regular" style="white-space: pre;" transform="matrix(1,0,0,1,0,0)" svgjs:data="{&quot;leading&quot;:&quot;1.3&quot;}"><tspan dy="0" x="0" svgjs:data="{&quot;newLined&quot;:true}">1</tspan></text></g><g transform="matrix(1,0,0,1,4.572,1.27)"><text fill="#333333" font-family="Arial" font-size="1.28" text-anchor="end" dominant-baseline="central" font-weight="regular" style="white-space: pre;" transform="matrix(1,0,0,1,0,0)" svgjs:data="{&quot;leading&quot;:&quot;1.3&quot;}"><tspan dy="0" x="0" svgjs:data="{&quot;newLined&quot;:true}">3</tspan></text></g><g transform="matrix(1,0,0,1,5.334,1.016)"><text fill="#333333" font-family="Arial" font-size="0.96" text-anchor="start" dominant-baseline="alphabetic" font-weight="regular" style="white-space: pre;" transform="matrix(1,0,0,1,0,0)" svgjs:data="{&quot;leading&quot;:&quot;1.3&quot;}"><tspan dy="0" x="0" svgjs:data="{&quot;newLined&quot;:true}">3</tspan></text></g><g transform="matrix(1,0,0,1,-4.572,-1.27)"><text fill="#333333" font-family="Arial" font-size="1.28" text-anchor="start" dominant-baseline="central" font-weight="regular" style="white-space: pre;" transform="matrix(1,0,0,1,0,0)" svgjs:data="{&quot;leading&quot;:&quot;1.3&quot;}"><tspan dy="0" x="0" svgjs:data="{&quot;newLined&quot;:true}">2</tspan></text></g><g transform="matrix(1,0,0,1,-5.334,-1.524)"><text fill="#333333" font-family="Arial" font-size="0.96" text-anchor="end" dominant-baseline="alphabetic" font-weight="regular" style="white-space: pre;" transform="matrix(1,0,0,1,0,0)" svgjs:data="{&quot;leading&quot;:&quot;1.3&quot;}"><tspan dy="0" x="0" svgjs:data="{&quot;newLined&quot;:true}">2</tspan></text></g><g transform="matrix(1,0,0,1,-4.572,1.27)"><text fill="#333333" font-family="Arial" font-size="1.28" text-anchor="start" dominant-baseline="central" font-weight="regular" style="white-space: pre;" transform="matrix(1,0,0,1,0,0)" svgjs:data="{&quot;leading&quot;:&quot;1.3&quot;}"><tspan dy="0" x="0" svgjs:data="{&quot;newLined&quot;:true}">4</tspan></text></g><g transform="matrix(1,0,0,1,-5.334,1.016)"><text fill="#333333" font-family="Arial" font-size="0.96" text-anchor="end" dominant-baseline="alphabetic" font-weight="regular" style="white-space: pre;" transform="matrix(1,0,0,1,0,0)" svgjs:data="{&quot;leading&quot;:&quot;1.3&quot;}"><tspan dy="0" x="0" svgjs:data="{&quot;newLined&quot;:true}">4</tspan></text></g><g transform="matrix(1,0,0,1,5.08,-4.318)"><text fill="#333333" font-family="Arial" font-size="1.6" text-anchor="end" dominant-baseline="alphabetic" font-weight="regular" style="white-space: pre;" transform="matrix(1,0,0,1,0,0)" svgjs:data="{&quot;leading&quot;:&quot;1.3&quot;}"><tspan dy="0" x="0" svgjs:data="{&quot;newLined&quot;:true}">J1</tspan></text></g></g></g><g transform="matrix(1,0,0,1,27.94,7.62)"><g><path d="M -5.08 -5.08 L 5.08 -5.08 L 5.08 5.08 L -5.08 5.08 Z" stroke-width="0.127" stroke="#333333" fill="#ffffff"></path><path d="M -7.62 -2.54 L -5.08 -2.54" stroke-width="0.1524" stroke="#333333"></path><path d="M -7.62 0 L -5.08 0" stroke-width="0.1524" stroke="#333333"></path><path d="M -7.62 2.54 L -5.08 2.54" stroke-width="0.1524" stroke="#333333"></path><path d="M 7.62 -2.54 L 5.08 -2.54" stroke-width="0.1524" stroke="#333333"></path><path d="M 7.62 0 L 5.08 0" stroke-width="0.1524" stroke="#333333"></path><g transform="matrix(1,0,0,1,-4.572,-2.54)"><text fill="#333333" font-family="Arial" font-size="1.28" text-anchor="start" dominant-baseline="central" font-weight="regular" style="white-space: pre;" transform="matrix(1,0,0,1,0,0)" svgjs:data="{&quot;leading&quot;:&quot;1.3&quot;}"><tspan dy="0" x="0" svgjs:data="{&quot;newLined&quot;:true}">1</tspan></text></g><g transform="matrix(1,0,0,1,-5.334,-2.794)"><text fill="#333333" font-family="Arial" font-size="0.96" text-anchor="end" dominant-baseline="alphabetic" font-weight="regular" style="white-space: pre;" transform="matrix(1,0,0,1,0,0)" svgjs:data="{&quot;leading&quot;:&quot;1.3&quot;}"><tspan dy="0" x="0" svgjs:data="{&quot;newLined&quot;:true}">1</tspan></text></g><g transform="matrix(1,0,0,1,-4.572,0)"><text fill="#333333" font-family="Arial" font-size="1.28" text-anchor="start" dominant-baseline="central" font-weight="regular" style="white-space: pre;" transform="matrix(1,0,0,1,0,0)" svgjs:data="{&quot;leading&quot;:&quot;1.3&quot;}"><tspan dy="0" x="0" svgjs:data="{&quot;newLined&quot;:true}">3</tspan></text></g><g transform="matrix(1,0,0,1,-5.334,-0.254)"><text fill="#333333" font-family="Arial" font-size="0.96" text-anchor="end" dominant-baseline="alphabetic" font-weight="regular" style="white-space: pre;" transform="matrix(1,0,0,1,0,0)" svgjs:data="{&quot;leading&quot;:&quot;1.3&quot;}"><tspan dy="0" x="0" svgjs:data="{&quot;newLined&quot;:true}">3</tspan></text></g><g transform="matrix(1,0,0,1,-4.572,2.54)"><text fill="#333333" font-family="Arial" font-size="1.28" text-anchor="start" dominant-baseline="central" font-weight="regular" style="white-space: pre;" transform="matrix(1,0,0,1,0,0)" svgjs:data="{&quot;leading&quot;:&quot;1.3&quot;}"><tspan dy="0" x="0" svgjs:data="{&quot;newLined&quot;:true}">5</tspan></text></g><g transform="matrix(1,0,0,1,-5.334,2.286)"><text fill="#333333" font-family="Arial" font-size="0.96" text-anchor="end" dominant-baseline="alphabetic" font-weight="regular" style="white-space: pre;" transform="matrix(1,0,0,1,0,0)" svgjs:data="{&quot;leading&quot;:&quot;1.3&quot;}"><tspan dy="0" x="0" svgjs:data="{&quot;newLined&quot;:true}">5</tspan></text></g><g transform="matrix(1,0,0,1,4.572,-2.54)"><text fill="#333333" font-family="Arial" font-size="1.28" text-anchor="end" dominant-baseline="central" font-weight="regular" style="white-space: pre;" transform="matrix(1,0,0,1,0,0)" svgjs:data="{&quot;leading&quot;:&quot;1.3&quot;}"><tspan dy="0" x="0" svgjs:data="{&quot;newLined&quot;:true}">2</tspan></text></g><g transform="matrix(1,0,0,1,5.334,-2.794)"><text fill="#333333" font-family="Arial" font-size="0.96" text-anchor="start" dominant-baseline="alphabetic" font-weight="regular" style="white-space: pre;" transform="matrix(1,0,0,1,0,0)" svgjs:data="{&quot;leading&quot;:&quot;1.3&quot;}"><tspan dy="0" x="0" svgjs:data="{&quot;newLined&quot;:true}">2</tspan></text></g><g transform="matrix(1,0,0,1,4.572,0)"><text fill="#333333" font-family="Arial" font-size="1.28" text-anchor="end" dominant-baseline="central" font-weight="regular" style="white-space: pre;" transform="matrix(1,0,0,1,0,0)" svgjs:data="{&quot;leading&quot;:&quot;1.3&quot;}"><tspan dy="0" x="0" svgjs:data="{&quot;newLined&quot;:true}">4</tspan></text></g><g transform="matrix(1,0,0,1,5.334,-0.254)"><text fill="#333333" font-family="Arial" font-size="0.96" text-anchor="start" dominant-baseline="alphabetic" font-weight="regular" style="white-space: pre;" transform="matrix(1,0,0,1,0,0)" svgjs:data="{&quot;leading&quot;:&quot;1.3&quot;}"><tspan dy="0" x="0" svgjs:data="{&quot;newLined&quot;:true}">4</tspan></text></g><g transform="matrix(1,0,0,1,-5.08,-5.588)"><text fill="#333333" font-family="Arial" font-size="1.6" text-anchor="start" dominant-baseline="alphabetic" font-weight="regular" style="white-space: pre;" transform="matrix(1,0,0,1,0,0)" svgjs:data="{&quot;leading&quot;:&quot;1.3&quot;}"><tspan dy="0" x="0" svgjs:data="{&quot;newLined&quot;:true}">J2</tspan></text></g></g></g><g transform="matrix(1,0,0,1,50.8,6.35)"><g><path d="M 5.08 -3.81 L -5.08 -3.81 L -5.08 3.81 L 5.08 3.81 Z" stroke-width="0.127" stroke="#333333" fill="#ffffff"></path><path d="M 7.62 -1.27 L 5.08 -1.27" stroke-width="0.1524" stroke="#333333"></path><path d="M 7.62 1.27 L 5.08 1.27" stroke-width="0.1524" stroke="#333333"></path><path d="M -7.62 -1.27 L -5.08 -1.27" stroke-width="0.1524" stroke="#333333"></path><path d="M -7.62 1.27 L -5.08 1.27" stroke-width="0.1524" stroke="#333333"></path><g transform="matrix(1,0,0,1,4.572,-1.27)"><text fill="#333333" font-family="Arial" font-size="1.28" text-anchor="end" dominant-baseline="central" font-weight="regular" style="white-space: pre;" transform="matrix(1,0,0,1,0,0)" svgjs:data="{&quot;leading&quot;:&quot;1.3&quot;}"><tspan dy="0" x="0" svgjs:data="{&quot;newLined&quot;:true}">1</tspan></text></g><g transform="matrix(1,0,0,1,5.334,-1.524)"><text fill="#333333" font-family="Arial" font-size="0.96" text-anchor="start" dominant-baseline="alphabetic" font-weight="regular" style="white-space: pre;" transform="matrix(1,0,0,1,0,0)" svgjs:data="{&quot;leading&quot;:&quot;1.3&quot;}"><tspan dy="0" x="0" svgjs:data="{&quot;newLined&quot;:true}">1</tspan></text></g><g transform="matrix(1,0,0,1,4.572,1.27)"><text fill="#333333" font-family="Arial" font-size="1.28" text-anchor="end" dominant-baseline="central" font-weight="regular" style="white-space: pre;" transform="matrix(1,0,0,1,0,0)" svgjs:data="{&quot;leading&quot;:&quot;1.3&quot;}"><tspan dy="0" x="0" svgjs:data="{&quot;newLined&quot;:true}">3</tspan></text></g><g transform="matrix(1,0,0,1,5.334,1.016)"><text fill="#333333" font-family="Arial" font-size="0.96" text-anchor="start" dominant-baseline="alphabetic" font-weight="regular" style="white-space: pre;" transform="matrix(1,0,0,1,0,0)" svgjs:data="{&quot;leading&quot;:&quot;1.3&quot;}"><tspan dy="0" x="0" svgjs:data="{&quot;newLined&quot;:true}">3</tspan></text></g><g transform="matrix(1,0,0,1,-4.572,-1.27)"><text fill="#333333" font-family="Arial" font-size="1.28" text-anchor="start" dominant-baseline="central" font-weight="regular" style="white-space: pre;" transform="matrix(1,0,0,1,0,0)" svgjs:data="{&quot;leading&quot;:&quot;1.3&quot;}"><tspan dy="0" x="0" svgjs:data="{&quot;newLined&quot;:true}">2</tspan></text></g><g transform="matrix(1,0,0,1,-5.334,-1.524)"><text fill="#333333" font-family="Arial" font-size="0.96" text-anchor="end" dominant-baseline="alphabetic" font-weight="regular" style="white-space: pre;" transform="matrix(1,0,0,1,0,0)" svgjs:data="{&quot;leading&quot;:&quot;1.3&quot;}"><tspan dy="0" x="0" svgjs:data="{&quot;newLined&quot;:true}">2</tspan></text></g><g transform="matrix(1,0,0,1,-4.572,1.27)"><text fill="#333333" font-family="Arial" font-size="1.28" text-anchor="start" dominant-baseline="central" font-weight="regular" style="white-space: pre;" transform="matrix(1,0,0,1,0,0)" svgjs:data="{&quot;leading&quot;:&quot;1.3&quot;}"><tspan dy="0" x="0" svgjs:data="{&quot;newLined&quot;:true}">4</tspan></text></g><g transform="matrix(1,0,0,1,-5.334,1.016)"><text fill="#333333" font-family="Arial" font-size="0.96" text-anchor="end" dominant-baseline="alphabetic" font-weight="regular" style="white-space: pre;" transform="matrix(1,0,0,1,0,0)" svgjs:data="{&quot;leading&quot;:&quot;1.3&quot;}"><tspan dy="0" x="0" svgjs:data="{&quot;newLined&quot;:true}">4</tspan></text></g><g transform="matrix(1,0,0,1,5.08,-4.318)"><text fill="#333333" font-family="Arial" font-size="1.6" text-anchor="end" dominant-baseline="alphabetic" font-weight="regular" style="white-space: pre;" transform="matrix(1,0,0,1,0,0)" svgjs:data="{&quot;leading&quot;:&quot;1.3&quot;}"><tspan dy="0" x="0" svgjs:data="{&quot;newLined&quot;:true}">J3</tspan></text></g></g></g><g transform="matrix(1,0,0,1,68.58,7.62)"><g><path d="M -5.08 -5.08 L 5.08 -5.08 L 5.08 5.08 L -5.08 5.08 Z" stroke-width="0.127" stroke="#333333" fill="#ffffff"></path><path d="M -7.62 -2.54 L -5.08 -2.54" stroke-width="0.1524" stroke="#333333"></path><path d="M -7.62 0 L -5.08 0" stroke-width="0.1524" stroke="#333333"></path><path d="M -7.62 2.54 L -5.08 2.54" stroke-width="0.1524" stroke="#333333"></path><path d="M 7.62 -2.54 L 5.08 -2.54" stroke-width="0.1524" stroke="#333333"></path><path d="M 7.62 0 L 5.08 0" stroke-width="0.1524" stroke="#333333"></path><path d="M 7.62 2.54 L 5.08 2.54" stroke-width="0.1524" stroke="#333333"></path><g transform="matrix(1,0,0,1,-4.572,-2.54)"><text fill="#333333" font-family="Arial" font-size="1.28" text-anchor="start" dominant-baseline="central" font-weight="regular" style="white-space: pre;" transform="matrix(1,0,0,1,0,0)" svgjs:data="{&quot;leading&quot;:&quot;1.3&quot;}"><tspan dy="0" x="0" svgjs:data="{&quot;newLined&quot;:true}">1</tspan></text></g><g transform="matrix(1,0,0,1,-5.334,-2.794)"><text fill="#333333" font-family="Arial" font-size="0.96" text-anchor="end" dominant-baseline="alphabetic" font-weight="regular" style="white-space: pre;" transform="matrix(1,0,0,1,0,0)" svgjs:data="{&quot;leading&quot;:&quot;1.3&quot;}"><tspan dy="0" x="0" svgjs:data="{&quot;newLined&quot;:true}">1</tspan></text></g><g transform="matrix(1,0,0,1,-4.572,0)"><text fill="#333333" font-family="Arial" font-size="1.28" text-anchor="start" dominant-baseline="central" font-weight="regular" style="white-space: pre;" transform="matrix(1,0,0,1,0,0)" svgjs:data="{&quot;leading&quot;:&quot;1.3&quot;}"><tspan dy="0" x="0" svgjs:data="{&quot;newLined&quot;:true}">3</tspan></text></g><g transform="matrix(1,0,0,1,-5.334,-0.254)"><text fill="#333333" font-family="Arial" font-size="0.96" text-anchor="end" dominant-baseline="alphabetic" font-weight="regular" style="white-space: pre;" transform="matrix(1,0,0,1,0,0)" svgjs:data="{&quot;leading&quot;:&quot;1.3&quot;}"><tspan dy="0" x="0" svgjs:data="{&quot;newLined&quot;:true}">3</tspan></text></g><g transform="matrix(1,0,0,1,-4.572,2.54)"><text fill="#333333" font-family="Arial" font-size="1.28" text-anchor="start" dominant-baseline="central" font-weight="regular" style="white-space: pre;" transform="matrix(1,0,0,1,0,0)" svgjs:data="{&quot;leading&quot;:&quot;1.3&quot;}"><tspan dy="0" x="0" svgjs:data="{&quot;newLined&quot;:true}">5</tspan></text></g><g transform="matrix(1,0,0,1,-5.334,2.286)"><text fill="#333333" font-family="Arial" font-size="0.96" text-anchor="end" dominant-baseline="alphabetic" font-weight="regular" style="white-space: pre;" transform="matrix(1,0,0,1,0,0)" svgjs:data="{&quot;leading&quot;:&quot;1.3&quot;}"><tspan dy="0" x="0" svgjs:data="{&quot;newLined&quot;:true}">5</tspan></text></g><g transform="matrix(1,0,0,1,4.572,-2.54)"><text fill="#333333" font-family="Arial" font-size="1.28" text-anchor="end" dominant-baseline="central" font-weight="regular" style="white-space: pre;" transform="matrix(1,0,0,1,0,0)" svgjs:data="{&quot;leading&quot;:&quot;1.3&quot;}"><tspan dy="0" x="0" svgjs:data="{&quot;newLined&quot;:true}">2</tspan></text></g><g transform="matrix(1,0,0,1,5.334,-2.794)"><text fill="#333333" font-family="Arial" font-size="0.96" text-anchor="start" dominant-baseline="alphabetic" font-weight="regular" style="white-space: pre;" transform="matrix(1,0,0,1,0,0)" svgjs:data="{&quot;leading&quot;:&quot;1.3&quot;}"><tspan dy="0" x="0" svgjs:data="{&quot;newLined&quot;:true}">2</tspan></text></g><g transform="matrix(1,0,0,1,4.572,0)"><text fill="#333333" font-family="Arial" font-size="1.28" text-anchor="end" dominant-baseline="central" font-weight="regular" style="white-space: pre;" transform="matrix(1,0,0,1,0,0)" svgjs:data="{&quot;leading&quot;:&quot;1.3&quot;}"><tspan dy="0" x="0" svgjs:data="{&quot;newLined&quot;:true}">4</tspan></text></g><g transform="matrix(1,0,0,1,5.334,-0.254)"><text fill="#333333" font-family="Arial" font-size="0.96" text-anchor="start" dominant-baseline="alphabetic" font-weight="regular" style="white-space: pre;" transform="matrix(1,0,0,1,0,0)" svgjs:data="{&quot;leading&quot;:&quot;1.3&quot;}"><tspan dy="0" x="0" svgjs:data="{&quot;newLined&quot;:true}">4</tspan></text></g><g transform="matrix(1,0,0,1,4.572,2.54)"><text fill="#333333" font-family="Arial" font-size="1.28" text-anchor="end" dominant-baseline="central" font-weight="regular" style="white-space: pre;" transform="matrix(1,0,0,1,0,0)" svgjs:data="{&quot;leading&quot;:&quot;1.3&quot;}"><tspan dy="0" x="0" svgjs:data="{&quot;newLined&quot;:true}">6</tspan></text></g><g transform="matrix(1,0,0,1,5.334,2.286)"><text fill="#333333" font-family="Arial" font-size="0.96" text-anchor="start" dominant-baseline="alphabetic" font-weight="regular" style="white-space: pre;" transform="matrix(1,0,0,1,0,0)" svgjs:data="{&quot;leading&quot;:&quot;1.3&quot;}"><tspan dy="0" x="0" svgjs:data="{&quot;newLined&quot;:true}">6</tspan></text></g><g transform="matrix(1,0,0,1,-5.08,-5.588)"><text fill="#333333" font-family="Arial" font-size="1.6" text-anchor="start" dominant-baseline="alphabetic" font-weight="regular" style="white-space: pre;" transform="matrix(1,0,0,1,0,0)" svgjs:data="{&quot;leading&quot;:&quot;1.3&quot;}"><tspan dy="0" x="0" svgjs:data="{&quot;newLined&quot;:true}">J4</tspan></text></g></g></g><g><path d="M17.78 5.08L20.32 5.08 " stroke-linecap="butt" stroke-opacity="0.3" stroke-width="0.2794" fill="none"></path><path d="M58.42 5.08L60.96 5.08 " stroke-linecap="butt" stroke-opacity="0.3" stroke-width="0.2794" fill="none"></path></g><g><path d="M17.78 5.08L20.32 5.08 " stroke-linecap="butt" stroke-width="0.1524" stroke="#008400" fill="none"></path><path d="M58.42 5.08L60.96 5.08 " stroke-linecap="butt" stroke-width="0.1524" stroke="#008400" fill="none"></path></g><g></g></g></g></svg>