<svg xmlns="http://www.w3.org/2000/svg" version="1.1" xmlns:xlink="http://www.w3.org/1999/xlink" xmlns:svgjs="http://svgjs.dev/svgjs" width="1103.9265196000001" height="289.060759317" viewBox="-2.54 -2.5781 116.84 30.5943"><g id="sheet-0" class="sheet" transform="matrix(1,0,0,1,0,0)"><g class="sheet-elements" transform="matrix(1,0,0,1,0,0)"><g transform="matrix(1,0,0,1,0,0)" class="grid"><path d="M -2.54 -2.5781 L -2.54 28.0162 M 0 -2.5781 L 0 28.0162 M 2.54 -2.5781 L 2.54 28.0162 M 5.08 -2.5781 L 5.08 28.0162 M 7.62 -2.5781 L 7.62 28.0162 M 10.16 -2.5781 L 10.16 28.0162 M 12.7 -2.5781 L 12.7 28.0162 M 15.24 -2.5781 L 15.24 28.0162 M 17.78 -2.5781 L 17.78 28.0162 M 20.32 -2.5781 L 20.32 28.0162 M 22.86 -2.5781 L 22.86 28.0162 M 25.4 -2.5781 L 25.4 28.0162 M 27.94 -2.5781 L 27.94 28.0162 M 30.48 -2.5781 L 30.48 28.0162 M 33.02 -2.5781 L 33.02 28.0162 M 35.56 -2.5781 L 35.56 28.0162 M 38.1 -2.5781 L 38.1 28.0162 M 40.64 -2.5781 L 40.64 28.0162 M 43.18 -2.5781 L 43.18 28.0162 M 45.72 -2.5781 L 45.72 28.0162 M 48.26 -2.5781 L 48.26 28.0162 M 50.8 -2.5781 L 50.8 28.0162 M 53.34 -2.5781 L 53.34 28.0162 M 55.88 -2.5781 L 55.88 28.0162 M 58.42 -2.5781 L 58.42 28.0162 M 60.96 -2.5781 L 60.96 28.0162 M 63.5 -2.5781 L 63.5 28.0162 M 66.04 -2.5781 L 66.04 28.0162 M 68.58 -2.5781 L 68.58 28.0162 M 71.12 -2.5781 L 71.12 28.0162 M 73.66 -2.5781 L 73.66 28.0162 M 76.2 -2.5781 L 76.2 28.0162 M 78.74 -2.5781 L 78.74 28.0162 M 81.28 -2.5781 L 81.28 28.0162 M 83.82 -2.5781 L 83.82 28.0162 M 86.36 -2.5781 L 86.36 28.0162 M 88.9 -2.5781 L 88.9 28.0162 M 91.44 -2.5781 L 91.44 28.0162 M 93.98 -2.5781 L 93.98 28.0162 M 96.52 -2.5781 L 96.52 28.0162 M 99.06 -2.5781 L 99.06 28.0162 M 101.6 -2.5781 L 101.6 28.0162 M 104.14 -2.5781 L 104.14 28.0162 M 106.68 -2.5781 L 106.68 28.0162 M 109.22 -2.5781 L 109.22 28.0162 M 111.76 -2.5781 L 111.76 28.0162 M 114.3 -2.5781 L 114.3 28.0162" class="grid"></path></g><g transform="matrix(1,0,0,1,7.62,8.89)"><title>line 11:9</title><path d="M -1.27 0 L 1.27 0" class="graphicLine"></path><path d="M 0 1.27 L 0 0" class="pin"></path><g transform="matrix(1,0,0,1,0,-0.381)"><text class="text" text-anchor="middle" dominant-baseline="alphabetic" font-size="1.6" font-weight="regular" style="white-space: pre;" transform="matrix(1,0,0,1,0,0)" svgjs:data="{&quot;leading&quot;:&quot;1.3&quot;}">VCC</text></g></g><g transform="matrix(1,0,0,1,7.62,12.7)"><title>line 14:9</title><path d="M 0 0 L 0 0" class="pin"></path><g transform="matrix(1,0,0,1,5.08,2.54)"><text class="text" text-anchor="start" dominant-baseline="alphabetic" font-size="1.6" font-weight="regular" style="white-space: pre;" transform="matrix(1,0,0,1,0,0)" svgjs:data="{&quot;leading&quot;:&quot;1.3&quot;}">This is some text!
Something else is here?
Or now
More lines              and spaces?
line 1
line2</text></g></g><g transform="matrix(1,0,0,1,7.62,16.51)"><title>line 23:12</title><path d="M -1.27 0 L 1.27 0 L 0 1.27 Z" class="graphicLine styleOverride" style="fill: transparent;"></path><path d="M 0 -1.27 L 0 0" class="pin"></path><g transform="matrix(1,0,0,1,0,2.54)"><text class="text" text-anchor="middle" dominant-baseline="central" font-size="1.6" font-weight="regular" style="white-space: pre;" transform="matrix(1,0,0,1,0,0)" svgjs:data="{&quot;leading&quot;:&quot;1.3&quot;}">GND</text></g></g><g transform="matrix(1,0,0,1,93.98,8.89)"><title>line 26:9</title><path d="M -1.27 0 L 1.27 0" class="graphicLine"></path><path d="M 0 1.27 L 0 0" class="pin"></path><g transform="matrix(1,0,0,1,0,-0.381)"><text class="text" text-anchor="middle" dominant-baseline="alphabetic" font-size="1.6" font-weight="regular" style="white-space: pre;" transform="matrix(1,0,0,1,0,0)" svgjs:data="{&quot;leading&quot;:&quot;1.3&quot;}">VCC</text></g></g><g transform="matrix(1,0,0,1,93.98,12.7)"><title>line 28:9</title><path d="M 0 0 L 0 0" class="pin"></path><g transform="matrix(1,0,0,1,2.54,0)"><text class="text" text-anchor="start" dominant-baseline="alphabetic" font-size="1.6" font-weight="regular" style="white-space: pre;" transform="matrix(1,0,0,1,0,0)" svgjs:data="{&quot;leading&quot;:&quot;1.3&quot;}">Hello world</text></g></g><g transform="matrix(1,0,0,1,93.98,16.51)"><title>line 33:12</title><path d="M -1.27 0 L 1.27 0 L 0 1.27 Z" class="graphicLine styleOverride" style="fill: transparent;"></path><path d="M 0 -1.27 L 0 0" class="pin"></path><g transform="matrix(1,0,0,1,0,2.54)"><text class="text" text-anchor="middle" dominant-baseline="central" font-size="1.6" font-weight="regular" style="white-space: pre;" transform="matrix(1,0,0,1,0,0)" svgjs:data="{&quot;leading&quot;:&quot;1.3&quot;}">GND</text></g></g><g class="wires-highlight"></g><g class="wires"><path d="M7.62 10.16L7.62 12.7L7.62 15.24M93.98 10.16L93.98 12.7L93.98 15.24 " class="wire"></path></g><g class="frames"><rect width="83.82" height="20.32" stroke-width="0.127px" class="frame" transform="matrix(1,0,0,1,2.54,2.54)"></rect><rect width="20.32" height="20.32" stroke-width="0.127px" class="frame" transform="matrix(1,0,0,1,88.9,2.54)"></rect></g></g></g><style>:root{--cs-wire-color:rgb(0, 132, 0);--cs-bus-wire-color:rgb(0,0,250);--cs-junction-color:rgb(0, 132, 0);--cs-bus-junction-color:rgb(0,0,250);--cs-line-color:#333;--cs-text-color:#333;--cs-grid-color:#000;--cs-frame-border-color:#111;}@media (prefers-color-scheme: dark){:root{--cs-bus-wire-color:rgb(110,110,255);--cs-junction-color:rgb(0, 200, 0);--cs-bus-junction-color:rgb(110,110,255);--cs-grid-color:#888;--cs-frame-border-color:#444;--cs-wire-color:rgb(0, 200, 0);--cs-line-color:#ccc;--cs-text-color:#ccc;}}.wire{stroke-width:0.1524px;stroke-linecap:butt;stroke:var(--cs-wire-color);fill:none;}.pin{stroke-width:0.1524px;stroke:var(--cs-line-color);fill:none;}.graphicLine{stroke-width:0.127px;stroke:var(--cs-line-color);fill:none;}.grid{stroke:var(--cs-grid-color);stroke-width:0.0762px;stroke-dasharray:0.0762px,2.4638px;}.text{fill:var(--cs-text-color);}.frame{stroke:var(--cs-frame-border-color);fill:none;}text{font-family:Arial;}</style></svg>