<svg xmlns="http://www.w3.org/2000/svg" version="1.1" xmlns:xlink="http://www.w3.org/1999/xlink" xmlns:svgjs="http://svgjs.dev/svgjs" width="407.9728442" height="265.062356717" viewBox="-2.54 -2.5781 43.18 28.054299999999998"><g font-family="Arial"><g id="sheet-0" class="sheet" transform="matrix(1,0,0,1,0,0)"><g class="sheet-elements" transform="matrix(1,0,0,1,0,0)"><g transform="matrix(1,0,0,1,0,0)" class="grid"><path d="M -2.54 -2.5781 L -2.54 25.4762 M 0 -2.5781 L 0 25.4762 M 2.54 -2.5781 L 2.54 25.4762 M 5.08 -2.5781 L 5.08 25.4762 M 7.62 -2.5781 L 7.62 25.4762 M 10.16 -2.5781 L 10.16 25.4762 M 12.7 -2.5781 L 12.7 25.4762 M 15.24 -2.5781 L 15.24 25.4762 M 17.78 -2.5781 L 17.78 25.4762 M 20.32 -2.5781 L 20.32 25.4762 M 22.86 -2.5781 L 22.86 25.4762 M 25.4 -2.5781 L 25.4 25.4762 M 27.94 -2.5781 L 27.94 25.4762 M 30.48 -2.5781 L 30.48 25.4762 M 33.02 -2.5781 L 33.02 25.4762 M 35.56 -2.5781 L 35.56 25.4762 M 38.1 -2.5781 L 38.1 25.4762 M 40.64 -2.5781 L 40.64 25.4762" class="grid"></path></g><g transform="matrix(1,0,0,1,2.54,3.81)"><title>line 13:1</title><path d="M -1.27 0 L 1.27 0" class="graphicLine"></path><path d="M 0 1.27 L 0 0" class="pin"></path><g transform="matrix(1,0,0,1,0,-0.381)"><text class="text" text-anchor="middle" dominant-baseline="alphabetic" font-size="1.6" font-weight="regular" style="white-space: pre;" transform="matrix(1,0,0,1,0,0)" svgjs:data="{&quot;leading&quot;:&quot;1.3&quot;}">3V</text></g></g><g transform="matrix(1,0,0,1,2.54,7.62)"><path d="M 0 0 L 0 0" class="pin"></path></g><g transform="matrix(1,0,0,1,10.16,12.7)"><title>Component C1: line 17:5</title><path d="M -1.524 0.508 L 1.524 0.508" class="graphicLine styleOverride" style="stroke-width: 0.3302;"></path><path d="M -1.524 -0.508 L 1.524 -0.508" class="graphicLine styleOverride" style="stroke-width: 0.3302;"></path><path d="M 0 -2.54 L 0 -0.508" class="pin"></path><path d="M 0 2.54 L 0 0.508" class="pin"></path><g transform="matrix(1,0,0,1,2.032,-0.762)"><text class="text" text-anchor="start" dominant-baseline="central" font-size="1.6" font-weight="regular" style="white-space: pre;" transform="matrix(1,0,0,1,0,0)" svgjs:data="{&quot;leading&quot;:&quot;1.3&quot;}">C1</text></g><g transform="matrix(1,0,0,1,2.032,0.762)"><text class="text" text-anchor="start" dominant-baseline="central" font-size="1.6" font-weight="regular" style="white-space: pre;" transform="matrix(1,0,0,1,0,0)" svgjs:data="{&quot;leading&quot;:&quot;1.3&quot;}">100n</text></g></g><g transform="matrix(1,0,0,1,10.16,19.05)"><title>line 19:8</title><path d="M -1.27 0 L 1.27 0 L 0 1.27 Z" class="graphicLine styleOverride" style="fill: transparent;"></path><path d="M 0 -1.27 L 0 0" class="pin"></path><g transform="matrix(1,0,0,1,0,2.54)"><text class="text" text-anchor="middle" dominant-baseline="central" font-size="1.6" font-weight="regular" style="white-space: pre;" transform="matrix(1,0,0,1,0,0)" svgjs:data="{&quot;leading&quot;:&quot;1.3&quot;}">GND</text></g></g><g transform="matrix(1,0,0,1,2.54,12.7)"><title>Component C2: line 21:1</title><path d="M -1.524 0.508 L 1.524 0.508" class="graphicLine styleOverride" style="stroke-width: 0.3302;"></path><path d="M -1.524 -0.508 L 1.524 -0.508" class="graphicLine styleOverride" style="stroke-width: 0.3302;"></path><path d="M 0 -2.54 L 0 -0.508" class="pin"></path><path d="M 0 2.54 L 0 0.508" class="pin"></path><g transform="matrix(1,0,0,1,2.032,-0.762)"><text class="text" text-anchor="start" dominant-baseline="central" font-size="1.6" font-weight="regular" style="white-space: pre;" transform="matrix(1,0,0,1,0,0)" svgjs:data="{&quot;leading&quot;:&quot;1.3&quot;}">C2</text></g><g transform="matrix(1,0,0,1,2.032,0.762)"><text class="text" text-anchor="start" dominant-baseline="central" font-size="1.6" font-weight="regular" style="white-space: pre;" transform="matrix(1,0,0,1,0,0)" svgjs:data="{&quot;leading&quot;:&quot;1.3&quot;}">100n</text></g></g><g transform="matrix(1,0,0,1,2.54,19.05)"><title>line 23:4</title><path d="M -1.27 0 L 1.27 0 L 0 1.27 Z" class="graphicLine styleOverride" style="fill: transparent;"></path><path d="M 0 -1.27 L 0 0" class="pin"></path><g transform="matrix(1,0,0,1,0,2.54)"><text class="text" text-anchor="middle" dominant-baseline="central" font-size="1.6" font-weight="regular" style="white-space: pre;" transform="matrix(1,0,0,1,0,0)" svgjs:data="{&quot;leading&quot;:&quot;1.3&quot;}">GND</text></g></g><g transform="matrix(1,0,0,1,22.86,3.81)"><title>line 25:1</title><path d="M -1.27 0 L 1.27 0" class="graphicLine"></path><path d="M 0 1.27 L 0 0" class="pin"></path><g transform="matrix(1,0,0,1,0,-0.381)"><text class="text" text-anchor="middle" dominant-baseline="alphabetic" font-size="1.6" font-weight="regular" style="white-space: pre;" transform="matrix(1,0,0,1,0,0)" svgjs:data="{&quot;leading&quot;:&quot;1.3&quot;}">3V</text></g></g><g transform="matrix(1,0,0,1,22.86,10.16)"><title>Component R1: line 27:1</title><path d="M 0.762 -1.778 L 0.762 1.778 L -0.762 1.778 L -0.762 -1.778 Z" class="graphicLine styleOverride" style="fill: transparent;"></path><path d="M 0 -2.54 L 0 -1.778" class="pin"></path><path d="M 0 2.54 L 0 1.778" class="pin"></path><g transform="matrix(0,1,-1,0,1.27,-1.778)"><text class="text" text-anchor="start" dominant-baseline="alphabetic" font-size="1.6" font-weight="regular" style="white-space: pre;" transform="matrix(1,0,0,1,0,0)" svgjs:data="{&quot;leading&quot;:&quot;1.3&quot;}">R1</text></g><g transform="matrix(0,1,-1,0,0,0)"><text class="text" text-anchor="middle" dominant-baseline="central" font-size="0.96" font-weight="regular" style="white-space: pre;" transform="matrix(1,0,0,1,0,0)" svgjs:data="{&quot;leading&quot;:&quot;1.3&quot;}">1k</text></g></g><g transform="matrix(1,0,0,1,22.86,16.51)"><title>line 29:4</title><path d="M -1.27 0 L 1.27 0 L 0 1.27 Z" class="graphicLine styleOverride" style="fill: transparent;"></path><path d="M 0 -1.27 L 0 0" class="pin"></path><g transform="matrix(1,0,0,1,0,2.54)"><text class="text" text-anchor="middle" dominant-baseline="central" font-size="1.6" font-weight="regular" style="white-space: pre;" transform="matrix(1,0,0,1,0,0)" svgjs:data="{&quot;leading&quot;:&quot;1.3&quot;}">GND</text></g></g><g transform="matrix(1,0,0,1,33.02,3.81)"><title>line 43:1</title><path d="M -1.27 0 L 1.27 0" class="graphicLine"></path><path d="M 0 1.27 L 0 0" class="pin"></path><g transform="matrix(1,0,0,1,0,-0.381)"><text class="text" text-anchor="middle" dominant-baseline="alphabetic" font-size="1.6" font-weight="regular" style="white-space: pre;" transform="matrix(1,0,0,1,0,0)" svgjs:data="{&quot;leading&quot;:&quot;1.3&quot;}">5V</text></g></g><g transform="matrix(1,0,0,1,33.02,10.16)"><title>Component C3: line 45:1</title><path d="M -1.524 0.508 L 1.524 0.508" class="graphicLine styleOverride" style="stroke-width: 0.3302;"></path><path d="M -1.524 -0.508 L 1.524 -0.508" class="graphicLine styleOverride" style="stroke-width: 0.3302;"></path><path d="M 0 -2.54 L 0 -0.508" class="pin"></path><path d="M 0 2.54 L 0 0.508" class="pin"></path><g transform="matrix(1,0,0,1,2.032,-0.762)"><text class="text" text-anchor="start" dominant-baseline="central" font-size="1.6" font-weight="regular" style="white-space: pre;" transform="matrix(1,0,0,1,0,0)" svgjs:data="{&quot;leading&quot;:&quot;1.3&quot;}">C3</text></g><g transform="matrix(1,0,0,1,2.032,0.762)"><text class="text" text-anchor="start" dominant-baseline="central" font-size="1.6" font-weight="regular" style="white-space: pre;" transform="matrix(1,0,0,1,0,0)" svgjs:data="{&quot;leading&quot;:&quot;1.3&quot;}">20n</text></g></g><g transform="matrix(1,0,0,1,33.02,16.51)"><title>line 47:4</title><path d="M -1.27 0 L 1.27 0 L 0 1.27 Z" class="graphicLine styleOverride" style="fill: transparent;"></path><path d="M 0 -1.27 L 0 0" class="pin"></path><g transform="matrix(1,0,0,1,0,2.54)"><text class="text" text-anchor="middle" dominant-baseline="central" font-size="1.6" font-weight="regular" style="white-space: pre;" transform="matrix(1,0,0,1,0,0)" svgjs:data="{&quot;leading&quot;:&quot;1.3&quot;}">GND</text></g></g><g class="wires-highlight"><path d="M2.54 5.08L2.54 7.62L10.16 7.62L10.16 10.16M2.54 7.62L2.54 10.16M22.86 5.08L22.86 7.62 " stroke-linecap="butt" stroke-opacity="0.5" stroke-width="1.016" stroke="red" fill="none"></path><circle r="0.635" cx="0.635" cy="0.635" transform="matrix(1,0,0,1,1.905,6.985)" fill="red" opacity="0.3" stroke="none"></circle></g><g class="wires"><path d="M2.54 5.08L2.54 7.62L10.16 7.62L10.16 10.16M2.54 7.62L2.54 10.16M22.86 5.08L22.86 7.62 " class="wire styleOverride" style="stroke: purple; stroke-width: 0.254;"></path><circle r="0.254" cx="0.254" cy="0.254" transform="matrix(1,0,0,1,2.286,7.366)" class="junction styleOverride" style="fill: purple;"></circle><path d="M10.16 15.24L10.16 17.78M2.54 15.24L2.54 17.78M22.86 12.7L22.86 15.24M33.02 12.7L33.02 15.24 " class="wire"></path><path d="M33.02 5.08L33.02 7.62 " class="wire"></path></g><g class="frames"></g></g></g></g><style>:root{--cs-wire-color:rgb(0, 132, 0);--cs-bus-wire-color:rgb(0,0,250);--cs-junction-color:rgb(0, 132, 0);--cs-bus-junction-color:rgb(0,0,250);--cs-line-color:#333;--cs-text-color:#333;--cs-grid-color:#000;--cs-frame-border-color:#111;}@media (prefers-color-scheme: dark){:root{--cs-bus-wire-color:rgb(110,110,255);--cs-junction-color:rgb(0, 200, 0);--cs-bus-junction-color:rgb(110,110,255);--cs-grid-color:#888;--cs-frame-border-color:#444;--cs-wire-color:rgb(0, 200, 0);--cs-line-color:#ccc;--cs-text-color:#ccc;}}.wire{stroke-width:0.1524px;stroke-linecap:butt;stroke:var(--cs-wire-color);fill:none;}.junction{fill:var(--cs-junction-color);stroke:none;}.pin{stroke-width:0.1524px;stroke:var(--cs-line-color);fill:none;}.graphicLine{stroke-width:0.127px;stroke:var(--cs-line-color);fill:none;}.grid{stroke:var(--cs-grid-color);stroke-width:0.0762px;stroke-dasharray:0.0762px,2.4638px;}.text{fill:var(--cs-text-color);}text{font-family:Arial;}</style></svg>