<svg xmlns="http://www.w3.org/2000/svg" version="1.1" xmlns:xlink="http://www.w3.org/1999/xlink" xmlns:svgjs="http://svgjs.dev/svgjs" width="215.9856234" height="97.073538517" viewBox="-2.54 -2.5781 22.86 10.2743"><g id="sheet-0" class="sheet" transform="matrix(1,0,0,1,0,0)"><g class="sheet-elements" transform="matrix(1,0,0,1,0,0)"><g transform="matrix(1,0,0,1,0,0)" class="grid"><path d="M -2.54 -2.5781 L -2.54 7.6962 M 0 -2.5781 L 0 7.6962 M 2.54 -2.5781 L 2.54 7.6962 M 5.08 -2.5781 L 5.08 7.6962 M 7.62 -2.5781 L 7.62 7.6962 M 10.16 -2.5781 L 10.16 7.6962 M 12.7 -2.5781 L 12.7 7.6962 M 15.24 -2.5781 L 15.24 7.6962 M 17.78 -2.5781 L 17.78 7.6962 M 20.32 -2.5781 L 20.32 7.6962" stroke-dasharray="0.0762,2.4638" stroke-width="0.0762" stroke="#000000"></path></g><g transform="matrix(1,0,0,1,2.54,2.54)"><g><path d="M 0 0 L 0 0" stroke-width="0.1524" stroke="#333333"></path><g transform="matrix(1,0,0,1,0,-0.254)"><text fill="#333333" font-family="Arial" font-size="1.6" text-anchor="start" dominant-baseline="alphabetic" font-weight="regular" style="white-space: pre;" transform="matrix(1,0,0,1,0,0)" svgjs:data="{&quot;leading&quot;:&quot;1.3&quot;}"><tspan dy="0" x="0" svgjs:data="{&quot;newLined&quot;:true}">hello</tspan></text></g></g></g><g transform="matrix(1,0,0,1,15.24,2.54)"><g><path d="M 0 0 L 0 0" stroke-width="0.1524" stroke="#333333"></path><g transform="matrix(1,0,0,1,0,-0.254)"><text fill="#333333" font-family="Arial" font-size="1.6" text-anchor="end" dominant-baseline="alphabetic" font-weight="regular" style="white-space: pre;" transform="matrix(1,0,0,1,0,0)" svgjs:data="{&quot;leading&quot;:&quot;1.3&quot;}"><tspan dy="0" x="0" svgjs:data="{&quot;newLined&quot;:true}">hello</tspan></text></g></g></g><g><path d="M2.54 2.54L15.24 2.54 " stroke-linecap="butt" stroke-opacity="0.3" stroke-width="0.2794" fill="none"></path></g><g><path d="M2.54 2.54L15.24 2.54 " stroke-linecap="butt" stroke-width="0.1524" stroke="#008400" fill="none"></path></g><g></g></g></g></svg>