<svg xmlns="http://www.w3.org/2000/svg" version="1.1" xmlns:xlink="http://www.w3.org/1999/xlink" xmlns:svgjs="http://svgjs.dev/svgjs" width="383.97444160000003" height="337.05756451700006" viewBox="-2.54 -2.5781 40.64 35.6743"><g id="sheet-0" class="sheet" transform="matrix(1,0,0,1,0,0)"><g class="sheet-elements" transform="matrix(1,0,0,1,0,0)"><g transform="matrix(1,0,0,1,0,0)" class="grid"><path d="M -2.54 -2.5781 L -2.54 33.0962 M 0 -2.5781 L 0 33.0962 M 2.54 -2.5781 L 2.54 33.0962 M 5.08 -2.5781 L 5.08 33.0962 M 7.62 -2.5781 L 7.62 33.0962 M 10.16 -2.5781 L 10.16 33.0962 M 12.7 -2.5781 L 12.7 33.0962 M 15.24 -2.5781 L 15.24 33.0962 M 17.78 -2.5781 L 17.78 33.0962 M 20.32 -2.5781 L 20.32 33.0962 M 22.86 -2.5781 L 22.86 33.0962 M 25.4 -2.5781 L 25.4 33.0962 M 27.94 -2.5781 L 27.94 33.0962 M 30.48 -2.5781 L 30.48 33.0962 M 33.02 -2.5781 L 33.02 33.0962 M 35.56 -2.5781 L 35.56 33.0962 M 38.1 -2.5781 L 38.1 33.0962" class="grid"></path></g><g transform="matrix(1,0,0,1,20.32,11.43)"><title>line 23:1</title><path d="M -1.27 0 L 1.27 0" class="graphicLine"></path><path d="M 0 1.27 L 0 0" class="pin"></path><g transform="matrix(1,0,0,1,0,-0.381)"><text class="text" text-anchor="middle" dominant-baseline="alphabetic" font-size="1.6" font-weight="regular" style="white-space: pre;" transform="matrix(1,0,0,1,0,0)" svgjs:data="{&quot;leading&quot;:&quot;1.3&quot;}"><tspan dy="0" x="0" svgjs:data="{&quot;newLined&quot;:true}">VCC</tspan></text></g></g><g transform="matrix(1,0,0,1,20.32,15.24)"><path d="M 0 0 L 0 0" class="pin"></path></g><g transform="matrix(1,0,0,1,15.24,15.24)"><path d="M 0 0 L 0 0" class="pin"></path></g><g transform="matrix(1,0,0,1,10.16,15.24)"><title>Component S1: line 31:9</title><path d="M 0.254 1.27 A 1.27 1.27 0 0 0 0.254 -1.27 " class="graphicLine"></path><path d="M -0.254 -1.27 A 1.27 1.27 0 0 0 -0.254 1.27 " class="graphicLine"></path><path d="M -0.254 -1.27 L -0.254 1.27" class="graphicLine"></path><path d="M 0.254 -1.27 L 0.254 1.27" class="graphicLine"></path><path d="M 2.54 0 L 1.524 0" class="pin"></path><path d="M -2.54 0 L -1.524 0" class="pin"></path><g transform="matrix(1,0,0,1,1.905,-0.381)"><text class="pinId" text-anchor="start" dominant-baseline="alphabetic" style="white-space: pre;" transform="matrix(1,0,0,1,0,0)" svgjs:data="{&quot;leading&quot;:&quot;1.3&quot;}"><tspan dy="0" x="0" svgjs:data="{&quot;newLined&quot;:true}">1</tspan></text></g><g transform="matrix(1,0,0,1,-1.905,-0.381)"><text class="pinId" text-anchor="end" dominant-baseline="alphabetic" style="white-space: pre;" transform="matrix(1,0,0,1,0,0)" svgjs:data="{&quot;leading&quot;:&quot;1.3&quot;}"><tspan dy="0" x="0" svgjs:data="{&quot;newLined&quot;:true}">2</tspan></text></g><g transform="matrix(1,0,0,1,0,-1.778)"><text class="text" text-anchor="middle" dominant-baseline="alphabetic" font-size="1.6" font-weight="regular" style="white-space: pre;" transform="matrix(1,0,0,1,0,0)" svgjs:data="{&quot;leading&quot;:&quot;1.3&quot;}"><tspan dy="0" x="0" svgjs:data="{&quot;newLined&quot;:true}">S1</tspan></text></g></g><g transform="matrix(1,0,0,1,3.81,15.24)"><title>line 33:12</title><path d="M 0 -1.27 L 0 1.27 L -1.27 0 Z" class="graphicLine styleOverride" style="fill: transparent;"></path><path d="M 1.27 0 L 0 0" class="pin"></path><g transform="matrix(0,1,-1,0,-2.54,0)"><text class="text" text-anchor="middle" dominant-baseline="central" font-size="1.6" font-weight="regular" style="white-space: pre;" transform="matrix(1,0,0,1,0,0)" svgjs:data="{&quot;leading&quot;:&quot;1.3&quot;}"><tspan dy="0" x="0" svgjs:data="{&quot;newLined&quot;:true}">GND</tspan></text></g></g><g transform="matrix(1,0,0,1,15.24,10.16)"><title>Component S2: line 37:9</title><path d="M 1.27 0.254 A 1.27 1.27 0 0 1 -1.27 0.254 " class="graphicLine"></path><path d="M -1.27 -0.254 A 1.27 1.27 0 1 1 1.27 -0.254 " class="graphicLine"></path><path d="M -1.27 -0.254 L 1.27 -0.254" class="graphicLine"></path><path d="M -1.27 0.254 L 1.27 0.254" class="graphicLine"></path><path d="M 0 2.54 L 0 1.524" class="pin"></path><path d="M 0 -2.54 L 0 -1.524" class="pin"></path><g transform="matrix(0,-1,1,0,-0.381,1.905)"><text class="pinId" text-anchor="end" dominant-baseline="alphabetic" style="white-space: pre;" transform="matrix(1,0,0,1,0,0)" svgjs:data="{&quot;leading&quot;:&quot;1.3&quot;}"><tspan dy="0" x="0" svgjs:data="{&quot;newLined&quot;:true}">1</tspan></text></g><g transform="matrix(0,-1,1,0,-0.381,-1.905)"><text class="pinId" text-anchor="start" dominant-baseline="alphabetic" style="white-space: pre;" transform="matrix(1,0,0,1,0,0)" svgjs:data="{&quot;leading&quot;:&quot;1.3&quot;}"><tspan dy="0" x="0" svgjs:data="{&quot;newLined&quot;:true}">2</tspan></text></g><g transform="matrix(0,-1,1,0,-1.778,0)"><text class="text" text-anchor="middle" dominant-baseline="alphabetic" font-size="1.6" font-weight="regular" style="white-space: pre;" transform="matrix(1,0,0,1,0,0)" svgjs:data="{&quot;leading&quot;:&quot;1.3&quot;}"><tspan dy="0" x="0" svgjs:data="{&quot;newLined&quot;:true}">S2</tspan></text></g></g><g transform="matrix(1,0,0,1,15.24,3.81)"><title>line 39:12</title><path d="M -1.27 0 L 1.27 0 L 0 -1.27 Z" class="graphicLine styleOverride" style="fill: transparent;"></path><path d="M 0 1.27 L 0 0" class="pin"></path><g transform="matrix(1,0,0,1,0,-2.54)"><text class="text" text-anchor="middle" dominant-baseline="central" font-size="1.6" font-weight="regular" style="white-space: pre;" transform="matrix(1,0,0,1,0,0)" svgjs:data="{&quot;leading&quot;:&quot;1.3&quot;}"><tspan dy="0" x="0" svgjs:data="{&quot;newLined&quot;:true}">GND</tspan></text></g></g><g transform="matrix(1,0,0,1,20.32,20.32)"><title>Component S3: line 43:5</title><path d="M -1.27 -0.254 A 1.27 1.27 0 0 1 1.27 -0.254 " class="graphicLine"></path><path d="M 1.27 0.254 A 1.27 1.27 0 0 1 -1.27 0.254 " class="graphicLine"></path><path d="M 1.27 0.254 L -1.27 0.254" class="graphicLine"></path><path d="M 1.27 -0.254 L -1.27 -0.254" class="graphicLine"></path><path d="M 0 -2.54 L 0 -1.524" class="pin"></path><path d="M 0 2.54 L 0 1.524" class="pin"></path><g transform="matrix(0,1,-1,0,0.381,-1.905)"><text class="pinId" text-anchor="end" dominant-baseline="alphabetic" style="white-space: pre;" transform="matrix(1,0,0,1,0,0)" svgjs:data="{&quot;leading&quot;:&quot;1.3&quot;}"><tspan dy="0" x="0" svgjs:data="{&quot;newLined&quot;:true}">1</tspan></text></g><g transform="matrix(0,1,-1,0,0.381,1.905)"><text class="pinId" text-anchor="start" dominant-baseline="alphabetic" style="white-space: pre;" transform="matrix(1,0,0,1,0,0)" svgjs:data="{&quot;leading&quot;:&quot;1.3&quot;}"><tspan dy="0" x="0" svgjs:data="{&quot;newLined&quot;:true}">2</tspan></text></g><g transform="matrix(0,1,-1,0,1.778,0)"><text class="text" text-anchor="middle" dominant-baseline="alphabetic" font-size="1.6" font-weight="regular" style="white-space: pre;" transform="matrix(1,0,0,1,0,0)" svgjs:data="{&quot;leading&quot;:&quot;1.3&quot;}"><tspan dy="0" x="0" svgjs:data="{&quot;newLined&quot;:true}">S3</tspan></text></g></g><g transform="matrix(1,0,0,1,20.32,26.67)"><title>line 45:8</title><path d="M -1.27 0 L 1.27 0 L 0 1.27 Z" class="graphicLine styleOverride" style="fill: transparent;"></path><path d="M 0 -1.27 L 0 0" class="pin"></path><g transform="matrix(1,0,0,1,0,2.54)"><text class="text" text-anchor="middle" dominant-baseline="central" font-size="1.6" font-weight="regular" style="white-space: pre;" transform="matrix(1,0,0,1,0,0)" svgjs:data="{&quot;leading&quot;:&quot;1.3&quot;}"><tspan dy="0" x="0" svgjs:data="{&quot;newLined&quot;:true}">GND</tspan></text></g></g><g transform="matrix(1,0,0,1,25.4,15.24)"><title>Component S4: line 49:5</title><path d="M -0.254 1.27 A 1.27 1.27 0 0 1 -0.254 -1.27 " class="graphicLine"></path><path d="M 0.254 -1.27 A 1.27 1.27 0 0 1 0.254 1.27 " class="graphicLine"></path><path d="M 0.254 -1.27 L 0.254 1.27" class="graphicLine"></path><path d="M -0.254 -1.27 L -0.254 1.27" class="graphicLine"></path><path d="M -2.54 0 L -1.524 0" class="pin"></path><path d="M 2.54 0 L 1.524 0" class="pin"></path><g transform="matrix(1,0,0,1,-1.905,-0.381)"><text class="pinId" text-anchor="end" dominant-baseline="alphabetic" style="white-space: pre;" transform="matrix(1,0,0,1,0,0)" svgjs:data="{&quot;leading&quot;:&quot;1.3&quot;}"><tspan dy="0" x="0" svgjs:data="{&quot;newLined&quot;:true}">1</tspan></text></g><g transform="matrix(1,0,0,1,1.905,-0.381)"><text class="pinId" text-anchor="start" dominant-baseline="alphabetic" style="white-space: pre;" transform="matrix(1,0,0,1,0,0)" svgjs:data="{&quot;leading&quot;:&quot;1.3&quot;}"><tspan dy="0" x="0" svgjs:data="{&quot;newLined&quot;:true}">2</tspan></text></g><g transform="matrix(1,0,0,1,0,-1.778)"><text class="text" text-anchor="middle" dominant-baseline="alphabetic" font-size="1.6" font-weight="regular" style="white-space: pre;" transform="matrix(1,0,0,1,0,0)" svgjs:data="{&quot;leading&quot;:&quot;1.3&quot;}"><tspan dy="0" x="0" svgjs:data="{&quot;newLined&quot;:true}">S4</tspan></text></g></g><g transform="matrix(1,0,0,1,31.75,15.24)"><title>line 51:8</title><path d="M 0 1.27 L 0 -1.27 L 1.27 0 Z" class="graphicLine styleOverride" style="fill: transparent;"></path><path d="M -1.27 0 L 0 0" class="pin"></path><g transform="matrix(0,-1,1,0,2.54,0)"><text class="text" text-anchor="middle" dominant-baseline="central" font-size="1.6" font-weight="regular" style="white-space: pre;" transform="matrix(1,0,0,1,0,0)" svgjs:data="{&quot;leading&quot;:&quot;1.3&quot;}"><tspan dy="0" x="0" svgjs:data="{&quot;newLined&quot;:true}">GND</tspan></text></g></g><g class="wires-highlight"></g><g class="wires"><path d="M20.32 12.7L20.32 15.24L15.24 15.24L12.7 15.24M15.24 15.24L15.24 12.7M20.32 15.24L20.32 17.78M20.32 15.24L22.86 15.24 " class="wire"></path><circle r="0.254" cx="0.254" cy="0.254" transform="matrix(1,0,0,1,20.066,14.986)" class="junction"></circle><circle r="0.254" cx="0.254" cy="0.254" transform="matrix(1,0,0,1,14.986,14.986)" class="junction"></circle><path d="M7.62 15.24L5.08 15.24M15.24 7.62L15.24 5.08M20.32 22.86L20.32 25.4M27.94 15.24L30.48 15.24 " class="wire"></path></g><g class="frames"></g></g></g><style>:root{--cs-wire-color:rgb(0, 132, 0);--cs-bus-wire-color:rgb(0,0,250);--cs-junction-color:rgb(0, 132, 0);--cs-bus-junction-color:rgb(0,0,250);--cs-line-color:#333;--cs-text-color:#333;--cs-grid-color:#000;--cs-frame-border-color:#111;}@media (prefers-color-scheme: dark){:root{--cs-bus-wire-color:rgb(110,110,255);--cs-junction-color:rgb(0, 200, 0);--cs-bus-junction-color:rgb(110,110,255);--cs-grid-color:#888;--cs-frame-border-color:#444;--cs-wire-color:rgb(0, 200, 0);--cs-line-color:#ccc;--cs-text-color:#ccc;}}.wire{stroke-width:0.1524px;stroke-linecap:butt;stroke:var(--cs-wire-color);fill:none;}.junction{fill:var(--cs-junction-color);stroke:none;}.pin{stroke-width:0.1524px;stroke:var(--cs-line-color);fill:none;}.graphicLine{stroke-width:0.127px;stroke:var(--cs-line-color);fill:none;}.pinId{fill:var(--cs-line-color);font-size:0.96px;font-weight:regular;}.grid{stroke:var(--cs-grid-color);stroke-width:0.0762px;stroke-dasharray:0.0762px,2.4638px;}.text{fill:var(--cs-text-color);}text{font-family:Arial;}</style></svg>