<svg xmlns="http://www.w3.org/2000/svg" version="1.1" xmlns:xlink="http://www.w3.org/1999/xlink" xmlns:svgjs="http://svgjs.dev/svgjs" width="311.97923380000003" height="289.060759317" viewBox="-2.54 -2.5781 33.02 30.5943"><g font-family="Arial" style="color-scheme: light dark;"><g id="sheet-0" class="sheet" transform="matrix(1,0,0,1,0,0)"><g class="sheet-elements" transform="matrix(1,0,0,1,0,0)"><g transform="matrix(1,0,0,1,0,0)" class="grid"><path d="M -2.54 -2.5781 L -2.54 28.0162 M 0 -2.5781 L 0 28.0162 M 2.54 -2.5781 L 2.54 28.0162 M 5.08 -2.5781 L 5.08 28.0162 M 7.62 -2.5781 L 7.62 28.0162 M 10.16 -2.5781 L 10.16 28.0162 M 12.7 -2.5781 L 12.7 28.0162 M 15.24 -2.5781 L 15.24 28.0162 M 17.78 -2.5781 L 17.78 28.0162 M 20.32 -2.5781 L 20.32 28.0162 M 22.86 -2.5781 L 22.86 28.0162 M 25.4 -2.5781 L 25.4 28.0162 M 27.94 -2.5781 L 27.94 28.0162 M 30.48 -2.5781 L 30.48 28.0162" class="grid"></path></g><g transform="matrix(1,0,0,1,12.7,12.7)"><title>Component J1: line 10:1</title><path d="M 5.08 -5.08 L -5.08 -5.08 L -5.08 5.08 L 5.08 5.08 Z" class="graphicLine graphicPolygon"></path><path d="M 7.62 -2.54 L 5.08 -2.54" class="pin"></path><path d="M 7.62 0 L 5.08 0" class="pin"></path><path d="M 7.62 2.54 L 5.08 2.54" class="pin"></path><path d="M -7.62 -2.54 L -5.08 -2.54" class="pin"></path><path d="M -7.62 0 L -5.08 0" class="pin"></path><path d="M -7.62 2.54 L -5.08 2.54" class="pin"></path><g transform="matrix(1,0,0,1,4.572,-2.64)"><text class="pinName" text-anchor="end" dominant-baseline="central" font-size="1.28" font-weight="regular" transform="matrix(1,0,0,1,0,0)" svgjs:data="{&quot;leading&quot;:&quot;1.3&quot;}"><tspan dy="0" x="0" svgjs:data="{&quot;newLined&quot;:true}">1</tspan></text></g><g transform="matrix(1,0,0,1,5.334,-2.894)"><text class="pinId" text-anchor="start" dominant-baseline="alphabetic" font-size="0.96" font-weight="regular" transform="matrix(1,0,0,1,0,0)" svgjs:data="{&quot;leading&quot;:&quot;1.3&quot;}"><tspan dy="0" x="0" svgjs:data="{&quot;newLined&quot;:true}">1</tspan></text></g><g transform="matrix(1,0,0,1,4.572,-0.1)"><text class="pinName" text-anchor="end" dominant-baseline="central" font-size="1.28" font-weight="regular" transform="matrix(1,0,0,1,0,0)" svgjs:data="{&quot;leading&quot;:&quot;1.3&quot;}"><tspan dy="0" x="0" svgjs:data="{&quot;newLined&quot;:true}">3</tspan></text></g><g transform="matrix(1,0,0,1,5.334,-0.354)"><text class="pinId" text-anchor="start" dominant-baseline="alphabetic" font-size="0.96" font-weight="regular" transform="matrix(1,0,0,1,0,0)" svgjs:data="{&quot;leading&quot;:&quot;1.3&quot;}"><tspan dy="0" x="0" svgjs:data="{&quot;newLined&quot;:true}">3</tspan></text></g><g transform="matrix(1,0,0,1,4.572,2.44)"><text class="pinName" text-anchor="end" dominant-baseline="central" font-size="1.28" font-weight="regular" transform="matrix(1,0,0,1,0,0)" svgjs:data="{&quot;leading&quot;:&quot;1.3&quot;}"><tspan dy="0" x="0" svgjs:data="{&quot;newLined&quot;:true}">5</tspan></text></g><g transform="matrix(1,0,0,1,5.334,2.186)"><text class="pinId" text-anchor="start" dominant-baseline="alphabetic" font-size="0.96" font-weight="regular" transform="matrix(1,0,0,1,0,0)" svgjs:data="{&quot;leading&quot;:&quot;1.3&quot;}"><tspan dy="0" x="0" svgjs:data="{&quot;newLined&quot;:true}">5</tspan></text></g><g transform="matrix(1,0,0,1,-4.572,-2.64)"><text class="pinName" text-anchor="start" dominant-baseline="central" font-size="1.28" font-weight="regular" transform="matrix(1,0,0,1,0,0)" svgjs:data="{&quot;leading&quot;:&quot;1.3&quot;}"><tspan dy="0" x="0" svgjs:data="{&quot;newLined&quot;:true}">2</tspan></text></g><g transform="matrix(1,0,0,1,-5.334,-2.894)"><text class="pinId" text-anchor="end" dominant-baseline="alphabetic" font-size="0.96" font-weight="regular" transform="matrix(1,0,0,1,0,0)" svgjs:data="{&quot;leading&quot;:&quot;1.3&quot;}"><tspan dy="0" x="0" svgjs:data="{&quot;newLined&quot;:true}">2</tspan></text></g><g transform="matrix(1,0,0,1,-4.572,-0.1)"><text class="pinName" text-anchor="start" dominant-baseline="central" font-size="1.28" font-weight="regular" transform="matrix(1,0,0,1,0,0)" svgjs:data="{&quot;leading&quot;:&quot;1.3&quot;}"><tspan dy="0" x="0" svgjs:data="{&quot;newLined&quot;:true}">4</tspan></text></g><g transform="matrix(1,0,0,1,-5.334,-0.354)"><text class="pinId" text-anchor="end" dominant-baseline="alphabetic" font-size="0.96" font-weight="regular" transform="matrix(1,0,0,1,0,0)" svgjs:data="{&quot;leading&quot;:&quot;1.3&quot;}"><tspan dy="0" x="0" svgjs:data="{&quot;newLined&quot;:true}">4</tspan></text></g><g transform="matrix(1,0,0,1,-4.572,2.44)"><text class="pinName" text-anchor="start" dominant-baseline="central" font-size="1.28" font-weight="regular" transform="matrix(1,0,0,1,0,0)" svgjs:data="{&quot;leading&quot;:&quot;1.3&quot;}"><tspan dy="0" x="0" svgjs:data="{&quot;newLined&quot;:true}">6</tspan></text></g><g transform="matrix(1,0,0,1,-5.334,2.186)"><text class="pinId" text-anchor="end" dominant-baseline="alphabetic" font-size="0.96" font-weight="regular" transform="matrix(1,0,0,1,0,0)" svgjs:data="{&quot;leading&quot;:&quot;1.3&quot;}"><tspan dy="0" x="0" svgjs:data="{&quot;newLined&quot;:true}">6</tspan></text></g><g transform="matrix(1,0,0,1,5.08,-5.688)"><text class="text" text-anchor="end" dominant-baseline="alphabetic" font-size="1.6" font-weight="regular" transform="matrix(1,0,0,1,0,0)" svgjs:data="{&quot;leading&quot;:&quot;1.3&quot;}"><tspan dy="0" x="0" svgjs:data="{&quot;newLined&quot;:true}">J1</tspan></text></g></g><g transform="matrix(1,0,0,1,22.86,6.35)"><title>line 15:30</title><path d="M -1.27 0 L 1.27 0" class="graphicLine"></path><path d="M 0 1.27 L 0 0" class="pin"></path><g transform="matrix(1,0,0,1,0,-0.481)"><text class="text" text-anchor="middle" dominant-baseline="alphabetic" font-size="1.6" font-weight="regular" transform="matrix(1,0,0,1,0,0)" svgjs:data="{&quot;leading&quot;:&quot;1.3&quot;}"><tspan dy="0" x="0" svgjs:data="{&quot;newLined&quot;:true}">3v3</tspan></text></g></g><g transform="matrix(1,0,0,1,20.32,19.05)"><title>line 19:4</title><path d="M -1.27 0 L 1.27 0 L 0 1.27 Z" class="graphicLine graphicPolygon"></path><path d="M 0 -1.27 L 0 0" class="pin"></path><g transform="matrix(1,0,0,1,0,2.44)"><text class="text" text-anchor="middle" dominant-baseline="central" font-size="1.6" font-weight="regular" transform="matrix(1,0,0,1,0,0)" svgjs:data="{&quot;leading&quot;:&quot;1.3&quot;}"><tspan dy="0" x="0" svgjs:data="{&quot;newLined&quot;:true}">GND</tspan></text></g></g><g class="wires-highlight"></g><g class="wires"><path d="M20.32 10.16L22.86 10.16L22.86 7.62 " class="wire"></path><path d="M20.32 15.24L20.32 17.78 " class="wire"></path></g><g class="frames"><rect width="27.94" height="25.4" stroke-width="0.127px" class="frame" transform="matrix(1,0,0,1,0,0)"></rect></g></g></g></g><style>:root{--cs-wire-color:rgb(0, 132, 0);--cs-bus-wire-color:rgb(0,0,250);--cs-junction-color:rgb(0, 132, 0);--cs-bus-junction-color:rgb(0,0,250);--cs-line-color:#333;--cs-text-color:#333;--cs-grid-color:#000;--cs-frame-border-color:#111;--cs-body-color:rgb(255, 255, 255);}@media (prefers-color-scheme: dark){:root{--cs-bus-wire-color:rgb(110,110,255);--cs-junction-color:rgb(0, 200, 0);--cs-bus-junction-color:rgb(110,110,255);--cs-grid-color:#888;--cs-frame-border-color:#444;--cs-body-color:rgb(0, 0, 0);--cs-wire-color:rgb(0, 200, 0);--cs-line-color:#ccc;--cs-text-color:#ccc;}}.wire{stroke-width:0.1524px;stroke-linecap:butt;stroke:var(--cs-wire-color);fill:none;}.pin{stroke-width:0.1524px;stroke:var(--cs-line-color);fill:none;}.graphicLine{stroke-width:0.127px;stroke:var(--cs-line-color);fill:none;}.graphicPolygon{fill:var(--cs-body-color);}.pinName{fill:var(--cs-text-color);font-size:1.28px;font-weight:regular;}.pinId{fill:var(--cs-line-color);font-size:0.96px;font-weight:regular;}.grid{stroke:var(--cs-grid-color);stroke-width:0.0762px;stroke-dasharray:0.0762px,2.4638px;}.text{fill:var(--cs-text-color);}.frame{stroke:var(--cs-frame-border-color);fill:none;}text{font-family:Arial;}text tspan{white-space:pre;}</style></svg>