<svg xmlns="http://www.w3.org/2000/svg" version="1.1" xmlns:xlink="http://www.w3.org/1999/xlink" xmlns:svgjs="http://svgjs.dev/svgjs" width="407.9728442" height="193.067148917" viewBox="-2.54 -2.5781 43.18 20.4343"><g id="sheet-0" class="sheet" transform="matrix(1,0,0,1,0,0)"><g class="sheet-elements" transform="matrix(1,0,0,1,0,0)"><g transform="matrix(1,0,0,1,0,0)" class="grid"><path d="M -2.54 -2.5781 L -2.54 17.8562 M 0 -2.5781 L 0 17.8562 M 2.54 -2.5781 L 2.54 17.8562 M 5.08 -2.5781 L 5.08 17.8562 M 7.62 -2.5781 L 7.62 17.8562 M 10.16 -2.5781 L 10.16 17.8562 M 12.7 -2.5781 L 12.7 17.8562 M 15.24 -2.5781 L 15.24 17.8562 M 17.78 -2.5781 L 17.78 17.8562 M 20.32 -2.5781 L 20.32 17.8562 M 22.86 -2.5781 L 22.86 17.8562 M 25.4 -2.5781 L 25.4 17.8562 M 27.94 -2.5781 L 27.94 17.8562 M 30.48 -2.5781 L 30.48 17.8562 M 33.02 -2.5781 L 33.02 17.8562 M 35.56 -2.5781 L 35.56 17.8562 M 38.1 -2.5781 L 38.1 17.8562 M 40.64 -2.5781 L 40.64 17.8562" stroke-dasharray="0.0762,2.4638" stroke-width="0.0762" stroke="#000000"></path></g><g transform="matrix(1,0,0,1,2.54,11.43)"><g><path d="M -1.27 0 L 1.27 0 L 0 1.27 Z" stroke-width="0.127" stroke="#333333" fill="none"></path><path d="M 0 -1.27 L 0 0" stroke-width="0.1524" stroke="#333333"></path><g transform="matrix(1,0,0,1,0,2.54)"><text fill="#333333" font-family="Arial" font-size="1.6" text-anchor="middle" dominant-baseline="central" font-weight="regular" xml:space="preserve" transform="matrix(1,0,0,1,0,0)" svgjs:data="{&quot;leading&quot;:&quot;1.3&quot;}"><tspan dy="0" x="0" svgjs:data="{&quot;newLined&quot;:true}">GND</tspan></text></g></g></g><g transform="matrix(1,0,0,1,8.89,7.62)"><g><path d="M 1.27 -1.27 L 1.27 1.27 L -1.27 0 Z" stroke-width="0.127" stroke="#333333" fill="none"></path><path d="M -1.27 1.27 L -1.27 -1.27" stroke-width="0.127" stroke="#333333" fill="none"></path><path d="M -1.778 -0.762 L -2.8529872 -1.8369872" stroke-width="0.127" stroke="#333333" fill="none"></path><path d="M -2.6284808 -2.0614936 L -3.0774936 -1.6124808 L -3.302 -2.286 Z" stroke-width="0.127" stroke="#333333" fill="none"></path><path d="M -3.048 -0.762 L -4.1229872 -1.8369872" stroke-width="0.127" stroke="#333333" fill="none"></path><path d="M -3.8984808 -2.0614936 L -4.3474936 -1.6124808 L -4.572 -2.286 Z" stroke-width="0.127" stroke="#333333" fill="none"></path><path d="M -3.81 0 L -1.27 0" stroke-width="0.1524" stroke="#333333"></path><path d="M 3.81 0 L 1.27 0" stroke-width="0.1524" stroke="#333333"></path><g transform="matrix(-1,0,0,-1,-1.651,0.381)"><text fill="#333333" font-family="Arial" font-size="0.96" text-anchor="end" dominant-baseline="hanging" font-weight="regular" xml:space="preserve" transform="matrix(-1,1.2246467991473532e-16,-1.2246467991473532e-16,-1,0,0)" svgjs:data="{&quot;leading&quot;:&quot;1.3&quot;}"><tspan dy="0" x="0" svgjs:data="{&quot;newLined&quot;:true}">1</tspan></text></g><g transform="matrix(-1,0,0,-1,1.651,0.381)"><text fill="#333333" font-family="Arial" font-size="0.96" text-anchor="start" dominant-baseline="hanging" font-weight="regular" xml:space="preserve" transform="matrix(-1,1.2246467991473532e-16,-1.2246467991473532e-16,-1,0,0)" svgjs:data="{&quot;leading&quot;:&quot;1.3&quot;}"><tspan dy="0" x="0" svgjs:data="{&quot;newLined&quot;:true}">2</tspan></text></g><g transform="matrix(-1,0,0,-1,0,2.54)"><text fill="#333333" font-family="Arial" font-size="1.6" text-anchor="middle" dominant-baseline="alphabetic" font-weight="regular" xml:space="preserve" transform="matrix(-1,1.2246467991473532e-16,-1.2246467991473532e-16,-1,0,0)" svgjs:data="{&quot;leading&quot;:&quot;1.3&quot;}"><tspan dy="0" x="0" svgjs:data="{&quot;newLined&quot;:true}">D1</tspan></text></g><g transform="matrix(-1,0,0,-1,0,-2.54)"><text fill="#333333" font-family="Arial" font-size="1.28" text-anchor="middle" dominant-baseline="hanging" font-weight="regular" xml:space="preserve" transform="matrix(-1,1.2246467991473532e-16,-1.2246467991473532e-16,-1,0,0)" svgjs:data="{&quot;leading&quot;:&quot;1.3&quot;}"><tspan dy="0" x="0" svgjs:data="{&quot;newLined&quot;:true}">GREEN</tspan></text></g></g></g><g transform="matrix(1,0,0,1,15.24,3.81)"><g><path d="M -1.27 0 L 1.27 0" stroke-width="0.127" stroke="#333333" fill="none"></path><path d="M 0 1.27 L 0 0" stroke-width="0.1524" stroke="#333333"></path><g transform="matrix(1,0,0,1,0,-0.381)"><text fill="#333333" font-family="Arial" font-size="1.6" text-anchor="middle" dominant-baseline="alphabetic" font-weight="regular" xml:space="preserve" transform="matrix(1,0,0,1,0,0)" svgjs:data="{&quot;leading&quot;:&quot;1.3&quot;}"><tspan dy="0" x="0" svgjs:data="{&quot;newLined&quot;:true}">5v</tspan></text></g></g></g><g transform="matrix(1,0,0,1,22.86,3.81)"><g><path d="M -1.27 0 L 1.27 0" stroke-width="0.127" stroke="#333333" fill="none"></path><path d="M 0 1.27 L 0 0" stroke-width="0.1524" stroke="#333333"></path><g transform="matrix(1,0,0,1,0,-0.381)"><text fill="#333333" font-family="Arial" font-size="1.6" text-anchor="middle" dominant-baseline="alphabetic" font-weight="regular" xml:space="preserve" transform="matrix(1,0,0,1,0,0)" svgjs:data="{&quot;leading&quot;:&quot;1.3&quot;}"><tspan dy="0" x="0" svgjs:data="{&quot;newLined&quot;:true}">5v</tspan></text></g></g></g><g transform="matrix(1,0,0,1,29.21,7.62)"><g><path d="M -1.27 1.27 L -1.27 -1.27 L 1.27 0 Z" stroke-width="0.127" stroke="#333333" fill="none"></path><path d="M 1.27 -1.27 L 1.27 1.27" stroke-width="0.127" stroke="#333333" fill="none"></path><path d="M 1.778 0.762 L 2.8529872 1.8369872" stroke-width="0.127" stroke="#333333" fill="none"></path><path d="M 2.6284808 2.0614936 L 3.0774936 1.6124808 L 3.302 2.286 Z" stroke-width="0.127" stroke="#333333" fill="none"></path><path d="M 3.048 0.762 L 4.1229872 1.8369872" stroke-width="0.127" stroke="#333333" fill="none"></path><path d="M 3.8984808 2.0614936 L 4.3474936 1.6124808 L 4.572 2.286 Z" stroke-width="0.127" stroke="#333333" fill="none"></path><path d="M 3.81 0 L 1.27 0" stroke-width="0.1524" stroke="#333333"></path><path d="M -3.81 0 L -1.27 0" stroke-width="0.1524" stroke="#333333"></path><g transform="matrix(1,0,0,1,1.651,-0.381)"><text fill="#333333" font-family="Arial" font-size="0.96" text-anchor="start" dominant-baseline="alphabetic" font-weight="regular" xml:space="preserve" transform="matrix(1,0,0,1,0,0)" svgjs:data="{&quot;leading&quot;:&quot;1.3&quot;}"><tspan dy="0" x="0" svgjs:data="{&quot;newLined&quot;:true}">1</tspan></text></g><g transform="matrix(1,0,0,1,-1.651,-0.381)"><text fill="#333333" font-family="Arial" font-size="0.96" text-anchor="end" dominant-baseline="alphabetic" font-weight="regular" xml:space="preserve" transform="matrix(1,0,0,1,0,0)" svgjs:data="{&quot;leading&quot;:&quot;1.3&quot;}"><tspan dy="0" x="0" svgjs:data="{&quot;newLined&quot;:true}">2</tspan></text></g><g transform="matrix(1,0,0,1,0,-2.54)"><text fill="#333333" font-family="Arial" font-size="1.6" text-anchor="middle" dominant-baseline="hanging" font-weight="regular" xml:space="preserve" transform="matrix(1,0,0,1,0,0)" svgjs:data="{&quot;leading&quot;:&quot;1.3&quot;}"><tspan dy="0" x="0" svgjs:data="{&quot;newLined&quot;:true}">D2</tspan></text></g><g transform="matrix(1,0,0,1,0,2.54)"><text fill="#333333" font-family="Arial" font-size="1.28" text-anchor="middle" dominant-baseline="alphabetic" font-weight="regular" xml:space="preserve" transform="matrix(1,0,0,1,0,0)" svgjs:data="{&quot;leading&quot;:&quot;1.3&quot;}"><tspan dy="0" x="0" svgjs:data="{&quot;newLined&quot;:true}">RED</tspan></text></g></g></g><g transform="matrix(1,0,0,1,35.56,11.43)"><g><path d="M -1.27 0 L 1.27 0 L 0 1.27 Z" stroke-width="0.127" stroke="#333333" fill="none"></path><path d="M 0 -1.27 L 0 0" stroke-width="0.1524" stroke="#333333"></path><g transform="matrix(1,0,0,1,0,2.54)"><text fill="#333333" font-family="Arial" font-size="1.6" text-anchor="middle" dominant-baseline="central" font-weight="regular" xml:space="preserve" transform="matrix(1,0,0,1,0,0)" svgjs:data="{&quot;leading&quot;:&quot;1.3&quot;}"><tspan dy="0" x="0" svgjs:data="{&quot;newLined&quot;:true}">GND</tspan></text></g></g></g><g><path d="M2.54 10.16L2.54 7.62L5.08 7.62M33.02 7.62L35.56 7.62L35.56 10.16 " stroke-linecap="butt" stroke-opacity="0.3" stroke-width="0.2794" fill="none"></path><path d="M12.7 7.62L15.24 7.62L15.24 5.08M22.86 5.08L22.86 7.62L25.4 7.62 " stroke-linecap="butt" stroke-opacity="0.3" stroke-width="0.2794" fill="none"></path></g><g><path d="M2.54 10.16L2.54 7.62L5.08 7.62M33.02 7.62L35.56 7.62L35.56 10.16 " stroke-linecap="butt" stroke-width="0.1524" stroke="#008400" fill="none"></path><path d="M12.7 7.62L15.24 7.62L15.24 5.08M22.86 5.08L22.86 7.62L25.4 7.62 " stroke-linecap="butt" stroke-width="0.1524" stroke="#008400" fill="none"></path></g><g></g></g></g></svg>