<svg xmlns="http://www.w3.org/2000/svg" version="1.1" xmlns:xlink="http://www.w3.org/1999/xlink" xmlns:svgjs="http://svgjs.dev/svgjs" width="143.99041559999998" height="241.063954117" viewBox="-2.54 -2.5781 15.239999999999998 25.5143"><g id="sheet-0" class="sheet" transform="matrix(1,0,0,1,0,0)"><g class="sheet-elements" transform="matrix(1,0,0,1,0,0)"><g transform="matrix(1,0,0,1,0,0)" class="grid"><path d="M -2.54 -2.5781 L -2.54 22.9362 M 0 -2.5781 L 0 22.9362 M 2.54 -2.5781 L 2.54 22.9362 M 5.08 -2.5781 L 5.08 22.9362 M 7.62 -2.5781 L 7.62 22.9362 M 10.16 -2.5781 L 10.16 22.9362 M 12.7 -2.5781 L 12.7 22.9362" stroke-dasharray="0.0762,2.4638" stroke-width="0.0762" stroke="red"></path></g><g transform="matrix(1,0,0,1,2.54,3.81)"><g><path d="M -1.27 0 L 1.27 0" stroke-width="0.127" stroke="#333333" fill="none"></path><path d="M 0 1.27 L 0 0" stroke-width="0.1524" stroke="#333333"></path><g transform="matrix(1,0,0,1,0,-0.381)"><text fill="#333333" font-family="Arial" font-size="1.6" text-anchor="middle" dominant-baseline="text-top" font-weight="regular" xml:space="preserve" transform="matrix(1,0,0,1,0,0)" svgjs:data="{&quot;leading&quot;:&quot;1.3&quot;}"><tspan dy="0" x="0" svgjs:data="{&quot;newLined&quot;:true}">5V</tspan></text></g></g></g><g transform="matrix(1,0,0,1,2.54,10.16)"><g><path d="M -1.524 0.508 L 1.524 0.508" stroke-width="0.3302" stroke="#333333" fill="none"></path><path d="M -1.524 -0.508 L 1.524 -0.508" stroke-width="0.3302" stroke="#333333" fill="none"></path><path d="M 0 -2.54 L 0 -0.508" stroke-width="0.1524" stroke="#333333"></path><path d="M 0 2.54 L 0 0.508" stroke-width="0.1524" stroke="#333333"></path><g transform="matrix(1,0,0,1,2.032,-0.762)"><text fill="#333333" font-family="Arial" font-size="1.6" text-anchor="start" dominant-baseline="central" font-weight="regular" xml:space="preserve" transform="matrix(1,0,0,1,0,0)" svgjs:data="{&quot;leading&quot;:&quot;1.3&quot;}"><tspan dy="0" x="0" svgjs:data="{&quot;newLined&quot;:true}">C1</tspan></text></g><g transform="matrix(1,0,0,1,2.032,0.762)"><text fill="#333333" font-family="Arial" font-size="1.6" text-anchor="start" dominant-baseline="central" font-weight="regular" xml:space="preserve" transform="matrix(1,0,0,1,0,0)" svgjs:data="{&quot;leading&quot;:&quot;1.3&quot;}"><tspan dy="0" x="0" svgjs:data="{&quot;newLined&quot;:true}">100n</tspan></text></g></g></g><g transform="matrix(1,0,0,1,2.54,16.51)"><g><path d="M -1.27 0 L 1.27 0 L 0 1.27 Z" stroke-width="0.127" stroke="#333333" fill="#ffffff"></path><path d="M 0 -1.27 L 0 0" stroke-width="0.1524" stroke="#333333"></path><g transform="matrix(1,0,0,1,0,2.54)"><text fill="#333333" font-family="Arial" font-size="1.6" text-anchor="middle" dominant-baseline="central" font-weight="regular" xml:space="preserve" transform="matrix(1,0,0,1,0,0)" svgjs:data="{&quot;leading&quot;:&quot;1.3&quot;}"><tspan dy="0" x="0" svgjs:data="{&quot;newLined&quot;:true}">GND</tspan></text></g></g></g><g><path d="M2.54 5.08L2.54 7.62 " stroke-linecap="butt" stroke-opacity="0.3" stroke-width="0.6604" stroke="red" fill="none"></path><path d="M2.54 12.7L2.54 15.24 " stroke-linecap="butt" stroke-opacity="0.3" stroke-width="0.2794" fill="none"></path></g><g><path d="M2.54 5.08L2.54 7.62 " stroke-linecap="butt" stroke-width="0.1524" stroke="red" fill="none"></path><path d="M2.54 12.7L2.54 15.24 " stroke-linecap="butt" stroke-width="0.1524" stroke="#008400" fill="none"></path></g><g></g></g></g></svg>