<svg xmlns="http://www.w3.org/2000/svg" version="1.1" xmlns:xlink="http://www.w3.org/1999/xlink" xmlns:svgjs="http://svgjs.dev/svgjs" width="383.97444160000003" height="385.05436971700004" viewBox="-2.54 -2.5781 40.64 40.7543"><g id="sheet-0" class="sheet" transform="matrix(1,0,0,1,0,0)"><g class="sheet-elements" transform="matrix(1,0,0,1,0,0)"><g transform="matrix(1,0,0,1,0,0)" class="grid"><path d="M -2.54 -2.5781 L -2.54 38.1762 M 0 -2.5781 L 0 38.1762 M 2.54 -2.5781 L 2.54 38.1762 M 5.08 -2.5781 L 5.08 38.1762 M 7.62 -2.5781 L 7.62 38.1762 M 10.16 -2.5781 L 10.16 38.1762 M 12.7 -2.5781 L 12.7 38.1762 M 15.24 -2.5781 L 15.24 38.1762 M 17.78 -2.5781 L 17.78 38.1762 M 20.32 -2.5781 L 20.32 38.1762 M 22.86 -2.5781 L 22.86 38.1762 M 25.4 -2.5781 L 25.4 38.1762 M 27.94 -2.5781 L 27.94 38.1762 M 30.48 -2.5781 L 30.48 38.1762 M 33.02 -2.5781 L 33.02 38.1762 M 35.56 -2.5781 L 35.56 38.1762 M 38.1 -2.5781 L 38.1 38.1762" stroke-dasharray="0.0762,2.4638" stroke-width="0.0762" stroke="#000000"></path></g><g transform="matrix(1,0,0,1,5.08,3.81)"><g><path d="M -1.27 0 L 1.27 0" stroke-width="0.127" stroke="#333333" fill="none"></path><path d="M 0 1.27 L 0 0" stroke-width="0.1524" stroke="#333333"></path><g transform="matrix(1,0,0,1,0,-0.381)"><text fill="#333333" font-family="Arial" font-size="1.6" text-anchor="middle" dominant-baseline="text-top" font-weight="regular" xml:space="preserve" transform="matrix(1,0,0,1,0,0)" svgjs:data="{&quot;leading&quot;:&quot;1.3&quot;}"><tspan dy="0" x="0" svgjs:data="{&quot;newLined&quot;:true}">5V</tspan></text></g></g></g><g transform="matrix(1,0,0,1,5.08,10.16)"><g><path d="M 0.762 -1.778 L 0.762 1.778 L -0.762 1.778 L -0.762 -1.778 Z" stroke-width="0.127" stroke="#333333" fill="#ffffff"></path><path d="M 0 -2.54 L 0 -1.778" stroke-width="0.1524" stroke="#333333"></path><path d="M 0 2.54 L 0 1.778" stroke-width="0.1524" stroke="#333333"></path><g transform="matrix(0,1,-1,0,0.381,-2.159)"><text fill="#333333" font-family="Arial" font-size="0.96" text-anchor="end" dominant-baseline="text-top" font-weight="regular" xml:space="preserve" transform="matrix(1,0,0,1,0,0)" svgjs:data="{&quot;leading&quot;:&quot;1.3&quot;}"><tspan dy="0" x="0" svgjs:data="{&quot;newLined&quot;:true}">1</tspan></text></g><g transform="matrix(0,1,-1,0,0.381,2.159)"><text fill="#333333" font-family="Arial" font-size="0.96" text-anchor="start" dominant-baseline="text-top" font-weight="regular" xml:space="preserve" transform="matrix(1,0,0,1,0,0)" svgjs:data="{&quot;leading&quot;:&quot;1.3&quot;}"><tspan dy="0" x="0" svgjs:data="{&quot;newLined&quot;:true}">2</tspan></text></g><g transform="matrix(0,1,-1,0,1.27,-1.778)"><text fill="#333333" font-family="Arial" font-size="1.6" text-anchor="start" dominant-baseline="text-top" font-weight="regular" xml:space="preserve" transform="matrix(1,0,0,1,0,0)" svgjs:data="{&quot;leading&quot;:&quot;1.3&quot;}"><tspan dy="0" x="0" svgjs:data="{&quot;newLined&quot;:true}">R1</tspan></text></g><g transform="matrix(0,1,-1,0,0,0)"><text fill="#333333" font-family="Arial" font-size="0.96" text-anchor="middle" dominant-baseline="central" font-weight="regular" xml:space="preserve" transform="matrix(1,0,0,1,0,0)" svgjs:data="{&quot;leading&quot;:&quot;1.3&quot;}"><tspan dy="0" x="0" svgjs:data="{&quot;newLined&quot;:true}">360</tspan></text></g></g></g><g transform="matrix(1,0,0,1,5.08,15.24)"><g><path d="M 0 0 L 0 0" stroke-width="0.1524" stroke="#333333"></path></g></g><g transform="matrix(1,0,0,1,30.48,20.32)"><g><path d="M 0.762 -1.778 L 0.762 1.778 L -0.762 1.778 L -0.762 -1.778 Z" stroke-width="0.127" stroke="#333333" fill="#ffffff"></path><path d="M 0 -2.54 L 0 -1.778" stroke-width="0.1524" stroke="#333333"></path><path d="M 0 2.54 L 0 1.778" stroke-width="0.1524" stroke="#333333"></path><g transform="matrix(0,1,-1,0,0.381,-2.159)"><text fill="#333333" font-family="Arial" font-size="0.96" text-anchor="end" dominant-baseline="text-top" font-weight="regular" xml:space="preserve" transform="matrix(1,0,0,1,0,0)" svgjs:data="{&quot;leading&quot;:&quot;1.3&quot;}"><tspan dy="0" x="0" svgjs:data="{&quot;newLined&quot;:true}">1</tspan></text></g><g transform="matrix(0,1,-1,0,0.381,2.159)"><text fill="#333333" font-family="Arial" font-size="0.96" text-anchor="start" dominant-baseline="text-top" font-weight="regular" xml:space="preserve" transform="matrix(1,0,0,1,0,0)" svgjs:data="{&quot;leading&quot;:&quot;1.3&quot;}"><tspan dy="0" x="0" svgjs:data="{&quot;newLined&quot;:true}">2</tspan></text></g><g transform="matrix(0,1,-1,0,1.27,-1.778)"><text fill="#333333" font-family="Arial" font-size="1.6" text-anchor="start" dominant-baseline="text-top" font-weight="regular" xml:space="preserve" transform="matrix(1,0,0,1,0,0)" svgjs:data="{&quot;leading&quot;:&quot;1.3&quot;}"><tspan dy="0" x="0" svgjs:data="{&quot;newLined&quot;:true}">R4</tspan></text></g><g transform="matrix(0,1,-1,0,0,0)"><text fill="#333333" font-family="Arial" font-size="0.96" text-anchor="middle" dominant-baseline="central" font-weight="regular" xml:space="preserve" transform="matrix(1,0,0,1,0,0)" svgjs:data="{&quot;leading&quot;:&quot;1.3&quot;}"><tspan dy="0" x="0" svgjs:data="{&quot;newLined&quot;:true}">360</tspan></text></g></g></g><g transform="matrix(1,0,0,1,30.48,29.21)"><g><path d="M -1.27 0 L 1.27 0 L 0 1.27 Z" stroke-width="0.127" stroke="#333333" fill="#ffffff"></path><path d="M 0 -1.27 L 0 0" stroke-width="0.1524" stroke="#333333"></path><g transform="matrix(1,0,0,1,0,2.54)"><text fill="#333333" font-family="Arial" font-size="1.6" text-anchor="middle" dominant-baseline="central" font-weight="regular" xml:space="preserve" transform="matrix(1,0,0,1,0,0)" svgjs:data="{&quot;leading&quot;:&quot;1.3&quot;}"><tspan dy="0" x="0" svgjs:data="{&quot;newLined&quot;:true}">GND</tspan></text></g></g></g><g transform="matrix(1,0,0,1,5.08,21.59)"><g><path d="M -1.27 -1.27 L 1.27 -1.27 L 0 1.27 Z" stroke-width="0.127" stroke="#333333" fill="#ffffff"></path><path d="M 1.27 1.27 L -1.27 1.27" stroke-width="0.127" stroke="#333333" fill="none"></path><path d="M -0.762 1.778 L -2.286 3.302" stroke-width="0.127" stroke="#333333" fill="none"></path><path d="M -1.524 3.302 L -2.286 3.302 L -2.286 2.54" stroke-width="0.127" stroke="#333333" fill="none"></path><path d="M -0.762 3.048 L -2.286 4.572" stroke-width="0.127" stroke="#333333" fill="none"></path><path d="M -1.524 4.572 L -2.286 4.572 L -2.286 3.81" stroke-width="0.127" stroke="#333333" fill="none"></path><path d="M 0 3.81 L 0 1.27" stroke-width="0.1524" stroke="#333333"></path><path d="M 0 -3.81 L 0 -1.27" stroke-width="0.1524" stroke="#333333"></path><g transform="matrix(0,1,-1,0,0.381,1.651)"><text fill="#333333" font-family="Arial" font-size="0.96" text-anchor="start" dominant-baseline="text-top" font-weight="regular" xml:space="preserve" transform="matrix(1,0,0,1,0,0)" svgjs:data="{&quot;leading&quot;:&quot;1.3&quot;}"><tspan dy="0" x="0" svgjs:data="{&quot;newLined&quot;:true}">1</tspan></text></g><g transform="matrix(0,1,-1,0,0.381,-1.651)"><text fill="#333333" font-family="Arial" font-size="0.96" text-anchor="end" dominant-baseline="text-top" font-weight="regular" xml:space="preserve" transform="matrix(1,0,0,1,0,0)" svgjs:data="{&quot;leading&quot;:&quot;1.3&quot;}"><tspan dy="0" x="0" svgjs:data="{&quot;newLined&quot;:true}">2</tspan></text></g><g transform="matrix(0,1,-1,0,2.54,0)"><text fill="#333333" font-family="Arial" font-size="1.6" text-anchor="middle" dominant-baseline="hanging" font-weight="regular" xml:space="preserve" transform="matrix(1,0,0,1,0,0)" svgjs:data="{&quot;leading&quot;:&quot;1.3&quot;}"><tspan dy="0" x="0" svgjs:data="{&quot;newLined&quot;:true}">D1</tspan></text></g><g transform="matrix(0,1,-1,0,-2.54,0)"><text fill="#333333" font-family="Arial" font-size="1.28" text-anchor="middle" dominant-baseline="text-top" font-weight="regular" xml:space="preserve" transform="matrix(1,0,0,1,0,0)" svgjs:data="{&quot;leading&quot;:&quot;1.3&quot;}"><tspan dy="0" x="0" svgjs:data="{&quot;newLined&quot;:true}">red</tspan></text></g></g></g><g transform="matrix(1,0,0,1,5.08,29.21)"><g><path d="M -1.27 0 L 1.27 0 L 0 1.27 Z" stroke-width="0.127" stroke="#333333" fill="#ffffff"></path><path d="M 0 -1.27 L 0 0" stroke-width="0.1524" stroke="#333333"></path><g transform="matrix(1,0,0,1,0,2.54)"><text fill="#333333" font-family="Arial" font-size="1.6" text-anchor="middle" dominant-baseline="central" font-weight="regular" xml:space="preserve" transform="matrix(1,0,0,1,0,0)" svgjs:data="{&quot;leading&quot;:&quot;1.3&quot;}"><tspan dy="0" x="0" svgjs:data="{&quot;newLined&quot;:true}">GND</tspan></text></g></g></g><g transform="matrix(1,0,0,1,17.78,15.24)"><g><path d="M 0 0 L 0 0" stroke-width="0.1524" stroke="#333333"></path></g></g><g transform="matrix(1,0,0,1,17.78,20.32)"><g><path d="M 0.762 -1.778 L 0.762 1.778 L -0.762 1.778 L -0.762 -1.778 Z" stroke-width="0.127" stroke="#333333" fill="#ffffff"></path><path d="M 0 -2.54 L 0 -1.778" stroke-width="0.1524" stroke="#333333"></path><path d="M 0 2.54 L 0 1.778" stroke-width="0.1524" stroke="#333333"></path><g transform="matrix(0,1,-1,0,0.381,-2.159)"><text fill="#333333" font-family="Arial" font-size="0.96" text-anchor="end" dominant-baseline="text-top" font-weight="regular" xml:space="preserve" transform="matrix(1,0,0,1,0,0)" svgjs:data="{&quot;leading&quot;:&quot;1.3&quot;}"><tspan dy="0" x="0" svgjs:data="{&quot;newLined&quot;:true}">1</tspan></text></g><g transform="matrix(0,1,-1,0,0.381,2.159)"><text fill="#333333" font-family="Arial" font-size="0.96" text-anchor="start" dominant-baseline="text-top" font-weight="regular" xml:space="preserve" transform="matrix(1,0,0,1,0,0)" svgjs:data="{&quot;leading&quot;:&quot;1.3&quot;}"><tspan dy="0" x="0" svgjs:data="{&quot;newLined&quot;:true}">2</tspan></text></g><g transform="matrix(0,1,-1,0,1.27,-1.778)"><text fill="#333333" font-family="Arial" font-size="1.6" text-anchor="start" dominant-baseline="text-top" font-weight="regular" xml:space="preserve" transform="matrix(1,0,0,1,0,0)" svgjs:data="{&quot;leading&quot;:&quot;1.3&quot;}"><tspan dy="0" x="0" svgjs:data="{&quot;newLined&quot;:true}">R3</tspan></text></g><g transform="matrix(0,1,-1,0,0,0)"><text fill="#333333" font-family="Arial" font-size="0.96" text-anchor="middle" dominant-baseline="central" font-weight="regular" xml:space="preserve" transform="matrix(1,0,0,1,0,0)" svgjs:data="{&quot;leading&quot;:&quot;1.3&quot;}"><tspan dy="0" x="0" svgjs:data="{&quot;newLined&quot;:true}">360</tspan></text></g></g></g><g transform="matrix(1,0,0,1,17.78,29.21)"><g><path d="M -1.27 0 L 1.27 0 L 0 1.27 Z" stroke-width="0.127" stroke="#333333" fill="#ffffff"></path><path d="M 0 -1.27 L 0 0" stroke-width="0.1524" stroke="#333333"></path><g transform="matrix(1,0,0,1,0,2.54)"><text fill="#333333" font-family="Arial" font-size="1.6" text-anchor="middle" dominant-baseline="central" font-weight="regular" xml:space="preserve" transform="matrix(1,0,0,1,0,0)" svgjs:data="{&quot;leading&quot;:&quot;1.3&quot;}"><tspan dy="0" x="0" svgjs:data="{&quot;newLined&quot;:true}">GND</tspan></text></g></g></g><g transform="matrix(1,0,0,1,17.78,10.16)"><g><path d="M 0.762 -1.778 L 0.762 1.778 L -0.762 1.778 L -0.762 -1.778 Z" stroke-width="0.127" stroke="#333333" fill="#ffffff"></path><path d="M 0 -2.54 L 0 -1.778" stroke-width="0.1524" stroke="#333333"></path><path d="M 0 2.54 L 0 1.778" stroke-width="0.1524" stroke="#333333"></path><g transform="matrix(0,1,-1,0,0.381,-2.159)"><text fill="#333333" font-family="Arial" font-size="0.96" text-anchor="end" dominant-baseline="text-top" font-weight="regular" xml:space="preserve" transform="matrix(1,0,0,1,0,0)" svgjs:data="{&quot;leading&quot;:&quot;1.3&quot;}"><tspan dy="0" x="0" svgjs:data="{&quot;newLined&quot;:true}">1</tspan></text></g><g transform="matrix(0,1,-1,0,0.381,2.159)"><text fill="#333333" font-family="Arial" font-size="0.96" text-anchor="start" dominant-baseline="text-top" font-weight="regular" xml:space="preserve" transform="matrix(1,0,0,1,0,0)" svgjs:data="{&quot;leading&quot;:&quot;1.3&quot;}"><tspan dy="0" x="0" svgjs:data="{&quot;newLined&quot;:true}">2</tspan></text></g><g transform="matrix(0,1,-1,0,1.27,-1.778)"><text fill="#333333" font-family="Arial" font-size="1.6" text-anchor="start" dominant-baseline="text-top" font-weight="regular" xml:space="preserve" transform="matrix(1,0,0,1,0,0)" svgjs:data="{&quot;leading&quot;:&quot;1.3&quot;}"><tspan dy="0" x="0" svgjs:data="{&quot;newLined&quot;:true}">R2</tspan></text></g><g transform="matrix(0,1,-1,0,0,0)"><text fill="#333333" font-family="Arial" font-size="0.96" text-anchor="middle" dominant-baseline="central" font-weight="regular" xml:space="preserve" transform="matrix(1,0,0,1,0,0)" svgjs:data="{&quot;leading&quot;:&quot;1.3&quot;}"><tspan dy="0" x="0" svgjs:data="{&quot;newLined&quot;:true}">360</tspan></text></g></g></g><g transform="matrix(1,0,0,1,17.78,3.81)"><g><path d="M -1.27 0 L 1.27 0" stroke-width="0.127" stroke="#333333" fill="none"></path><path d="M 0 1.27 L 0 0" stroke-width="0.1524" stroke="#333333"></path><g transform="matrix(1,0,0,1,0,-0.381)"><text fill="#333333" font-family="Arial" font-size="1.6" text-anchor="middle" dominant-baseline="text-top" font-weight="regular" xml:space="preserve" transform="matrix(1,0,0,1,0,0)" svgjs:data="{&quot;leading&quot;:&quot;1.3&quot;}"><tspan dy="0" x="0" svgjs:data="{&quot;newLined&quot;:true}">5V</tspan></text></g></g></g><g><path d="M5.08 5.08L5.08 7.62M17.78 5.08L17.78 7.62 " stroke-linecap="butt" stroke-opacity="0.3" stroke-width="0.2794" fill="none"></path><path d="M5.08 12.7L5.08 15.24L17.78 15.24L30.48 15.24L30.48 17.78M5.08 15.24L5.08 17.78M17.78 15.24L17.78 17.78M17.78 12.7L17.78 15.24 " stroke-linecap="butt" stroke-opacity="0.3" stroke-width="0.2794" fill="none"></path><path d="M30.48 22.86L30.48 27.94M5.08 25.4L5.08 27.94M17.78 22.86L17.78 27.94 " stroke-linecap="butt" stroke-opacity="0.3" stroke-width="0.2794" fill="none"></path></g><g><path d="M5.08 5.08L5.08 7.62M17.78 5.08L17.78 7.62 " stroke-linecap="butt" stroke-width="0.1524" stroke="#008400" fill="none"></path><path d="M5.08 12.7L5.08 15.24L17.78 15.24L30.48 15.24L30.48 17.78M5.08 15.24L5.08 17.78M17.78 15.24L17.78 17.78M17.78 12.7L17.78 15.24 " stroke-linecap="butt" stroke-width="0.1524" stroke="#008400" fill="none"></path><circle r="0.254" cx="0.254" cy="0.254" transform="matrix(1,0,0,1,4.826,14.986)" fill="#008400" stroke="none"></circle><circle r="0.254" cx="0.254" cy="0.254" transform="matrix(1,0,0,1,17.526,14.986)" fill="#008400" stroke="none"></circle><path d="M30.48 22.86L30.48 27.94M5.08 25.4L5.08 27.94M17.78 22.86L17.78 27.94 " stroke-linecap="butt" stroke-width="0.1524" stroke="#008400" fill="none"></path></g><g></g></g></g></svg>