<svg xmlns="http://www.w3.org/2000/svg" version="1.1" xmlns:xlink="http://www.w3.org/1999/xlink" xmlns:svgjs="http://svgjs.dev/svgjs" width="190" height="310.5" viewBox="-25 -25.5 190 310.5"><g transform="matrix(1,0,0,1,0,0)"><path d="M -20 -20.5 L -20 280 M 0 -20.5 L 0 280 M 20 -20.5 L 20 280 M 40 -20.5 L 40 280 M 60 -20.5 L 60 280 M 80 -20.5 L 80 280 M 100 -20.5 L 100 280 M 120 -20.5 L 120 280 M 140 -20.5 L 140 280 M 160 -20.5 L 160 280" fill="none" stroke-dasharray="1,19" stroke-width="1" stroke="#aaaaaa"></path></g><g transform="matrix(1,0,0,1,20,90)"><g><path d="M -10 0 L 10 0 L 0 10 Z" stroke-width="1" stroke="#333333" fill="#ffffff"></path><path d="M 0 -10 L 0 0" stroke-width="2" stroke="#333333"></path><text fill="#333333" font-family="Open Sans-Regular, Arial" font-size="10" text-anchor="middle" dominant-baseline="text-top" font-weight="regular" transform="matrix(1,0,0,1,0,20)" svgjs:data="{&quot;leading&quot;:&quot;1.3&quot;}"><tspan dy="0" x="0" svgjs:data="{&quot;newLined&quot;:true}">GND</tspan></text></g></g><g transform="matrix(1,0,0,1,70,60)"><g><path d="M 10.000000000000002 -9.999999999999998 L 9.999999999999998 10.000000000000002 L -10 -1.2246467991473533e-15 Z" stroke-width="1" stroke="#333333" fill="#ffffff"></path><path d="M -10.000000000000002 9.999999999999998 L -9.999999999999998 -10.000000000000002" stroke-width="1" stroke="#333333" fill="none"></path><path d="M 9.797174393178826e-16 -8 L -4.999999999999998 -18" stroke-width="1" stroke="#333333" fill="none"></path><path d="M -2.999999999999999 -8 L -7.999999999999998 -18" stroke-width="1" stroke="#333333" fill="none"></path><path d="M 30 3.67394039744206e-15 L 10 1.2246467991473533e-15 M -30 -3.67394039744206e-15 L -10 -1.2246467991473533e-15" stroke-width="2" stroke="#333333"></path><text fill="#333333" font-family="Open Sans-Regular, Arial" font-size="8" text-anchor="start" dominant-baseline="text-top" font-weight="regular" transform="matrix(1,0,0,1,12,-2)" svgjs:data="{&quot;leading&quot;:&quot;1.3&quot;}"><tspan dy="0" x="0" svgjs:data="{&quot;newLined&quot;:true}">1</tspan></text><text fill="#333333" font-family="Open Sans-Regular, Arial" font-size="8" text-anchor="end" dominant-baseline="text-top" font-weight="regular" transform="matrix(1,0,0,1,-12,-2)" svgjs:data="{&quot;leading&quot;:&quot;1.3&quot;}"><tspan dy="0" x="0" svgjs:data="{&quot;newLined&quot;:true}">2</tspan></text><text fill="#333333" font-family="Open Sans-Regular, Arial" font-size="10" text-anchor="end" dominant-baseline="hanging" font-weight="regular" transform="matrix(1,0,0,1,-15,5)" svgjs:data="{&quot;leading&quot;:&quot;1.3&quot;}"><tspan dy="0" x="0" svgjs:data="{&quot;newLined&quot;:true}">D1</tspan></text><text fill="#333333" font-family="Open Sans-Regular, Arial" font-size="10" text-anchor="end" dominant-baseline="text-top" font-weight="regular" transform="matrix(1,0,0,1,-15,25)" svgjs:data="{&quot;leading&quot;:&quot;1.3&quot;}"><tspan dy="0" x="0" svgjs:data="{&quot;newLined&quot;:true}">GREEN</tspan></text></g></g><g transform="matrix(1,0,0,1,120,30.000000000000007)"><g><path d="M -15 0 L 15 0" stroke-width="1" stroke="#333333" fill="none"></path><path d="M 0 10 L 0 0" stroke-width="2" stroke="#333333"></path><text fill="#333333" font-family="Open Sans-Regular, Arial" font-size="10" text-anchor="middle" dominant-baseline="text-top" font-weight="regular" transform="matrix(1,0,0,1,0,-5)" svgjs:data="{&quot;leading&quot;:&quot;1.3&quot;}"><tspan dy="0" x="0" svgjs:data="{&quot;newLined&quot;:true}">5v</tspan></text></g></g><g transform="matrix(1,0,0,1,20,170)"><g><path d="M -15 0 L 15 0" stroke-width="1" stroke="#333333" fill="none"></path><path d="M 0 10 L 0 0" stroke-width="2" stroke="#333333"></path><text fill="#333333" font-family="Open Sans-Regular, Arial" font-size="10" text-anchor="middle" dominant-baseline="text-top" font-weight="regular" transform="matrix(1,0,0,1,0,-5)" svgjs:data="{&quot;leading&quot;:&quot;1.3&quot;}"><tspan dy="0" x="0" svgjs:data="{&quot;newLined&quot;:true}">5v</tspan></text></g></g><g transform="matrix(1,0,0,1,70,200)"><g><path d="M -10 10 L -10 -10 L 10 0 Z" stroke-width="1" stroke="#333333" fill="#ffffff"></path><path d="M 10 -10 L 10 10" stroke-width="1" stroke="#333333" fill="none"></path><path d="M 0 8 L 5 18" stroke-width="1" stroke="#333333" fill="none"></path><path d="M 3 8 L 8 18" stroke-width="1" stroke="#333333" fill="none"></path><path d="M -30 0 L -10 0 M 30 0 L 10 0" stroke-width="2" stroke="#333333"></path><text fill="#333333" font-family="Open Sans-Regular, Arial" font-size="8" text-anchor="end" dominant-baseline="text-top" font-weight="regular" transform="matrix(1,0,0,1,-12,-2)" svgjs:data="{&quot;leading&quot;:&quot;1.3&quot;}"><tspan dy="0" x="0" svgjs:data="{&quot;newLined&quot;:true}">1</tspan></text><text fill="#333333" font-family="Open Sans-Regular, Arial" font-size="8" text-anchor="start" dominant-baseline="text-top" font-weight="regular" transform="matrix(1,0,0,1,12,-2)" svgjs:data="{&quot;leading&quot;:&quot;1.3&quot;}"><tspan dy="0" x="0" svgjs:data="{&quot;newLined&quot;:true}">2</tspan></text><text fill="#333333" font-family="Open Sans-Regular, Arial" font-size="10" text-anchor="start" dominant-baseline="hanging" font-weight="regular" transform="matrix(1,0,0,1,15,5)" svgjs:data="{&quot;leading&quot;:&quot;1.3&quot;}"><tspan dy="0" x="0" svgjs:data="{&quot;newLined&quot;:true}">D2</tspan></text><text fill="#333333" font-family="Open Sans-Regular, Arial" font-size="10" text-anchor="start" dominant-baseline="text-top" font-weight="regular" transform="matrix(1,0,0,1,15,25)" svgjs:data="{&quot;leading&quot;:&quot;1.3&quot;}"><tspan dy="0" x="0" svgjs:data="{&quot;newLined&quot;:true}">RED</tspan></text></g></g><g transform="matrix(1,0,0,1,120,230)"><g><path d="M -10 0 L 10 0 L 0 10 Z" stroke-width="1" stroke="#333333" fill="#ffffff"></path><path d="M 0 -10 L 0 0" stroke-width="2" stroke="#333333"></path><text fill="#333333" font-family="Open Sans-Regular, Arial" font-size="10" text-anchor="middle" dominant-baseline="text-top" font-weight="regular" transform="matrix(1,0,0,1,0,20)" svgjs:data="{&quot;leading&quot;:&quot;1.3&quot;}"><tspan dy="0" x="0" svgjs:data="{&quot;newLined&quot;:true}">GND</tspan></text></g></g><g><line x1="20" y1="80" x2="20" y2="60" stroke-linecap="square" stroke-width="1" stroke="#008400" fill="none"></line><line x1="20" y1="60" x2="40" y2="60" stroke-linecap="square" stroke-width="1" stroke="#008400" fill="none"></line><line x1="100" y1="200" x2="120" y2="200" stroke-linecap="square" stroke-width="1" stroke="#008400" fill="none"></line><line x1="120" y1="200" x2="120" y2="220" stroke-linecap="square" stroke-width="1" stroke="#008400" fill="none"></line><line x1="100" y1="60.00000000000001" x2="120" y2="60.00000000000001" stroke-linecap="square" stroke-width="1" stroke="#008400" fill="none"></line><line x1="120" y1="60.00000000000001" x2="120" y2="40.00000000000001" stroke-linecap="square" stroke-width="1" stroke="#008400" fill="none"></line><line x1="20" y1="180" x2="20" y2="200" stroke-linecap="square" stroke-width="1" stroke="#008400" fill="none"></line><line x1="20" y1="200" x2="40" y2="200" stroke-linecap="square" stroke-width="1" stroke="#008400" fill="none"></line></g><g></g></svg>