<svg xmlns="http://www.w3.org/2000/svg" version="1.1" xmlns:xlink="http://www.w3.org/1999/xlink" xmlns:svgjs="http://svgjs.dev/svgjs" width="450" height="290.5" viewBox="-25 -25.5 450 290.5"><g transform="matrix(1,0,0,1,0,0)"><path d="M -20 -20.5 L -20 260 M 0 -20.5 L 0 260 M 20 -20.5 L 20 260 M 40 -20.5 L 40 260 M 60 -20.5 L 60 260 M 80 -20.5 L 80 260 M 100 -20.5 L 100 260 M 120 -20.5 L 120 260 M 140 -20.5 L 140 260 M 160 -20.5 L 160 260 M 180 -20.5 L 180 260 M 200 -20.5 L 200 260 M 220 -20.5 L 220 260 M 240 -20.5 L 240 260 M 260 -20.5 L 260 260 M 280 -20.5 L 280 260 M 300 -20.5 L 300 260 M 320 -20.5 L 320 260 M 340 -20.5 L 340 260 M 360 -20.5 L 360 260 M 380 -20.5 L 380 260 M 400 -20.5 L 400 260 M 420 -20.5 L 420 260" fill="none" stroke-dasharray="1,19" stroke-width="1" stroke="#aaaaaa"></path></g><g transform="matrix(1,0,0,1,380,20)"><g><path d="M -20 0 L 0 0 L 0 180 L -20 180 Z" stroke-width="1" stroke="#840000" fill="#ffffff"></path><path d="M -40 20 L -20 20" stroke-width="2" stroke="#840000"></path><path d="M -40 40 L -20 40" stroke-width="2" stroke="#840000"></path><path d="M -40 60 L -20 60" stroke-width="2" stroke="#840000"></path><path d="M -40 80 L -20 80" stroke-width="2" stroke="#840000"></path><path d="M -40 100 L -20 100" stroke-width="2" stroke="#840000"></path><path d="M -40 120 L -20 120" stroke-width="2" stroke="#840000"></path><path d="M -40 140 L -20 140" stroke-width="2" stroke="#840000"></path><g transform="matrix(1,0,0,1,-22,18)"><text fill="#840000" font-family="Open Sans-Regular, Arial" font-size="8" text-anchor="end" dominant-baseline="text-top" font-weight="regular" transform="matrix(1,0,0,1,0,0)" svgjs:data="{&quot;leading&quot;:&quot;1.3&quot;}"><tspan dy="0" x="0" svgjs:data="{&quot;newLined&quot;:true}">1</tspan></text></g><g transform="matrix(1,0,0,1,-22,38)"><text fill="#840000" font-family="Open Sans-Regular, Arial" font-size="8" text-anchor="end" dominant-baseline="text-top" font-weight="regular" transform="matrix(1,0,0,1,0,0)" svgjs:data="{&quot;leading&quot;:&quot;1.3&quot;}"><tspan dy="0" x="0" svgjs:data="{&quot;newLined&quot;:true}">2</tspan></text></g><g transform="matrix(1,0,0,1,-22,58)"><text fill="#840000" font-family="Open Sans-Regular, Arial" font-size="8" text-anchor="end" dominant-baseline="text-top" font-weight="regular" transform="matrix(1,0,0,1,0,0)" svgjs:data="{&quot;leading&quot;:&quot;1.3&quot;}"><tspan dy="0" x="0" svgjs:data="{&quot;newLined&quot;:true}">3</tspan></text></g><g transform="matrix(1,0,0,1,-22,78)"><text fill="#840000" font-family="Open Sans-Regular, Arial" font-size="8" text-anchor="end" dominant-baseline="text-top" font-weight="regular" transform="matrix(1,0,0,1,0,0)" svgjs:data="{&quot;leading&quot;:&quot;1.3&quot;}"><tspan dy="0" x="0" svgjs:data="{&quot;newLined&quot;:true}">4</tspan></text></g><g transform="matrix(1,0,0,1,-22,98)"><text fill="#840000" font-family="Open Sans-Regular, Arial" font-size="8" text-anchor="end" dominant-baseline="text-top" font-weight="regular" transform="matrix(1,0,0,1,0,0)" svgjs:data="{&quot;leading&quot;:&quot;1.3&quot;}"><tspan dy="0" x="0" svgjs:data="{&quot;newLined&quot;:true}">5</tspan></text></g><g transform="matrix(1,0,0,1,-22,118)"><text fill="#840000" font-family="Open Sans-Regular, Arial" font-size="8" text-anchor="end" dominant-baseline="text-top" font-weight="regular" transform="matrix(1,0,0,1,0,0)" svgjs:data="{&quot;leading&quot;:&quot;1.3&quot;}"><tspan dy="0" x="0" svgjs:data="{&quot;newLined&quot;:true}">6</tspan></text></g><g transform="matrix(1,0,0,1,-22,138)"><text fill="#840000" font-family="Open Sans-Regular, Arial" font-size="8" text-anchor="end" dominant-baseline="text-top" font-weight="regular" transform="matrix(1,0,0,1,0,0)" svgjs:data="{&quot;leading&quot;:&quot;1.3&quot;}"><tspan dy="0" x="0" svgjs:data="{&quot;newLined&quot;:true}">7</tspan></text></g><g transform="matrix(1,0,0,1,-20,-5)"><text fill="#008484" font-family="Open Sans-Regular, Arial" font-size="10" text-anchor="start" dominant-baseline="text-top" font-weight="regular" transform="matrix(1,0,0,1,0,0)" svgjs:data="{&quot;leading&quot;:&quot;1.3&quot;}"><tspan dy="0" x="0" svgjs:data="{&quot;newLined&quot;:true}">J1</tspan></text></g><g transform="matrix(1,0,0,1,-20,-15)"><text fill="#008484" font-family="Open Sans-Regular, Arial" font-size="10" text-anchor="start" dominant-baseline="text-top" font-weight="regular" transform="matrix(1,0,0,1,0,0)" svgjs:data="{&quot;leading&quot;:&quot;1.3&quot;}"><tspan dy="0" x="0" svgjs:data="{&quot;newLined&quot;:true}"></tspan></text></g></g></g><g transform="matrix(1,0,0,1,240,20)"><g><path d="M 20 0 L 0 0 L 0 180 L 20 180 Z" stroke-width="1" stroke="#840000" fill="#ffffff"></path><path d="M 40 20 L 20 20" stroke-width="2" stroke="#840000"></path><path d="M 40 40 L 20 40" stroke-width="2" stroke="#840000"></path><path d="M 40 60 L 20 60" stroke-width="2" stroke="#840000"></path><path d="M 40 80 L 20 80" stroke-width="2" stroke="#840000"></path><path d="M 40 100 L 20 100" stroke-width="2" stroke="#840000"></path><path d="M 40 120 L 20 120" stroke-width="2" stroke="#840000"></path><path d="M 40 140 L 20 140" stroke-width="2" stroke="#840000"></path><g transform="matrix(1,0,0,1,22,18)"><text fill="#840000" font-family="Open Sans-Regular, Arial" font-size="8" text-anchor="start" dominant-baseline="text-top" font-weight="regular" transform="matrix(1,0,0,1,0,0)" svgjs:data="{&quot;leading&quot;:&quot;1.3&quot;}"><tspan dy="0" x="0" svgjs:data="{&quot;newLined&quot;:true}">1</tspan></text></g><g transform="matrix(1,0,0,1,22,38)"><text fill="#840000" font-family="Open Sans-Regular, Arial" font-size="8" text-anchor="start" dominant-baseline="text-top" font-weight="regular" transform="matrix(1,0,0,1,0,0)" svgjs:data="{&quot;leading&quot;:&quot;1.3&quot;}"><tspan dy="0" x="0" svgjs:data="{&quot;newLined&quot;:true}">2</tspan></text></g><g transform="matrix(1,0,0,1,22,58)"><text fill="#840000" font-family="Open Sans-Regular, Arial" font-size="8" text-anchor="start" dominant-baseline="text-top" font-weight="regular" transform="matrix(1,0,0,1,0,0)" svgjs:data="{&quot;leading&quot;:&quot;1.3&quot;}"><tspan dy="0" x="0" svgjs:data="{&quot;newLined&quot;:true}">3</tspan></text></g><g transform="matrix(1,0,0,1,22,78)"><text fill="#840000" font-family="Open Sans-Regular, Arial" font-size="8" text-anchor="start" dominant-baseline="text-top" font-weight="regular" transform="matrix(1,0,0,1,0,0)" svgjs:data="{&quot;leading&quot;:&quot;1.3&quot;}"><tspan dy="0" x="0" svgjs:data="{&quot;newLined&quot;:true}">4</tspan></text></g><g transform="matrix(1,0,0,1,22,98)"><text fill="#840000" font-family="Open Sans-Regular, Arial" font-size="8" text-anchor="start" dominant-baseline="text-top" font-weight="regular" transform="matrix(1,0,0,1,0,0)" svgjs:data="{&quot;leading&quot;:&quot;1.3&quot;}"><tspan dy="0" x="0" svgjs:data="{&quot;newLined&quot;:true}">5</tspan></text></g><g transform="matrix(1,0,0,1,22,118)"><text fill="#840000" font-family="Open Sans-Regular, Arial" font-size="8" text-anchor="start" dominant-baseline="text-top" font-weight="regular" transform="matrix(1,0,0,1,0,0)" svgjs:data="{&quot;leading&quot;:&quot;1.3&quot;}"><tspan dy="0" x="0" svgjs:data="{&quot;newLined&quot;:true}">6</tspan></text></g><g transform="matrix(1,0,0,1,22,138)"><text fill="#840000" font-family="Open Sans-Regular, Arial" font-size="8" text-anchor="start" dominant-baseline="text-top" font-weight="regular" transform="matrix(1,0,0,1,0,0)" svgjs:data="{&quot;leading&quot;:&quot;1.3&quot;}"><tspan dy="0" x="0" svgjs:data="{&quot;newLined&quot;:true}">7</tspan></text></g><g transform="matrix(1,0,0,1,20,-5)"><text fill="#008484" font-family="Open Sans-Regular, Arial" font-size="10" text-anchor="end" dominant-baseline="text-top" font-weight="regular" transform="matrix(1,0,0,1,0,0)" svgjs:data="{&quot;leading&quot;:&quot;1.3&quot;}"><tspan dy="0" x="0" svgjs:data="{&quot;newLined&quot;:true}">J2</tspan></text></g><g transform="matrix(1,0,0,1,20,-15)"><text fill="#008484" font-family="Open Sans-Regular, Arial" font-size="10" text-anchor="end" dominant-baseline="text-top" font-weight="regular" transform="matrix(1,0,0,1,0,0)" svgjs:data="{&quot;leading&quot;:&quot;1.3&quot;}"><tspan dy="0" x="0" svgjs:data="{&quot;newLined&quot;:true}"></tspan></text></g></g></g><g transform="matrix(1,0,0,1,20,160)"><g><path d="M 0 20 L 0 0 L 180 0 L 180 20 Z" stroke-width="1" stroke="#840000" fill="#ffffff"></path><path d="M 20 40 L 20 20" stroke-width="2" stroke="#840000"></path><path d="M 40 40 L 40 20" stroke-width="2" stroke="#840000"></path><path d="M 60 40 L 60 20" stroke-width="2" stroke="#840000"></path><path d="M 80 40 L 80 20" stroke-width="2" stroke="#840000"></path><path d="M 100 40 L 100 20" stroke-width="2" stroke="#840000"></path><path d="M 120 40 L 120 20" stroke-width="2" stroke="#840000"></path><path d="M 140 40 L 140 20" stroke-width="2" stroke="#840000"></path><g transform="matrix(0,1,-1,0,18,22)"><text fill="#840000" font-family="Open Sans-Regular, Arial" font-size="8" text-anchor="start" dominant-baseline="hanging" font-weight="regular" transform="matrix(1,0,0,1,0,0)" svgjs:data="{&quot;leading&quot;:&quot;1.3&quot;}"><tspan dy="0" x="0" svgjs:data="{&quot;newLined&quot;:true}">1</tspan></text></g><g transform="matrix(0,1,-1,0,38,22)"><text fill="#840000" font-family="Open Sans-Regular, Arial" font-size="8" text-anchor="start" dominant-baseline="hanging" font-weight="regular" transform="matrix(1,0,0,1,0,0)" svgjs:data="{&quot;leading&quot;:&quot;1.3&quot;}"><tspan dy="0" x="0" svgjs:data="{&quot;newLined&quot;:true}">2</tspan></text></g><g transform="matrix(0,1,-1,0,58,22)"><text fill="#840000" font-family="Open Sans-Regular, Arial" font-size="8" text-anchor="start" dominant-baseline="hanging" font-weight="regular" transform="matrix(1,0,0,1,0,0)" svgjs:data="{&quot;leading&quot;:&quot;1.3&quot;}"><tspan dy="0" x="0" svgjs:data="{&quot;newLined&quot;:true}">3</tspan></text></g><g transform="matrix(0,1,-1,0,78,22)"><text fill="#840000" font-family="Open Sans-Regular, Arial" font-size="8" text-anchor="start" dominant-baseline="hanging" font-weight="regular" transform="matrix(1,0,0,1,0,0)" svgjs:data="{&quot;leading&quot;:&quot;1.3&quot;}"><tspan dy="0" x="0" svgjs:data="{&quot;newLined&quot;:true}">4</tspan></text></g><g transform="matrix(0,1,-1,0,98,22)"><text fill="#840000" font-family="Open Sans-Regular, Arial" font-size="8" text-anchor="start" dominant-baseline="hanging" font-weight="regular" transform="matrix(1,0,0,1,0,0)" svgjs:data="{&quot;leading&quot;:&quot;1.3&quot;}"><tspan dy="0" x="0" svgjs:data="{&quot;newLined&quot;:true}">5</tspan></text></g><g transform="matrix(0,1,-1,0,118,22)"><text fill="#840000" font-family="Open Sans-Regular, Arial" font-size="8" text-anchor="start" dominant-baseline="hanging" font-weight="regular" transform="matrix(1,0,0,1,0,0)" svgjs:data="{&quot;leading&quot;:&quot;1.3&quot;}"><tspan dy="0" x="0" svgjs:data="{&quot;newLined&quot;:true}">6</tspan></text></g><g transform="matrix(0,1,-1,0,138,22)"><text fill="#840000" font-family="Open Sans-Regular, Arial" font-size="8" text-anchor="start" dominant-baseline="hanging" font-weight="regular" transform="matrix(1,0,0,1,0,0)" svgjs:data="{&quot;leading&quot;:&quot;1.3&quot;}"><tspan dy="0" x="0" svgjs:data="{&quot;newLined&quot;:true}">7</tspan></text></g><g transform="matrix(0,1,-1,0,-5,20)"><text fill="#008484" font-family="Open Sans-Regular, Arial" font-size="10" text-anchor="end" dominant-baseline="hanging" font-weight="regular" transform="matrix(1,0,0,1,0,0)" svgjs:data="{&quot;leading&quot;:&quot;1.3&quot;}"><tspan dy="0" x="0" svgjs:data="{&quot;newLined&quot;:true}">J3</tspan></text></g><g transform="matrix(0,1,-1,0,-15,20)"><text fill="#008484" font-family="Open Sans-Regular, Arial" font-size="10" text-anchor="end" dominant-baseline="hanging" font-weight="regular" transform="matrix(1,0,0,1,0,0)" svgjs:data="{&quot;leading&quot;:&quot;1.3&quot;}"><tspan dy="0" x="0" svgjs:data="{&quot;newLined&quot;:true}"></tspan></text></g></g></g><g><line x1="340" y1="60" x2="280" y2="60" stroke-linecap="square" stroke-width="1" stroke="#008400" fill="none"></line><line x1="280" y1="80" x2="300" y2="80" stroke-linecap="square" stroke-width="1" stroke="#008400" fill="none"></line><line x1="300" y1="80" x2="300" y2="220" stroke-linecap="square" stroke-width="1" stroke="#008400" fill="none"></line><line x1="300" y1="220" x2="120" y2="220" stroke-linecap="square" stroke-width="1" stroke="#008400" fill="none"></line><line x1="120" y1="220" x2="120" y2="200" stroke-linecap="square" stroke-width="1" stroke="#008400" fill="none"></line></g><g></g></svg>