<svg xmlns="http://www.w3.org/2000/svg" version="1.1" xmlns:xlink="http://www.w3.org/1999/xlink" xmlns:svgjs="http://svgjs.dev/svgjs" width="230" height="790.5" viewBox="-25 -25.5 230 790.5"><g transform="matrix(1,0,0,1,0,0)"><path d="M -20 -20.5 L -20 760 M 0 -20.5 L 0 760 M 20 -20.5 L 20 760 M 40 -20.5 L 40 760 M 60 -20.5 L 60 760 M 80 -20.5 L 80 760 M 100 -20.5 L 100 760 M 120 -20.5 L 120 760 M 140 -20.5 L 140 760 M 160 -20.5 L 160 760 M 180 -20.5 L 180 760 M 200 -20.5 L 200 760" fill="none" stroke-dasharray="1,19" stroke-width="1" stroke="#aaaaaa"></path></g><g transform="matrix(1,0,0,1,90,60)"><g><path d="M -50 -40 L 50 -40 L 50 40 L -50 40 Z" stroke-width="1" stroke="#333333" fill="#ffffff"></path><path d="M -70 -20 L -50 -20" stroke-width="2" stroke="#333333"></path><path d="M -70 0 L -50 0" stroke-width="2" stroke="#333333"></path><path d="M -70 20 L -50 20" stroke-width="2" stroke="#333333"></path><path d="M 70 -20 L 50 -20" stroke-width="2" stroke="#333333"></path><path d="M 70 0 L 50 0" stroke-width="2" stroke="#333333"></path><g transform="matrix(1,0,0,1,-46,-20)"><text fill="#333333" font-family="Arial" font-size="10" text-anchor="start" dominant-baseline="middle" font-weight="regular" transform="matrix(1,0,0,1,0,0)" svgjs:data="{&quot;leading&quot;:&quot;1.3&quot;}"><tspan dy="0" x="0" svgjs:data="{&quot;newLined&quot;:true}">1</tspan></text></g><g transform="matrix(1,0,0,1,-52,-22)"><text fill="#333333" font-family="Arial" font-size="8" text-anchor="end" dominant-baseline="text-top" font-weight="regular" transform="matrix(1,0,0,1,0,0)" svgjs:data="{&quot;leading&quot;:&quot;1.3&quot;}"><tspan dy="0" x="0" svgjs:data="{&quot;newLined&quot;:true}">1</tspan></text></g><g transform="matrix(1,0,0,1,-46,0)"><text fill="#333333" font-family="Arial" font-size="10" text-anchor="start" dominant-baseline="middle" font-weight="regular" transform="matrix(1,0,0,1,0,0)" svgjs:data="{&quot;leading&quot;:&quot;1.3&quot;}"><tspan dy="0" x="0" svgjs:data="{&quot;newLined&quot;:true}">3</tspan></text></g><g transform="matrix(1,0,0,1,-52,-2)"><text fill="#333333" font-family="Arial" font-size="8" text-anchor="end" dominant-baseline="text-top" font-weight="regular" transform="matrix(1,0,0,1,0,0)" svgjs:data="{&quot;leading&quot;:&quot;1.3&quot;}"><tspan dy="0" x="0" svgjs:data="{&quot;newLined&quot;:true}">3</tspan></text></g><g transform="matrix(1,0,0,1,-46,20)"><text fill="#333333" font-family="Arial" font-size="10" text-anchor="start" dominant-baseline="middle" font-weight="regular" transform="matrix(1,0,0,1,0,0)" svgjs:data="{&quot;leading&quot;:&quot;1.3&quot;}"><tspan dy="0" x="0" svgjs:data="{&quot;newLined&quot;:true}">5</tspan></text></g><g transform="matrix(1,0,0,1,-52,18)"><text fill="#333333" font-family="Arial" font-size="8" text-anchor="end" dominant-baseline="text-top" font-weight="regular" transform="matrix(1,0,0,1,0,0)" svgjs:data="{&quot;leading&quot;:&quot;1.3&quot;}"><tspan dy="0" x="0" svgjs:data="{&quot;newLined&quot;:true}">5</tspan></text></g><g transform="matrix(1,0,0,1,46,-20)"><text fill="#333333" font-family="Arial" font-size="10" text-anchor="end" dominant-baseline="middle" font-weight="regular" transform="matrix(1,0,0,1,0,0)" svgjs:data="{&quot;leading&quot;:&quot;1.3&quot;}"><tspan dy="0" x="0" svgjs:data="{&quot;newLined&quot;:true}">2</tspan></text></g><g transform="matrix(1,0,0,1,52,-22)"><text fill="#333333" font-family="Arial" font-size="8" text-anchor="start" dominant-baseline="text-top" font-weight="regular" transform="matrix(1,0,0,1,0,0)" svgjs:data="{&quot;leading&quot;:&quot;1.3&quot;}"><tspan dy="0" x="0" svgjs:data="{&quot;newLined&quot;:true}">2</tspan></text></g><g transform="matrix(1,0,0,1,46,0)"><text fill="#333333" font-family="Arial" font-size="10" text-anchor="end" dominant-baseline="middle" font-weight="regular" transform="matrix(1,0,0,1,0,0)" svgjs:data="{&quot;leading&quot;:&quot;1.3&quot;}"><tspan dy="0" x="0" svgjs:data="{&quot;newLined&quot;:true}">4</tspan></text></g><g transform="matrix(1,0,0,1,52,-2)"><text fill="#333333" font-family="Arial" font-size="8" text-anchor="start" dominant-baseline="text-top" font-weight="regular" transform="matrix(1,0,0,1,0,0)" svgjs:data="{&quot;leading&quot;:&quot;1.3&quot;}"><tspan dy="0" x="0" svgjs:data="{&quot;newLined&quot;:true}">4</tspan></text></g><g transform="matrix(1,0,0,1,-50,-44)"><text fill="#333333" font-family="Arial" font-size="10" text-anchor="start" dominant-baseline="text-top" font-weight="regular" transform="matrix(1,0,0,1,0,0)" svgjs:data="{&quot;leading&quot;:&quot;1.3&quot;}"><tspan dy="0" x="0" svgjs:data="{&quot;newLined&quot;:true}">J1</tspan></text></g></g></g><g transform="matrix(1,0,0,1,90,200)"><g><path d="M 50 -40 L -50 -40 L -50 40 L 50 40 Z" stroke-width="1" stroke="#333333" fill="#ffffff"></path><path d="M 70 -20 L 50 -20" stroke-width="2" stroke="#333333"></path><path d="M 70 0 L 50 0" stroke-width="2" stroke="#333333"></path><path d="M 70 20 L 50 20" stroke-width="2" stroke="#333333"></path><path d="M -70 -20 L -50 -20" stroke-width="2" stroke="#333333"></path><path d="M -70 0 L -50 0" stroke-width="2" stroke="#333333"></path><g transform="matrix(1,0,0,1,46,-20)"><text fill="#333333" font-family="Arial" font-size="10" text-anchor="end" dominant-baseline="middle" font-weight="regular" transform="matrix(1,0,0,1,0,0)" svgjs:data="{&quot;leading&quot;:&quot;1.3&quot;}"><tspan dy="0" x="0" svgjs:data="{&quot;newLined&quot;:true}">1</tspan></text></g><g transform="matrix(1,0,0,1,52,-22)"><text fill="#333333" font-family="Arial" font-size="8" text-anchor="start" dominant-baseline="text-top" font-weight="regular" transform="matrix(1,0,0,1,0,0)" svgjs:data="{&quot;leading&quot;:&quot;1.3&quot;}"><tspan dy="0" x="0" svgjs:data="{&quot;newLined&quot;:true}">1</tspan></text></g><g transform="matrix(1,0,0,1,46,0)"><text fill="#333333" font-family="Arial" font-size="10" text-anchor="end" dominant-baseline="middle" font-weight="regular" transform="matrix(1,0,0,1,0,0)" svgjs:data="{&quot;leading&quot;:&quot;1.3&quot;}"><tspan dy="0" x="0" svgjs:data="{&quot;newLined&quot;:true}">3</tspan></text></g><g transform="matrix(1,0,0,1,52,-2)"><text fill="#333333" font-family="Arial" font-size="8" text-anchor="start" dominant-baseline="text-top" font-weight="regular" transform="matrix(1,0,0,1,0,0)" svgjs:data="{&quot;leading&quot;:&quot;1.3&quot;}"><tspan dy="0" x="0" svgjs:data="{&quot;newLined&quot;:true}">3</tspan></text></g><g transform="matrix(1,0,0,1,46,20)"><text fill="#333333" font-family="Arial" font-size="10" text-anchor="end" dominant-baseline="middle" font-weight="regular" transform="matrix(1,0,0,1,0,0)" svgjs:data="{&quot;leading&quot;:&quot;1.3&quot;}"><tspan dy="0" x="0" svgjs:data="{&quot;newLined&quot;:true}">5</tspan></text></g><g transform="matrix(1,0,0,1,52,18)"><text fill="#333333" font-family="Arial" font-size="8" text-anchor="start" dominant-baseline="text-top" font-weight="regular" transform="matrix(1,0,0,1,0,0)" svgjs:data="{&quot;leading&quot;:&quot;1.3&quot;}"><tspan dy="0" x="0" svgjs:data="{&quot;newLined&quot;:true}">5</tspan></text></g><g transform="matrix(1,0,0,1,-46,-20)"><text fill="#333333" font-family="Arial" font-size="10" text-anchor="start" dominant-baseline="middle" font-weight="regular" transform="matrix(1,0,0,1,0,0)" svgjs:data="{&quot;leading&quot;:&quot;1.3&quot;}"><tspan dy="0" x="0" svgjs:data="{&quot;newLined&quot;:true}">2</tspan></text></g><g transform="matrix(1,0,0,1,-52,-22)"><text fill="#333333" font-family="Arial" font-size="8" text-anchor="end" dominant-baseline="text-top" font-weight="regular" transform="matrix(1,0,0,1,0,0)" svgjs:data="{&quot;leading&quot;:&quot;1.3&quot;}"><tspan dy="0" x="0" svgjs:data="{&quot;newLined&quot;:true}">2</tspan></text></g><g transform="matrix(1,0,0,1,-46,0)"><text fill="#333333" font-family="Arial" font-size="10" text-anchor="start" dominant-baseline="middle" font-weight="regular" transform="matrix(1,0,0,1,0,0)" svgjs:data="{&quot;leading&quot;:&quot;1.3&quot;}"><tspan dy="0" x="0" svgjs:data="{&quot;newLined&quot;:true}">4</tspan></text></g><g transform="matrix(1,0,0,1,-52,-2)"><text fill="#333333" font-family="Arial" font-size="8" text-anchor="end" dominant-baseline="text-top" font-weight="regular" transform="matrix(1,0,0,1,0,0)" svgjs:data="{&quot;leading&quot;:&quot;1.3&quot;}"><tspan dy="0" x="0" svgjs:data="{&quot;newLined&quot;:true}">4</tspan></text></g><g transform="matrix(1,0,0,1,50,-44)"><text fill="#333333" font-family="Arial" font-size="10" text-anchor="end" dominant-baseline="text-top" font-weight="regular" transform="matrix(1,0,0,1,0,0)" svgjs:data="{&quot;leading&quot;:&quot;1.3&quot;}"><tspan dy="0" x="0" svgjs:data="{&quot;newLined&quot;:true}">J2</tspan></text></g></g></g><g transform="matrix(1,0,0,1,90,340)"><g><path d="M -50 40 L 50 40 L 50 -40 L -50 -40 Z" stroke-width="1" stroke="#333333" fill="#ffffff"></path><path d="M -70 20 L -50 20" stroke-width="2" stroke="#333333"></path><path d="M -70 0 L -50 0" stroke-width="2" stroke="#333333"></path><path d="M -70 -20 L -50 -20" stroke-width="2" stroke="#333333"></path><path d="M 70 20 L 50 20" stroke-width="2" stroke="#333333"></path><path d="M 70 0 L 50 0" stroke-width="2" stroke="#333333"></path><g transform="matrix(1,0,0,1,-46,20)"><text fill="#333333" font-family="Arial" font-size="10" text-anchor="start" dominant-baseline="middle" font-weight="regular" transform="matrix(1,0,0,1,0,0)" svgjs:data="{&quot;leading&quot;:&quot;1.3&quot;}"><tspan dy="0" x="0" svgjs:data="{&quot;newLined&quot;:true}">1</tspan></text></g><g transform="matrix(1,0,0,1,-52,22)"><text fill="#333333" font-family="Arial" font-size="8" text-anchor="end" dominant-baseline="hanging" font-weight="regular" transform="matrix(1,0,0,1,0,0)" svgjs:data="{&quot;leading&quot;:&quot;1.3&quot;}"><tspan dy="0" x="0" svgjs:data="{&quot;newLined&quot;:true}">1</tspan></text></g><g transform="matrix(1,0,0,1,-46,0)"><text fill="#333333" font-family="Arial" font-size="10" text-anchor="start" dominant-baseline="middle" font-weight="regular" transform="matrix(1,0,0,1,0,0)" svgjs:data="{&quot;leading&quot;:&quot;1.3&quot;}"><tspan dy="0" x="0" svgjs:data="{&quot;newLined&quot;:true}">3</tspan></text></g><g transform="matrix(1,0,0,1,-52,2)"><text fill="#333333" font-family="Arial" font-size="8" text-anchor="end" dominant-baseline="hanging" font-weight="regular" transform="matrix(1,0,0,1,0,0)" svgjs:data="{&quot;leading&quot;:&quot;1.3&quot;}"><tspan dy="0" x="0" svgjs:data="{&quot;newLined&quot;:true}">3</tspan></text></g><g transform="matrix(1,0,0,1,-46,-20)"><text fill="#333333" font-family="Arial" font-size="10" text-anchor="start" dominant-baseline="middle" font-weight="regular" transform="matrix(1,0,0,1,0,0)" svgjs:data="{&quot;leading&quot;:&quot;1.3&quot;}"><tspan dy="0" x="0" svgjs:data="{&quot;newLined&quot;:true}">5</tspan></text></g><g transform="matrix(1,0,0,1,-52,-18)"><text fill="#333333" font-family="Arial" font-size="8" text-anchor="end" dominant-baseline="hanging" font-weight="regular" transform="matrix(1,0,0,1,0,0)" svgjs:data="{&quot;leading&quot;:&quot;1.3&quot;}"><tspan dy="0" x="0" svgjs:data="{&quot;newLined&quot;:true}">5</tspan></text></g><g transform="matrix(1,0,0,1,46,20)"><text fill="#333333" font-family="Arial" font-size="10" text-anchor="end" dominant-baseline="middle" font-weight="regular" transform="matrix(1,0,0,1,0,0)" svgjs:data="{&quot;leading&quot;:&quot;1.3&quot;}"><tspan dy="0" x="0" svgjs:data="{&quot;newLined&quot;:true}">2</tspan></text></g><g transform="matrix(1,0,0,1,52,22)"><text fill="#333333" font-family="Arial" font-size="8" text-anchor="start" dominant-baseline="hanging" font-weight="regular" transform="matrix(1,0,0,1,0,0)" svgjs:data="{&quot;leading&quot;:&quot;1.3&quot;}"><tspan dy="0" x="0" svgjs:data="{&quot;newLined&quot;:true}">2</tspan></text></g><g transform="matrix(1,0,0,1,46,0)"><text fill="#333333" font-family="Arial" font-size="10" text-anchor="end" dominant-baseline="middle" font-weight="regular" transform="matrix(1,0,0,1,0,0)" svgjs:data="{&quot;leading&quot;:&quot;1.3&quot;}"><tspan dy="0" x="0" svgjs:data="{&quot;newLined&quot;:true}">4</tspan></text></g><g transform="matrix(1,0,0,1,52,2)"><text fill="#333333" font-family="Arial" font-size="8" text-anchor="start" dominant-baseline="hanging" font-weight="regular" transform="matrix(1,0,0,1,0,0)" svgjs:data="{&quot;leading&quot;:&quot;1.3&quot;}"><tspan dy="0" x="0" svgjs:data="{&quot;newLined&quot;:true}">4</tspan></text></g><g transform="matrix(1,0,0,1,-50,44)"><text fill="#333333" font-family="Arial" font-size="10" text-anchor="start" dominant-baseline="hanging" font-weight="regular" transform="matrix(1,0,0,1,0,0)" svgjs:data="{&quot;leading&quot;:&quot;1.3&quot;}"><tspan dy="0" x="0" svgjs:data="{&quot;newLined&quot;:true}">J3</tspan></text></g></g></g><g transform="matrix(1,0,0,1,90,480)"><g><path d="M 50 40 L -50 40 L -50 -40 L 50 -40 Z" stroke-width="1" stroke="#333333" fill="#ffffff"></path><path d="M 70 20 L 50 20" stroke-width="2" stroke="#333333"></path><path d="M 70 0 L 50 0" stroke-width="2" stroke="#333333"></path><path d="M 70 -20 L 50 -20" stroke-width="2" stroke="#333333"></path><path d="M -70 20 L -50 20" stroke-width="2" stroke="#333333"></path><path d="M -70 0 L -50 0" stroke-width="2" stroke="#333333"></path><g transform="matrix(1,0,0,1,46,20)"><text fill="#333333" font-family="Arial" font-size="10" text-anchor="end" dominant-baseline="middle" font-weight="regular" transform="matrix(1,0,0,1,0,0)" svgjs:data="{&quot;leading&quot;:&quot;1.3&quot;}"><tspan dy="0" x="0" svgjs:data="{&quot;newLined&quot;:true}">1</tspan></text></g><g transform="matrix(1,0,0,1,52,22)"><text fill="#333333" font-family="Arial" font-size="8" text-anchor="start" dominant-baseline="hanging" font-weight="regular" transform="matrix(1,0,0,1,0,0)" svgjs:data="{&quot;leading&quot;:&quot;1.3&quot;}"><tspan dy="0" x="0" svgjs:data="{&quot;newLined&quot;:true}">1</tspan></text></g><g transform="matrix(1,0,0,1,46,0)"><text fill="#333333" font-family="Arial" font-size="10" text-anchor="end" dominant-baseline="middle" font-weight="regular" transform="matrix(1,0,0,1,0,0)" svgjs:data="{&quot;leading&quot;:&quot;1.3&quot;}"><tspan dy="0" x="0" svgjs:data="{&quot;newLined&quot;:true}">3</tspan></text></g><g transform="matrix(1,0,0,1,52,2)"><text fill="#333333" font-family="Arial" font-size="8" text-anchor="start" dominant-baseline="hanging" font-weight="regular" transform="matrix(1,0,0,1,0,0)" svgjs:data="{&quot;leading&quot;:&quot;1.3&quot;}"><tspan dy="0" x="0" svgjs:data="{&quot;newLined&quot;:true}">3</tspan></text></g><g transform="matrix(1,0,0,1,46,-20)"><text fill="#333333" font-family="Arial" font-size="10" text-anchor="end" dominant-baseline="middle" font-weight="regular" transform="matrix(1,0,0,1,0,0)" svgjs:data="{&quot;leading&quot;:&quot;1.3&quot;}"><tspan dy="0" x="0" svgjs:data="{&quot;newLined&quot;:true}">5</tspan></text></g><g transform="matrix(1,0,0,1,52,-18)"><text fill="#333333" font-family="Arial" font-size="8" text-anchor="start" dominant-baseline="hanging" font-weight="regular" transform="matrix(1,0,0,1,0,0)" svgjs:data="{&quot;leading&quot;:&quot;1.3&quot;}"><tspan dy="0" x="0" svgjs:data="{&quot;newLined&quot;:true}">5</tspan></text></g><g transform="matrix(1,0,0,1,-46,20)"><text fill="#333333" font-family="Arial" font-size="10" text-anchor="start" dominant-baseline="middle" font-weight="regular" transform="matrix(1,0,0,1,0,0)" svgjs:data="{&quot;leading&quot;:&quot;1.3&quot;}"><tspan dy="0" x="0" svgjs:data="{&quot;newLined&quot;:true}">2</tspan></text></g><g transform="matrix(1,0,0,1,-52,22)"><text fill="#333333" font-family="Arial" font-size="8" text-anchor="end" dominant-baseline="hanging" font-weight="regular" transform="matrix(1,0,0,1,0,0)" svgjs:data="{&quot;leading&quot;:&quot;1.3&quot;}"><tspan dy="0" x="0" svgjs:data="{&quot;newLined&quot;:true}">2</tspan></text></g><g transform="matrix(1,0,0,1,-46,0)"><text fill="#333333" font-family="Arial" font-size="10" text-anchor="start" dominant-baseline="middle" font-weight="regular" transform="matrix(1,0,0,1,0,0)" svgjs:data="{&quot;leading&quot;:&quot;1.3&quot;}"><tspan dy="0" x="0" svgjs:data="{&quot;newLined&quot;:true}">4</tspan></text></g><g transform="matrix(1,0,0,1,-52,2)"><text fill="#333333" font-family="Arial" font-size="8" text-anchor="end" dominant-baseline="hanging" font-weight="regular" transform="matrix(1,0,0,1,0,0)" svgjs:data="{&quot;leading&quot;:&quot;1.3&quot;}"><tspan dy="0" x="0" svgjs:data="{&quot;newLined&quot;:true}">4</tspan></text></g><g transform="matrix(1,0,0,1,50,44)"><text fill="#333333" font-family="Arial" font-size="10" text-anchor="end" dominant-baseline="hanging" font-weight="regular" transform="matrix(1,0,0,1,0,0)" svgjs:data="{&quot;leading&quot;:&quot;1.3&quot;}"><tspan dy="0" x="0" svgjs:data="{&quot;newLined&quot;:true}">J4</tspan></text></g></g></g><g transform="matrix(1,0,0,1,80,650)"><g><path d="M -40 50 L -40 -50 L 40 -50 L 40 50 Z" stroke-width="1" stroke="#333333" fill="#ffffff"></path><path d="M -20 70 L -20 50" stroke-width="2" stroke="#333333"></path><path d="M 0 70 L 0 50" stroke-width="2" stroke="#333333"></path><path d="M 20 70 L 20 50" stroke-width="2" stroke="#333333"></path><path d="M -20 -70 L -20 -50" stroke-width="2" stroke="#333333"></path><path d="M 0 -70 L 0 -50" stroke-width="2" stroke="#333333"></path><g transform="matrix(0,1,-1,0,-20,46)"><text fill="#333333" font-family="Arial" font-size="10" text-anchor="end" dominant-baseline="middle" font-weight="regular" transform="matrix(1,0,0,1,0,0)" svgjs:data="{&quot;leading&quot;:&quot;1.3&quot;}"><tspan dy="0" x="0" svgjs:data="{&quot;newLined&quot;:true}">1</tspan></text></g><g transform="matrix(0,1,-1,0,-22,52)"><text fill="#333333" font-family="Arial" font-size="8" text-anchor="start" dominant-baseline="hanging" font-weight="regular" transform="matrix(1,0,0,1,0,0)" svgjs:data="{&quot;leading&quot;:&quot;1.3&quot;}"><tspan dy="0" x="0" svgjs:data="{&quot;newLined&quot;:true}">1</tspan></text></g><g transform="matrix(0,1,-1,0,0,46)"><text fill="#333333" font-family="Arial" font-size="10" text-anchor="end" dominant-baseline="middle" font-weight="regular" transform="matrix(1,0,0,1,0,0)" svgjs:data="{&quot;leading&quot;:&quot;1.3&quot;}"><tspan dy="0" x="0" svgjs:data="{&quot;newLined&quot;:true}">3</tspan></text></g><g transform="matrix(0,1,-1,0,-2,52)"><text fill="#333333" font-family="Arial" font-size="8" text-anchor="start" dominant-baseline="hanging" font-weight="regular" transform="matrix(1,0,0,1,0,0)" svgjs:data="{&quot;leading&quot;:&quot;1.3&quot;}"><tspan dy="0" x="0" svgjs:data="{&quot;newLined&quot;:true}">3</tspan></text></g><g transform="matrix(0,1,-1,0,20,46)"><text fill="#333333" font-family="Arial" font-size="10" text-anchor="end" dominant-baseline="middle" font-weight="regular" transform="matrix(1,0,0,1,0,0)" svgjs:data="{&quot;leading&quot;:&quot;1.3&quot;}"><tspan dy="0" x="0" svgjs:data="{&quot;newLined&quot;:true}">5</tspan></text></g><g transform="matrix(0,1,-1,0,18,52)"><text fill="#333333" font-family="Arial" font-size="8" text-anchor="start" dominant-baseline="hanging" font-weight="regular" transform="matrix(1,0,0,1,0,0)" svgjs:data="{&quot;leading&quot;:&quot;1.3&quot;}"><tspan dy="0" x="0" svgjs:data="{&quot;newLined&quot;:true}">5</tspan></text></g><g transform="matrix(0,1,-1,0,-20,-46)"><text fill="#333333" font-family="Arial" font-size="10" text-anchor="start" dominant-baseline="middle" font-weight="regular" transform="matrix(1,0,0,1,0,0)" svgjs:data="{&quot;leading&quot;:&quot;1.3&quot;}"><tspan dy="0" x="0" svgjs:data="{&quot;newLined&quot;:true}">2</tspan></text></g><g transform="matrix(0,1,-1,0,-22,-52)"><text fill="#333333" font-family="Arial" font-size="8" text-anchor="end" dominant-baseline="hanging" font-weight="regular" transform="matrix(1,0,0,1,0,0)" svgjs:data="{&quot;leading&quot;:&quot;1.3&quot;}"><tspan dy="0" x="0" svgjs:data="{&quot;newLined&quot;:true}">2</tspan></text></g><g transform="matrix(0,1,-1,0,0,-46)"><text fill="#333333" font-family="Arial" font-size="10" text-anchor="start" dominant-baseline="middle" font-weight="regular" transform="matrix(1,0,0,1,0,0)" svgjs:data="{&quot;leading&quot;:&quot;1.3&quot;}"><tspan dy="0" x="0" svgjs:data="{&quot;newLined&quot;:true}">4</tspan></text></g><g transform="matrix(0,1,-1,0,-2,-52)"><text fill="#333333" font-family="Arial" font-size="8" text-anchor="end" dominant-baseline="hanging" font-weight="regular" transform="matrix(1,0,0,1,0,0)" svgjs:data="{&quot;leading&quot;:&quot;1.3&quot;}"><tspan dy="0" x="0" svgjs:data="{&quot;newLined&quot;:true}">4</tspan></text></g><g transform="matrix(0,1,-1,0,-44,50)"><text fill="#333333" font-family="Arial" font-size="10" text-anchor="end" dominant-baseline="hanging" font-weight="regular" transform="matrix(1,0,0,1,0,0)" svgjs:data="{&quot;leading&quot;:&quot;1.3&quot;}"><tspan dy="0" x="0" svgjs:data="{&quot;newLined&quot;:true}">J5</tspan></text></g></g></g><g></g><g></g></svg>