<svg xmlns="http://www.w3.org/2000/svg" version="1.1" xmlns:xlink="http://www.w3.org/1999/xlink" xmlns:svgjs="http://svgjs.dev/svgjs" width="210" height="350.5" viewBox="-25 -25.5 210 350.5"><g transform="matrix(1,0,0,1,0,0)"><path d="M -20 -20.5 L -20 320 M 0 -20.5 L 0 320 M 20 -20.5 L 20 320 M 40 -20.5 L 40 320 M 60 -20.5 L 60 320 M 80 -20.5 L 80 320 M 100 -20.5 L 100 320 M 120 -20.5 L 120 320 M 140 -20.5 L 140 320 M 160 -20.5 L 160 320 M 180 -20.5 L 180 320" fill="none" stroke-dasharray="1,19" stroke-width="1" stroke="#aaaaaa"></path></g><g transform="matrix(1,0,0,1,20,110)"><g><path d="M -15 0 L 15 0" stroke-width="1" stroke="#333333" fill="none"></path><path d="M 0 10 L 0 0" stroke-width="2" stroke="#333333"></path><g transform="matrix(1,0,0,1,0,-5)"><text fill="#333333" font-family="Arial" font-size="10" text-anchor="middle" dominant-baseline="text-top" font-weight="regular" transform="matrix(1,0,0,1,0,0)" svgjs:data="{&quot;leading&quot;:&quot;1.3&quot;}"><tspan dy="0" x="0" svgjs:data="{&quot;newLined&quot;:true}">5V</tspan></text></g></g></g><g transform="matrix(1,0,0,1,20,180)"><g><path d="M 10 -20 L 10 20 L -10 20 L -10 -20 Z" stroke-width="1" stroke="#333333" fill="#ffffff"></path><path d="M 0 -40 L 0 -20" stroke-width="2" stroke="#333333"></path><path d="M 0 40 L 0 20" stroke-width="2" stroke="#333333"></path><g transform="matrix(0,1,-1,0,2,-22)"><text fill="#333333" font-family="Arial" font-size="8" text-anchor="end" dominant-baseline="text-top" font-weight="regular" transform="matrix(1,0,0,1,0,0)" svgjs:data="{&quot;leading&quot;:&quot;1.3&quot;}"><tspan dy="0" x="0" svgjs:data="{&quot;newLined&quot;:true}">1</tspan></text></g><g transform="matrix(0,1,-1,0,2,22)"><text fill="#333333" font-family="Arial" font-size="8" text-anchor="start" dominant-baseline="text-top" font-weight="regular" transform="matrix(1,0,0,1,0,0)" svgjs:data="{&quot;leading&quot;:&quot;1.3&quot;}"><tspan dy="0" x="0" svgjs:data="{&quot;newLined&quot;:true}">2</tspan></text></g><g transform="matrix(0,1,-1,0,-1,0)"><text fill="#333333" font-family="Arial" font-size="10" text-anchor="middle" dominant-baseline="middle" font-weight="regular" transform="matrix(1,0,0,1,0,0)" svgjs:data="{&quot;leading&quot;:&quot;1.3&quot;}"><tspan dy="0" x="0" svgjs:data="{&quot;newLined&quot;:true}">10k</tspan></text></g><g transform="matrix(0,1,-1,0,15,-20)"><text fill="#333333" font-family="Arial" font-size="10" text-anchor="start" dominant-baseline="text-top" font-weight="regular" transform="matrix(1,0,0,1,0,0)" svgjs:data="{&quot;leading&quot;:&quot;1.3&quot;}"><tspan dy="0" x="0" svgjs:data="{&quot;newLined&quot;:true}">R1</tspan></text></g></g></g><g transform="matrix(1,0,0,1,20,240)"><g><path d="M 0 0 L 0 0" stroke-width="2"></path></g></g><g transform="matrix(1,0,0,1,80,110)"><g><path d="M -15 0 L 15 0" stroke-width="1" stroke="#333333" fill="none"></path><path d="M 0 10 L 0 0" stroke-width="2" stroke="#333333"></path><g transform="matrix(1,0,0,1,0,-5)"><text fill="#333333" font-family="Arial" font-size="10" text-anchor="middle" dominant-baseline="text-top" font-weight="regular" transform="matrix(1,0,0,1,0,0)" svgjs:data="{&quot;leading&quot;:&quot;1.3&quot;}"><tspan dy="0" x="0" svgjs:data="{&quot;newLined&quot;:true}">5V</tspan></text></g></g></g><g transform="matrix(1,0,0,1,80,180)"><g><path d="M 10 -20 L 10 20 L -10 20 L -10 -20 Z" stroke-width="1" stroke="#333333" fill="#ffffff"></path><path d="M 0 -40 L 0 -20" stroke-width="2" stroke="#333333"></path><path d="M 0 40 L 0 20" stroke-width="2" stroke="#333333"></path><g transform="matrix(0,1,-1,0,2,-22)"><text fill="#333333" font-family="Arial" font-size="8" text-anchor="end" dominant-baseline="text-top" font-weight="regular" transform="matrix(1,0,0,1,0,0)" svgjs:data="{&quot;leading&quot;:&quot;1.3&quot;}"><tspan dy="0" x="0" svgjs:data="{&quot;newLined&quot;:true}">1</tspan></text></g><g transform="matrix(0,1,-1,0,2,22)"><text fill="#333333" font-family="Arial" font-size="8" text-anchor="start" dominant-baseline="text-top" font-weight="regular" transform="matrix(1,0,0,1,0,0)" svgjs:data="{&quot;leading&quot;:&quot;1.3&quot;}"><tspan dy="0" x="0" svgjs:data="{&quot;newLined&quot;:true}">2</tspan></text></g><g transform="matrix(0,1,-1,0,-1,0)"><text fill="#333333" font-family="Arial" font-size="10" text-anchor="middle" dominant-baseline="middle" font-weight="regular" transform="matrix(1,0,0,1,0,0)" svgjs:data="{&quot;leading&quot;:&quot;1.3&quot;}"><tspan dy="0" x="0" svgjs:data="{&quot;newLined&quot;:true}">10k</tspan></text></g><g transform="matrix(0,1,-1,0,15,-20)"><text fill="#333333" font-family="Arial" font-size="10" text-anchor="start" dominant-baseline="text-top" font-weight="regular" transform="matrix(1,0,0,1,0,0)" svgjs:data="{&quot;leading&quot;:&quot;1.3&quot;}"><tspan dy="0" x="0" svgjs:data="{&quot;newLined&quot;:true}">R2</tspan></text></g></g></g><g transform="matrix(1,0,0,1,140,10)"><g><path d="M -15 0 L 15 0" stroke-width="1" stroke="#333333" fill="none"></path><path d="M 0 10 L 0 0" stroke-width="2" stroke="#333333"></path><g transform="matrix(1,0,0,1,0,-5)"><text fill="#333333" font-family="Arial" font-size="10" text-anchor="middle" dominant-baseline="text-top" font-weight="regular" transform="matrix(1,0,0,1,0,0)" svgjs:data="{&quot;leading&quot;:&quot;1.3&quot;}"><tspan dy="0" x="0" svgjs:data="{&quot;newLined&quot;:true}">5V</tspan></text></g></g></g><g transform="matrix(1,0,0,1,140,80)"><g><path d="M 10 -20 L 10 20 L -10 20 L -10 -20 Z" stroke-width="1" stroke="#333333" fill="#ffffff"></path><path d="M 0 -40 L 0 -20" stroke-width="2" stroke="#333333"></path><path d="M 0 40 L 0 20" stroke-width="2" stroke="#333333"></path><g transform="matrix(0,1,-1,0,2,-22)"><text fill="#333333" font-family="Arial" font-size="8" text-anchor="end" dominant-baseline="text-top" font-weight="regular" transform="matrix(1,0,0,1,0,0)" svgjs:data="{&quot;leading&quot;:&quot;1.3&quot;}"><tspan dy="0" x="0" svgjs:data="{&quot;newLined&quot;:true}">1</tspan></text></g><g transform="matrix(0,1,-1,0,2,22)"><text fill="#333333" font-family="Arial" font-size="8" text-anchor="start" dominant-baseline="text-top" font-weight="regular" transform="matrix(1,0,0,1,0,0)" svgjs:data="{&quot;leading&quot;:&quot;1.3&quot;}"><tspan dy="0" x="0" svgjs:data="{&quot;newLined&quot;:true}">2</tspan></text></g><g transform="matrix(0,1,-1,0,-1,0)"><text fill="#333333" font-family="Arial" font-size="10" text-anchor="middle" dominant-baseline="middle" font-weight="regular" transform="matrix(1,0,0,1,0,0)" svgjs:data="{&quot;leading&quot;:&quot;1.3&quot;}"><tspan dy="0" x="0" svgjs:data="{&quot;newLined&quot;:true}">10k</tspan></text></g><g transform="matrix(0,1,-1,0,15,-20)"><text fill="#333333" font-family="Arial" font-size="10" text-anchor="start" dominant-baseline="text-top" font-weight="regular" transform="matrix(1,0,0,1,0,0)" svgjs:data="{&quot;leading&quot;:&quot;1.3&quot;}"><tspan dy="0" x="0" svgjs:data="{&quot;newLined&quot;:true}">R3</tspan></text></g></g></g><g transform="matrix(1,0,0,1,140,180)"><g><path d="M 10 -20 L 10 20 L -10 20 L -10 -20 Z" stroke-width="1" stroke="#333333" fill="#ffffff"></path><path d="M 0 -40 L 0 -20" stroke-width="2" stroke="#333333"></path><path d="M 0 40 L 0 20" stroke-width="2" stroke="#333333"></path><g transform="matrix(0,1,-1,0,2,-22)"><text fill="#333333" font-family="Arial" font-size="8" text-anchor="end" dominant-baseline="text-top" font-weight="regular" transform="matrix(1,0,0,1,0,0)" svgjs:data="{&quot;leading&quot;:&quot;1.3&quot;}"><tspan dy="0" x="0" svgjs:data="{&quot;newLined&quot;:true}">1</tspan></text></g><g transform="matrix(0,1,-1,0,2,22)"><text fill="#333333" font-family="Arial" font-size="8" text-anchor="start" dominant-baseline="text-top" font-weight="regular" transform="matrix(1,0,0,1,0,0)" svgjs:data="{&quot;leading&quot;:&quot;1.3&quot;}"><tspan dy="0" x="0" svgjs:data="{&quot;newLined&quot;:true}">2</tspan></text></g><g transform="matrix(0,1,-1,0,-1,0)"><text fill="#333333" font-family="Arial" font-size="10" text-anchor="middle" dominant-baseline="middle" font-weight="regular" transform="matrix(1,0,0,1,0,0)" svgjs:data="{&quot;leading&quot;:&quot;1.3&quot;}"><tspan dy="0" x="0" svgjs:data="{&quot;newLined&quot;:true}">10k</tspan></text></g><g transform="matrix(0,1,-1,0,15,-20)"><text fill="#333333" font-family="Arial" font-size="10" text-anchor="start" dominant-baseline="text-top" font-weight="regular" transform="matrix(1,0,0,1,0,0)" svgjs:data="{&quot;leading&quot;:&quot;1.3&quot;}"><tspan dy="0" x="0" svgjs:data="{&quot;newLined&quot;:true}">R4</tspan></text></g></g></g><g transform="matrix(1,0,0,1,20,270)"><g><path d="M -10 0 L 10 0 L 0 10 Z" stroke-width="1" stroke="#333333" fill="#ffffff"></path><path d="M 0 -10 L 0 0" stroke-width="2" stroke="#333333"></path><g transform="matrix(1,0,0,1,0,20)"><text fill="#333333" font-family="Arial" font-size="10" text-anchor="middle" dominant-baseline="text-top" font-weight="regular" transform="matrix(1,0,0,1,0,0)" svgjs:data="{&quot;leading&quot;:&quot;1.3&quot;}"><tspan dy="0" x="0" svgjs:data="{&quot;newLined&quot;:true}">GND</tspan></text></g></g></g><g><line x1="20" y1="120" x2="20" y2="140" stroke-linecap="square" stroke-width="1" stroke="#008400" fill="none"></line><line x1="80" y1="120" x2="80" y2="140" stroke-linecap="square" stroke-width="1" stroke="#008400" fill="none"></line><line x1="140" y1="20" x2="140" y2="40" stroke-linecap="square" stroke-width="1" stroke="#008400" fill="none"></line><line x1="20" y1="220" x2="20" y2="240" stroke-linecap="square" stroke-width="1" stroke="#008400" fill="none"></line><line x1="80" y1="220" x2="80" y2="240" stroke-linecap="square" stroke-width="1" stroke="#008400" fill="none"></line><line x1="80" y1="240" x2="20" y2="240" stroke-linecap="square" stroke-width="1" stroke="#008400" fill="none"></line><line x1="140" y1="220" x2="140" y2="240" stroke-linecap="square" stroke-width="1" stroke="#008400" fill="none"></line><line x1="140" y1="240" x2="80" y2="240" stroke-linecap="square" stroke-width="1" stroke="#008400" fill="none"></line><line x1="20" y1="240" x2="20" y2="260" stroke-linecap="square" stroke-width="1" stroke="#008400" fill="none"></line><circle r="2.5" cx="2.5" cy="2.5" transform="matrix(1,0,0,1,17.5,237.5)" fill="rgba(0, 132, 0)" stroke="none"></circle><circle r="2.5" cx="2.5" cy="2.5" transform="matrix(1,0,0,1,77.5,237.5)" fill="rgba(0, 132, 0)" stroke="none"></circle><line x1="140" y1="120" x2="140" y2="140" stroke-linecap="square" stroke-width="1" stroke="#008400" fill="none"></line></g><g></g></svg>