<svg xmlns="http://www.w3.org/2000/svg" version="1.1" xmlns:xlink="http://www.w3.org/1999/xlink" xmlns:svgjs="http://svgjs.dev/svgjs" width="410" height="470.5" viewBox="-25 -25.5 410 470.5"><g transform="matrix(1,0,0,1,0,0)"><path d="M -20 -20.5 L -20 440 M 0 -20.5 L 0 440 M 20 -20.5 L 20 440 M 40 -20.5 L 40 440 M 60 -20.5 L 60 440 M 80 -20.5 L 80 440 M 100 -20.5 L 100 440 M 120 -20.5 L 120 440 M 140 -20.5 L 140 440 M 160 -20.5 L 160 440 M 180 -20.5 L 180 440 M 200 -20.5 L 200 440 M 220 -20.5 L 220 440 M 240 -20.5 L 240 440 M 260 -20.5 L 260 440 M 280 -20.5 L 280 440 M 300 -20.5 L 300 440 M 320 -20.5 L 320 440 M 340 -20.5 L 340 440 M 360 -20.5 L 360 440 M 380 -20.5 L 380 440" fill="none" stroke-dasharray="1,19" stroke-width="1" stroke="#aaaaaa"></path></g><g transform="matrix(1,0,0,1,20,10)"><g><path d="M -15 0 L 15 0" stroke-width="1" stroke="#333333" fill="none"></path><path d="M 0 10 L 0 0" stroke-width="2" stroke="#333333"></path><g transform="matrix(1,0,0,1,0,-5)"><text fill="#333333" font-family="Arial" font-size="10" text-anchor="middle" dominant-baseline="text-top" font-weight="regular" transform="matrix(1,0,0,1,0,0)" svgjs:data="{&quot;leading&quot;:&quot;1.3&quot;}"><tspan dy="0" x="0" svgjs:data="{&quot;newLined&quot;:true}">5V</tspan></text></g></g></g><g transform="matrix(1,0,0,1,20,100)"><g><path d="M 10 -20 L 10 20 L -10 20 L -10 -20 Z" stroke-width="1" stroke="#333333" fill="#ffffff"></path><path d="M 0 -40 L 0 -20" stroke-width="2" stroke="#333333"></path><path d="M 0 40 L 0 20" stroke-width="2" stroke="#333333"></path><g transform="matrix(0,1,-1,0,2,-22)"><text fill="#333333" font-family="Arial" font-size="8" text-anchor="end" dominant-baseline="text-top" font-weight="regular" transform="matrix(1,0,0,1,0,0)" svgjs:data="{&quot;leading&quot;:&quot;1.3&quot;}"><tspan dy="0" x="0" svgjs:data="{&quot;newLined&quot;:true}">1</tspan></text></g><g transform="matrix(0,1,-1,0,2,22)"><text fill="#333333" font-family="Arial" font-size="8" text-anchor="start" dominant-baseline="text-top" font-weight="regular" transform="matrix(1,0,0,1,0,0)" svgjs:data="{&quot;leading&quot;:&quot;1.3&quot;}"><tspan dy="0" x="0" svgjs:data="{&quot;newLined&quot;:true}">2</tspan></text></g><g transform="matrix(0,1,-1,0,-1,0)"><text fill="#333333" font-family="Arial" font-size="10" text-anchor="middle" dominant-baseline="middle" font-weight="regular" transform="matrix(1,0,0,1,0,0)" svgjs:data="{&quot;leading&quot;:&quot;1.3&quot;}"><tspan dy="0" x="0" svgjs:data="{&quot;newLined&quot;:true}">10k</tspan></text></g><g transform="matrix(0,1,-1,0,15,-20)"><text fill="#333333" font-family="Arial" font-size="10" text-anchor="start" dominant-baseline="text-top" font-weight="regular" transform="matrix(1,0,0,1,0,0)" svgjs:data="{&quot;leading&quot;:&quot;1.3&quot;}"><tspan dy="0" x="0" svgjs:data="{&quot;newLined&quot;:true}">R1</tspan></text></g><path d="M -10 -40 L 10 40 M 10 -40 L -10 40" stroke-width="2" stroke="red"></path></g></g><g transform="matrix(1,0,0,1,20,170)"><g><path d="M -10 0 L 10 0 L 0 10 Z" stroke-width="1" stroke="#333333" fill="#ffffff"></path><path d="M 0 -10 L 0 0" stroke-width="2" stroke="#333333"></path><g transform="matrix(1,0,0,1,0,20)"><text fill="#333333" font-family="Arial" font-size="10" text-anchor="middle" dominant-baseline="text-top" font-weight="regular" transform="matrix(1,0,0,1,0,0)" svgjs:data="{&quot;leading&quot;:&quot;1.3&quot;}"><tspan dy="0" x="0" svgjs:data="{&quot;newLined&quot;:true}">GND</tspan></text></g></g></g><g transform="matrix(1,0,0,1,60,100)"><g><path d="M 10 -20 L 10 20 L -10 20 L -10 -20 Z" stroke-width="1" stroke="#333333" fill="#ffffff"></path><path d="M 0 -40 L 0 -20" stroke-width="2" stroke="#333333"></path><path d="M 0 40 L 0 20" stroke-width="2" stroke="#333333"></path><g transform="matrix(0,1,-1,0,2,-22)"><text fill="#333333" font-family="Arial" font-size="8" text-anchor="end" dominant-baseline="text-top" font-weight="regular" transform="matrix(1,0,0,1,0,0)" svgjs:data="{&quot;leading&quot;:&quot;1.3&quot;}"><tspan dy="0" x="0" svgjs:data="{&quot;newLined&quot;:true}">1</tspan></text></g><g transform="matrix(0,1,-1,0,2,22)"><text fill="#333333" font-family="Arial" font-size="8" text-anchor="start" dominant-baseline="text-top" font-weight="regular" transform="matrix(1,0,0,1,0,0)" svgjs:data="{&quot;leading&quot;:&quot;1.3&quot;}"><tspan dy="0" x="0" svgjs:data="{&quot;newLined&quot;:true}">2</tspan></text></g><g transform="matrix(0,1,-1,0,-1,0)"><text fill="#333333" font-family="Arial" font-size="10" text-anchor="middle" dominant-baseline="middle" font-weight="regular" transform="matrix(1,0,0,1,0,0)" svgjs:data="{&quot;leading&quot;:&quot;1.3&quot;}"><tspan dy="0" x="0" svgjs:data="{&quot;newLined&quot;:true}">20k</tspan></text></g><g transform="matrix(0,1,-1,0,15,-20)"><text fill="#333333" font-family="Arial" font-size="10" text-anchor="start" dominant-baseline="text-top" font-weight="regular" transform="matrix(1,0,0,1,0,0)" svgjs:data="{&quot;leading&quot;:&quot;1.3&quot;}"><tspan dy="0" x="0" svgjs:data="{&quot;newLined&quot;:true}">R2</tspan></text></g></g></g><g transform="matrix(1,0,0,1,60,170)"><g><path d="M -10 0 L 10 0 L 0 10 Z" stroke-width="1" stroke="#333333" fill="#ffffff"></path><path d="M 0 -10 L 0 0" stroke-width="2" stroke="#333333"></path><g transform="matrix(1,0,0,1,0,20)"><text fill="#333333" font-family="Arial" font-size="10" text-anchor="middle" dominant-baseline="text-top" font-weight="regular" transform="matrix(1,0,0,1,0,0)" svgjs:data="{&quot;leading&quot;:&quot;1.3&quot;}"><tspan dy="0" x="0" svgjs:data="{&quot;newLined&quot;:true}">GND</tspan></text></g></g></g><g transform="matrix(1,0,0,1,100,80)"><g><path d="M -10 -3 L 10 -3" stroke-width="1" stroke="#333333" fill="none"></path><path d="M -10 3 L 10 3" stroke-width="1" stroke="#333333" fill="none"></path><path d="M 0 -20 L 0 -3" stroke-width="2" stroke="#333333"></path><path d="M 0 20 L 0 3" stroke-width="2" stroke="#333333"></path><g transform="matrix(1,0,0,1,2,-5)"><text fill="#333333" font-family="Arial" font-size="8" text-anchor="start" dominant-baseline="text-top" font-weight="regular" transform="matrix(1,0,0,1,0,0)" svgjs:data="{&quot;leading&quot;:&quot;1.3&quot;}"><tspan dy="0" x="0" svgjs:data="{&quot;newLined&quot;:true}">1</tspan></text></g><g transform="matrix(1,0,0,1,2,5)"><text fill="#333333" font-family="Arial" font-size="8" text-anchor="start" dominant-baseline="hanging" font-weight="regular" transform="matrix(1,0,0,1,0,0)" svgjs:data="{&quot;leading&quot;:&quot;1.3&quot;}"><tspan dy="0" x="0" svgjs:data="{&quot;newLined&quot;:true}">2</tspan></text></g><g transform="matrix(1,0,0,1,12,0)"><text fill="#333333" font-family="Arial" font-size="10" text-anchor="start" dominant-baseline="text-top" font-weight="regular" transform="matrix(1,0,0,1,0,0)" svgjs:data="{&quot;leading&quot;:&quot;1.3&quot;}"><tspan dy="0" x="0" svgjs:data="{&quot;newLined&quot;:true}">C1</tspan></text></g><g transform="matrix(1,0,0,1,12,5)"><text fill="#333333" font-family="Arial" font-size="10" text-anchor="start" dominant-baseline="hanging" font-weight="regular" transform="matrix(1,0,0,1,0,0)" svgjs:data="{&quot;leading&quot;:&quot;1.3&quot;}"><tspan dy="0" x="0" svgjs:data="{&quot;newLined&quot;:true}">100n</tspan></text></g></g></g><g transform="matrix(1,0,0,1,100,130)"><g><path d="M -10 0 L 10 0 L 0 10 Z" stroke-width="1" stroke="#333333" fill="#ffffff"></path><path d="M 0 -10 L 0 0" stroke-width="2" stroke="#333333"></path><g transform="matrix(1,0,0,1,0,20)"><text fill="#333333" font-family="Arial" font-size="10" text-anchor="middle" dominant-baseline="text-top" font-weight="regular" transform="matrix(1,0,0,1,0,0)" svgjs:data="{&quot;leading&quot;:&quot;1.3&quot;}"><tspan dy="0" x="0" svgjs:data="{&quot;newLined&quot;:true}">GND</tspan></text></g></g></g><g transform="matrix(1,0,0,1,140,40)"><g><path d="M 0 0 L 0 0" stroke-width="2"></path></g></g><g transform="matrix(1,0,0,1,210,60)"><g><path d="M -50 -40 L 50 -40 L 50 40 L -50 40 Z" stroke-width="1" stroke="#333333" fill="#ffffff"></path><path d="M -70 -20 L -50 -20" stroke-width="2" stroke="#333333"></path><path d="M -70 0 L -50 0" stroke-width="2" stroke="#333333"></path><path d="M -70 20 L -50 20" stroke-width="2" stroke="#333333"></path><path d="M 70 -20 L 50 -20" stroke-width="2" stroke="#333333"></path><path d="M 70 0 L 50 0" stroke-width="2" stroke="#333333"></path><path d="M 70 20 L 50 20" stroke-width="2" stroke="#333333"></path><g transform="matrix(1,0,0,1,-46,-20)"><text fill="#333333" font-family="Arial" font-size="10" text-anchor="start" dominant-baseline="middle" font-weight="regular" transform="matrix(1,0,0,1,0,0)" svgjs:data="{&quot;leading&quot;:&quot;1.3&quot;}"><tspan dy="0" x="0" svgjs:data="{&quot;newLined&quot;:true}">1</tspan></text></g><g transform="matrix(1,0,0,1,-52,-22)"><text fill="#333333" font-family="Arial" font-size="8" text-anchor="end" dominant-baseline="text-top" font-weight="regular" transform="matrix(1,0,0,1,0,0)" svgjs:data="{&quot;leading&quot;:&quot;1.3&quot;}"><tspan dy="0" x="0" svgjs:data="{&quot;newLined&quot;:true}">1</tspan></text></g><g transform="matrix(1,0,0,1,-46,0)"><text fill="#333333" font-family="Arial" font-size="10" text-anchor="start" dominant-baseline="middle" font-weight="regular" transform="matrix(1,0,0,1,0,0)" svgjs:data="{&quot;leading&quot;:&quot;1.3&quot;}"><tspan dy="0" x="0" svgjs:data="{&quot;newLined&quot;:true}">2</tspan></text></g><g transform="matrix(1,0,0,1,-52,-2)"><text fill="#333333" font-family="Arial" font-size="8" text-anchor="end" dominant-baseline="text-top" font-weight="regular" transform="matrix(1,0,0,1,0,0)" svgjs:data="{&quot;leading&quot;:&quot;1.3&quot;}"><tspan dy="0" x="0" svgjs:data="{&quot;newLined&quot;:true}">2</tspan></text></g><g transform="matrix(1,0,0,1,-46,20)"><text fill="#333333" font-family="Arial" font-size="10" text-anchor="start" dominant-baseline="middle" font-weight="regular" transform="matrix(1,0,0,1,0,0)" svgjs:data="{&quot;leading&quot;:&quot;1.3&quot;}"><tspan dy="0" x="0" svgjs:data="{&quot;newLined&quot;:true}">3</tspan></text></g><g transform="matrix(1,0,0,1,-52,18)"><text fill="#333333" font-family="Arial" font-size="8" text-anchor="end" dominant-baseline="text-top" font-weight="regular" transform="matrix(1,0,0,1,0,0)" svgjs:data="{&quot;leading&quot;:&quot;1.3&quot;}"><tspan dy="0" x="0" svgjs:data="{&quot;newLined&quot;:true}">3</tspan></text></g><g transform="matrix(1,0,0,1,46,-20)"><text fill="#333333" font-family="Arial" font-size="10" text-anchor="end" dominant-baseline="middle" font-weight="regular" transform="matrix(1,0,0,1,0,0)" svgjs:data="{&quot;leading&quot;:&quot;1.3&quot;}"><tspan dy="0" x="0" svgjs:data="{&quot;newLined&quot;:true}">6</tspan></text></g><g transform="matrix(1,0,0,1,52,-22)"><text fill="#333333" font-family="Arial" font-size="8" text-anchor="start" dominant-baseline="text-top" font-weight="regular" transform="matrix(1,0,0,1,0,0)" svgjs:data="{&quot;leading&quot;:&quot;1.3&quot;}"><tspan dy="0" x="0" svgjs:data="{&quot;newLined&quot;:true}">6</tspan></text></g><g transform="matrix(1,0,0,1,46,0)"><text fill="#333333" font-family="Arial" font-size="10" text-anchor="end" dominant-baseline="middle" font-weight="regular" transform="matrix(1,0,0,1,0,0)" svgjs:data="{&quot;leading&quot;:&quot;1.3&quot;}"><tspan dy="0" x="0" svgjs:data="{&quot;newLined&quot;:true}">5</tspan></text></g><g transform="matrix(1,0,0,1,52,-2)"><text fill="#333333" font-family="Arial" font-size="8" text-anchor="start" dominant-baseline="text-top" font-weight="regular" transform="matrix(1,0,0,1,0,0)" svgjs:data="{&quot;leading&quot;:&quot;1.3&quot;}"><tspan dy="0" x="0" svgjs:data="{&quot;newLined&quot;:true}">5</tspan></text></g><g transform="matrix(1,0,0,1,46,20)"><text fill="#333333" font-family="Arial" font-size="10" text-anchor="end" dominant-baseline="middle" font-weight="regular" transform="matrix(1,0,0,1,0,0)" svgjs:data="{&quot;leading&quot;:&quot;1.3&quot;}"><tspan dy="0" x="0" svgjs:data="{&quot;newLined&quot;:true}">4</tspan></text></g><g transform="matrix(1,0,0,1,52,18)"><text fill="#333333" font-family="Arial" font-size="8" text-anchor="start" dominant-baseline="text-top" font-weight="regular" transform="matrix(1,0,0,1,0,0)" svgjs:data="{&quot;leading&quot;:&quot;1.3&quot;}"><tspan dy="0" x="0" svgjs:data="{&quot;newLined&quot;:true}">4</tspan></text></g><g transform="matrix(1,0,0,1,-50,-44)"><text fill="#333333" font-family="Arial" font-size="10" text-anchor="start" dominant-baseline="text-top" font-weight="regular" transform="matrix(1,0,0,1,0,0)" svgjs:data="{&quot;leading&quot;:&quot;1.3&quot;}"><tspan dy="0" x="0" svgjs:data="{&quot;newLined&quot;:true}">J1</tspan></text></g></g></g><g transform="matrix(1,0,0,1,300,110)"><g><path d="M -10 0 L 10 0 L 0 10 Z" stroke-width="1" stroke="#333333" fill="#ffffff"></path><path d="M 0 -10 L 0 0" stroke-width="2" stroke="#333333"></path><g transform="matrix(1,0,0,1,0,20)"><text fill="#333333" font-family="Arial" font-size="10" text-anchor="middle" dominant-baseline="text-top" font-weight="regular" transform="matrix(1,0,0,1,0,0)" svgjs:data="{&quot;leading&quot;:&quot;1.3&quot;}"><tspan dy="0" x="0" svgjs:data="{&quot;newLined&quot;:true}">GND</tspan></text></g></g></g><g transform="matrix(1,0,0,1,340,120)"><g><path d="M 10 -20 L 10 20 L -10 20 L -10 -20 Z" stroke-width="1" stroke="#333333" fill="#ffffff"></path><path d="M 0 -40 L 0 -20" stroke-width="2" stroke="#333333"></path><path d="M 0 40 L 0 20" stroke-width="2" stroke="#333333"></path><g transform="matrix(0,1,-1,0,2,-22)"><text fill="#333333" font-family="Arial" font-size="8" text-anchor="end" dominant-baseline="text-top" font-weight="regular" transform="matrix(1,0,0,1,0,0)" svgjs:data="{&quot;leading&quot;:&quot;1.3&quot;}"><tspan dy="0" x="0" svgjs:data="{&quot;newLined&quot;:true}">1</tspan></text></g><g transform="matrix(0,1,-1,0,2,22)"><text fill="#333333" font-family="Arial" font-size="8" text-anchor="start" dominant-baseline="text-top" font-weight="regular" transform="matrix(1,0,0,1,0,0)" svgjs:data="{&quot;leading&quot;:&quot;1.3&quot;}"><tspan dy="0" x="0" svgjs:data="{&quot;newLined&quot;:true}">2</tspan></text></g><g transform="matrix(0,1,-1,0,-1,0)"><text fill="#333333" font-family="Arial" font-size="10" text-anchor="middle" dominant-baseline="middle" font-weight="regular" transform="matrix(1,0,0,1,0,0)" svgjs:data="{&quot;leading&quot;:&quot;1.3&quot;}"><tspan dy="0" x="0" svgjs:data="{&quot;newLined&quot;:true}">10k</tspan></text></g><g transform="matrix(0,1,-1,0,15,-20)"><text fill="#333333" font-family="Arial" font-size="10" text-anchor="start" dominant-baseline="text-top" font-weight="regular" transform="matrix(1,0,0,1,0,0)" svgjs:data="{&quot;leading&quot;:&quot;1.3&quot;}"><tspan dy="0" x="0" svgjs:data="{&quot;newLined&quot;:true}">R3</tspan></text></g><path d="M -10 -40 L 10 40 M 10 -40 L -10 40" stroke-width="2" stroke="red"></path></g></g><g transform="matrix(1,0,0,1,340,190)"><g><path d="M -10 0 L 10 0 L 0 10 Z" stroke-width="1" stroke="#333333" fill="#ffffff"></path><path d="M 0 -10 L 0 0" stroke-width="2" stroke="#333333"></path><g transform="matrix(1,0,0,1,0,20)"><text fill="#333333" font-family="Arial" font-size="10" text-anchor="middle" dominant-baseline="text-top" font-weight="regular" transform="matrix(1,0,0,1,0,0)" svgjs:data="{&quot;leading&quot;:&quot;1.3&quot;}"><tspan dy="0" x="0" svgjs:data="{&quot;newLined&quot;:true}">GND</tspan></text></g></g></g><g transform="matrix(1,0,0,1,180,250)"><g><path d="M -15 0 L 15 0" stroke-width="1" stroke="#333333" fill="none"></path><path d="M 0 10 L 0 0" stroke-width="2" stroke="#333333"></path><g transform="matrix(1,0,0,1,0,-5)"><text fill="#333333" font-family="Arial" font-size="10" text-anchor="middle" dominant-baseline="text-top" font-weight="regular" transform="matrix(1,0,0,1,0,0)" svgjs:data="{&quot;leading&quot;:&quot;1.3&quot;}"><tspan dy="0" x="0" svgjs:data="{&quot;newLined&quot;:true}">3V</tspan></text></g></g></g><g transform="matrix(1,0,0,1,180,320)"><g><path d="M 10 -20 L 10 20 L -10 20 L -10 -20 Z" stroke-width="1" stroke="#333333" fill="#ffffff"></path><path d="M 0 -40 L 0 -20" stroke-width="2" stroke="#333333"></path><path d="M 0 40 L 0 20" stroke-width="2" stroke="#333333"></path><g transform="matrix(0,1,-1,0,2,-22)"><text fill="#333333" font-family="Arial" font-size="8" text-anchor="end" dominant-baseline="text-top" font-weight="regular" transform="matrix(1,0,0,1,0,0)" svgjs:data="{&quot;leading&quot;:&quot;1.3&quot;}"><tspan dy="0" x="0" svgjs:data="{&quot;newLined&quot;:true}">1</tspan></text></g><g transform="matrix(0,1,-1,0,2,22)"><text fill="#333333" font-family="Arial" font-size="8" text-anchor="start" dominant-baseline="text-top" font-weight="regular" transform="matrix(1,0,0,1,0,0)" svgjs:data="{&quot;leading&quot;:&quot;1.3&quot;}"><tspan dy="0" x="0" svgjs:data="{&quot;newLined&quot;:true}">2</tspan></text></g><g transform="matrix(0,1,-1,0,-1,0)"><text fill="#333333" font-family="Arial" font-size="10" text-anchor="middle" dominant-baseline="middle" font-weight="regular" transform="matrix(1,0,0,1,0,0)" svgjs:data="{&quot;leading&quot;:&quot;1.3&quot;}"><tspan dy="0" x="0" svgjs:data="{&quot;newLined&quot;:true}">20k</tspan></text></g><g transform="matrix(0,1,-1,0,15,-20)"><text fill="#333333" font-family="Arial" font-size="10" text-anchor="start" dominant-baseline="text-top" font-weight="regular" transform="matrix(1,0,0,1,0,0)" svgjs:data="{&quot;leading&quot;:&quot;1.3&quot;}"><tspan dy="0" x="0" svgjs:data="{&quot;newLined&quot;:true}">R4</tspan></text></g></g></g><g transform="matrix(1,0,0,1,180,390)"><g><path d="M -10 0 L 10 0 L 0 10 Z" stroke-width="1" stroke="#333333" fill="#ffffff"></path><path d="M 0 -10 L 0 0" stroke-width="2" stroke="#333333"></path><g transform="matrix(1,0,0,1,0,20)"><text fill="#333333" font-family="Arial" font-size="10" text-anchor="middle" dominant-baseline="text-top" font-weight="regular" transform="matrix(1,0,0,1,0,0)" svgjs:data="{&quot;leading&quot;:&quot;1.3&quot;}"><tspan dy="0" x="0" svgjs:data="{&quot;newLined&quot;:true}">GND</tspan></text></g></g></g><g><line x1="20" y1="20" x2="20" y2="40" stroke-linecap="square" stroke-width="1" stroke="#008400" fill="none"></line><line x1="20" y1="40" x2="20" y2="60" stroke-linecap="square" stroke-width="1" stroke="#008400" fill="none"></line><line x1="20" y1="40" x2="60" y2="40" stroke-linecap="square" stroke-width="1" stroke="#008400" fill="none"></line><line x1="60" y1="40" x2="60" y2="60" stroke-linecap="square" stroke-width="1" stroke="#008400" fill="none"></line><line x1="60" y1="40" x2="100" y2="40" stroke-linecap="square" stroke-width="1" stroke="#008400" fill="none"></line><line x1="100" y1="40" x2="100" y2="60" stroke-linecap="square" stroke-width="1" stroke="#008400" fill="none"></line><line x1="100" y1="40" x2="140" y2="40" stroke-linecap="square" stroke-width="1" stroke="#008400" fill="none"></line><circle r="2.5" cx="2.5" cy="2.5" transform="matrix(1,0,0,1,17.5,37.5)" fill="rgba(0, 132, 0)" stroke="none"></circle><circle r="2.5" cx="2.5" cy="2.5" transform="matrix(1,0,0,1,57.5,37.5)" fill="rgba(0, 132, 0)" stroke="none"></circle><circle r="2.5" cx="2.5" cy="2.5" transform="matrix(1,0,0,1,97.5,37.5)" fill="rgba(0, 132, 0)" stroke="none"></circle><line x1="20" y1="140" x2="20" y2="160" stroke-linecap="square" stroke-width="1" stroke="#008400" fill="none"></line><line x1="60" y1="140" x2="60" y2="160" stroke-linecap="square" stroke-width="1" stroke="#008400" fill="none"></line><line x1="100" y1="100" x2="100" y2="120" stroke-linecap="square" stroke-width="1" stroke="#008400" fill="none"></line><line x1="280" y1="80" x2="300" y2="80" stroke-linecap="square" stroke-width="1" stroke="#008400" fill="none"></line><line x1="300" y1="80" x2="300" y2="100" stroke-linecap="square" stroke-width="1" stroke="#008400" fill="none"></line><line x1="340" y1="160" x2="340" y2="180" stroke-linecap="square" stroke-width="1" stroke="#008400" fill="none"></line><line x1="180" y1="360" x2="180" y2="380" stroke-linecap="square" stroke-width="1" stroke="#008400" fill="none"></line><line x1="280" y1="60" x2="340" y2="60" stroke-linecap="square" stroke-width="1" stroke="#008400" fill="none"></line><line x1="340" y1="60" x2="340" y2="80" stroke-linecap="square" stroke-width="1" stroke="#008400" fill="none"></line><line x1="180" y1="260" x2="180" y2="280" stroke-linecap="square" stroke-width="1" stroke="#008400" fill="none"></line></g><g></g></svg>