<svg xmlns="http://www.w3.org/2000/svg" version="1.1" xmlns:xlink="http://www.w3.org/1999/xlink" xmlns:svgjs="http://svgjs.dev/svgjs" width="410" height="790" viewBox="-25 -25 410 790"><g transform="matrix(1,0,0,1,0,0)"><path d="M -20 -20 L -20 760 M 0 -20 L 0 760 M 20 -20 L 20 760 M 40 -20 L 40 760 M 60 -20 L 60 760 M 80 -20 L 80 760 M 100 -20 L 100 760 M 120 -20 L 120 760 M 140 -20 L 140 760 M 160 -20 L 160 760 M 180 -20 L 180 760 M 200 -20 L 200 760 M 220 -20 L 220 760 M 240 -20 L 240 760 M 260 -20 L 260 760 M 280 -20 L 280 760 M 300 -20 L 300 760 M 320 -20 L 320 760 M 340 -20 L 340 760 M 360 -20 L 360 760 M 380 -20 L 380 760 M -20 -20 L 380 -20 M -20 0 L 380 0 M -20 20 L 380 20 M -20 40 L 380 40 M -20 60 L 380 60 M -20 80 L 380 80 M -20 100 L 380 100 M -20 120 L 380 120 M -20 140 L 380 140 M -20 160 L 380 160 M -20 180 L 380 180 M -20 200 L 380 200 M -20 220 L 380 220 M -20 240 L 380 240 M -20 260 L 380 260 M -20 280 L 380 280 M -20 300 L 380 300 M -20 320 L 380 320 M -20 340 L 380 340 M -20 360 L 380 360 M -20 380 L 380 380 M -20 400 L 380 400 M -20 420 L 380 420 M -20 440 L 380 440 M -20 460 L 380 460 M -20 480 L 380 480 M -20 500 L 380 500 M -20 520 L 380 520 M -20 540 L 380 540 M -20 560 L 380 560 M -20 580 L 380 580 M -20 600 L 380 600 M -20 620 L 380 620 M -20 640 L 380 640 M -20 660 L 380 660 M -20 680 L 380 680 M -20 700 L 380 700 M -20 720 L 380 720 M -20 740 L 380 740 M -20 760 L 380 760" fill="none" stroke-width="1" stroke="#eeeeee"></path></g><g transform="matrix(1,0,0,1,140,170)"><g><path d="M -15 0 L 15 0 Z" stroke-width="1" stroke="#333333" fill="#ffffff"></path><path d="M 0 0 L 0 10 Z" stroke-width="2" stroke="#333333"></path><text fill="#333333" font-family="Inter" font-size="10" text-anchor="middle" dominant-baseline="text-top" transform="matrix(1,0,0,1,0,-5)" svgjs:data="{&quot;leading&quot;:&quot;1.3&quot;}"><tspan dy="0" x="0" svgjs:data="{&quot;newLined&quot;:true}">3v3</tspan></text></g></g><g transform="matrix(1,0,0,1,140,240)"><g><path d="M 9.999999999999998 -20 L 10.000000000000002 20 L -9.999999999999998 20 L -10.000000000000002 -20 L 9.999999999999998 -20 Z" stroke-width="1" stroke="#333333" fill="#ffffff"></path><path d="M -1.2246467991473533e-15 -20 L -2.4492935982947065e-15 -40 Z M 1.2246467991473533e-15 20 L 2.4492935982947065e-15 40 Z" stroke-width="2" stroke="#333333"></path><text fill="#333333" font-family="Inter" font-size="10" text-anchor="middle" dominant-baseline="middle" transform="matrix(6.123233995736766e-17,1,-1,6.123233995736766e-17,-1,6.123233995736766e-17)" svgjs:data="{&quot;leading&quot;:&quot;1.3&quot;}"><tspan dy="0" x="0" svgjs:data="{&quot;newLined&quot;:true}">20k</tspan></text><text fill="#333333" font-family="Inter" font-size="10" text-anchor="start" dominant-baseline="text-top" transform="matrix(6.123233995736766e-17,1,-1,6.123233995736766e-17,14.999999999999998,-20)" svgjs:data="{&quot;leading&quot;:&quot;1.3&quot;}"><tspan dy="0" x="0" svgjs:data="{&quot;newLined&quot;:true}">R1</tspan></text></g></g><g transform="matrix(1,0,0,1,140,360)"><g><path d="M 9.999999999999998 -20 L 10.000000000000002 20 L -9.999999999999998 20 L -10.000000000000002 -20 L 9.999999999999998 -20 Z" stroke-width="1" stroke="#333333" fill="#ffffff"></path><path d="M -1.2246467991473533e-15 -20 L -2.4492935982947065e-15 -40 Z M 1.2246467991473533e-15 20 L 2.4492935982947065e-15 40 Z" stroke-width="2" stroke="#333333"></path><text fill="#333333" font-family="Inter" font-size="10" text-anchor="middle" dominant-baseline="middle" transform="matrix(6.123233995736766e-17,1,-1,6.123233995736766e-17,-1,6.123233995736766e-17)" svgjs:data="{&quot;leading&quot;:&quot;1.3&quot;}"><tspan dy="0" x="0" svgjs:data="{&quot;newLined&quot;:true}">20k</tspan></text><text fill="#333333" font-family="Inter" font-size="10" text-anchor="start" dominant-baseline="text-top" transform="matrix(6.123233995736766e-17,1,-1,6.123233995736766e-17,14.999999999999998,-20)" svgjs:data="{&quot;leading&quot;:&quot;1.3&quot;}"><tspan dy="0" x="0" svgjs:data="{&quot;newLined&quot;:true}">R2</tspan></text></g></g><g transform="matrix(1,0,0,1,140,430)"><g><path d="M -10 0 L 10 0 L 0 10 L -10 0 Z" stroke-width="1" stroke="#333333" fill="#ffffff"></path><path d="M 0 0 L 0 -10 Z" stroke-width="2" stroke="#333333"></path><text fill="#333333" font-family="Inter" font-size="10" text-anchor="middle" dominant-baseline="text-top" transform="matrix(1,0,0,1,0,20)" svgjs:data="{&quot;leading&quot;:&quot;1.3&quot;}"><tspan dy="0" x="0" svgjs:data="{&quot;newLined&quot;:true}">GND</tspan></text></g></g><g transform="matrix(1,0,0,1,210,300)"><g><path d="M 2.7554552980815444e-15 -15 L -2.7554552980815444e-15 15 Z" stroke-width="1" stroke="#333333" fill="#ffffff"></path><path d="M 0 0 L -10 -1.8369701987210296e-15 Z" stroke-width="2" stroke="#333333"></path><text fill="#333333" font-family="Inter" font-size="10" text-anchor="middle" dominant-baseline="text-top" transform="matrix(-1.8369701987210297e-16,1,-1,-1.8369701987210297e-16,5,9.184850993605148e-16)" svgjs:data="{&quot;leading&quot;:&quot;1.3&quot;}"><tspan dy="0" x="0" svgjs:data="{&quot;newLined&quot;:true}">out</tspan></text></g></g><g transform="matrix(1,0,0,1,160,530)"><g><path d="M -15 0 L 15 0 Z" stroke-width="1" stroke="#333333" fill="#ffffff"></path><path d="M 0 0 L 0 10 Z" stroke-width="2" stroke="#333333"></path><text fill="#333333" font-family="Inter" font-size="10" text-anchor="middle" dominant-baseline="text-top" transform="matrix(1,0,0,1,0,-5)" svgjs:data="{&quot;leading&quot;:&quot;1.3&quot;}"><tspan dy="0" x="0" svgjs:data="{&quot;newLined&quot;:true}">3v3</tspan></text></g></g><g transform="matrix(1,0,0,1,160,600)"><g><path d="M 9.999999999999998 -20 L 10.000000000000002 20 L -9.999999999999998 20 L -10.000000000000002 -20 L 9.999999999999998 -20 Z" stroke-width="1" stroke="#333333" fill="#ffffff"></path><path d="M -1.2246467991473533e-15 -20 L -2.4492935982947065e-15 -40 Z M 1.2246467991473533e-15 20 L 2.4492935982947065e-15 40 Z" stroke-width="2" stroke="#333333"></path><text fill="#333333" font-family="Inter" font-size="10" text-anchor="middle" dominant-baseline="middle" transform="matrix(6.123233995736766e-17,1,-1,6.123233995736766e-17,-1,6.123233995736766e-17)" svgjs:data="{&quot;leading&quot;:&quot;1.3&quot;}"><tspan dy="0" x="0" svgjs:data="{&quot;newLined&quot;:true}">10k</tspan></text><text fill="#333333" font-family="Inter" font-size="10" text-anchor="start" dominant-baseline="text-top" transform="matrix(6.123233995736766e-17,1,-1,6.123233995736766e-17,14.999999999999998,-20)" svgjs:data="{&quot;leading&quot;:&quot;1.3&quot;}"><tspan dy="0" x="0" svgjs:data="{&quot;newLined&quot;:true}">R3</tspan></text></g></g><g transform="matrix(1,0,0,1,200,630)"><g><path d="M -15 0 L 15 0 Z" stroke-width="1" stroke="#333333" fill="#ffffff"></path><path d="M 0 0 L 0 10 Z" stroke-width="2" stroke="#333333"></path><text fill="#333333" font-family="Inter" font-size="10" text-anchor="middle" dominant-baseline="text-top" transform="matrix(1,0,0,1,0,-5)" svgjs:data="{&quot;leading&quot;:&quot;1.3&quot;}"><tspan dy="0" x="0" svgjs:data="{&quot;newLined&quot;:true}">out</tspan></text></g></g><g><line x1="140" y1="180" x2="140" y2="200" stroke-linecap="square" stroke-width="1" stroke="#008400" fill="none"></line><line x1="160" y1="540" x2="160" y2="560" stroke-linecap="square" stroke-width="1" stroke="#008400" fill="none"></line><line x1="140" y1="280" x2="140" y2="300" stroke-linecap="square" stroke-width="1" stroke="#008400" fill="none"></line><line x1="140" y1="300" x2="140" y2="320" stroke-linecap="square" stroke-width="1" stroke="#008400" fill="none"></line><line x1="140" y1="300" x2="200" y2="300" stroke-linecap="square" stroke-width="1" stroke="#008400" fill="none"></line><line x1="160" y1="640" x2="160" y2="660" stroke-linecap="square" stroke-width="1" stroke="#008400" fill="none"></line><line x1="160" y1="660" x2="200" y2="660" stroke-linecap="square" stroke-width="1" stroke="#008400" fill="none"></line><line x1="200" y1="660" x2="200" y2="640" stroke-linecap="square" stroke-width="1" stroke="#008400" fill="none"></line><circle r="2.5" cx="2.5" cy="2.5" transform="matrix(1,0,0,1,137.5,297.5)" fill="#008400" stroke="none"></circle><line x1="140" y1="400" x2="140" y2="420" stroke-linecap="square" stroke-width="1" stroke="#008400" fill="none"></line></g><g><rect width="360" height="740" fill="none" stroke-width="1" stroke="#111111" transform="matrix(1,0,0,1,0,0)"></rect><rect width="320" height="700" fill="none" stroke-width="1" stroke="#111111" transform="matrix(1,0,0,1,20,20)"></rect><rect width="280" height="660" fill="none" stroke-width="1" stroke="#111111" transform="matrix(1,0,0,1,40,40)"></rect><rect width="240" height="420" fill="none" stroke-width="1" stroke="#111111" transform="matrix(1,0,0,1,60,60)"></rect></g><g transform="matrix(1,0,0,1,180,100)"><g><path d="M0 0 " stroke-width="2" stroke="#333333"></path><text fill="#333333" font-family="Inter-Bold" font-size="16" text-anchor="middle" dominant-baseline="text-top" transform="matrix(1,0,0,1,0,0)" svgjs:data="{&quot;leading&quot;:&quot;1.3&quot;}"><tspan dy="0" x="0" svgjs:data="{&quot;newLined&quot;:true}">Voltage divider circuit</tspan></text></g></g></svg>