<svg xmlns="http://www.w3.org/2000/svg" version="1.1" xmlns:xlink="http://www.w3.org/1999/xlink" xmlns:svgjs="http://svgjs.dev/svgjs" width="370" height="750.5" viewBox="-25 -25.5 370 750.5"><g transform="matrix(1,0,0,1,0,0)"><path d="M -20 -20.5 L -20 720 M 0 -20.5 L 0 720 M 20 -20.5 L 20 720 M 40 -20.5 L 40 720 M 60 -20.5 L 60 720 M 80 -20.5 L 80 720 M 100 -20.5 L 100 720 M 120 -20.5 L 120 720 M 140 -20.5 L 140 720 M 160 -20.5 L 160 720 M 180 -20.5 L 180 720 M 200 -20.5 L 200 720 M 220 -20.5 L 220 720 M 240 -20.5 L 240 720 M 260 -20.5 L 260 720 M 280 -20.5 L 280 720 M 300 -20.5 L 300 720 M 320 -20.5 L 320 720 M 340 -20.5 L 340 720" fill="none" stroke-dasharray="1,19" stroke-width="1" stroke="#aaaaaa"></path></g><g transform="matrix(1,0,0,1,120,150)"><g><path d="M -15 0 L 15 0" stroke-width="1" stroke="#333333" fill="none"></path><path d="M 0 10 L 0 0" stroke-width="2" stroke="#333333"></path><g transform="matrix(1,0,0,1,0,-5)"><text fill="#333333" font-family="Arial" font-size="10" text-anchor="middle" dominant-baseline="text-top" font-weight="regular" transform="matrix(1,0,0,1,0,0)" svgjs:data="{&quot;leading&quot;:&quot;1.3&quot;}"><tspan dy="0" x="0" svgjs:data="{&quot;newLined&quot;:true}">3v3</tspan></text></g></g></g><g transform="matrix(1,0,0,1,120,220)"><g><path d="M 10 -20 L 10 20 L -10 20 L -10 -20 Z" stroke-width="1" stroke="#333333" fill="#ffffff"></path><path d="M 0 -40 L 0 -20" stroke-width="2" stroke="#333333"></path><path d="M 0 40 L 0 20" stroke-width="2" stroke="#333333"></path><g transform="matrix(0,1,-1,0,2,-22)"><text fill="#333333" font-family="Arial" font-size="8" text-anchor="end" dominant-baseline="text-top" font-weight="regular" transform="matrix(1,0,0,1,0,0)" svgjs:data="{&quot;leading&quot;:&quot;1.3&quot;}"><tspan dy="0" x="0" svgjs:data="{&quot;newLined&quot;:true}">1</tspan></text></g><g transform="matrix(0,1,-1,0,2,22)"><text fill="#333333" font-family="Arial" font-size="8" text-anchor="start" dominant-baseline="text-top" font-weight="regular" transform="matrix(1,0,0,1,0,0)" svgjs:data="{&quot;leading&quot;:&quot;1.3&quot;}"><tspan dy="0" x="0" svgjs:data="{&quot;newLined&quot;:true}">2</tspan></text></g><g transform="matrix(0,1,-1,0,-1,0)"><text fill="#333333" font-family="Arial" font-size="10" text-anchor="middle" dominant-baseline="middle" font-weight="regular" transform="matrix(1,0,0,1,0,0)" svgjs:data="{&quot;leading&quot;:&quot;1.3&quot;}"><tspan dy="0" x="0" svgjs:data="{&quot;newLined&quot;:true}">20k</tspan></text></g><g transform="matrix(0,1,-1,0,15,-20)"><text fill="#333333" font-family="Arial" font-size="10" text-anchor="start" dominant-baseline="text-top" font-weight="regular" transform="matrix(1,0,0,1,0,0)" svgjs:data="{&quot;leading&quot;:&quot;1.3&quot;}"><tspan dy="0" x="0" svgjs:data="{&quot;newLined&quot;:true}">R1</tspan></text></g></g></g><g transform="matrix(1,0,0,1,120,340)"><g><path d="M 10 -20 L 10 20 L -10 20 L -10 -20 Z" stroke-width="1" stroke="#333333" fill="#ffffff"></path><path d="M 0 -40 L 0 -20" stroke-width="2" stroke="#333333"></path><path d="M 0 40 L 0 20" stroke-width="2" stroke="#333333"></path><g transform="matrix(0,1,-1,0,2,-22)"><text fill="#333333" font-family="Arial" font-size="8" text-anchor="end" dominant-baseline="text-top" font-weight="regular" transform="matrix(1,0,0,1,0,0)" svgjs:data="{&quot;leading&quot;:&quot;1.3&quot;}"><tspan dy="0" x="0" svgjs:data="{&quot;newLined&quot;:true}">1</tspan></text></g><g transform="matrix(0,1,-1,0,2,22)"><text fill="#333333" font-family="Arial" font-size="8" text-anchor="start" dominant-baseline="text-top" font-weight="regular" transform="matrix(1,0,0,1,0,0)" svgjs:data="{&quot;leading&quot;:&quot;1.3&quot;}"><tspan dy="0" x="0" svgjs:data="{&quot;newLined&quot;:true}">2</tspan></text></g><g transform="matrix(0,1,-1,0,-1,0)"><text fill="#333333" font-family="Arial" font-size="10" text-anchor="middle" dominant-baseline="middle" font-weight="regular" transform="matrix(1,0,0,1,0,0)" svgjs:data="{&quot;leading&quot;:&quot;1.3&quot;}"><tspan dy="0" x="0" svgjs:data="{&quot;newLined&quot;:true}">20k</tspan></text></g><g transform="matrix(0,1,-1,0,15,-20)"><text fill="#333333" font-family="Arial" font-size="10" text-anchor="start" dominant-baseline="text-top" font-weight="regular" transform="matrix(1,0,0,1,0,0)" svgjs:data="{&quot;leading&quot;:&quot;1.3&quot;}"><tspan dy="0" x="0" svgjs:data="{&quot;newLined&quot;:true}">R2</tspan></text></g></g></g><g transform="matrix(1,0,0,1,120,410)"><g><path d="M -10 0 L 10 0 L 0 10 Z" stroke-width="1" stroke="#333333" fill="#ffffff"></path><path d="M 0 -10 L 0 0" stroke-width="2" stroke="#333333"></path><g transform="matrix(1,0,0,1,0,20)"><text fill="#333333" font-family="Arial" font-size="10" text-anchor="middle" dominant-baseline="text-top" font-weight="regular" transform="matrix(1,0,0,1,0,0)" svgjs:data="{&quot;leading&quot;:&quot;1.3&quot;}"><tspan dy="0" x="0" svgjs:data="{&quot;newLined&quot;:true}">GND</tspan></text></g></g></g><g transform="matrix(1,0,0,1,190,280)"><g><path d="M 0 -15 L 0 15" stroke-width="1" stroke="#333333" fill="none"></path><path d="M -10 0 L 0 0" stroke-width="2" stroke="#333333"></path><g transform="matrix(0,1,-1,0,5,0)"><text fill="#333333" font-family="Arial" font-size="10" text-anchor="middle" dominant-baseline="text-top" font-weight="regular" transform="matrix(1,0,0,1,0,0)" svgjs:data="{&quot;leading&quot;:&quot;1.3&quot;}"><tspan dy="0" x="0" svgjs:data="{&quot;newLined&quot;:true}">out</tspan></text></g></g></g><g transform="matrix(1,0,0,1,140,490)"><g><path d="M -15 0 L 15 0" stroke-width="1" stroke="#333333" fill="none"></path><path d="M 0 10 L 0 0" stroke-width="2" stroke="#333333"></path><g transform="matrix(1,0,0,1,0,-5)"><text fill="#333333" font-family="Arial" font-size="10" text-anchor="middle" dominant-baseline="text-top" font-weight="regular" transform="matrix(1,0,0,1,0,0)" svgjs:data="{&quot;leading&quot;:&quot;1.3&quot;}"><tspan dy="0" x="0" svgjs:data="{&quot;newLined&quot;:true}">3v3</tspan></text></g></g></g><g transform="matrix(1,0,0,1,140,560)"><g><path d="M 10 -20 L 10 20 L -10 20 L -10 -20 Z" stroke-width="1" stroke="#333333" fill="#ffffff"></path><path d="M 0 -40 L 0 -20" stroke-width="2" stroke="#333333"></path><path d="M 0 40 L 0 20" stroke-width="2" stroke="#333333"></path><g transform="matrix(0,1,-1,0,2,-22)"><text fill="#333333" font-family="Arial" font-size="8" text-anchor="end" dominant-baseline="text-top" font-weight="regular" transform="matrix(1,0,0,1,0,0)" svgjs:data="{&quot;leading&quot;:&quot;1.3&quot;}"><tspan dy="0" x="0" svgjs:data="{&quot;newLined&quot;:true}">1</tspan></text></g><g transform="matrix(0,1,-1,0,2,22)"><text fill="#333333" font-family="Arial" font-size="8" text-anchor="start" dominant-baseline="text-top" font-weight="regular" transform="matrix(1,0,0,1,0,0)" svgjs:data="{&quot;leading&quot;:&quot;1.3&quot;}"><tspan dy="0" x="0" svgjs:data="{&quot;newLined&quot;:true}">2</tspan></text></g><g transform="matrix(0,1,-1,0,-1,0)"><text fill="#333333" font-family="Arial" font-size="10" text-anchor="middle" dominant-baseline="middle" font-weight="regular" transform="matrix(1,0,0,1,0,0)" svgjs:data="{&quot;leading&quot;:&quot;1.3&quot;}"><tspan dy="0" x="0" svgjs:data="{&quot;newLined&quot;:true}">10k</tspan></text></g><g transform="matrix(0,1,-1,0,15,-20)"><text fill="#333333" font-family="Arial" font-size="10" text-anchor="start" dominant-baseline="text-top" font-weight="regular" transform="matrix(1,0,0,1,0,0)" svgjs:data="{&quot;leading&quot;:&quot;1.3&quot;}"><tspan dy="0" x="0" svgjs:data="{&quot;newLined&quot;:true}">R3</tspan></text></g></g></g><g transform="matrix(1,0,0,1,180,590)"><g><path d="M -15 0 L 15 0" stroke-width="1" stroke="#333333" fill="none"></path><path d="M 0 10 L 0 0" stroke-width="2" stroke="#333333"></path><g transform="matrix(1,0,0,1,0,-5)"><text fill="#333333" font-family="Arial" font-size="10" text-anchor="middle" dominant-baseline="text-top" font-weight="regular" transform="matrix(1,0,0,1,0,0)" svgjs:data="{&quot;leading&quot;:&quot;1.3&quot;}"><tspan dy="0" x="0" svgjs:data="{&quot;newLined&quot;:true}">out</tspan></text></g></g></g><g><line x1="120" y1="160" x2="120" y2="180" stroke-linecap="square" stroke-width="1" stroke="#008400" fill="none"></line><line x1="140" y1="500" x2="140" y2="520" stroke-linecap="square" stroke-width="1" stroke="#008400" fill="none"></line><line x1="120" y1="260" x2="120" y2="280" stroke-linecap="square" stroke-width="1" stroke="#008400" fill="none"></line><line x1="120" y1="280" x2="120" y2="300" stroke-linecap="square" stroke-width="1" stroke="#008400" fill="none"></line><line x1="120" y1="280" x2="180" y2="280" stroke-linecap="square" stroke-width="1" stroke="#008400" fill="none"></line><line x1="140" y1="600" x2="140" y2="620" stroke-linecap="square" stroke-width="1" stroke="#008400" fill="none"></line><line x1="140" y1="620" x2="180" y2="620" stroke-linecap="square" stroke-width="1" stroke="#008400" fill="none"></line><line x1="180" y1="620" x2="180" y2="600" stroke-linecap="square" stroke-width="1" stroke="#008400" fill="none"></line><circle r="2.5" cx="2.5" cy="2.5" transform="matrix(1,0,0,1,117.5,277.5)" fill="rgba(0, 132, 0)" stroke="none"></circle><line x1="120" y1="380" x2="120" y2="400" stroke-linecap="square" stroke-width="1" stroke="#008400" fill="none"></line></g><g><rect width="320" height="700" fill="none" stroke-width="1" stroke="#111111" transform="matrix(1,0,0,1,0,0)"></rect><rect width="280" height="660" fill="none" stroke-width="1" stroke="#111111" transform="matrix(1,0,0,1,20,20)"></rect><rect width="240" height="620" fill="none" stroke-width="1" stroke="#111111" transform="matrix(1,0,0,1,40,40)"></rect><rect width="200" height="400" fill="none" stroke-width="1" stroke="#111111" transform="matrix(1,0,0,1,60,60)"></rect></g><g transform="matrix(1,0,0,1,160,100)"><g><g transform="matrix(1,0,0,1,0,0)"><text fill="#333333" font-family="Arial" font-size="16" text-anchor="middle" dominant-baseline="text-top" font-weight="bold" transform="matrix(1,0,0,1,0,0)" svgjs:data="{&quot;leading&quot;:&quot;1.3&quot;}"><tspan dy="0" x="0" svgjs:data="{&quot;newLined&quot;:true}">Voltage divider circuit</tspan></text></g></g></g></svg>