<svg xmlns="http://www.w3.org/2000/svg" version="1.1" xmlns:xlink="http://www.w3.org/1999/xlink" xmlns:svgjs="http://svgjs.dev/svgjs" width="330" height="650.5" viewBox="-25 -25.5 330 650.5"><g transform="matrix(1,0,0,1,0,0)"><path d="M -20 -20.5 L -20 620 M 0 -20.5 L 0 620 M 20 -20.5 L 20 620 M 40 -20.5 L 40 620 M 60 -20.5 L 60 620 M 80 -20.5 L 80 620 M 100 -20.5 L 100 620 M 120 -20.5 L 120 620 M 140 -20.5 L 140 620 M 160 -20.5 L 160 620 M 180 -20.5 L 180 620 M 200 -20.5 L 200 620 M 220 -20.5 L 220 620 M 240 -20.5 L 240 620 M 260 -20.5 L 260 620 M 280 -20.5 L 280 620 M 300 -20.5 L 300 620" fill="none" stroke-dasharray="1,19" stroke-width="1" stroke="#aaaaaa"></path></g><g transform="matrix(1,0,0,1,20,10)"><g><path d="M -15 0 L 15 0" stroke-width="1" stroke="#333333" fill="none"></path><path d="M 0 10 L 0 0" stroke-width="2" stroke="#333333"></path><g transform="matrix(1,0,0,1,0,-5)"><text fill="#333333" font-family="Arial" font-size="10" text-anchor="middle" dominant-baseline="text-top" font-weight="regular" transform="matrix(1,0,0,1,0,0)" svgjs:data="{&quot;leading&quot;:&quot;1.3&quot;}"><tspan dy="0" x="0" svgjs:data="{&quot;newLined&quot;:true}">VCC</tspan></text></g></g></g><g transform="matrix(1,0,0,1,150,60)"><g><path d="M -70 -40 L 70 -40 L 70 40 L -70 40 Z" stroke-width="1" stroke="#333333" fill="#ffffff"></path><path d="M -70 -25 L -55 -25 L -50 -20 L -55 -15 L -70 -15 Z" stroke-width="1" stroke="#333333" fill="#ffffff"></path><path d="M -65 -5 L -55 -5 L -50 0 L -55 5 L -65 5 L -70 0 Z" stroke-width="1" stroke="#333333" fill="#ffffff"></path><path d="M -70 15 L -50 15 L -50 25 L -70 25 Z" stroke-width="1" stroke="#333333" fill="#ffffff"></path><path d="M 65 -5 L 55 -5 L 50 0 L 55 5 L 65 5 L 70 0 Z" stroke-width="1" stroke="#333333" fill="#ffffff"></path><path d="M 65 15 L 50 15 L 50 25 L 65 25 L 70 20 Z" stroke-width="1" stroke="#333333" fill="#ffffff"></path><path d="M -70 -20 L -70 -20" stroke-width="2" stroke="#333333"></path><path d="M -70 0 L -70 0" stroke-width="2" stroke="#333333"></path><path d="M -70 20 L -70 20" stroke-width="2" stroke="#333333"></path><path d="M 70 0 L 70 0" stroke-width="2" stroke="#333333"></path><path d="M 70 20 L 70 20" stroke-width="2" stroke="#333333"></path><g transform="matrix(1,0,0,1,-46,-20)"><text fill="#333333" font-family="Arial" font-size="10" text-anchor="start" dominant-baseline="middle" font-weight="regular" transform="matrix(1,0,0,1,0,0)" svgjs:data="{&quot;leading&quot;:&quot;1.3&quot;}"><tspan dy="0" x="0" svgjs:data="{&quot;newLined&quot;:true}">signal_a</tspan></text></g><g transform="matrix(1,0,0,1,-46,0)"><text fill="#333333" font-family="Arial" font-size="10" text-anchor="start" dominant-baseline="middle" font-weight="regular" transform="matrix(1,0,0,1,0,0)" svgjs:data="{&quot;leading&quot;:&quot;1.3&quot;}"><tspan dy="0" x="0" svgjs:data="{&quot;newLined&quot;:true}">signal_b</tspan></text></g><g transform="matrix(1,0,0,1,-46,20)"><text fill="#333333" font-family="Arial" font-size="10" text-anchor="start" dominant-baseline="middle" font-weight="regular" transform="matrix(1,0,0,1,0,0)" svgjs:data="{&quot;leading&quot;:&quot;1.3&quot;}"><tspan dy="0" x="0" svgjs:data="{&quot;newLined&quot;:true}">signal_c</tspan></text></g><g transform="matrix(1,0,0,1,46,0)"><text fill="#333333" font-family="Arial" font-size="10" text-anchor="end" dominant-baseline="middle" font-weight="regular" transform="matrix(1,0,0,1,0,0)" svgjs:data="{&quot;leading&quot;:&quot;1.3&quot;}"><tspan dy="0" x="0" svgjs:data="{&quot;newLined&quot;:true}">signal_d</tspan></text></g><g transform="matrix(1,0,0,1,46,20)"><text fill="#333333" font-family="Arial" font-size="10" text-anchor="end" dominant-baseline="middle" font-weight="regular" transform="matrix(1,0,0,1,0,0)" svgjs:data="{&quot;leading&quot;:&quot;1.3&quot;}"><tspan dy="0" x="0" svgjs:data="{&quot;newLined&quot;:true}">signal_e</tspan></text></g></g></g><g transform="matrix(1,0,0,1,20,110)"><g><path d="M -10 0 L 10 0 L 0 10 Z" stroke-width="1" stroke="#333333" fill="#ffffff"></path><path d="M 0 -10 L 0 0" stroke-width="2" stroke="#333333"></path><g transform="matrix(1,0,0,1,0,20)"><text fill="#333333" font-family="Arial" font-size="10" text-anchor="middle" dominant-baseline="text-top" font-weight="regular" transform="matrix(1,0,0,1,0,0)" svgjs:data="{&quot;leading&quot;:&quot;1.3&quot;}"><tspan dy="0" x="0" svgjs:data="{&quot;newLined&quot;:true}">GND</tspan></text></g></g></g><g transform="matrix(1,0,0,1,260,140)"><g><path d="M 10 -20 L 10 20 L -10 20 L -10 -20 Z" stroke-width="1" stroke="#333333" fill="#ffffff"></path><path d="M 0 -40 L 0 -20" stroke-width="2" stroke="#333333"></path><path d="M 0 40 L 0 20" stroke-width="2" stroke="#333333"></path><g transform="matrix(0,1,-1,0,2,-22)"><text fill="#333333" font-family="Arial" font-size="8" text-anchor="end" dominant-baseline="text-top" font-weight="regular" transform="matrix(1,0,0,1,0,0)" svgjs:data="{&quot;leading&quot;:&quot;1.3&quot;}"><tspan dy="0" x="0" svgjs:data="{&quot;newLined&quot;:true}">1</tspan></text></g><g transform="matrix(0,1,-1,0,2,22)"><text fill="#333333" font-family="Arial" font-size="8" text-anchor="start" dominant-baseline="text-top" font-weight="regular" transform="matrix(1,0,0,1,0,0)" svgjs:data="{&quot;leading&quot;:&quot;1.3&quot;}"><tspan dy="0" x="0" svgjs:data="{&quot;newLined&quot;:true}">2</tspan></text></g><g transform="matrix(0,1,-1,0,-1,0)"><text fill="#333333" font-family="Arial" font-size="10" text-anchor="middle" dominant-baseline="middle" font-weight="regular" transform="matrix(1,0,0,1,0,0)" svgjs:data="{&quot;leading&quot;:&quot;1.3&quot;}"><tspan dy="0" x="0" svgjs:data="{&quot;newLined&quot;:true}">5k</tspan></text></g><g transform="matrix(0,1,-1,0,15,-20)"><text fill="#333333" font-family="Arial" font-size="10" text-anchor="start" dominant-baseline="text-top" font-weight="regular" transform="matrix(1,0,0,1,0,0)" svgjs:data="{&quot;leading&quot;:&quot;1.3&quot;}"><tspan dy="0" x="0" svgjs:data="{&quot;newLined&quot;:true}">R1</tspan></text></g></g></g><g transform="matrix(1,0,0,1,260,210)"><g><path d="M -10 0 L 10 0 L 0 10 Z" stroke-width="1" stroke="#333333" fill="#ffffff"></path><path d="M 0 -10 L 0 0" stroke-width="2" stroke="#333333"></path><g transform="matrix(1,0,0,1,0,20)"><text fill="#333333" font-family="Arial" font-size="10" text-anchor="middle" dominant-baseline="text-top" font-weight="regular" transform="matrix(1,0,0,1,0,0)" svgjs:data="{&quot;leading&quot;:&quot;1.3&quot;}"><tspan dy="0" x="0" svgjs:data="{&quot;newLined&quot;:true}">GND</tspan></text></g></g></g><g transform="matrix(1,0,0,1,120,280)"><g><path d="M 0 0 L 0 0" stroke-width="2" stroke="#333333"></path><g transform="matrix(1,0,0,1,-10,1)"><path d="M0 0L47.2509765625 0L47.2509765625 15.171875L0 15.171875L-5 7.5859375Z " stroke-width="1" stroke="#333333" fill="none" transform="matrix(-1,0,0,1,5,-8.4599609375)"></path><text fill="#222222" font-family="Arial" font-size="10" text-anchor="end" dominant-baseline="middle" font-weight="regular" transform="matrix(1,0,0,1,0,0)" svgjs:data="{&quot;leading&quot;:&quot;1.3&quot;}"><tspan dy="0" x="0" svgjs:data="{&quot;newLined&quot;:true}">signal_a</tspan></text></g></g></g><g transform="matrix(1,0,0,1,140,340)"><g><path d="M 10 -20 L 10 20 L -10 20 L -10 -20 Z" stroke-width="1" stroke="#333333" fill="#ffffff"></path><path d="M 0 -40 L 0 -20" stroke-width="2" stroke="#333333"></path><path d="M 0 40 L 0 20" stroke-width="2" stroke="#333333"></path><g transform="matrix(0,1,-1,0,2,-22)"><text fill="#333333" font-family="Arial" font-size="8" text-anchor="end" dominant-baseline="text-top" font-weight="regular" transform="matrix(1,0,0,1,0,0)" svgjs:data="{&quot;leading&quot;:&quot;1.3&quot;}"><tspan dy="0" x="0" svgjs:data="{&quot;newLined&quot;:true}">1</tspan></text></g><g transform="matrix(0,1,-1,0,2,22)"><text fill="#333333" font-family="Arial" font-size="8" text-anchor="start" dominant-baseline="text-top" font-weight="regular" transform="matrix(1,0,0,1,0,0)" svgjs:data="{&quot;leading&quot;:&quot;1.3&quot;}"><tspan dy="0" x="0" svgjs:data="{&quot;newLined&quot;:true}">2</tspan></text></g><g transform="matrix(0,1,-1,0,-1,0)"><text fill="#333333" font-family="Arial" font-size="10" text-anchor="middle" dominant-baseline="middle" font-weight="regular" transform="matrix(1,0,0,1,0,0)" svgjs:data="{&quot;leading&quot;:&quot;1.3&quot;}"><tspan dy="0" x="0" svgjs:data="{&quot;newLined&quot;:true}">1k</tspan></text></g><g transform="matrix(0,1,-1,0,15,-20)"><text fill="#333333" font-family="Arial" font-size="10" text-anchor="start" dominant-baseline="text-top" font-weight="regular" transform="matrix(1,0,0,1,0,0)" svgjs:data="{&quot;leading&quot;:&quot;1.3&quot;}"><tspan dy="0" x="0" svgjs:data="{&quot;newLined&quot;:true}">R2</tspan></text></g></g></g><g transform="matrix(1,0,0,1,160,400)"><g><path d="M 0 0 L 0 0" stroke-width="2" stroke="#333333"></path><g transform="matrix(1,0,0,1,5,1)"><path d="M0 0L47.2509765625 0L52.2509765625 7.5859375L47.2509765625 15.171875L0 15.171875Z " stroke-width="1" stroke="#333333" fill="none" transform="matrix(1,0,0,1,-5,-8.4599609375)"></path><text fill="#222222" font-family="Arial" font-size="10" text-anchor="start" dominant-baseline="middle" font-weight="regular" transform="matrix(1,0,0,1,0,0)" svgjs:data="{&quot;leading&quot;:&quot;1.3&quot;}"><tspan dy="0" x="0" svgjs:data="{&quot;newLined&quot;:true}">signal_e</tspan></text></g></g></g><g transform="matrix(1,0,0,1,140,460)"><g><path d="M 10 -20 L 10 20 L -10 20 L -10 -20 Z" stroke-width="1" stroke="#333333" fill="#ffffff"></path><path d="M 0 -40 L 0 -20" stroke-width="2" stroke="#333333"></path><path d="M 0 40 L 0 20" stroke-width="2" stroke="#333333"></path><g transform="matrix(0,1,-1,0,2,-22)"><text fill="#333333" font-family="Arial" font-size="8" text-anchor="end" dominant-baseline="text-top" font-weight="regular" transform="matrix(1,0,0,1,0,0)" svgjs:data="{&quot;leading&quot;:&quot;1.3&quot;}"><tspan dy="0" x="0" svgjs:data="{&quot;newLined&quot;:true}">1</tspan></text></g><g transform="matrix(0,1,-1,0,2,22)"><text fill="#333333" font-family="Arial" font-size="8" text-anchor="start" dominant-baseline="text-top" font-weight="regular" transform="matrix(1,0,0,1,0,0)" svgjs:data="{&quot;leading&quot;:&quot;1.3&quot;}"><tspan dy="0" x="0" svgjs:data="{&quot;newLined&quot;:true}">2</tspan></text></g><g transform="matrix(0,1,-1,0,-1,0)"><text fill="#333333" font-family="Arial" font-size="10" text-anchor="middle" dominant-baseline="middle" font-weight="regular" transform="matrix(1,0,0,1,0,0)" svgjs:data="{&quot;leading&quot;:&quot;1.3&quot;}"><tspan dy="0" x="0" svgjs:data="{&quot;newLined&quot;:true}">2k</tspan></text></g><g transform="matrix(0,1,-1,0,15,-20)"><text fill="#333333" font-family="Arial" font-size="10" text-anchor="start" dominant-baseline="text-top" font-weight="regular" transform="matrix(1,0,0,1,0,0)" svgjs:data="{&quot;leading&quot;:&quot;1.3&quot;}"><tspan dy="0" x="0" svgjs:data="{&quot;newLined&quot;:true}">R3</tspan></text></g></g></g><g transform="matrix(1,0,0,1,160,520)"><g><path d="M 0 0 L 0 0" stroke-width="2" stroke="#333333"></path><g transform="matrix(1,0,0,1,5,1)"><path d="M0 0L46.689453125 0L46.689453125 15.171875L0 15.171875Z " stroke-width="1" stroke="#333333" fill="none" transform="matrix(1,0,0,1,-5,-8.4599609375)"></path><text fill="#222222" font-family="Arial" font-size="10" text-anchor="start" dominant-baseline="middle" font-weight="regular" transform="matrix(1,0,0,1,0,0)" svgjs:data="{&quot;leading&quot;:&quot;1.3&quot;}"><tspan dy="0" x="0" svgjs:data="{&quot;newLined&quot;:true}">signal_c</tspan></text></g></g></g><g transform="matrix(1,0,0,1,80,580)"><g><path d="M 0 0 L 0 0" stroke-width="2" stroke="#333333"></path><g transform="matrix(1,0,0,1,-10,1)"><path d="M0 0L47.2509765625 0L52.2509765625 7.5859375L47.2509765625 15.171875L0 15.171875L-5 7.5859375Z " stroke-width="1" stroke="#333333" fill="none" transform="matrix(-1,0,0,1,5,-8.4599609375)"></path><text fill="#222222" font-family="Arial" font-size="10" text-anchor="end" dominant-baseline="middle" font-weight="regular" transform="matrix(1,0,0,1,0,0)" svgjs:data="{&quot;leading&quot;:&quot;1.3&quot;}"><tspan dy="0" x="0" svgjs:data="{&quot;newLined&quot;:true}">signal_b</tspan></text></g></g></g><g transform="matrix(1,0,0,1,140,580)"><g><path d="M -20 -10 L 20 -10 L 20 10 L -20 10 Z" stroke-width="1" stroke="#333333" fill="#ffffff"></path><path d="M -40 0 L -20 0" stroke-width="2" stroke="#333333"></path><path d="M 40 0 L 20 0" stroke-width="2" stroke="#333333"></path><g transform="matrix(1,0,0,1,-22,-2)"><text fill="#333333" font-family="Arial" font-size="8" text-anchor="end" dominant-baseline="text-top" font-weight="regular" transform="matrix(1,0,0,1,0,0)" svgjs:data="{&quot;leading&quot;:&quot;1.3&quot;}"><tspan dy="0" x="0" svgjs:data="{&quot;newLined&quot;:true}">1</tspan></text></g><g transform="matrix(1,0,0,1,22,-2)"><text fill="#333333" font-family="Arial" font-size="8" text-anchor="start" dominant-baseline="text-top" font-weight="regular" transform="matrix(1,0,0,1,0,0)" svgjs:data="{&quot;leading&quot;:&quot;1.3&quot;}"><tspan dy="0" x="0" svgjs:data="{&quot;newLined&quot;:true}">2</tspan></text></g><g transform="matrix(1,0,0,1,0,1)"><text fill="#333333" font-family="Arial" font-size="10" text-anchor="middle" dominant-baseline="middle" font-weight="regular" transform="matrix(1,0,0,1,0,0)" svgjs:data="{&quot;leading&quot;:&quot;1.3&quot;}"><tspan dy="0" x="0" svgjs:data="{&quot;newLined&quot;:true}">3k</tspan></text></g><g transform="matrix(1,0,0,1,-20,-15)"><text fill="#333333" font-family="Arial" font-size="10" text-anchor="start" dominant-baseline="text-top" font-weight="regular" transform="matrix(1,0,0,1,0,0)" svgjs:data="{&quot;leading&quot;:&quot;1.3&quot;}"><tspan dy="0" x="0" svgjs:data="{&quot;newLined&quot;:true}">R4</tspan></text></g></g></g><g transform="matrix(1,0,0,1,200,580)"><g><path d="M 0 0 L 0 0" stroke-width="2" stroke="#333333"></path><g transform="matrix(1,0,0,1,10,1)"><path d="M0 0L47.2509765625 0L52.2509765625 7.5859375L47.2509765625 15.171875L0 15.171875L-5 7.5859375Z " stroke-width="1" stroke="#333333" fill="none" transform="matrix(1,0,0,1,-5,-8.4599609375)"></path><text fill="#222222" font-family="Arial" font-size="10" text-anchor="start" dominant-baseline="middle" font-weight="regular" transform="matrix(1,0,0,1,0,0)" svgjs:data="{&quot;leading&quot;:&quot;1.3&quot;}"><tspan dy="0" x="0" svgjs:data="{&quot;newLined&quot;:true}">signal_d</tspan></text></g></g></g><g><line x1="20" y1="20" x2="20" y2="40" stroke-linecap="square" stroke-width="1" stroke="#008400" fill="none"></line><line x1="20" y1="40" x2="80" y2="40" stroke-linecap="square" stroke-width="1" stroke="#008400" fill="none"></line><line x1="120" y1="280" x2="140" y2="280" stroke-linecap="square" stroke-width="1" stroke="#008400" fill="none"></line><line x1="140" y1="280" x2="140" y2="300" stroke-linecap="square" stroke-width="1" stroke="#008400" fill="none"></line><line x1="80" y1="80" x2="20" y2="80" stroke-linecap="square" stroke-width="1" stroke="#008400" fill="none"></line><line x1="20" y1="80" x2="20" y2="100" stroke-linecap="square" stroke-width="1" stroke="#008400" fill="none"></line><line x1="260" y1="180" x2="260" y2="200" stroke-linecap="square" stroke-width="1" stroke="#008400" fill="none"></line><line x1="140" y1="500" x2="140" y2="520" stroke-linecap="square" stroke-width="1" stroke="#008400" fill="none"></line><line x1="140" y1="520" x2="160" y2="520" stroke-linecap="square" stroke-width="1" stroke="#008400" fill="none"></line><line x1="220" y1="80" x2="260" y2="80" stroke-linecap="square" stroke-width="1" stroke="#008400" fill="none"></line><line x1="260" y1="80" x2="260" y2="100" stroke-linecap="square" stroke-width="1" stroke="#008400" fill="none"></line><line x1="140" y1="380" x2="140" y2="400" stroke-linecap="square" stroke-width="1" stroke="#008400" fill="none"></line><line x1="140" y1="400" x2="160" y2="400" stroke-linecap="square" stroke-width="1" stroke="#008400" fill="none"></line><line x1="140" y1="400" x2="140" y2="420" stroke-linecap="square" stroke-width="1" stroke="#008400" fill="none"></line><circle r="2.5" cx="2.5" cy="2.5" transform="matrix(1,0,0,1,137.5,397.5)" fill="rgba(0, 132, 0)" stroke="none"></circle><line x1="80" y1="580" x2="100" y2="580" stroke-linecap="square" stroke-width="1" stroke="#008400" fill="none"></line><line x1="180" y1="580" x2="200" y2="580" stroke-linecap="square" stroke-width="1" stroke="#008400" fill="none"></line></g><g></g></svg>